<?xml version="1.0" encoding="utf-8"?>
<!-- Generator: Adobe Illustrator 22.1.0, SVG Export Plug-In . SVG Version: 6.00 Build 0)  -->
<svg version="1.1" id="圖層_1" xmlns="http://www.w3.org/2000/svg" xmlns:xlink="http://www.w3.org/1999/xlink" x="0px" y="0px"
	 viewBox="0 0 320 180" style="enable-background:new 0 0 320 180;" xml:space="preserve">
<style type="text/css">
	.st0{fill:#ECDEA8;}
	.st1{fill:#E8C48F;}
	.st2{fill:#FFF3DE;}
	.st3{fill:#E83A31;}
	.st4{fill:#F6B400;}
	.st5{fill:#F08702;}
	.st6{fill:#EA5E41;}
	.st7{fill:#EC7053;}
	.st8{fill:#EE7E61;}
	.st9{fill:#E94633;}
	.st10{fill:#EF8A70;}
	.st11{fill:#E72320;}
	.st12{fill:#823D2D;}
	.st13{fill:#643531;}
	.st14{fill:#F6B9AA;}
	.st15{fill:#F3AA9C;}
	.st16{fill:#F3AB9D;}
	.st17{fill:#7C3221;}
	.st18{fill:#5A2722;}
	.st19{fill:#7B3322;}
	.st20{fill:#5D2823;}
	.st21{fill:#5A2925;}
	.st22{fill:#92432A;}
	.st23{fill:#91422A;}
	.st24{fill:#91432A;}
	.st25{fill:#ED7507;}
	.st26{fill:#EE7B0E;}
	.st27{fill:#ED780B;}
	.st28{fill:#EC7102;}
	.st29{fill:#F3AA9B;}
	.st30{fill:#ED7305;}
	.st31{fill:#ED7203;}
	.st32{fill:#F0925C;}
	.st33{fill:#EC6901;}
	.st34{fill:#ED780A;}
	.st35{fill:#EE7E11;}
	.st36{fill:#87412E;}
	.st37{fill:#863F2E;}
	.st38{fill:#EF8116;}
	.st39{fill:#F6B127;}
	.st40{fill:#EF8718;}
	.st41{fill:#AD1F25;}
	.st42{fill:#A01118;}
	.st43{fill:#BA1B21;}
	.st44{fill:#C6151E;}
	.st45{fill:#FEFAEF;}
	.st46{fill:#FEF9EB;}
	.st47{fill:#FEF9EC;}
	.st48{fill:#FEFBF2;}
	.st49{fill:#F8BC02;}
	.st50{fill:#F7B504;}
	.st51{fill:#F7B603;}
	.st52{fill:#FAC300;}
	.st53{fill:#FBCB00;}
	.st54{fill:#FCD100;}
	.st55{fill:#FDD900;}
	.st56{fill:#CC830E;}
	.st57{fill:#C17419;}
	.st58{fill:#D28F09;}
	.st59{fill:#C17418;}
	.st60{fill:#D39330;}
	.st61{fill:#CC830F;}
	.st62{fill:#CC840F;}
	.st63{fill:#73392E;}
	.st64{fill:#76392E;}
	.st65{fill:#7B3A2E;}
	.st66{fill:#72392F;}
	.st67{fill:#CD8614;}
	.st68{fill:#CD8716;}
	.st69{fill:#CA8516;}
	.st70{fill:#CC8510;}
	.st71{fill:#843D2D;}
	.st72{fill:#7F3C2D;}
	.st73{fill:#883F2C;}
	.st74{fill:#F6B401;}
	.st75{fill:#FEF58D;}
	.st76{fill:#ED785B;}
	.st77{fill:#E83D2B;}
	.st78{fill:#EE8469;}
	.st79{fill:#EB664A;}
	.st80{fill:#EB6A4D;}
	.st81{fill:#EA5C40;}
	.st82{fill:#E84C32;}
	.st83{fill:#E84333;}
	.st84{fill:#EF9075;}
	.st85{fill:#E72020;}
	.st86{fill:#FDF13E;}
	.st87{fill:#5B9742;}
	.st88{fill:#609843;}
	.st89{fill:#E60012;}
	.st90{fill:#4A8F39;}
	.st91{fill:#DEEAAE;}
	.st92{fill:#4A8D37;}
	.st93{fill:#D9E69F;}
	.st94{fill:#E2ECB7;}
	.st95{fill:#E5EEC0;}
	.st96{fill:#ED724C;}
	.st97{fill:#D9E69E;}
	.st98{fill:#E0EBB3;}
	.st99{fill:#D5E494;}
	.st100{fill:#52933B;}
	.st101{fill:#D8E69E;}
	.st102{fill:#E4EDBB;}
	.st103{fill:#629B46;}
	.st104{fill:#BDD588;}
	.st105{fill:#C7DB9A;}
	.st106{fill:#D5E394;}
	.st107{fill:#DEEAAC;}
	.st108{fill:#D6E5A2;}
	.st109{fill:#D6E5A1;}
	.st110{fill:#D9E7A5;}
	.st111{fill:#DAE7A9;}
	.st112{fill:#D8E5A2;}
	.st113{fill:#4A8F37;}
	.st114{fill:#DAE8A8;}
	.st115{fill:#D7E5A5;}
	.st116{fill:#ED7506;}
	.st117{fill:#ED7102;}
	.st118{fill:#EB670A;}
	.st119{fill:#EA5E03;}
	.st120{fill:#F4A65B;}
	.st121{fill:#EE8218;}
	.st122{fill:#FEE301;}
	.st123{fill:#FDE61C;}
	.st124{fill:#FEE50D;}
	.st125{fill:#FEF695;}
	.st126{fill:#FEEF61;}
	.st127{fill:#FEE50E;}
	.st128{fill:#FEF590;}
	.st129{fill:#FEF592;}
	.st130{fill:#FEEC45;}
	.st131{fill:#FEEE54;}
	.st132{fill:#FEE410;}
	.st133{fill:#FDE513;}
	.st134{fill:#FDE50D;}
	.st135{fill:#FDE30A;}
	.st136{fill:#FDE414;}
	.st137{fill:#FDE725;}
	.st138{fill:#FEE51C;}
	.st139{fill:#FDE200;}
	.st140{fill:#EC7101;}
	.st141{fill:#EB680E;}
	.st142{fill:#EE7E12;}
	.st143{fill:#F29B20;}
	.st144{fill:#F3991B;}
	.st145{fill:#F29A1D;}
</style>
<g>
	<path class="st0" d="M301.5,180H15c-7.1,0-12.8-5.8-12.8-12.8v-31c0-7.1,5.8-12.8,12.8-12.8h286.6c7.1,0,12.8,5.8,12.8,12.8v31
		C314.4,174.2,308.6,180,301.5,180z"/>
	<g>
		<path class="st1" d="M45.2,99.4c1.2-11.7,2.5-23.4,4-35.1c0.6-4.6,1.1-9.1,1.7-13.7c0.1-1.1,0.3-2.4,0.5-3.6c0-0.8,0-1.6,0-2.2
			c1-14.7,0.8-29.3,1.6-43.8H36.4c-7.5,0-15,7.9-16.7,17.5L0.4,126.2c-1.7,9.6,3,17.5,10.4,17.5h32.4
			C42.5,128.9,43.7,113.9,45.2,99.4z"/>
		<path class="st1" d="M319.5,126.2L300.2,18.5c-1.7-9.6-9.2-17.5-16.7-17.5H35c-10,31.1-14,64-18.1,97.1c-0.6,4.9-2.2,9.1-4.5,12.7
			l2.8,15.4c1.7,9.6,9.2,17.5,16.7,17.5h277.2C316.5,143.6,321.2,135.8,319.5,126.2z"/>
	</g>
</g>
<path class="st2" d="M40.1,17.8C43,14,43,14,47.5,16.5c2.2-2.5,4.7-4,7.4-0.2c1.5-0.8,2.8-2.1,4.2-2.1c1.4,0,2.9,1.3,4.4,2.1
	c3.6-3,3.6-3,7.2,0.1c1.3-0.8,2.6-2,4-2.2c1.3-0.1,2.8,1,4.5,1.7c2.3-1.8,4.9-3,7.5,0.9c2.4-3.6,5.1-3.5,7.7-0.2
	c4.1-3.2,4.1-3.2,8.2,0.1c2.2-2.8,4.8-3.8,7.8,0.2c2.5-3.2,5.3-3.8,8-0.2c4.1-3.4,4.1-3.4,8.3,0.3c-0.9,2.7-1.9,5.4-2.8,8.2
	c-1.3,3-2.7,5.9-3.8,8.9c-1.6,4.6-1.8,9.2,0.8,13.8c0.4,5.6,0.5,11.2,3.7,16.3c0.3,0.8,0.6,1.5,0.8,2.3c1.4,5.1,1,6.2-3.3,8.9
	c-2,1.3-4,2.5-6.1,3.8c2.5,5.9,4.8,11.3,7.1,16.7c0,0.4,0,0.7,0,1.1c-3.6,0.3-7.2,0.8-10.9,0.8c-27.9,0.1-55.8,0.1-83.7,0
	c-2.8,0-5.7-0.6-8.5-0.9c0.7-1.5,1.4-3.1,2.2-4.8c-1.6-1.7-2-3.7-0.1-5.8c0.6-0.6,0.9-2,0.6-2.8c-1.2-2.9,0-4.8,2.4-6.2
	c-2.1-3.2-1.7-5.8,1.6-7.8c-3.2-3.4-1.3-5.5,1.5-7.8c-3.4-3.1-1.9-5.2,1.3-7.3c-1.9-2.2-2.8-4.6-0.3-6.8c0.5-0.4,0.8-1.5,0.6-2
	c-1.3-3-0.5-5.2,2.2-6.8c-1.7-2.5-2.8-4.8,0-6.7c0.1-0.1,0.3-0.3,0.3-0.4c-1.8-4.1,1.7-6.4,2.5-9.6c0.8-3.5,2.2-4.3,5.2-4.1
	c0.2,0.1,0.3,0.3,0.5,0.4C40.4,18.2,40.3,18,40.1,17.8z M90.5,59c0,1.1-0.5,2.5,0,3.4c0.7,1.2,2,2.6,3.2,2.9
	c0.8,0.2,2.2-1.5,2.7-2.6c0.7-1.9-0.5-3.2-2.4-3.6C92.8,58.8,91.6,59,90.5,59c0-0.9,0.1-1.9,0.2-2.9c-0.9,0.2-2,0-2.6,0.5
	c-2.8,2.1-5.4,4.4-8.2,6.8c1,1,1.6,1.8,2.3,2.5c-5.7,0.1-6.5,1.2-4.8,6c-1.9,0.2-3.1,0.8-2.3,3.1c1.3,3.4,2.5,6.8,3.8,10.2
	c2.8-1.1,2.9-1.2,2.3-3.1c-1.2-3.4-2.6-6.8-3.9-10.3c5.2,1,6.4-0.4,4.7-5.9C84.9,63.6,87.7,61.3,90.5,59z M94.2,42.6
	c0.5-2.3-0.5-4.1-2.7-4.7c-0.9-0.3-2.5,0.7-3.2,1.5c-1.7,2,0.3,3.2,1.5,4.6c-0.8,1-1.5,1.9-2.3,2.9c1.3,0.1,2.6,0.7,3.7,0.3
	c3.1-1,6.2-2.4,9.4-3.7C98.3,39.1,96.2,42.4,94.2,42.6z M61.7,46.9c0.8-1.8,1.8-3.8-0.8-4.8c-1.2-0.4-2.8,0.5-4.2,0.8
	c0.5,1.6,1,3.1,1.6,4.6c0.1,0.3,0.9,0.3,1.4,0.5c-0.6,0.8-1.2,1.7-2.2,2.9c5.6,2.3,8.7-2,13.3-2.6c-0.8-1.4-1.3-2.2-1.5-2.6
	C66.5,46.1,64.1,46.5,61.7,46.9z M86.7,28.2c0,0.4-0.1,0.8-0.1,1.1c1.1,0.4,2.4,1.3,3.3,1.1c2.8-0.7,5.6-1.7,8.3-2.7
	c2.3-0.9,1.9-2.4,0.3-4.1C94.4,25.2,90.6,26.7,86.7,28.2z M100.7,46.1c-0.5-0.2-0.9-0.4-1.4-0.6c-0.4,0.9-1.4,1.9-1.2,2.7
	c1.1,3.7,2.6,7.2,3.9,10.8c2.5,0,3.3-0.7,2.3-3C103,52.8,101.9,49.4,100.7,46.1z M81.1,43.7c-1.1-3.3-2.2-6.6-3.4-9.9
	c-0.8-2.3-2-3-3.8-0.9c1.2,3.3,2.4,6.6,3.5,10C78.2,45.3,79.4,45.3,81.1,43.7z M58.5,71c2.3-2.6,4.6-5.2,7-7.8c1.4-1.5,1-3-0.8-3.2
	c-1.4-0.2-3.4,0.7-4.1,1.7c-1.7,2.4-2.8,5.2-4.2,7.9c0.3,0.2,0.7,0.6,1.1,0.9C57.6,70.6,57.9,70.8,58.5,71z M48.1,62.9
	c3.1-2.1,2.6-4.6-2-13.4c-2.3,0-2.7,1.1-1.9,3.1C45.5,55.8,46.7,59.1,48.1,62.9z M92.4,77.8c3.6-1.4,6.8-2.7,10-3.9
	c2.4-0.9,1.9-2.1,0.3-3.7c-4,1.6-7.9,3.1-12,4.8C91.5,76.1,91.9,76.8,92.4,77.8z M63.1,30.1c-2-1-3.2-2.1-3.9-1.9
	c-3.1,1-6.1,2.2-9,3.6c-0.6,0.3-0.8,1.4-1.1,2.1c0.8,0.3,1.8,1,2.4,0.8C55,33.4,58.4,31.9,63.1,30.1z M63.6,87.2
	c-0.3-1-0.2-2.5-0.9-2.9c-3.4-2-7-3.7-10.7-5.6C51.4,82.2,51.4,82.2,63.6,87.2z M65.7,79c1.5-2,3.2-3.4,2.9-4.2
	c-0.4-1.4-2-2.9-3.4-3.3c-0.7-0.2-2.9,1.8-2.9,2.8C62.5,75.6,64.1,76.9,65.7,79z M82.6,50.9c-2-1.5-3.2-3.2-4.3-3.2
	c-1.2,0.1-3,1.5-3.3,2.7c-0.4,2,1.3,3.6,3.3,3.4C79.6,53.7,80.7,52.3,82.6,50.9z M105,34.4c-2.4-1.3-3.9-2.7-5-2.5
	c-1.2,0.2-2.8,2.1-2.7,3.1c0.1,1.1,2.2,3,3.2,2.9C101.9,37.8,103,36.1,105,34.4z M73.2,31.8c-2.2-1.6-3.5-3.3-4.9-3.4
	c-0.9-0.1-2.7,2-2.7,3.2c0,1,1.9,2.8,3.1,3C69.8,34.7,71.1,33.1,73.2,31.8z"/>
<path class="st2" d="M121.1,16.6c2.9-3.8,2.9-3.8,7.4-1.4c2.2-2.5,4.7-4,7.4-0.2c1.5-0.8,2.8-2.1,4.2-2.1c1.4,0,2.9,1.3,4.4,2.1
	c3.6-3,3.6-3,7.2,0.1c1.3-0.8,2.6-2,4-2.2c1.3-0.1,2.8,1,4.5,1.7c2.3-1.8,4.9-3,7.5,0.9c2.4-3.6,5.1-3.5,7.7-0.2
	c4.1-3.2,4.1-3.2,8.2,0.1c2.2-2.8,4.8-3.8,7.8,0.2c2.5-3.2,5.3-3.8,8-0.2c4.1-3.4,4.1-3.4,8.3,0.3c-0.9,2.7-1.9,5.4-2.8,8.2
	c-1.3,3-2.7,5.9-3.8,8.9c-1.6,4.6-1.8,9.2,0.8,13.8c0.4,5.6,0.5,11.2,3.7,16.3c0.3,0.8,0.6,1.5,0.8,2.3c1.4,5.1,1,6.2-3.3,8.9
	c-2,1.3-4,2.5-6.1,3.8c2.5,5.9,4.8,11.3,7.1,16.7c0,0.4,0,0.7,0,1.1c-3.6,0.3-7.2,0.8-10.9,0.8c-27.9,0.1-55.8,0.1-83.7,0
	c-2.8,0-5.7-0.6-8.5-0.9c0.7-1.5,1.4-3.1,2.2-4.8c-1.6-1.7-2-3.7-0.1-5.8c0.6-0.6,0.9-2,0.6-2.8c-1.2-2.9,0-4.8,2.4-6.2
	c-2.1-3.2-1.7-5.8,1.6-7.8c-3.2-3.4-1.3-5.5,1.5-7.8c-3.4-3.1-1.9-5.2,1.3-7.3c-1.9-2.2-2.8-4.6-0.3-6.8c0.5-0.4,0.8-1.5,0.6-2
	c-1.3-3-0.5-5.2,2.2-6.8c-1.7-2.5-2.8-4.8,0-6.7c0.1-0.1,0.3-0.3,0.3-0.4c-1.8-4.1,1.7-6.4,2.5-9.6c0.8-3.5,2.2-4.3,5.2-4.1
	c0.2,0.1,0.3,0.3,0.5,0.4C121.4,16.9,121.3,16.7,121.1,16.6z M171.5,57.7c0,1.1-0.5,2.5,0,3.4c0.7,1.2,2,2.6,3.2,2.9
	c0.8,0.2,2.2-1.5,2.7-2.6c0.7-1.9-0.5-3.2-2.4-3.6C173.8,57.6,172.6,57.8,171.5,57.7c0-0.9,0.1-1.9,0.2-2.9c-0.9,0.2-2,0-2.6,0.5
	c-2.8,2.1-5.4,4.4-8.2,6.8c1,1,1.6,1.8,2.3,2.5c-5.7,0.1-6.5,1.2-4.8,6c-1.9,0.2-3.1,0.8-2.3,3.1c1.3,3.4,2.5,6.8,3.8,10.2
	c2.8-1.1,2.9-1.2,2.3-3.1c-1.2-3.4-2.6-6.8-3.9-10.3c5.2,1,6.4-0.4,4.7-5.9C165.9,62.3,168.7,60,171.5,57.7z M175.2,41.3
	c0.5-2.3-0.5-4.1-2.7-4.7c-0.9-0.3-2.5,0.7-3.2,1.5c-1.7,2,0.3,3.2,1.5,4.6c-0.8,1-1.5,1.9-2.3,2.9c1.3,0.1,2.6,0.7,3.7,0.3
	c3.1-1,6.2-2.4,9.4-3.7C179.3,37.8,177.2,41.1,175.2,41.3z M142.7,45.6c0.8-1.8,1.8-3.8-0.8-4.8c-1.2-0.4-2.8,0.5-4.2,0.8
	c0.5,1.6,1,3.1,1.6,4.6c0.1,0.3,0.9,0.3,1.4,0.5c-0.6,0.8-1.2,1.7-2.2,2.9c5.6,2.3,8.7-2,13.3-2.6c-0.8-1.4-1.3-2.2-1.5-2.6
	C147.5,44.8,145.1,45.2,142.7,45.6z M167.7,26.9c0,0.4-0.1,0.8-0.1,1.1c1.1,0.4,2.4,1.3,3.3,1.1c2.8-0.7,5.6-1.7,8.3-2.7
	c2.3-0.9,1.9-2.4,0.3-4.1C175.4,23.9,171.6,25.4,167.7,26.9z M181.7,44.8c-0.5-0.2-0.9-0.4-1.4-0.6c-0.4,0.9-1.4,1.9-1.2,2.7
	c1.1,3.7,2.6,7.2,3.9,10.8c2.5,0,3.3-0.7,2.3-3C184.1,51.5,182.9,48.1,181.7,44.8z M162.2,42.5c-1.1-3.3-2.2-6.6-3.4-9.9
	c-0.8-2.3-2-3-3.8-0.9c1.2,3.3,2.4,6.6,3.5,10C159.2,44,160.4,44,162.2,42.5z M139.5,69.7c2.3-2.6,4.6-5.2,7-7.8
	c1.4-1.5,1-3-0.8-3.2c-1.4-0.2-3.4,0.7-4.1,1.7c-1.7,2.4-2.8,5.2-4.2,7.9c0.3,0.2,0.7,0.6,1.1,0.9C138.6,69.4,139,69.5,139.5,69.7z
	 M129.1,61.6c3.1-2.1,2.6-4.6-2-13.4c-2.3,0-2.7,1.1-1.9,3.1C126.5,54.6,127.7,57.8,129.1,61.6z M173.5,76.5c3.6-1.4,6.8-2.7,10-3.9
	c2.4-0.9,1.9-2.1,0.3-3.7c-4,1.6-7.9,3.1-12,4.8C172.5,74.8,172.9,75.5,173.5,76.5z M144.1,28.8c-2-1-3.2-2.1-3.9-1.9
	c-3.1,1-6.1,2.2-9,3.6c-0.6,0.3-0.8,1.4-1.1,2.1c0.8,0.3,1.8,1,2.4,0.8C136,32.1,139.4,30.7,144.1,28.8z M144.6,85.9
	c-0.3-1-0.2-2.5-0.9-2.9c-3.4-2-7-3.7-10.7-5.6C132.4,80.9,132.4,80.9,144.6,85.9z M146.7,77.7c1.5-2,3.2-3.4,2.9-4.2
	c-0.4-1.4-2-2.9-3.4-3.3c-0.7-0.2-2.9,1.8-2.9,2.8C143.5,74.3,145.1,75.6,146.7,77.7z M163.6,49.6c-2-1.5-3.2-3.2-4.3-3.2
	c-1.2,0.1-3,1.5-3.3,2.7c-0.4,2,1.3,3.6,3.3,3.4C160.6,52.5,161.7,51,163.6,49.6z M186,33.1c-2.4-1.3-3.9-2.7-5-2.5
	c-1.2,0.2-2.8,2.1-2.7,3.1c0.1,1.1,2.2,3,3.2,2.9C182.9,36.5,184,34.8,186,33.1z M154.2,30.5c-2.2-1.6-3.5-3.3-4.9-3.4
	c-0.9-0.1-2.7,2-2.7,3.2c0,1,1.9,2.8,3.1,3C150.9,33.4,152.1,31.8,154.2,30.5z"/>
<path class="st2" d="M277.3,16.3c0.2-0.1,0.3-0.3,0.5-0.4c3-0.2,4.3,0.7,5.2,4.1c0.8,3.1,4.3,5.5,2.5,9.6c0,0.1,0.2,0.3,0.3,0.4
	c2.7,1.9,1.7,4.2,0,6.7c2.7,1.5,3.5,3.8,2.2,6.8c-0.2,0.5,0.1,1.6,0.6,2c2.5,2.2,1.6,4.6-0.3,6.8c3.2,2.1,4.7,4.2,1.3,7.3
	c2.8,2.3,4.7,4.4,1.5,7.8c3.3,1.9,3.7,4.5,1.6,7.8c2.4,1.5,3.5,3.3,2.4,6.2c-0.3,0.8,0,2.2,0.6,2.8c1.9,2.2,1.5,4.1-0.1,5.8
	c0.8,1.8,1.5,3.3,2.2,4.8c-2.8,0.3-5.7,0.9-8.5,0.9c-27.9,0.1-55.8,0.1-83.7,0c-3.6,0-7.3-0.5-10.9-0.8c0-0.4,0-0.7,0-1.1
	c2.3-5.4,4.6-10.8,7.1-16.7c-2.1-1.3-4.1-2.5-6.1-3.8c-4.3-2.7-4.7-3.8-3.3-8.9c0.2-0.8,0.5-1.5,0.8-2.3c3.2-5.1,3.3-10.7,3.7-16.3
	c2.7-4.6,2.5-9.2,0.8-13.8c-1.1-3-2.5-5.9-3.8-8.9c-0.9-2.7-1.9-5.4-2.8-8.2c4.2-3.8,4.2-3.8,8.3-0.3c2.7-3.6,5.5-3,8,0.2
	c3-4,5.5-3,7.8-0.2c4.1-3.2,4.1-3.2,8.2-0.1c2.6-3.2,5.3-3.3,7.7,0.2c2.6-3.9,5.2-2.6,7.5-0.9c1.7-0.7,3.2-1.8,4.5-1.7
	c1.4,0.1,2.6,1.4,4,2.2c3.6-3.1,3.6-3.1,7.2-0.1c1.5-0.8,3-2.1,4.4-2.1c1.4,0,2.7,1.3,4.2,2.1c2.7-3.8,5.2-2.3,7.4,0.2
	c4.5-2.5,4.5-2.5,7.4,1.4C277.6,16,277.4,16.2,277.3,16.3z M235.8,63.9c-1.6,5.5-0.5,6.9,4.7,5.9c-1.3,3.4-2.7,6.8-3.9,10.3
	c-0.7,1.9-0.6,2,2.3,3.1c1.3-3.4,2.5-6.8,3.8-10.2c0.9-2.3-0.4-2.9-2.3-3.1C242.2,65.1,241.3,64,235.8,63.9c0.6-0.7,1.3-1.5,2.2-2.5
	c-2.8-2.4-5.5-4.7-8.2-6.8c-0.6-0.5-1.7-0.4-2.6-0.5c0.1,1,0.1,2,0.2,2.9c-1.1,0-2.3-0.2-3.4,0c-1.9,0.4-3.1,1.7-2.4,3.6
	c0.4,1.1,1.9,2.8,2.7,2.6c1.2-0.2,2.5-1.7,3.2-2.9c0.5-0.9,0-2.2,0-3.4C230.1,59.3,232.9,61.6,235.8,63.9z M217.2,41.5
	c3.2,1.3,6.2,2.6,9.4,3.7c1.1,0.3,2.5-0.2,3.7-0.3c-0.8-1-1.5-1.9-2.3-2.9c1.2-1.3,3.2-2.6,1.5-4.6c-0.7-0.8-2.3-1.8-3.2-1.5
	c-2.2,0.6-3.2,2.4-2.7,4.7C221.6,40.4,219.6,37.1,217.2,41.5z M248.6,43.7c-0.2,0.4-0.7,1.2-1.5,2.6c4.6,0.7,7.7,4.9,13.3,2.6
	c-0.9-1.2-1.5-2.1-2.2-2.9c0.5-0.2,1.2-0.2,1.4-0.5c0.6-1.5,1.1-3.1,1.6-4.6c-1.4-0.3-3-1.3-4.2-0.8c-2.7,1-1.6,3.1-0.8,4.8
	C253.8,44.5,251.4,44.1,248.6,43.7z M219.4,21.6c-1.6,1.7-2,3.2,0.3,4.1c2.7,1.1,5.4,2.1,8.3,2.7c0.9,0.2,2.2-0.7,3.3-1.1
	c0-0.4-0.1-0.8-0.1-1.1C227.3,24.7,223.4,23.2,219.4,21.6z M213.4,54c-1,2.3-0.1,3,2.3,3c1.3-3.6,2.8-7.2,3.9-10.8
	c0.2-0.7-0.8-1.8-1.2-2.7c-0.5,0.2-0.9,0.4-1.4,0.6C215.9,47.4,214.8,50.8,213.4,54z M240.4,40.9c1.1-3.3,2.3-6.6,3.5-10
	c-1.9-2.2-3-1.4-3.8,0.9c-1.2,3.3-2.3,6.6-3.4,9.9C238.4,43.3,239.6,43.3,240.4,40.9z M260.5,68.4c0.4-0.3,0.8-0.6,1.1-0.9
	c-1.4-2.8-2.5-5.6-4.2-7.9c-0.8-1.1-2.8-1.9-4.1-1.7c-1.9,0.2-2.2,1.8-0.8,3.2c2.4,2.6,4.7,5.3,7,7.8
	C259.9,68.7,260.2,68.6,260.5,68.4z M273.6,50.6c0.8-2,0.5-3.2-1.9-3.1c-4.6,8.8-5,11.3-2,13.4C271.2,57.1,272.3,53.8,273.6,50.6z
	 M227,73c-4.1-1.6-7.9-3.2-12-4.8c-1.6,1.6-2.1,2.9,0.3,3.7c3.2,1.2,6.4,2.5,10,3.9C226,74.8,226.4,74.1,227,73z M266.3,32.6
	c0.6,0.2,1.6-0.5,2.4-0.8c-0.4-0.7-0.5-1.8-1.1-2.1c-2.9-1.3-5.9-2.6-9-3.6c-0.7-0.2-1.9,0.9-3.9,1.9
	C259.4,29.9,262.8,31.4,266.3,32.6z M265.7,76.7c-3.6,1.9-7.2,3.6-10.7,5.6c-0.6,0.4-0.6,1.9-0.9,2.9
	C266.5,80.1,266.5,80.1,265.7,76.7z M255.4,72.2c0-1-2.1-3-2.9-2.8c-1.4,0.4-3,2-3.4,3.3c-0.3,0.9,1.5,2.2,2.9,4.2
	C253.7,74.8,255.4,73.5,255.4,72.2z M239.5,51.9c2,0.2,3.8-1.4,3.3-3.4c-0.2-1.2-2-2.7-3.3-2.7c-1.1,0-2.4,1.7-4.3,3.2
	C237.1,50.3,238.2,51.7,239.5,51.9z M217.4,36c0.9,0.1,3.1-1.8,3.2-2.9c0.1-1.1-1.5-2.9-2.7-3.1c-1.1-0.2-2.6,1.2-5,2.5
	C214.9,34.1,216,35.8,217.4,36z M249.1,32.5c1.2-0.2,3.1-2,3.1-3c0-1.2-1.8-3.2-2.7-3.2c-1.4,0.1-2.7,1.8-4.9,3.4
	C246.7,31.1,248,32.6,249.1,32.5z"/>
<path class="st2" d="M122.7,71.6c-1.6-1.3-3.2-2.5-4.8-3.8c0.9-1.1,1.7-2.2,2.5-3.3c-11.9-0.2-23.7-0.5-35.6-0.8
	c-0.1,0.3-0.4,0.6-0.7,1.1c-2.4,3.4-4.9,6.8-7.4,10.2c-1.8-0.2-2.8-0.8-1.1-3.1c2-2.7,4-5.5,6-8.3c-5.5-0.1-11-0.3-16.4-0.4
	c-3.7,1.7-7.5,3.3-11.3,5c0.3-2.4,0.4-3.1,5.3-5.1c-10.1-0.2-20.2-0.3-30.3-0.2c-0.8,0-1.6,0-2.3-0.1c-0.1,0.2-0.2,0.5-0.3,0.7
	c-2.2,2.9-1.6,4.8,0.2,6.2c-3.2,3.2-3.7,5.8-1.1,7.8c-4.4,3.4-3.2,5.5-1.2,7.8c-4.4,3.1-3.7,5.2-1.2,7.3c-2.7,2.2-4.4,4.6-2.6,6.8
	c0.3,0.4,0.3,1.5-0.1,2c-2.3,3-2.3,5.2-0.1,6.8c-2.6,2.5-4.5,4.8-2.4,6.7c0.1,0.1,0.2,0.3,0.2,0.4c-3.3,4.1-0.5,6.4-0.8,9.6
	c-0.3,3.5,0.7,4.3,3.8,4.1c0.2-0.1,0.4-0.3,0.6-0.4l-0.6,0.5c1.6,3.8,1.6,3.8,6.9,1.4c1.3,2.5,3.4,4,7.3,0.2
	c1.2,0.8,2.1,2.1,3.5,2.1c1.4,0,3.4-1.3,5.1-2.1c2.6,3,2.6,3,7.3-0.1c1,0.8,1.8,2,3.2,2.2c1.2,0.1,3.1-1,5.1-1.7
	c1.6,1.8,3.8,3,7.8-0.9c1.2,3.6,3.9,3.5,7.6,0.2c3,3.2,3,3.2,8.2-0.1c1.3,2.8,3.5,3.8,7.8-0.2c1.4,3.2,4,3.8,7.9,0.2
	c2.9,3.4,2.9,3.4,8.4-0.3c0-2.7,0-5.4,0-8.2c-0.2-3-0.7-5.9-0.7-8.9c-0.1-4.6,1.4-9.2,5.6-13.8c2.3-5.6,4.3-11.2,9.3-16.3
	c0.5-0.8,1.1-1.5,1.6-2.3C126.1,75.4,126.1,74.3,122.7,71.6z M86.6,84.5c1.1-1.2,2.9-2.6,4.2-2.9c0.8-0.2,1.7,1.5,1.8,2.6
	c0.1,1.9-1.6,3.2-3.7,3.6c-1.2,0.2-2.3,0-3.4,0C85.9,86.7,85.9,85.4,86.6,84.5z M85.5,87.9c-0.3,1-0.5,1.9-0.8,2.9
	c-0.8-0.2-2,0-2.4-0.5c-2-2.1-3.9-4.4-5.9-6.8c1.3-1,2.2-1.8,3.1-2.5C81.5,83.3,83.5,85.6,85.5,87.9z M76.8,75c5.5-1,6.1,0.5,2.6,6
	c0,0,0,0,0,0C73.9,80.8,73.4,79.8,76.8,75z M71.6,93c1.2,0.1,1.8,1.6,3.2,3c-2.5,1.5-4.4,3.2-5.4,3.2c-1.2-0.1-2.5-1.5-2.3-2.7
	C67.3,94.4,69.6,92.8,71.6,93z M62.6,72.7c0.5-1.3,2.6-2.6,4.9-4.8c0.8,2,2,3.4,1.5,4.2c-0.9,1.4-3,2.9-4.5,3.3
	C63.7,75.7,62.2,73.7,62.6,72.7z M56.3,76.4c0.3-0.2,0.7-0.3,1.3-0.6c1.4,2.6,2.8,5.2,4.3,7.8c0.9,1.5,0,3-1.9,3.2
	c-1.4,0.2-3.1-0.7-3.6-1.7c-0.9-2.4-1-5.2-1.5-7.9C55.3,77.1,55.8,76.7,56.3,76.4z M37,94.3c2.4-3.2,4.7-6.5,7.4-10.3
	c2.3,2.1,1,4.6-6.6,13.4C35.5,97.5,35.5,96.3,37,94.3z M43.6,118.7c-2.8-1-5.3-2.2-7.8-3.6c-0.5-0.3-0.3-1.4-0.4-2.1
	c0.9-0.3,2.2-1,2.7-0.8c3.1,1.2,6,2.7,10,4.5C45.8,117.9,44.2,118.9,43.6,118.7z M52.7,118.6c-1,0.1-2-2-1.6-3.2
	c0.4-1,2.9-2.8,4.1-3c1.2-0.2,1.9,1.4,3.6,2.7C56.1,116.8,54.2,118.4,52.7,118.6z M52.5,100c0.2,1.8,0.5,3.8-2.5,4.8
	c-1.3,0.4-2.6-0.5-3.9-0.8c1.1-1.6,2.1-3.1,3.2-4.6c0.2-0.3,1-0.3,1.5-0.5c-0.3-0.8-0.7-1.7-1.1-2.9c6.4-2.3,8.1,2,12.4,2.6
	c-1.3,1.4-2,2.2-2.4,2.6C57,100.8,54.8,100.4,52.5,100z M64,113.1c-1.6,2.3-3,3-4.1,0.9c2.3-3.3,4.7-6.6,7-10c1.6-2.4,2.8-2.4,4-0.8
	C68.6,106.5,66.4,109.8,64,113.1z M81.3,123.3c-3.5-1.6-6.8-3.1-10.2-4.6c0.1-0.4,0.2-0.8,0.3-1.1c1.2-0.4,2.8-1.3,3.7-1.1
	c2.6,0.7,5,1.7,7.3,2.7C84.4,120.1,83.5,121.5,81.3,123.3z M79.2,109c-1,0.3-2.2-0.7-2.7-1.5c-1-2,1.4-3.2,3.1-4.6
	c-0.4-1-0.9-1.9-1.3-2.9c1.3-0.1,2.9-0.7,3.8-0.3c2.8,1,5.3,2.4,8.1,3.7c-3.9,4.4-4.8,1.2-6.7,1C83.3,106.6,81.6,108.4,79.2,109z
	 M85.6,115c-1.1-0.2-2.1-2.1-1.6-3.1c0.5-1.1,3.3-3,4.2-2.9c1.3,0.2,1.8,1.9,3.2,3.6C88.7,113.7,86.7,115.2,85.6,115z M98.4,90.9
	c-2.5,3.2-4.7,6.6-7.1,9.9c-0.5,0.2-1.1,0.4-1.6,0.6c-0.1-0.9-0.7-1.9-0.3-2.7c2.4-3.7,5.1-7.2,7.7-10.8
	C99.6,87.9,100.2,88.5,98.4,90.9z M101.6,76.7c-3.5-1.6-6.8-3.1-10.3-4.8c1-1.1,1.7-1.9,2.6-2.9c3.1,1.4,5.9,2.7,8.7,3.9
	C104.7,73.8,103.8,75,101.6,76.7z"/>
<path class="st2" d="M108.1,129.1c-0.2,0.1-0.4,0.3-0.6,0.4c-3.1,0.2-4.1-0.7-3.8-4.1c0.3-3.1-2.5-5.5,0.8-9.6
	c0.1-0.1-0.1-0.3-0.2-0.4c-2.1-1.9-0.3-4.2,2.4-6.7c-2.2-1.5-2.2-3.8,0.1-6.8c0.4-0.5,0.4-1.6,0.1-2c-1.8-2.2-0.1-4.6,2.6-6.8
	c-2.5-2.1-3.2-4.2,1.2-7.3c-2-2.3-3.2-4.4,1.2-7.8c-2.6-1.9-2.1-4.5,1.1-7.8c-1.9-1.5-2.4-3.3-0.2-6.2c0.6-0.8,0.7-2.2,0.4-2.8
	c-1.1-2.2-0.1-4.1,2.1-5.8c-0.2-1.8-0.4-3.3-0.5-4.8c3-0.3,6-0.9,8.9-0.9c27.9-0.1,55.8-0.1,83.7,0c3.6,0,7.1,0.5,10.6,0.8
	c-0.1,0.4-0.3,0.7-0.4,1.1c-4.2,5.4-8.4,10.8-12.9,16.7c1.7,1.3,3.3,2.5,4.8,3.8c3.4,2.7,3.4,3.8,0.2,8.9c-0.5,0.8-1.1,1.5-1.6,2.3
	c-5,5.1-7,10.7-9.3,16.3c-4.2,4.6-5.7,9.2-5.6,13.8c0,3,0.5,5.9,0.7,8.9c0,2.7,0,5.4,0,8.2c-5.5,3.8-5.5,3.8-8.4,0.3
	c-4,3.6-6.5,3-7.9-0.2c-4.4,4-6.6,3-7.8,0.2c-5.2,3.2-5.2,3.2-8.2,0.1c-3.7,3.2-6.4,3.3-7.6-0.2c-3.9,3.9-6.1,2.6-7.8,0.9
	c-2,0.7-3.8,1.8-5.1,1.7c-1.4-0.1-2.2-1.4-3.2-2.2c-4.7,3.1-4.7,3.1-7.3,0.1c-1.8,0.8-3.7,2.1-5.1,2.1c-1.4,0-2.2-1.3-3.5-2.1
	c-4,3.8-6,2.3-7.3-0.2c-5.4,2.5-5.4,2.5-6.9-1.4C107.7,129.5,107.9,129.3,108.1,129.1z M166,81.5c3.5-5.5,2.9-6.9-2.7-5.9
	c2.5-3.4,5-6.8,7.4-10.3c1.3-1.9,1.2-2-1.2-3.1c-2.4,3.4-4.9,6.8-7.3,10.2c-1.7,2.3-0.6,2.9,1.2,3.1C160,80.4,160.5,81.4,166,81.5
	c-0.8,0.7-1.8,1.5-3.1,2.5c2,2.4,3.9,4.7,5.9,6.8c0.5,0.5,1.6,0.4,2.4,0.5c0.3-1,0.5-2,0.8-2.9c1.1,0,2.2,0.2,3.4,0
	c2-0.4,3.7-1.7,3.7-3.6c0-1.1-0.9-2.8-1.8-2.6c-1.3,0.2-3.1,1.7-4.2,2.9c-0.8,0.9-0.8,2.2-1.1,3.4C170.1,86.2,168,83.9,166,81.5z
	 M176.8,103.9c-2.8-1.3-5.3-2.6-8.1-3.7c-1-0.3-2.5,0.2-3.8,0.3c0.4,1,0.9,1.9,1.3,2.9c-1.7,1.3-4.1,2.6-3.1,4.6
	c0.4,0.8,1.7,1.8,2.7,1.5c2.4-0.6,4-2.4,4.3-4.7C172,105.1,173,108.4,176.8,103.9z M146.2,101.8c0.4-0.4,1.2-1.2,2.4-2.6
	c-4.3-0.7-6-4.9-12.4-2.6c0.5,1.2,0.8,2.1,1.1,2.9c-0.5,0.2-1.3,0.2-1.5,0.5c-1.2,1.5-2.2,3.1-3.2,4.6c1.3,0.3,2.6,1.3,3.9,0.8
	c3-1,2.7-3.1,2.5-4.8C141.3,101,143.6,101.4,146.2,101.8z M167.8,123.9c2.2-1.7,3.1-3.2,1.1-4.1c-2.3-1.1-4.7-2.1-7.3-2.7
	c-0.9-0.2-2.4,0.7-3.7,1.1c-0.1,0.4-0.2,0.8-0.3,1.1C161,120.8,164.4,122.3,167.8,123.9z M184.9,91.5c1.8-2.3,1.2-3-1.3-3
	c-2.6,3.6-5.3,7.2-7.7,10.8c-0.5,0.7,0.2,1.8,0.3,2.7c0.5-0.2,1.1-0.4,1.6-0.6C180.2,98.1,182.5,94.7,184.9,91.5z M153.4,104.6
	c-2.3,3.3-4.6,6.6-7,10c1.1,2.2,2.5,1.4,4.1-0.9c2.3-3.3,4.6-6.6,6.8-9.9C156.3,102.2,155.1,102.2,153.4,104.6z M142.8,77
	c-0.5,0.3-1,0.6-1.4,0.9c0.5,2.8,0.6,5.6,1.5,7.9c0.4,1.1,2.1,1.9,3.6,1.7c1.9-0.2,2.8-1.8,1.9-3.2c-1.5-2.6-2.9-5.3-4.3-7.8
	C143.5,76.7,143.2,76.8,142.8,77z M123.6,94.9c-1.5,2-1.6,3.2,0.8,3.1c7.6-8.8,8.9-11.3,6.6-13.4C128.3,88.4,126,91.6,123.6,94.9z
	 M177.9,72.5c3.5,1.6,6.9,3.2,10.3,4.8c2.1-1.6,3-2.9,1-3.7c-2.8-1.2-5.5-2.5-8.7-3.9C179.6,70.7,178.9,71.4,177.9,72.5z
	 M124.7,112.9c-0.5-0.2-1.8,0.5-2.7,0.8c0.1,0.7-0.1,1.8,0.4,2.1c2.5,1.3,5,2.6,7.8,3.6c0.6,0.2,2.1-0.9,4.5-1.9
	C130.6,115.5,127.7,114.1,124.7,112.9z M140.5,68.7c4.3-1.9,8.5-3.6,12.6-5.6c0.7-0.4,1.2-1.9,1.9-2.9
	C140.9,65.3,140.9,65.3,140.5,68.7z M149.2,73.2c-0.4,1,1.1,3,1.9,2.8c1.5-0.4,3.6-2,4.5-3.3c0.6-0.9-0.7-2.2-1.5-4.2
	C151.8,70.6,149.7,71.9,149.2,73.2z M158.1,93.6c-2-0.2-4.2,1.4-4.5,3.4c-0.2,1.2,1.1,2.7,2.3,2.7c1.1,0,3-1.7,5.4-3.2
	C160,95.2,159.4,93.7,158.1,93.6z M174.8,109.5c-0.9-0.1-3.7,1.8-4.2,2.9c-0.5,1.1,0.5,2.9,1.6,3.1c1,0.2,3-1.2,5.8-2.5
	C176.6,111.4,176.1,109.7,174.8,109.5z M141.8,113c-1.2,0.2-3.8,2-4.1,3c-0.4,1.2,0.6,3.2,1.6,3.2c1.4-0.1,3.3-1.8,6.1-3.4
	C143.8,114.4,143,112.8,141.8,113z"/>
<path class="st2" d="M299.6,128.3c-1.6,3.8-1.6,3.8-6.9,1.4c-1.3,2.5-3.4,4-7.3,0.2c-1.2,0.8-2.1,2.1-3.5,2.1
	c-1.4,0-3.4-1.3-5.1-2.1c-2.6,3-2.6,3-7.3-0.1c-1,0.8-1.8,2-3.2,2.2c-1.2,0.1-3.1-1-5.1-1.7c-1.6,1.8-3.8,3-7.8-0.9
	c-1.2,3.6-3.9,3.5-7.6,0.2c-3,3.2-3,3.2-8.2-0.1c-1.3,2.8-3.5,3.8-7.8-0.2c-1.4,3.2-4,3.8-7.9,0.2c-2.9,3.4-2.9,3.4-8.4-0.3
	c0-2.7,0-5.4,0-8.2c0.2-3,0.7-5.9,0.7-8.9c0.1-4.6-1.4-9.2-5.6-13.8c-2.3-5.6-4.3-11.2-9.3-16.3c-0.5-0.8-1.1-1.5-1.6-2.3
	c-3.2-5.1-3.1-6.2,0.2-8.9c1.6-1.3,3.2-2.5,4.8-3.8c-4.6-5.9-8.7-11.3-12.9-16.7c-0.1-0.4-0.3-0.7-0.4-1.1c3.5-0.3,7-0.8,10.6-0.8
	c27.9-0.1,55.7-0.1,83.7,0c2.8,0,5.9,0.6,8.9,0.9c-0.2,1.5-0.3,3.1-0.5,4.8c2.2,1.7,3.2,3.7,2.1,5.8c-0.3,0.6-0.2,2,0.4,2.8
	c2.2,2.9,1.6,4.8-0.2,6.2c3.2,3.2,3.7,5.8,1.1,7.8c4.4,3.4,3.2,5.5,1.2,7.8c4.4,3.1,3.7,5.2,1.2,7.3c2.7,2.2,4.4,4.6,2.6,6.8
	c-0.3,0.4-0.3,1.5,0.1,2c2.3,3,2.3,5.2,0.1,6.8c2.6,2.5,4.5,4.8,2.4,6.7c-0.1,0.1-0.2,0.3-0.2,0.4c3.3,4.1,0.5,6.4,0.8,9.6
	c0.3,3.5-0.7,4.3-3.8,4.1c-0.2-0.1-0.4-0.3-0.6-0.4C299.2,128,299.4,128.2,299.6,128.3z M235,87.2c-0.3-1.1-0.3-2.5-1.1-3.4
	c-1.1-1.2-2.9-2.6-4.2-2.9c-0.8-0.2-1.7,1.5-1.8,2.6c-0.1,1.9,1.6,3.2,3.7,3.6C232.8,87.3,233.9,87.1,235,87.2
	c0.3,0.9,0.6,1.9,0.8,2.9c0.8-0.2,2,0,2.4-0.5c2-2.1,3.9-4.4,5.9-6.8c-1.3-1-2.2-1.8-3.2-2.5c5.6-0.1,6.1-1.2,2.7-6
	c1.8-0.2,2.9-0.8,1.2-3.1c-2.5-3.4-4.9-6.8-7.3-10.2c-2.4,1.1-2.5,1.2-1.2,3.1c2.4,3.4,4.9,6.8,7.4,10.3c-5.6-1-6.2,0.4-2.7,5.9
	C239.1,82.5,237.1,84.9,235,87.2z M237,103.6c0.3,2.3,1.9,4.1,4.3,4.7c1,0.3,2.2-0.7,2.7-1.5c1-2-1.4-3.2-3.1-4.6
	c0.4-1,0.9-1.9,1.3-2.9c-1.3-0.1-2.9-0.7-3.8-0.3c-2.8,1-5.3,2.4-8.1,3.7C234.2,107.1,235.1,103.8,237,103.6z M268,99.3
	c-0.2,1.8-0.5,3.8,2.5,4.8c1.3,0.4,2.6-0.5,3.9-0.8c-1.1-1.6-2.1-3.1-3.2-4.6c-0.2-0.3-1-0.3-1.5-0.5c0.3-0.8,0.7-1.7,1.1-2.9
	c-6.4-2.3-8.1,2-12.4,2.6c1.3,1.4,2,2.2,2.4,2.6C263.5,100,265.8,99.7,268,99.3z M249.5,118c-0.1-0.4-0.2-0.8-0.3-1.1
	c-1.2-0.4-2.8-1.3-3.7-1.1c-2.6,0.7-5,1.7-7.3,2.7c-2,0.9-1.1,2.4,1.1,4.1C242.8,121,246.1,119.5,249.5,118z M229.3,100
	c0.5,0.2,1.1,0.4,1.6,0.6c0.1-0.9,0.7-1.9,0.3-2.7c-2.4-3.7-5.1-7.2-7.7-10.8c-2.5,0-3.1,0.7-1.3,3C224.7,93.4,226.9,96.7,229.3,100
	z M249.7,102.4c2.3,3.3,4.5,6.6,6.8,9.9c1.6,2.3,3,3,4.1,0.9c-2.3-3.3-4.7-6.6-7-10C252.1,100.9,250.9,100.9,249.7,102.4z
	 M262.9,75.2c-1.4,2.6-2.8,5.2-4.3,7.8c-0.9,1.5,0,3,1.9,3.2c1.4,0.2,3.1-0.7,3.6-1.7c0.9-2.4,1-5.2,1.5-7.9
	c-0.4-0.2-0.9-0.6-1.4-0.9C263.9,75.5,263.6,75.4,262.9,75.2z M276.2,83.3c-2.3,2.1-1,4.6,6.6,13.4c2.4,0,2.3-1.1,0.8-3.1
	C281.1,90.3,278.8,87,276.2,83.3z M226.6,68.3c-3.1,1.4-5.9,2.7-8.7,3.9c-2.1,0.9-1.2,2.1,1,3.7c3.5-1.6,6.8-3.1,10.3-4.8
	C228.2,70,227.5,69.3,226.6,68.3z M272.4,116.1c2.4,1,3.9,2.1,4.5,1.9c2.8-1,5.3-2.2,7.8-3.6c0.5-0.3,0.3-1.4,0.4-2.1
	c-0.9-0.3-2.2-1-2.7-0.8C279.4,112.8,276.5,114.2,272.4,116.1z M252.2,59c0.6,1,1.1,2.5,1.9,2.9c4.1,2,8.3,3.7,12.6,5.6
	C266.2,64,266.2,64,252.2,59z M253,67.2c-0.8,2-2,3.4-1.5,4.2c0.9,1.4,3,2.9,4.5,3.3c0.8,0.2,2.3-1.8,1.9-2.8
	C257.4,70.6,255.3,69.3,253,67.2z M245.7,95.3c2.5,1.5,4.4,3.2,5.4,3.2c1.2-0.1,2.5-1.5,2.3-2.7c-0.3-2-2.5-3.6-4.5-3.4
	C247.7,92.4,247.2,93.9,245.7,95.3z M229.1,111.8c2.8,1.3,4.8,2.7,5.8,2.5c1.1-0.2,2.1-2.1,1.6-3.1c-0.5-1.1-3.3-3-4.2-2.9
	C231,108.4,230.5,110,229.1,111.8z M261.7,114.4c2.8,1.6,4.7,3.3,6.1,3.4c1,0.1,2-2,1.6-3.2c-0.4-1-2.9-2.8-4.1-3
	C264.1,111.5,263.3,113,261.7,114.4z"/>
<path class="st2" d="M223,121.8c-2.2-1-4.4-2-6.6-3c0.1-0.4,0.2-0.8,0.3-1.1c1.2-0.4,2.8-1.3,3.7-1.1c1.3,0.3,2.6,0.8,3.9,1.3
	c0.3-1,0.8-2.2,0.9-2.7c0.1-0.6,0.3-1.3,0.4-1.9c0.1-1.5,0.3-3.1,0.4-4.6c-0.4,0.2-0.9,0.4-1.3,0.5c-1,0.3-2.2-0.7-2.7-1.5
	c-1-2,1.4-3.2,3.1-4.6c-0.4-1-0.9-1.9-1.3-2.9c1.1-0.1,2.5-0.5,3.4-0.4c0.1-1,0.3-2,0.4-3c0.3-1.8,0.5-3.5,0.8-5.3
	c0-0.2,0-0.5,0.1-0.7c-0.3-0.1-0.6-0.1-0.8-0.3c-2-2.1-3.9-4.4-5.9-6.8c1.3-1,2.2-1.8,3.1-2.5c1.3,1.5,2.7,3,4,4.6
	c0.1-1.3,0.1-2.6,0-3.9c0-0.3,0-0.6,0-0.9c0-0.2-0.1-0.5-0.2-0.8c-0.4-1.6-0.6-3.1-0.7-4.7c-0.4,0-0.9,0-1.3,0
	c0.7,0.8,0.1,2.6-1.9,5.7c0,0,0,0,0,0c-5.5-0.1-6-1.2-2.8-5.8c-3.6-0.1-7.1-0.2-10.7-0.4c-0.5,0.3-1,0.5-1.5,0.7
	c-0.4,0.1-0.9-0.3-1.3-0.8c-4.4-0.3-8.7-0.7-13-1.2c-2.4,13.7-4.4,27.5-6.4,41.3c1.3,0.6,2.8,1.3,4.4,2.1c-2.4,1-3.9,2.1-4.5,1.9
	c-0.1,0-0.3-0.1-0.4-0.2c-0.6,4.4-1.3,8.9-1.9,13.3c0.8-0.4,1.7-0.9,2.5-1.2c2.6,3,2.6,3,7.3-0.1c1,0.8,1.8,2,3.2,2.2
	c1.2,0.1,3.1-1,5.1-1.7c1.6,1.8,3.8,3,7.8-0.9c1.2,3.6,3.9,3.5,7.6,0.2c0.7,0.8,1.3,1.4,1.8,1.7C221.4,128.6,221.9,125.2,223,121.8z
	 M216.9,93.2c1.2,0.1,1.8,1.6,3.2,3c-2.5,1.5-4.4,3.2-5.4,3.2c-1.2-0.1-2.5-1.5-2.3-2.7C212.6,94.6,214.9,92.9,216.9,93.2z
	 M201.6,76.6c0.3-0.2,0.7-0.3,1.3-0.6c1.4,2.6,2.8,5.2,4.3,7.8c0.9,1.5,0,3-1.9,3.2c-1.4,0.2-3.1-0.7-3.6-1.7
	c-0.9-2.4-1-5.2-1.5-7.9C200.6,77.2,201.1,76.9,201.6,76.6z M198,118.7c-1,0.1-2-2-1.6-3.2c0.4-1,2.9-2.8,4.1-3
	c1.2-0.2,1.9,1.4,3.6,2.7C201.4,116.9,199.4,118.6,198,118.7z M197.8,100.1c0.2,1.8,0.5,3.8-2.5,4.8c-1.3,0.4-2.6-0.5-3.9-0.8
	c1.1-1.6,2.1-3.1,3.2-4.6c0.2-0.3,1-0.3,1.5-0.5c-0.3-0.8-0.7-1.7-1.1-2.9c6.4-2.3,8.1,2,12.4,2.6c-1.3,1.4-2,2.2-2.4,2.6
	C202.3,100.9,200.1,100.5,197.8,100.1z M209.3,113.2c-1.6,2.3-3,3-4.1,0.9c2.3-3.3,4.7-6.6,7-10c1.6-2.4,2.8-2.4,4-0.8
	C213.9,106.6,211.6,109.9,209.3,113.2z"/>
<path class="st2" d="M275.8,123.6h-231c-5.2,0-9.4-4.2-9.4-9.4V28.5c0-5.2,4.2-9.4,9.4-9.4h231c5.2,0,9.4,4.2,9.4,9.4v85.7
	C285.1,119.4,280.9,123.6,275.8,123.6z"/>
<g>
	<g>
		<path class="st3" d="M79,103c-2.5,1.3-3.1-0.6-3.9-2.2c1-0.9,2.1-1.8,3.1-2.7c1.4,0.2,1.6,1.2,1.6,2.3
			C79.6,101.3,79.3,102.2,79,103z"/>
		<g>
			<path class="st4" d="M71.3,115.1c-0.3,3.1-2.8,4.7-4.6,6.6c-4.9,1.1-9.3,3.6-13.6,6c-3.8,2.2-8,2.8-12.1,2.5
				c-7.5-0.5-14.9-2-21.5-5.9c-2.7-1.6-4.2-4.2-5.6-6.8c-0.1-4,2.7-7,6.7-8c6.2-1.4,12.1,0.3,17.9,1.5c6.3,1.3,12.2,1.1,18-1.2
				c4.2-1.7,8.3-1.4,12.5-1c0.8-0.2,1.4,0.1,2,0.6c0.3,0.2,0.5,0.5,0.8,0.8C72.9,112,72.4,113.6,71.3,115.1z"/>
			<path class="st5" d="M13.9,117.6c0.4,0.2,1.1,0.2,1.3,0.5c3.7,7,10.6,8.6,17.5,10c3.7,0.8,7.4,1.4,11.3,1.2
				c4.7-0.2,8.5-2.4,12.5-4.5c3.2-1.6,6.2-4.3,10.3-3.2c-4.8,5.3-11,8.3-17.8,10.1c-7.3,1.9-14.6,2.3-21.9,0.5
				c-6.1-1.5-10.6-5-13-11C13.5,120.2,13.1,118.9,13.9,117.6z"/>
			<path class="st6" d="M82.2,111.9c-0.5,0.7-1,1.2-1.9,1.3c-3.1-0.8-5.9-2.1-6.2-5.8c-0.1-0.8-0.4-1.4-1.1-1.7
				c-2.9-1.4-1-2.4,0.2-3.5c0.5-0.6,1-1.2,1.9-1.3c1.1,1,2.5,1.6,3.9,2.2c0.3,1.5-1.3,2.8-0.6,4.3C79.2,109.2,82.2,109.3,82.2,111.9
				z"/>
			<path class="st7" d="M73.2,102.1c-0.5,1-2.3,2.3,0.6,2.6c0.5,0.1,1.5,1.1,1.4,1.4c-1.3,4.5,3.2,4.8,5,7.1c-0.5,0.7-1.2,0.9-2,1.1
				c-4.1-1.3-5.7-5.1-8.2-8C70.5,104.4,71.5,103,73.2,102.1z"/>
			<path class="st8" d="M70.1,106.3c1.4,0.3,2.6,0.6,3,2.5c0.6,2.7,4.1,3,5.2,5.5c-0.6,0.4-1.2,0.6-1.9,0.4c-2-0.9-3.4-2.6-5.1-3.9
				c-0.2-0.2-0.4-0.3-0.6-0.5c0-1.2-0.9-2.2-1-3.4C69.7,106.6,69.9,106.4,70.1,106.3z"/>
			<path class="st9" d="M82.2,111.9c-1.4-1.1-2.7-2.3-4.1-3.4c-1-0.7,0-0.8,0.3-1.1c1.4,0.1,2.9,0.3,4.3,0.4c0.6,0.8,1.8,1,1.8,2.2
				C83.9,110.9,83.2,111.5,82.2,111.9z"/>
			<path class="st10" d="M71.3,110.7c2.4,0.3,3.9,1.9,5.1,3.9c-1.6,0.8-3.5-0.7-5.1,0.5C71.6,113.7,72.1,112.2,71.3,110.7z"/>
			<path class="st10" d="M69.7,106.9c1.2,0.9,2.5,1.7,1,3.4c-0.6-0.4-1.2-0.9-1.8-1.3C69.2,108.3,69.5,107.6,69.7,106.9z"/>
			<path class="st11" d="M84.5,110c-0.7-0.7-1.8-1-1.8-2.2c1.1,0,2.5-0.5,3.2,0.5C86.3,109.1,85,109.5,84.5,110z"/>
		</g>
	</g>
	<g>
		<path class="st12" d="M239.5,44.1c0.1-8.3,6.8-13.3,12.8-13.5c1,0.1,2,0.2,3.1,0c2.5-0.3,4.6,1.2,6.8,1.9c2.3,0.6,4.1,1.7,4.3,4.3
			c3.4,4.6,2.5,9.5,0.9,14.5c-0.9,2.7-3,4.2-5.2,5.7c-2.5-0.5-5.1-0.4-7.6-0.6C246.6,55.8,241.7,51.6,239.5,44.1z"/>
		<path class="st12" d="M289.1,25.7c-0.6,4.3-1.7,8.3-6,10.5c-3.2-0.4-6.5-0.3-9.7-0.6c-6.3-0.7-10.3-4.4-12.6-10.1
			c-0.5-0.7-0.2-1.5-0.5-2.2c-0.2-10.5,12.4-16.6,20.9-11.9c1.2,0.7,2.4,1.4,3.7,2.2c1.6,0.4,2.1,1.6,2.4,3c0.5,1.7,2.2,2.9,1.9,4.9
			C288.7,22.8,289.4,24.2,289.1,25.7z"/>
		<path class="st13" d="M239.5,44.1c2,1.6,2.3,4.2,3.8,6.1c3.7,4.7,8.9,5.1,14.1,5.6c1.6,0.1,3.5-0.8,4.7,1.2c-1.5,2.1-4,2-6.2,2.5
			c-1.2-0.1-2.5-0.1-3.7,0c-2.4,0.6-4.1-1.3-6.2-1.9c-1.2-0.2-2.4-0.6-2.9-1.8C241.3,52.1,238.8,48.6,239.5,44.1z"/>
		<path class="st13" d="M260.9,25c0.5,0.6,1.1,1.2,1.5,1.9c2.9,6.2,8.2,8.1,14.5,7.9c2.1,0,4.3-0.3,6.1,1.2c-3.3,2.8-7,3.8-11.2,2.5
			c0.2-0.4,0.6-0.2,0.9-0.4c-0.6,0.2-1.4-0.2-2,0.4c-1.7,0.2-2.6-1.8-4.3-1.7c-1.1-1.8-2.7-3-4.3-4.3c-0.9-2-1.7-4-1.9-6.2
			C260.7,26,260.5,25.3,260.9,25z"/>
		<path class="st14" d="M288,5.4c3.7-3.6,7.6-2.6,9.2,2.5c-0.4,2.3-0.8,4.8-3.9,5c-2.3,0.2-4.2-0.7-5.2-3
			C287.3,8.4,287.6,6.9,288,5.4z"/>
		<path class="st15" d="M288,5.4c1,0.9,0.2,2.1,0.4,3.1c0.5,2.5,2,3.4,4.2,3.6c2.3,0.2,3.6-1,4-3.3c0.1-0.4,0.4-0.7,0.6-1
			c0.2,4.8-2,6.9-6.6,6.3c-2-0.3-2.8,0.8-3.4,2.4c-0.8-1-1.6-2-2.4-3c1.5-0.9,2.3-2,1.9-3.9C286.4,8.1,286.6,6.5,288,5.4z"/>
		<path class="st16" d="M243.2,55.7c1,0.6,1.9,1.2,2.9,1.8c-1.8,1.6-3.5,3.4-5.5,4.9c-0.9,0.7-2,1.5-3.6,1.2
			C237.8,59.9,240.6,57.9,243.2,55.7z"/>
		<path class="st17" d="M289.1,25.7c-0.8-1.4-0.8-2.9,0.1-4.3C289.5,22.8,290.1,24.2,289.1,25.7z"/>
		<path class="st18" d="M252.3,59.5c1.2-0.9,2.5-0.9,3.7,0C254.8,60,253.5,60.1,252.3,59.5z"/>
		<path class="st19" d="M255.4,30.6c-1,0.9-2,0.9-3.1,0C253.3,30,254.4,29.8,255.4,30.6z"/>
		<path class="st20" d="M260.9,25c0,0.5-0.1,1-0.6,1.2c-0.3-1-0.6-2,0-3.1C261,23.6,260.9,24.4,260.9,25z"/>
		<path class="st21" d="M270.7,38.6c0.7-0.9,1.5-0.5,2.4-0.6c-0.3,0.9-1,0.4-1.4,0.7C271.5,38.6,271.1,38.6,270.7,38.6z"/>
		<path class="st22" d="M265,37.1c0,0.9-0.5,1.3-1,1.7c-0.6,0.5-1.1,0.3-1.6-0.2c-0.9-0.9-1.8-1.7-2.9-2.2c-3-1.4-5.8-2.6-8.5,0.6
			c-0.8,1-2.2,1.5-3.4,2c-0.9,0.5-1.8,0.2-2.3-0.8c-0.4-0.8-0.6-2,0.2-2.1c3.6-0.7,6.1-4.7,10.4-3.6c2.8,0.8,5.8,1.2,8,3.4
			C264.4,36.2,264.7,36.7,265,37.1z"/>
		<path class="st23" d="M266.4,46.9c-0.4,1.9-1.8,3.2-3.4,4.4c-0.4,0.3-1,0.2-1.4-0.1c-0.6-0.4-0.4-0.9,0-1.3c1.3-1,1.7-2.4,2.3-3.8
			c0.3-0.7,0.7-1.3,1.6-1C266.3,45.3,266.4,46,266.4,46.9z"/>
		<path class="st22" d="M276.2,11.6c2.4,0.3,5.5,1.6,8.4,3.3c1,0.6,1.1,1.7,0.5,2.7c-0.8,1.1-1.8,0.8-2.6-0.1c-1-1.1-2.1-2-3.5-2.4
			c-2.5-0.7-5-1.8-7.1,1c-0.3,0.5-1,0.8-1.5,1c-1.3,0.5-2.8,2.8-4.1,0.6c-1.4-2.4,1.1-2.7,2.6-3.4C271,13.3,272.7,11.4,276.2,11.6z"
			/>
		<path class="st24" d="M287,26c-0.2,1.7-1,3-2.2,4c-0.7,0.6-1.8,1.1-2.5,0.4c-0.9-0.9,0.5-1.3,0.8-2c0.5-1,1.1-2,1.6-3
			c0.3-0.6,0.6-1.5,1.5-1.2C286.9,24.4,286.8,25.4,287,26z"/>
	</g>
	<g>
		<path class="st25" d="M292.4,134.6c-3,0-5.4-1.3-7.8-2.9c-0.3-0.2-1-1.8-1.6-0.1c-1.4,0.1-1-1.8-2.3-2c-1.7-0.3-3.3-0.8-4.8,0.3
			c-1.5-0.9-1.1-2.5-1.4-3.9c-1.3,0-2.4,1.4-3.9,0.8c-1.9-1.3-2-3.9-3.8-5.3c-0.2-0.2-0.3-0.3-0.4-0.5c-2.1-1.6-2.6-4.2-3-6.5
			c-0.2-1-1-1.9-0.7-2.9c1.8,1.5,3.8,0.9,5.8,0.5c0.6,0.2,0.7,0.8,0.8,1.4c1.8,8.6,9,13.2,18.6,10.8c0.7-0.2,1.3-0.7,2-0.3
			c0.7,1.9,1.3,3.9,3.5,4.7c-2.2,0.3-4,1.5-6,2.3c-1.4,0.6-2.4-0.1-3.4-0.8c2.1,1,4.3,2,6.4,2.9
			C291.2,133.5,292.1,133.6,292.4,134.6z"/>
		<path class="st25" d="M277.8,97.1c2.6-5.1,8.1-7.4,13.4-5.6c1.3,0.8,2.7,1.6,4.1,2.3c5.7,4.7,5.3,14.6-0.8,18.2
			c-0.2-0.5-0.1-1,0.1-1.5c0.8-1.5,1.7-2.9,0.8-4.7c-0.2-0.5-0.1-1.1,0.3-1.5c0.1-0.1,0.5-0.1,0.2-0.2c-2.2-1.1-3.7-3-5.7-4.5
			c-3.2-2.4-6.7-2.9-10.5-1.6c-1.4,0.5-1.7,1.8-2.4,2.8c-0.4,0.4-0.8,1.1-1.6,0.7c0.1-0.2,0.2-0.5,0.3-0.7
			C276.4,99.4,277.6,98.5,277.8,97.1z"/>
		<path class="st26" d="M295.3,110.6c-0.2,0.4-0.5,0.9-0.7,1.3c-0.5,0.6-0.2,1.8-1.5,1.8c-1.9,2.1-3.1,4.7-3.9,7.4
			c-0.2,0.6-0.4,0.9-0.8,1c-2.3,0.4-4.5,1.2-6.8,0.9c-5.1-0.8-8.1-4.1-9.9-8.7c-0.4-1.1-1-2.1-1.2-3.3c3.1-2.5,4-6.1,5.4-9.6
			c0.6,0,0.8-0.6,1.1-1c0.9,0.4,1.8,0.3,2.6-0.3c1-0.7,1.6-0.4,1.8,0.8c0.1,1,0.9,1.7,1,2.7c-0.5,1-1.6,1-2.4,1.3
			c-3.7,1.4-5.2,4.7-3.8,8.4c2.1,5.5,7.9,6.9,12.2,3.1c1.2-1,1.7-2.4,1.7-4.1c0-1.4-0.3-2.9,0.6-4.2c0.4-0.5,1.1-0.8,1.7-1.1
			c1.8-0.7,2.2-0.5,2.2,1.3C294.7,109.2,294.3,110.1,295.3,110.6z"/>
		<path class="st27" d="M270.5,111c1.1,0.8,1.4,1.9,1.7,3.3c1.2,5.2,7.3,8.8,12.6,7.8c0.6-0.1,1.3-0.2,1.8-0.4
			c0.6-0.3,2.9,1,1.5-1.4c2.5-1.6,2.4-5,4.9-6.5c-1.8,3.2-3.9,6.3-3.2,10.2c-4.4,1.8-8.7,2.2-13.1,0.2c-5.2-2.4-7.6-6.7-8.3-12.1
			C269.1,111.7,269.8,111.4,270.5,111z"/>
		<path class="st28" d="M262.6,111.6c1.8,1.1,1.1,3.1,1.7,4.6c0.6,1.7,1.2,3.3,2.5,4.7c-4.8-0.1-9.9-4.7-10.9-9.8
			c-0.1-0.4-0.2-0.8-0.2-1.2c0-1.4,0.1-2.9,1.5-3.4c1.5-0.6,2.5,0.7,3.3,1.8C261.2,109.3,261.9,110.5,262.6,111.6z"/>
		<path class="st28" d="M292.4,134.6c-3.1-1.3-6.2-2.6-8.9-4.8c2.7,1.7,4.9,0.5,6.9-1.3c1.1-1.1,2,0.6,3.1,0.1c1.5,0,3,0,4.5,0.1
			c1.2,0.1,2.5,0.4,2.7,1.8c0.2,1.3-0.7,2.2-1.7,2.9C296.9,134.7,294.7,135.2,292.4,134.6z"/>
		<path class="st29" d="M270.8,126.5c1.5,0.1,2.6-1,4-1.4c0.5,1.5,0,3.3,1.1,4.6c0.2,0.1,0.5,0.1,0.6,0.3c1.8,2.6,4,4.6,7.2,5.2
			c-0.8,1.5-1.7,1.8-3.5,0.9c-3-1.5-5.3-3.9-5.9-7.2c-0.4-1.9-0.9-1.8-2.4-1.3c-3.5,1.1-6.9,0.6-9.8-1.7c-1.1-0.9-2.2-2.2-0.2-3.4
			C263.8,126.3,267.6,125.8,270.8,126.5z"/>
		<path class="st30" d="M283.8,135.3c-3.4,0.3-5.8-1.4-7.8-5.5c0.8-0.4,0.9-2.3,2-1.4c1.4,1.1,4.1-0.6,4.4,2.3
			c0,0.3,0.4,0.6,0.7,0.9C283.5,132.7,284.3,133.9,283.8,135.3z"/>
		<path class="st31" d="M270.8,126.5c-2.3,0.7-4.6,0-6.7-0.8c-1.4-0.5-2.4-1.6-2.3-3.3c0.9-0.7,2.1-0.7,3.2-1c0.6-0.4,1.3-0.4,2-0.4
			C269.1,122.4,269.1,125,270.8,126.5z"/>
		<path class="st32" d="M267.1,121.1c-0.6,0.5-1.2,0.7-2,0.4c-1.9-1.3-4.2-2-5.9-3.8c-1.8-1.9-3.6-3.8-3.4-6.7
			c1.9,5.2,5.7,8.3,10.9,9.8C266.8,120.9,266.9,121,267.1,121.1z"/>
		<path class="st33" d="M295.4,93.8c-1.7-0.2-3.1-0.9-4.1-2.3C292.9,91.8,294.3,92.5,295.4,93.8z"/>
		<path class="st34" d="M277.8,97.1c0.2,1.5-1,2.5-1.6,3.7C276.3,99.3,277,98.2,277.8,97.1z"/>
		<path class="st34" d="M295.3,110.6c-1.8,0.1-1.6-1-1.2-2.1c0.2-0.6-0.1-1-0.2-1.5c-0.4,0.2-0.8,0.4-1.2,0.5
			c-0.2-1.3-0.3-2.8-2.2-2.8c-2.2-0.6-4.3-1.8-6.6-2c-0.1-0.3-0.1-0.6-0.1-0.9c0.1-1.6-0.5-2.1-1.9-1.1c-0.3,0.2-0.6,0.3-0.9,0.2
			c-0.1-0.9-0.3-0.8-1.1-0.4c-0.8,0.5-2.1,1.9-2.9-0.2c1.9-3.4,4.6-4,8.7-3.5c4.8,0.6,7,4.5,10.5,6.7
			C295.8,105.9,297.6,108.5,295.3,110.6z"/>
		<path class="st35" d="M284,102.7c1.6-0.7,3,0.1,4.4,0.8c0.8,0.4,1.6,0.6,2.4,0.9c-0.6,1.4-0.5,2.7,0.4,4c-0.7,1-0.6,2.1-0.5,3.2
			c0.1,4.7-3.8,8.2-8.6,7.5c-4.1-0.5-6.8-3.5-7.1-7.8c-0.2-2.6,2.2-6.8,6-7.2c0.5-0.1,1-0.4,1.5-0.6
			C282.6,102.5,283.2,102.5,284,102.7z"/>
		<path class="st36" d="M291.1,108.3c-2-1.4-2.1-2.4-0.4-4c2.5,0.3,2.8,0.7,1.9,3.2C292.2,107.8,291.7,108,291.1,108.3z"/>
		<path class="st37" d="M284,102.7c-0.5,0.3-1.1,0.5-1.6,0.8c-1.1-0.4-1.5-1.3-1.4-2.5c0.7-0.9,1.5-1.9,2.8-1.2
			C285.1,100.6,284.4,101.7,284,102.7z"/>
		<path class="st38" d="M286.4,108.9c0.8,2.4,0.8,4.5-2.1,5.6c-1.8,0.7-4.1,0.5-4.8-0.8c-1.1-2.2-0.4-5,1.5-5.9
			c0.6-0.3,1.3-0.5,2-0.8C284.3,107.4,285.5,108.1,286.4,108.9z"/>
		<path class="st39" d="M286.4,108.9c-1.4,0-2.5-0.7-3.3-1.9c0-1.1,0.3-1.9,1.5-2c1.2-0.1,2.2,0.4,2.7,1.5
			C287.9,107.7,287.4,108.4,286.4,108.9z"/>
		<path class="st40" d="M285.8,105.9c0.7,0.5,1.1,1.1,0.6,1.8c-0.4,0.6-1.1,0.6-1.7,0.3c-0.7-0.4-1.1-1-0.6-1.8
			C284.6,105.6,285.3,105.7,285.8,105.9z"/>
	</g>
	<g>
		<path class="st41" d="M46.1,81.1c1.2-5,3.9-8.5,9.3-9.3c1.7,0.5,3.3,0.5,5,0c5.4,0.9,8.3,3.8,9.2,9.3c0.3,1.7-0.3,3.3,0,5
			c-1,5.5-4.4,8.6-9.9,9.3c-6.1,0.8-10.3-1.8-13.7-8c-0.2-0.4-0.4-0.9-0.6-1.3C46.2,84.5,46.3,82.8,46.1,81.1z"/>
		<path class="st42" d="M60.4,71.8c-1.7,1.1-3.3,1.1-5,0C57,71.3,58.7,71.3,60.4,71.8z"/>
		<path class="st43" d="M56.9,91.9c-3.2,0-7.3-4.6-7.3-8.4c-0.1-3.6,4.6-8.5,8.1-8.6c3.3-0.1,8.9,4.7,9,7.7
			C66.8,87.6,62.4,91.8,56.9,91.9z"/>
		<path class="st44" d="M62.1,84.6c0.1,2.9-2.7,2.6-4.7,2.9c-2.8,0.4-3.3-1.8-3.5-4c-0.2-3.1,1.9-4.3,4.5-4.5
			C62,78.7,61.7,81.7,62.1,84.6z"/>
	</g>
	<g>
		<path class="st45" d="M299.8,77c-2.9,5.1-6.9,9.2-12.1,12c-1.7,0.9-2.7,1.8-5.3,2.3c-1.8-0.2-3.7-0.2-5.5-0.1
			c-4.1,0.3-7.4-1.8-10.1-4.3c-1.7-1.6,0.6-2.1,1.7-2.7c1.7-0.4,3.5,0.5,5.2,0c1.6-0.1,3.2-1,4.9-0.5c0.7,1.5,1.9,1.6,3.2,1.3
			c11.4-2.3,15.3-12.7,11.2-21.1c-4.4-9-15.2-10.6-22.2-5c-1,0.8-2,1.6-2.8,2.7c-1,1.5,1-0.1,0.6,0.6c0.1,1.7-1.5,1.7-2.3,2.6
			c-1.7,1.1-2.6,3.1-4.3,4.3c-2.8,0.8-3.1,0.5-2.9-2.2c0.2-3.1,1.8-5.6,3.2-8.2c0.5-1,1.1-1.9,1.5-2.9c4.7-3.6,10.1-5,15.9-5.4
			c3.2-0.2,6.4-0.2,9.5,0.9c2.6,2.3,5.5,4.3,7.4,7.3c2.9,4.8,4.8,9.7,3.4,15.4C299.6,75,299.6,76,299.8,77z"/>
		<path class="st46" d="M268.5,84.6c-1.5,0.8-2.7,1.5-0.2,2.9c3.1,1.7,5.9,3.8,9.9,3c1.4-0.3,2.9-0.2,4.2,0.9
			c-10.4,3.1-17.7,2.7-24.5-6c-8.6-11-3.4-25.1,6-29.6c0.6,2.1-1.2,3.4-1.9,4.9c-0.9,2-1.8,3.9-2.2,6.2c-0.3,2,0.2,2.6,2.1,2
			c0.6,1,0,2-0.3,2.9c-1.3,4.8,0.5,8.7,4.9,11.1C267.2,83.2,268.3,83.3,268.5,84.6z"/>
		<path class="st47" d="M299.8,77c-1.1-0.6-1-1.7-0.8-2.7c2-9-1.6-15.6-8.6-20.7c-0.8-0.6-1.4-1.2-1.2-2.3c5.6,1,11,2.6,14.1,7.7
			c2.8,4.5,1,9.3-0.9,13.8C301.6,74.2,300.6,75.6,299.8,77z"/>
		<path class="st48" d="M268.6,62.2c-0.5,0.2-1,0.4-1.6,0.5c1.1-3.5,6.2-7.1,10-7.6c7-0.9,12.1,2.2,16.2,7.3c1.7,2.1,2,5.1,1.8,7.7
			c-0.6,9.7-5.1,14.2-14.6,15.8c-1.4,0.3-2.7,0-2-2c0.9-1.8,3-2.2,4.4-3.5c0.8-0.8,1.6-1.4,2.3-2.3c0.3-0.4,0.5-0.7,0.8-1.1
			c4.7-7,1-15-7.5-15.8c-0.8-0.1-1.7-0.1-2.5-0.1c-1.6-0.2-3.1,0-4.5,0.6C270.5,62,269.6,62.6,268.6,62.2z"/>
		<path class="st49" d="M285.8,78.3c-1.7,2.8-4.6,4.1-7.3,5.6c-1.7,0.3-3.3,1-5.1,0.9c-7.9-0.1-12.2-7.5-11.2-15.5
			c0.3-2.1,2.4-3.1,3.4-4.8c0.6-1.2,2.1-1.3,2.9-2.3c2.6-0.7,4.8-2.9,7.7-1.7c7,1.6,11.3,7.2,10.6,13.9
			C286.8,75.8,285.7,76.8,285.8,78.3z"/>
		<path class="st50" d="M265.7,64.5c0.6,0.3,0.2,0.5,0,0.7c-6.3,5.8-1.5,15.7,4.1,18.5c1.1,0.6,2.6,0.1,3.7,1
			c-1.7,0.5-3.3-0.2-4.9-0.2c-7.8-3.4-9.7-7.6-6.8-15.8C263,67.3,263.8,65.5,265.7,64.5z"/>
		<path class="st51" d="M285.8,78.3c-0.7-0.2-0.6-0.7-0.4-1.1c1.8-7-0.1-11.7-6-15.3c-1-0.6-2.1-0.5-3.1-0.9c0,0-0.1-0.2-0.1-0.3
			c0-0.1,0.1-0.2,0.1-0.2c4.9-0.4,9,1.3,11.3,5.8C289.9,70.5,288.9,74.6,285.8,78.3z"/>
		<path class="st52" d="M283.5,69c1.9,4.4-0.6,11.4-4.7,13.2c-4.9,2.1-11.1-0.5-13.2-5.6c-2.5-6,0.2-10.6,4.5-13.1
			C274.5,60.9,281.4,64.1,283.5,69z"/>
		<path class="st53" d="M267.2,76c-1.6-3.1-0.5-8.8,4.3-10.8c3.1-1.3,8.7,0.5,9.7,3.1c2.1,5.2,0.7,10.4-3.3,12.1
			C274.7,81.9,268.6,79.4,267.2,76z"/>
		<path class="st54" d="M279.8,70.2c1.7,3.9,0.5,7.2-2.9,8.5c-2.6,1-6.9-0.8-8.3-3.6c-1.4-2.8,0.2-6.6,3.5-7.8
			C276.5,65.6,278.3,66.2,279.8,70.2z"/>
		<path class="st55" d="M276.1,76.4c-2.1,0.9-4.4-0.1-5.4-2.4c-0.6-1.5,0.7-4.7,2.3-5.4c1.9-0.8,4.5,0.5,5.4,2.6
			C279.2,73.2,278.2,75.5,276.1,76.4z"/>
	</g>
	<g>
		<path class="st56" d="M212.1,59.5c-2.7-1.2-5.5-1.9-8.6-2c-3-0.1-6.4-4.3-6.2-7.7c0.2-5.2,1.6-10,4.4-14.4c2.7-0.3,5.4-1.2,7.3-3
			c3.1-3,6.5-3.2,10.2-2c3.6,1.7,7.2,3.5,9.9,6.6c1.3,1.5,2.7,2.9,2.2,5.1c0.2,0.3,0.2,0.6,0.1,0.9c-1.1,5.2-5.7,9.8-10.7,10.5
			c-1.7,0.2-2.5,1.1-3.2,2.5C216.5,58.1,214.9,59.7,212.1,59.5z"/>
		<path class="st57" d="M212.1,59.5c2.6-1,4.6-2.5,5.5-5.3c0.3-0.9,1-1.6,2-1.6c6.2,0.3,8.4-4.4,11-8.6c0.3-0.4,0.5-0.9,0.7-1.3
			c0.9,1.1,0,2.5,0.6,3.7c-1.8,6.2-5.4,10.9-11.4,13.6C217.8,61.3,214.9,61.1,212.1,59.5z"/>
		<path class="st58" d="M219.3,30.3c-5.3-1.3-9,2.2-13,4.7c-1.6,1-3,1.2-4.6,0.4C204.6,29.2,212.5,25.5,219.3,30.3z"/>
		<path class="st59" d="M218.1,44.6c-2.2,1.5-4.3,3.1-6.6,4.3c-1.9,1-3.9,1.2-5.7-0.5c-2.3-2.2-3.7-4.6-2.4-8.8
			c3.1,8.5,8.6,7,14.4,4.2C218,44,218.1,44.3,218.1,44.6z"/>
	</g>
	<g>
		<path class="st56" d="M213.2,13.8c0.7,0.2,1,0.8,1.3,1.3c1.4,3.2,2.4,6.5,4.9,9.2c0.7,0.8,0.5,2.1,0.2,3.2c-2.5,2-5.3,3.6-8.1,5
			c-0.4,0.2-0.9,0.6-1.3,0.5c-3.3-0.3-5.9,1.3-8.4,3c-2.5-1.7-4.8-3.6-7-5.7c-2.7-2.7-2.4-5.4-1.2-8.3c1.1-2.5,2.6-4.7,4.7-6.6
			c2.6,0.8,5.1,0.1,7.3-1.3c1.3-0.8,2.4-1,3.8-0.4C210.6,14.3,211.9,14.5,213.2,13.8z"/>
		<path class="st57" d="M201.8,36.1c1-0.9,1.9-1.9,2.9-2.8c0.4-0.4,0.9-0.8,1.5-0.7c4.3,1.1,7.2-1.8,10.4-3.7c1-0.6,1.8-1.3,3-1.3
			c-2.2,5.1-5.5,9-11.2,10.3C205.9,38.4,203.6,38.1,201.8,36.1z"/>
		<path class="st58" d="M213.2,13.8c-0.1,1.1-0.3,1.9-1.7,1.2c-0.1,0-0.2,0-0.2-0.1c-2.2-0.8-4.3-1.4-6.6,0.4
			c-1.3,1-3.1,1.2-4.8,1.2c-0.8,0-1.5,0-1.6-1C202.6,11,209.2,10.3,213.2,13.8z"/>
		<path class="st59" d="M211.6,21.9c0,0.2,0,0.3-0.1,0.5c-1.6,2.1-3.5,3.7-5.8,4.9c-1.7,0.9-2.9-0.2-4.2-0.8c-0.6-0.3-1.3-0.6-1.9-1
			c-0.6-0.3-1.5-0.5-1.1-1.5c0.3-0.8,1.1-0.8,1.8-0.8c0.6,0,1,0.4,1.5,0.7c2.6,1.9,4.8,1.6,6.6-1.2c0.6-0.9,1.1-1.6,2.2-1.5
			C211.1,21.2,211.5,21.3,211.6,21.9z"/>
	</g>
	<g>
		<path class="st56" d="M239.4,16.8c0.7,0.2,1,0.8,1.3,1.3c1.4,3.2,2.4,6.5,4.9,9.2c0.7,0.8,0.5,2.1,0.2,3.2c-2.5,2-5.3,3.6-8.1,5
			c-0.4,0.2-0.9,0.6-1.3,0.5c-3.3-0.3-5.9,1.3-8.4,3c-2.5-1.7-4.8-3.6-7-5.7c-2.7-2.7-2.4-5.4-1.2-8.3c1.1-2.5,2.6-4.7,4.7-6.6
			c2.6,0.8,5.1,0.1,7.3-1.3c1.3-0.8,2.4-1,3.8-0.4C236.8,17.3,238.1,17.6,239.4,16.8z"/>
		<path class="st57" d="M227.9,39.1c1-0.9,1.9-1.9,2.9-2.8c0.4-0.4,0.9-0.8,1.5-0.7c4.3,1.1,7.2-1.8,10.4-3.7c1-0.6,1.8-1.3,3-1.3
			c-2.2,5.1-5.5,9-11.2,10.3C232.1,41.4,229.8,41.1,227.9,39.1z"/>
		<path class="st58" d="M239.4,16.8c-0.1,1.1-0.3,1.9-1.7,1.2c-0.1,0-0.2,0-0.2-0.1c-2.2-0.8-4.3-1.4-6.6,0.4
			c-1.3,1-3.1,1.2-4.8,1.2c-0.8,0-1.5,0-1.6-1C228.8,14.1,235.4,13.3,239.4,16.8z"/>
		<path class="st59" d="M237.8,25c0,0.2,0,0.3-0.1,0.5c-1.6,2.1-3.5,3.7-5.8,4.9c-1.7,0.9-2.9-0.2-4.2-0.8c-0.6-0.3-1.3-0.6-1.9-1
			c-0.6-0.3-1.5-0.5-1.1-1.5c0.3-0.8,1.1-0.8,1.8-0.8c0.6,0,1,0.4,1.5,0.7c2.6,1.9,4.8,1.6,6.6-1.2c0.6-0.9,1.1-1.6,2.2-1.5
			C237.2,24.3,237.7,24.3,237.8,25z"/>
	</g>
	<g>
		<path class="st60" d="M24.8,31.3c0.7-8.8,6.1-14.5,13.1-18.6c9.9-5.8,21-7.5,32.2-6.6c10.3,0.9,20.3,3.6,28.1,11
			c3.4,3.2,6.1,7,6.6,11.9c-0.5,3.9-2.5,6.9-5.4,9.4c-2.6,2.2-5.4,4-8.1,6c-1,0.7-2.1,1.2-3.3,0.6c-0.2-0.4-0.4-0.9-0.2-1.4
			c2.8-7.4-0.8-13.6-3.5-20c-0.7-1.1-1.8-1.8-3-2.3c-0.3-0.1-0.6-0.3-0.8-0.4c-1-0.6-2-0.9-3.1-1.3c-0.3-0.1-0.6-0.3-0.9-0.5
			c-2-1.4-4.3-2-6.3-3.2c-4.4-2.6-8.3-2.1-11.8,1.2c-3.4,3.2-3.8,6.1-1.5,11c0.3,0.6,0.6,1.3,1,1.9c0.5,0.9,1.1,1.7,1.2,2.8
			c-0.1,1.4-1.4,1.6-2.7,2.4c1.5-0.6,2.5-1.2,3.8-0.8c0.5,0.2,0.9,0.5,1.3,0.8c2.5,3.5,5.5,6.6,7.2,10.5c0.4,1,0.9,2,0.3,3.1
			c-1.3,1.7-3.2,1.5-5,1.4C52.1,49.5,41,46.9,31.6,39.1C28.8,36.8,27.6,33.4,24.8,31.3z"/>
		<path class="st61" d="M24.8,31.3c0.7-0.3,1.1-1.9,2-0.1c5.5,10.5,15.4,14.3,26,16.6c3.2,0.7,6.5,1.1,9.8,1.4
			c2,0.2,4.1,0.6,5.9-0.6c0.7,0.4,0.8,1.1,0.9,1.8c-0.8,2.6,0.5,4.7,1.5,7c-10.8,1-21.2-0.5-30.8-5.4C31.7,47.8,24.8,41.9,24.8,31.3
			z"/>
		<path class="st62" d="M88.1,44.9c7.1-3.7,13.5-8.1,16.7-15.9c2.2,9.8-3.8,16.3-11.4,21.2c-6.6,4.3-14,6.1-21.7,6.9
			c0.7-3.9,3.7-6,7-7C82.2,48.9,85.5,47.6,88.1,44.9z"/>
		<path class="st63" d="M88.1,44.9c-1,2.8-3,4.5-5.9,5c-4.7,0.7-7.9,3.5-10.5,7.2c-0.3,0.1-0.5,0.1-0.8,0.2
			c-2.6-1.6-3.2-3.9-2.2-6.7c0.6-0.9-0.2-2.8,2.3-2c5.6,1.8,12.1-2.1,13.5-7.9c1-4.3,0.7-8.7-0.5-12.8c-1-3.3-4.6-4.1-7.2-5.4
			c-5-2.4-10.5-0.7-14,3.7c-0.4,0.5-0.8,0.9-1.5,0.9c-1.5-0.5-1.9-1.7-1.7-3.1c1.4-2.9,4-4,6.8-4.7c3.6-1,7.3-1.2,11-0.5l0,0
			c1.1,0.8,2.4,0.9,3.6,1.5l0,0c1.1,0.9,2.3,1.7,3.7,2.2C88.4,29.6,91.8,36.7,88.1,44.9z"/>
		<path class="st64" d="M61.5,27c1.6-4.7,9.5-7.3,14.5-5.6c2.9,0.9,5.1,2.8,7.6,4.1c2.5,1.3,1.8,4.8,2.1,7.2c0.8,5.6,0,11-4.7,15.2
			c-1.4,1.2-2.3,2.2-4.1,1.3c-0.9-0.5-1.7-0.2-2.3,0.5c-1.2,1.4-2.5,1.5-3.7,0.2c-1.7-1.9-1.6,0.4-2.4,0.9c-0.1-0.7-0.1-1.4-0.2-2.1
			c-0.2-0.9-0.4-1.9-0.6-2.8c0.5-1.9,2-0.9,3.1-1c4.1,0,7.2-1.6,9.3-5.1c2.3-4,1.2-8.1-3-11.7c-2.7-2.3-7.2-2.2-10.3,0.1
			c-1.3,1-2.3,2.5-4.1,2.8c-0.4,0-0.7-0.2-1-0.4C61.3,29.4,60.5,28.3,61.5,27z"/>
		<path class="st65" d="M62.2,30.6c1.6-0.4,2.6-1.6,3.7-2.7c3-3.1,6.9-3.3,10.2-1.7c3.3,1.6,6.3,4.2,6.3,8.7c0,4.3-1.9,7.3-5.6,9.5
			c-2.9,1.8-5.9,0.8-8.9,1.3c-2.4-3.4-4.7-6.8-7.1-10.2c0.3-0.9,1-1.2,1.8-1.5c2.1-1.3,0.1-1.8-0.5-2.6C62,31.2,62,30.9,62.2,30.6z"
			/>
		<path class="st66" d="M77.4,19c-2.3,0.6-4.6,0.6-6.9,0.7c-4,0.2-7.5,1.6-10.4,4.5c-1.8-1.7-2-3.2-0.5-5.2c1.9-2.4,4.5-2.8,6.1-2.7
			c-6.8,0.2-8.9,3.5-6.5,12.2c-0.1,1.2-0.3,2.3-1.9,2.2c-3.8-6.2-3.9-9-0.4-13.3c2.9-3.6,7.3-5,11.5-3.1
			C71.5,15.5,74.8,16.6,77.4,19z"/>
		<path class="st64" d="M57.3,30.5c0.9-0.4,1.3-1.1,1.3-2.1c1.9-0.4,2.7,1,3.6,2.2v0c0,0.2,0,0.5,0,0.7c0.9,1.1,1.3,2.2,0.7,3.6
			c-0.7,0.2-1.4,0.5-2.1,0.7c-0.3-0.2-0.6-0.5-0.8-0.7c-0.9-0.4-1.1-1.3-1.4-2.1C58.2,32,57.7,31.3,57.3,30.5z"/>
		<path class="st67" d="M38.1,21.3c1.3-2.8,3.7-3.3,6.5-3.1C42.3,19,40.2,20.2,38.1,21.3z"/>
		<path class="st68" d="M96.3,28c-1.7-1-3.6-1.1-5.4-1.5C93.1,25.3,94.9,26,96.3,28z"/>
		<path class="st69" d="M58.6,32.8c0.5,0.7,1,1.4,1.4,2.1c-2.1-0.6-3.5,1.3-5.6,1.9C55.1,34.2,57.9,34.7,58.6,32.8z"/>
		<path class="st66" d="M84.6,22.6c-2.5,1.4-2.5-1.3-3.7-2.2C82.4,20.7,83.8,21.1,84.6,22.6z"/>
		<path class="st70" d="M70.5,13.2c1.5-0.7,2.9-1.1,4.7,0.6C73.3,13.6,71.9,13,70.5,13.2z"/>
		<path class="st66" d="M81,20.5c-1.4,0.1-2.7-0.2-3.6-1.5C78.8,18.8,80,19.4,81,20.5z"/>
		<path class="st71" d="M62.2,30.6c-1.2-0.7-2.4-1.4-3.6-2.2c-1.8-3.1-2.3-6.3-0.2-9.5c2.1-3.2,6.4-4.7,10.1-3.4
			c0.7,0.2,1.5,0.6,1.2,1.5c-0.2,0.6-1,0.7-1.5,0.5c-1.9-0.8-3.7-0.7-5.6,0.1c-3.1,1.3-3.8,3-2.6,6.5c0.1,1.1,0.5,2.1,1.4,2.9
			C61.7,28.2,62,29.4,62.2,30.6z"/>
		<path class="st72" d="M66.5,35.2c0-2.7,2.5-5.3,5-5.4c2.6-0.1,6.3,2.7,6.4,4.7c0.1,2.5-3.2,6.5-5.5,6.6
			C69.6,41.3,66.5,38.2,66.5,35.2z"/>
		<path class="st73" d="M62.9,34.9c-0.7-1.1-0.8-2.3-0.7-3.6c1.4-0.2,2.3,0.4,2.6,1.7C65.1,34.4,64,34.7,62.9,34.9z"/>
	</g>
	<g>
		<path class="st25" d="M269.7,128.3c-2.4,1.2-4.9,1.1-7.4,0.7c-0.3-0.1-1.5-1.1-1.3,0.6c-1.1,0.6-1.5-1-2.6-0.7
			c-1.4,0.5-2.9,0.7-3.7,2.2c-1.5-0.1-1.8-1.6-2.7-2.6c-1,0.6-1.4,2.1-2.8,2.2c-2-0.3-3.2-2.3-5.2-2.7c-0.2-0.1-0.4-0.1-0.6-0.2
			c-2.4-0.5-3.7-2.3-5-4c-0.5-0.7-1.5-1.1-1.7-2.1c2.1,0.5,3.5-0.8,4.9-1.9c0.6-0.1,0.9,0.4,1.2,0.8c4.8,6.2,12.5,7,19.2,1.3
			c0.5-0.4,0.8-1.1,1.5-1c1.3,1.3,2.6,2.6,4.7,2.4c-1.6,1.1-2.6,2.8-3.9,4.2c-0.9,1-1.9,0.9-3.1,0.7c2.1,0,4.2-0.1,6.3-0.2
			C268.3,127.8,269.1,127.5,269.7,128.3z"/>
		<path class="st25" d="M243.1,103.9c0-5.1,3.5-9.1,8.6-9.8c1.4,0.1,2.8,0.2,4.2,0.2c6.4,1.5,10,9.6,6.6,14.9
			c-0.4-0.3-0.5-0.8-0.5-1.2c0.1-1.5,0.2-3-1.2-4.1c-0.4-0.3-0.5-0.8-0.4-1.4c0-0.1,0.4-0.2,0-0.3c-2.2,0-4.2-1-6.3-1.4
			c-3.5-0.7-6.5,0.4-9,2.9c-0.9,0.9-0.6,2.1-0.8,3.2c-0.2,0.5-0.2,1.2-1,1.2c0-0.2,0-0.4,0-0.7C242.9,106.3,243.5,105.1,243.1,103.9
			z"/>
		<path class="st26" d="M262.5,107.8c0,0.5,0,0.9,0,1.4c-0.2,0.7,0.5,1.6-0.5,2.1c-0.7,2.5-0.7,5-0.2,7.5c0.1,0.5,0,0.8-0.3,1.1
			c-1.7,1.2-3.2,2.8-5.1,3.4c-4.4,1.4-8.1-0.1-11.3-3c-0.8-0.7-1.6-1.3-2.3-2.2c1.5-3.2,0.8-6.5,0.5-9.8c0.5-0.3,0.4-0.8,0.5-1.2
			c0.9,0,1.6-0.5,2-1.3c0.5-0.9,1.1-1,1.7-0.1c0.5,0.8,1.4,1,1.9,1.7c0,1-0.9,1.4-1.4,2c-2.4,2.6-2.3,5.9,0.3,8.3
			c3.8,3.6,9.1,2.4,11-2.4c0.5-1.3,0.4-2.6-0.3-3.9c-0.6-1.1-1.3-2.2-1.1-3.6c0.1-0.6,0.6-1.1,0.9-1.5c1.2-1.3,1.6-1.3,2.3,0.1
			C261.4,106.9,261.5,107.8,262.5,107.8z"/>
		<path class="st27" d="M242.8,118c1.2,0.2,1.9,1,2.7,2c3.1,3.7,9.3,4.2,13.2,1.3c0.4-0.3,1-0.6,1.3-1.1c0.3-0.5,2.7-0.3,0.7-1.7
			c1.4-2.2-0.1-5,1.3-7.2c-0.2,3.3-0.6,6.6,1.5,9.5c-2.8,3.2-6.1,5.3-10.5,5.4c-5.1,0.1-8.7-2.4-11.5-6.4
			C241.9,119.1,242.4,118.5,242.8,118z"/>
		<path class="st28" d="M236.7,121.6c1.9,0.1,2.1,2,3.1,3c1.2,1.1,2.3,2.2,3.8,2.8c-3.9,1.8-9.8,0.2-12.6-3.5
			c-0.2-0.3-0.4-0.6-0.6-0.9c-0.6-1.1-1.1-2.3-0.1-3.3c1-1.1,2.3-0.4,3.3,0.1C234.6,120.3,235.6,120.9,236.7,121.6z"/>
		<path class="st28" d="M269.7,128.3c-3,0.2-6,0.4-9.1-0.3c2.9,0.3,4.2-1.5,5-3.8c0.5-1.3,1.9-0.3,2.5-1.1c1.2-0.6,2.4-1.2,3.7-1.7
			c1-0.4,2.2-0.7,2.9,0.4c0.7,1,0.3,2.1-0.3,3C273.3,126.5,271.8,127.8,269.7,128.3z"/>
		<path class="st29" d="M249.2,130.3c1.2-0.5,1.7-1.8,2.7-2.7c1,1,1.3,2.6,2.7,3.3c0.2,0,0.4-0.1,0.6,0c2.5,1.4,5,2.1,7.8,1.3
			c0,1.5-0.7,2.1-2.4,2.1c-3,0-5.8-1-7.6-3.4c-1-1.4-1.4-1.1-2.5-0.1c-2.4,2.3-5.3,3.2-8.6,2.5c-1.2-0.3-2.6-0.9-1.5-2.6
			C243.4,132.9,246.3,131,249.2,130.3z"/>
		<path class="st30" d="M263,132.2c-2.6,1.6-5.3,1.2-8.5-1.3c0.5-0.6-0.2-2.2,1-1.9c1.5,0.3,3-2.1,4.4,0.1c0.2,0.2,0.6,0.3,0.9,0.5
			C261.8,130.2,262.9,130.8,263,132.2z"/>
		<path class="st31" d="M249.2,130.3c-1.6,1.5-3.6,1.8-5.7,2.1c-1.3,0.1-2.5-0.3-3.1-1.7c0.5-1,1.4-1.4,2.2-2
			c0.3-0.5,0.9-0.8,1.4-1.1C246.1,127.7,247.2,129.8,249.2,130.3z"/>
		<path class="st32" d="M244,127.4c-0.3,0.6-0.7,1-1.4,1.1c-2.1-0.3-4.2,0-6.2-0.7c-2.2-0.8-4.4-1.6-5.4-4c3.6,3.4,7.8,4.4,12.6,3.5
			C243.7,127.4,243.9,127.4,244,127.4z"/>
		<path class="st33" d="M255.9,94.3c-1.4,0.5-2.9,0.5-4.2-0.2C253.1,93.7,254.5,93.7,255.9,94.3z"/>
		<path class="st34" d="M243.1,103.9c0.7,1.2,0.1,2.4,0.2,3.6C242.8,106.3,242.9,105.1,243.1,103.9z"/>
		<path class="st34" d="M262.5,107.8c-1.4,0.8-1.7-0.1-1.8-1.2c-0.1-0.6-0.5-0.8-0.8-1.1c-0.2,0.3-0.5,0.6-0.7,0.9
			c-0.7-1-1.3-2.1-2.9-1.4c-2,0.4-4.1,0.2-6.1,1c-0.2-0.2-0.4-0.4-0.5-0.7c-0.6-1.3-1.2-1.5-2-0.1c-0.1,0.2-0.3,0.4-0.6,0.6
			c-0.5-0.6-0.6-0.5-1,0.1c-0.5,0.7-1,2.3-2.4,1c0.2-3.5,2.1-5,5.6-6.3c4.1-1.4,7.4,0.9,11.1,1.2C261,103.9,263.5,105.3,262.5,107.8
			z"/>
		<path class="st35" d="M250.3,106c1-1.2,2.4-1.1,3.8-1.1c0.8,0,1.5-0.2,2.3-0.3c0.1,1.4,0.7,2.4,1.9,3c-0.1,1.1,0.4,1.9,0.8,2.8
			c1.9,3.7,0.2,8.1-3.9,9.5c-3.5,1.2-6.8-0.1-8.8-3.4c-1.2-2-0.9-6.3,1.9-8.2c0.4-0.3,0.7-0.7,1-1.1
			C249.1,106.4,249.6,106.1,250.3,106z"/>
		<path class="st36" d="M258.2,107.6c-2.2-0.4-2.6-1.1-1.9-3c2.1-0.8,2.5-0.5,2.8,1.8C258.9,106.8,258.5,107.2,258.2,107.6z"/>
		<path class="st37" d="M250.3,106c-0.3,0.4-0.7,0.8-1,1.2c-1.1,0.1-1.7-0.5-2.1-1.4c0.2-1,0.4-2.1,1.8-2.1
			C250.3,103.8,250.2,105,250.3,106z"/>
		<path class="st38" d="M254.7,110c1.6,1.6,2.4,3.2,0.5,5.3c-1.2,1.3-3.1,2-4.1,1.2c-1.8-1.4-2.3-3.9-1.1-5.3
			c0.4-0.5,0.9-0.9,1.3-1.4C252.4,109.6,253.6,109.7,254.7,110z"/>
		<path class="st39" d="M254.7,110c-1.2,0.5-2.3,0.5-3.4-0.2c-0.5-0.8-0.5-1.6,0.4-2.2c0.9-0.5,1.9-0.5,2.8,0.1
			C255.4,108.4,255.2,109.2,254.7,110z"/>
		<path class="st40" d="M253,107.8c0.8,0.1,1.3,0.4,1.2,1.2c-0.1,0.7-0.6,0.9-1.2,0.9c-0.7,0-1.2-0.4-1.1-1.2
			C251.9,108,252.5,107.9,253,107.8z"/>
	</g>
	<g>
		<path class="st4" d="M62.1,120.2c0.3-5.5,4.1-7.7,8.7-9c1.9-0.6,3.9-0.9,5.9-1.4c1.4,0,2.4,0.5,2.7,1.8c0.8,3.4,3.3,5.1,6.1,6.6
			c3.2,2,5.4,4.8,7,8.1c-0.1,0.7-0.6,1.1-1.2,1.2c-7.5,1.1-14.9,2-22.2-0.7C65.9,125.5,63.1,123.8,62.1,120.2z"/>
		<path class="st74" d="M91,108.7c4.9-1.3,9.1-4,13.2-6.9c2.8-1.9,6.2-1.9,9.4-2.5c1.8-0.6,3,0.3,4,1.6c0.9,1.3,0.1,2.5-0.1,3.8
			c0.5,3-1.5,5.2-2.8,7.5c-5.1,2.4-8.4,6.8-12.7,10.2c-1,0.8-2,1.7-3.2,2.2c-0.8,0.3-1.7,0.5-2-0.7c-0.1-1.8,0.9-3.2,1.4-4.8
			c0.9-3.9-1.4-6.1-4.2-8.1C92.9,110.3,91.5,110.1,91,108.7z"/>
		<path class="st5" d="M97.1,124.4c3.5-1.3,5.9-4,8.6-6.5c2-1.9,4.2-3.5,6.4-5.2c0.8-0.6,1.7-0.9,2.7-0.4
			c-3.2,6.5-8.5,10.9-14.6,14.4c-6.5,3.8-13.5,5.9-21.1,6.3c-7.4,0.4-17.4-5.3-16.9-12.7c4.9,6.8,12.3,7.5,19.7,7.5
			c3.5,0,7-0.7,10.5-1.1C93.9,125.8,95,124.1,97.1,124.4z"/>
		<path class="st75" d="M91,108.7c3.7,1,6.6,3,8.1,6.7c0.5,1.3,1,2.4,0.2,3.7c-3.7,4.3-5.9,4.7-10.6,1.8c-1.1-0.7-2.4-1-3.3-2
			c-3.2-1.6-6.6-2.9-6.6-7.4c0-1.2-1.2-1.3-2-1.8c0.6-0.1,1.4,0.1,1.6-0.2C82.3,104.8,86.6,106.7,91,108.7z"/>
		<path class="st76" d="M124.5,101.5c-0.4,0.3-0.9,0.6-1.3,1c-3.7-0.7-6.8-2.6-9.4-5.4c-0.1-2.2,0.5-4.1,2.2-5.6
			c0.7,0.7,0.3,1.8,1,2.6C118.4,97.6,122.9,98,124.5,101.5z"/>
		<path class="st77" d="M117.4,89.8c1-1.2,1.6-3.5,3.3-3c1.8,0.5,0.9,2.9,1.1,4.4c0.1,0.7-0.1,1.4-0.2,2.1c0.1,0.3,0.1,0.9-0.1,1
			C119.6,94.8,117,92,117.4,89.8z"/>
		<path class="st78" d="M113.8,97.1c3.1,1.8,6.2,3.6,9.4,5.4c-0.7,0.7-1.5,0.9-2.5,0.8c-1.1-0.6-2.7-0.2-3.4-1.6
			c-0.9-1.3-2.4-1.7-3.7-2.3C113.7,98.6,113.7,97.8,113.8,97.1z"/>
		<path class="st79" d="M117.4,89.8c0.4,2.4,2.3,2.9,4.2,3.5c0.4,0.6-0.1,1.6,0.7,2c-0.1,0.6-0.6,0.8-1.1,0.9
			c-0.7,0.1-1.4,0.1-2-0.2c-1.2-0.7-2.2-1.5-3.7-1.3c-0.7-1.2,0.3-2.1,0.4-3.2C116.3,90.8,116.6,90.1,117.4,89.8z"/>
		<path class="st80" d="M115.6,94.7c1.7-0.7,2.8,0.7,4.3,1c0.9,1.1,2.2,1.3,3.4,1.9c1.2,0.6,2.4,1.1,2.4,2.8c-0.2,0.6-0.6,1-1.2,1.1
			c-0.8-1.1-2.1-1.4-3.1-2.2c-1.2-0.8-4.5,0.2-3.1-3.2C118.2,96,116.5,95.2,115.6,94.7z"/>
		<path class="st81" d="M125.6,100.4c-0.9-1.3-2.5-1.7-3.8-2.4c-1-0.5-2.4-0.6-2-2.4c0.5,0,1.1,0,1.6-0.1c2,0.9,4.5,0.7,5.6,3.1
			C126.9,99.5,126.3,100,125.6,100.4z"/>
		<path class="st82" d="M127.1,98.7c-1.8-1.1-4.3-1-5.6-3.1c0.3-0.1,0.6-0.2,0.8-0.3c0.5-0.1,1.1-0.2,1.6-0.4
			c1.4,0.9,3.5,0.8,3.5,3.2C127.5,98.4,127.4,98.6,127.1,98.7z"/>
		<path class="st83" d="M127.5,98.1c-0.7-1.5-3-1.4-3.5-3.2c0.8-0.2,1.7-0.3,2.5-0.5c0.9,0.5,1.7,0.9,2.3,1.8
			C128.6,97,128.3,97.7,127.5,98.1z"/>
		<path class="st84" d="M117.3,101.7c0.9,1,3-0.4,3.4,1.6c-0.9,0.8-2.5,0.2-3.2,1.4C117.4,103.7,117.4,102.7,117.3,101.7z"/>
		<path class="st85" d="M128.8,96.3c-1.4,0.2-2-0.6-2.3-1.8c1-0.5,2.1-0.6,2.9,0C129.9,94.8,129.3,95.7,128.8,96.3z"/>
		<path class="st86" d="M85.3,118.9c0.8,0.3,1.6,0.5,2.3,0.9c4.1,2.3,8,2.7,11.6-0.7c-0.7,1.8-1.5,3.6-2.2,5.4
			c-1.5,0.9-2.6,2.7-4.7,2C89.6,124.3,88.4,120.7,85.3,118.9z"/>
	</g>
	<g>
		<path class="st87" d="M185.5,39.6c-0.2-0.5-0.5-1-0.7-1.6c-0.9-3.3,1.6-5.8,2.2-8.8c0.7-1,0.4-2.5,1.6-3.4c0.9,0.9,0.5,2,0.7,3.1
			C189.2,33,187.2,36.2,185.5,39.6z"/>
		<path class="st87" d="M190,27.6c0-1.3-0.6-2.7,0.6-3.8C190.7,25.1,190.8,26.5,190,27.6z"/>
		<path class="st88" d="M187.8,29.6c0.1-1.7-0.2-3.5,0.7-5.2c0,0.5,0.1,1,0.1,1.5C188.3,27.1,189,28.6,187.8,29.6z"/>
		<path class="st87" d="M187.7,21.7c0-0.5,0.1-0.9,0.2-1.4c1,1.1,0.5,2.5,0.5,3.7C188.2,23.2,188,22.4,187.7,21.7z"/>
		<g>
			<path class="st89" d="M177.2,49.2c-2.5,3.9-6.6,5.9-10.3,8.4c-2.6,1.8-5.4,3.4-8.4,4.4c-2.3,0.7-4.5,0.9-6.6-0.4
				c-1.2-1.1-1.3-2.6-1-4c1.1-4.1,0.2-7.6-2.4-10.8c-0.5-1.2,0.9-3.1-0.9-3.7c-1.7-0.5-1.9,1.7-3,2.4c-1.1,0.2-2.1-0.1-3-0.8
				c-1.6-3.5,0.8-5.9,2.2-8.6c0.5-0.7,1.1-1.2,1.8-1.8c0.3-0.3,0.7-0.7,1-1c0.6-0.6,1.2-1.1,1.8-1.6c1.4-1,2.9-1.6,4.4-2.2
				c1.3-0.4,2.6-0.9,4-0.9c1.5,0.1,2.7,0.8,4,1.4c1.3,0.6,1.3,1.4,0.6,2.7c2.5-2.2,4.8-2.3,7.1,0.2c1,1,2.8,0.5,4.1,1.1
				c1.4,0.8,2.1,2.3,2.9,3.6c0.6,1.1,1.1,2.1,1.5,3.3c0.3,0.8,0.6,1.7,0.8,2.6c0.1,0.7,0.2,1.5,0.2,2.2
				C178,47,177.8,48.1,177.2,49.2z"/>
			<path class="st90" d="M175.7,8.8c4.8-1.6,9.2-1.3,12.7,3c1.8,3.8,2.3,7.9,2.2,12c-0.7,1.2,0,2.6-0.6,3.8c0.1,0.6-0.1,1.1-0.8,1.3
				c-0.9-0.7-0.9-1.8-1.3-2.8c-0.1-0.5-0.2-1-0.3-1.5c0-0.3-0.1-0.7-0.1-1c0-1.2,0-2.3-0.5-3.4c-2.9-7.1-5.4-8.2-13.4-6
				c-1.3-0.3-3.4,0.7-3.5-1.9C171.4,10.2,173.3,9.3,175.7,8.8z"/>
			<path class="st88" d="M177.2,49.2c0-1.2,0-2.4,0-3.5c2.3-0.8,3.1-3,4.5-4.7c0.9-1,1.3-2.5,2.8-2.9c0.9,0.2,0.6,1,0.9,1.6
				C183.7,43.7,180.9,46.8,177.2,49.2z"/>
			<path class="st91" d="M177,43.2c-0.2-0.7-0.4-1.5-0.7-2.2c1.4-3.7,4-6.8,4.7-10.7c0.2-1.2,0.6-2.3,0.4-3.5
				c-0.5-2.5-1.4-4.7-4.2-5.2c-2.6-0.4-5.4,2.5-5.9,5.5c-0.2,0.3-0.3,0.7-0.6,0.8c-1.3,0.8-2.9,1.9-4.2,0.8
				c-1.4-1.1,0.1-2.6,0.5-3.9c1.5-3.3,4.4-5.3,7.3-7.1c2.8-1.7,7.4-0.3,9.2,2.6c2,3.2,2.7,6.5,1.6,10.5c-1.3,4.8-3.3,8.9-7,12.2
				C177.7,43.5,177.4,43.5,177,43.2z"/>
			<path class="st92" d="M167.7,25.2c-0.4,1.1-0.8,2.2-1.3,3.6c1.9-0.4,3.4-0.9,4.6-2.1c0.9-0.3,1.1,0.3,1.2,1.1
				c-0.1,0.5-0.3,0.9-0.6,1.3c-0.4,0.6-1.1,0.9-1.2,1.7c0.4,0.9,1.4,0.8,2.2,1c0.8,0.3,1.7,0.5,1.6,1.6c-0.1,1.2-1,1.4-2.1,1.4
				c-2.9,0.2-5.5-0.4-7-3.6c-1.6,2.1-3.2,3.7-6.2,2.1c1-0.6,1.8-1.1,2.8-1.8c-1.9-0.5-3.5-0.9-5-1.9c-1.3-0.8-2.4-1.7-1.7-3.4
				c2.2-0.3,4.8,0.5,5.9-2.7c0.2-0.6,1,0.1,1.4,0.5c0.5,0.8,1,1.6,1.5,2.5c0.4,0.6,0.4,1.3,0.9,2c-0.2-0.8,0-1.5,0.2-2.2
				c0.4-1.1,0.1-2.5,1.5-3.2C168.3,22.8,168,24.1,167.7,25.2z"/>
			<path class="st93" d="M152.5,30.3c-1.5,0.8-2.9,1.6-4.4,2.4c-1.9-1-1.6-2.9-1.7-4.4c-0.3-3.5-0.2-6.9,0.7-10.3
				c0.1-0.4,0.2-0.8,0.4-1.1c2.2,0.5,2.5-1.3,3.3-2.7c1.8-3.2,4.6-5.2,8.1-5c3.9,0.2,7.2,2.2,9.1,5.9c0,1.3-0.4,2.1-1.7,2.4
				c-1.3-0.3-1.8-1.5-2.6-2.3c-3-2.9-7.1-2.7-9.6,0.6c-2.8,3.9-3.6,8.2-2.6,12.9C151.9,29.3,152.3,29.7,152.5,30.3z"/>
			<path class="st94" d="M171.8,28.1c0.1-0.6,0.4-1.4-0.7-1.4c-0.5,0-1-0.1-0.8-0.8c0.8-2.6,5.7-6,7.8-5.3c2.8,0.8,5.3,6,4.3,9
				c-1.4,4.1-2.6,8.4-6,11.6c-0.5-1-0.9-1.9-1.4-2.9c0.3-0.8-1-1.8,0.3-2.4c0.6-0.5-0.4-0.7-0.2-1.1c0.4-1.5,1.6-1.5,2.8-1.3
				c-0.9-1.1-1.4-2.3-0.4-3.7c0.3-0.2,1,0,0.7-0.8c0.4-0.9,1-1.7,0.9-2.7c-0.1-1.2-0.8-2-2-2.2c-1.2-0.2-2.1,0.3-2.3,1.6
				C174.5,27.3,174.2,29.1,171.8,28.1z"/>
			<path class="st95" d="M178.4,29.6c-1.5,1.3-0.4,2.5,0.2,3.8c-0.7,1.1-3.1-0.2-3.1,2c0.2,0.2,0.3,0.3,0.2,0.5
				c-0.1,0.2-0.1,0.2-0.2,0.2c-1,0.5,0.5,1.6-0.6,2.1c-0.9-1.2-1.8-2.4-2.7-3.6c0.6-0.4,1.2-0.8,2-1.4c-1.7-0.6-3.3-1-4.8-1.6
				c-0.9-0.4-1.5-1.1,0.2-1.3c0.8-0.2,1.2-0.7,1.4-1.4c0.2-0.3,0.4-0.5,0.6-0.8c1.2,0,2.4-0.5,2.2-1.7c-0.6-2.5,0.8-3.2,2.7-3.5
				c1.5-0.2,2.4,0.7,3.1,1.8c1.1,1.8,0.6,3.4-1.1,4.6C178.5,29.4,178.5,29.5,178.4,29.6L178.4,29.6z"/>
			<path class="st96" d="M156.1,37.4c0,2.2-1.1,3.6-3.4,3.7c-2.2,0.1-3.7-0.9-3.9-3.2c-0.1-2.4,1.1-3.9,3.5-4
				C154.5,33.9,156,35,156.1,37.4z"/>
			<path class="st97" d="M177,43.2c0.2,0,0.4,0,0.7,0c4.8-3.6,6.4-8.9,7.5-14.3c0.2-0.9,0.3-1.9,0.6-2.8c0.7-1.5-0.4-3.7,1.8-4.7
				c1,0.6,0.2,1.8,0.8,2.5c-0.1,0.1-0.1,0.3,0,0.4c-0.8,1.6,0.2,3.5-0.7,5.2c-1,2.8-2,5.7-2.9,8.5c-1.8,2.4-3.6,4.9-5.5,7.3
				c-0.5,0.7-1.2,1.7-2.1,0.2C177.1,44.9,177.1,44.1,177,43.2z"/>
			<path class="st98" d="M152.5,30.3c-0.6-0.1-1.2-0.2-1.5-0.8c0.1-3.5-0.9-7.4,2.4-10.2c0.9,0.4,2,0.2,2.8,1
				c-0.3,0.7,0.3,0.4,0.6,0.5c0.9,1.1,1,2.6-0.3,3c-1.4,0.5-0.4,1.6-1.1,2.1c-0.3,1.5,1.4,2.1,1.5,3.3C155.5,29.7,154,30,152.5,30.3
				z"/>
			<path class="st99" d="M187.7,21.7c-1.6,1.4,0.2,3.7-1.4,5c-0.3-0.2-0.5-0.5-0.6-0.8c-0.5-2.3-0.2-4.9-2.5-6.4
				c-0.4-0.3-0.7-0.6-1.1-0.9c-0.8-1.2-2.1-1.1-3.3-1.3c-2.6-0.8-4.8,0.1-6.9,1.7c-1.1,0.8-2.3,2.4-3.9,0.5c0.1-3.5,2.7-4.7,5.5-5.7
				c7-3.7,11.5-1.7,14.3,6.4C188.1,20.8,188.2,21.2,187.7,21.7z"/>
			<path class="st100" d="M173.6,13.9c-1.8,1.9-4.3,3-5.4,5.6c-0.2,0.3-0.4,0.5-0.7,0.7c-1.3,0.4-2.4,0.6-2.5-1.3
				c0.1-0.7,0.5-1.3,1.3-1.4c0.8-0.5,1.2-1.2,1.5-2c0.6-2.7-2.6-4.1-2.5-6.6c2.5-2.9,3,0.9,4.6,1.3c0.7,0.5,0.7,1.2,0.8,2
				C170.6,14.3,172.9,12.7,173.6,13.9z"/>
			<path class="st101" d="M167.6,19.5c0.2,0,0.4-0.1,0.5-0.1c1.3,0.9,2-0.2,3-0.8c2.4-1.7,4.8-3.3,8-2c1.1,0.7,2.6,0.6,3.6,1.4
				c0.2,0.2,0.5,0.5,0.7,0.7c2,2,2.5,4.5,2.9,7.2c0,0.2,0,0.5,0,0.7c-1.1,3.3-1.2,6.8-2.8,10c-1.3,2.5-2.7,4.9-4.6,7.1
				c-0.7,0.8-1.2,0.5-1.3-0.5c0-1.7,1.4-2.4,2.4-3.4c4.5-5,5.8-13.3,2.8-18.5c-1.9-3.4-6.5-4.3-9.4-1.8c-2,1.8-4.5,3.2-5.7,5.8
				c-0.1-1,0.2-2.4-1.6-2.2C165.2,21.2,166.5,20.4,167.6,19.5z"/>
			<path class="st102" d="M155.4,26c0.3-1.6-1.6-0.5-1.9-1.6c0.7-1.2,5.1,0.2,2.6-3.4l0,0c-0.2-1.2-2.3,0.4-2.2-1.4
				c0-0.2,0-0.3,0-0.5c2.6-4.6,6.6-4.8,10.6-0.6c0.3,0.2,0.5,0.5,0.6,0.8c0.1,2.4-0.3,4.6-3.2,5.2c-1.1-0.1-1.3-0.1-1.3,0.3
				c0,3.9-1.8,2.9-3.9,1.6C156.4,26.1,155.8,26.1,155.4,26z"/>
			<path class="st103" d="M161.9,24.4c1.6-1.5,2.5-3.4,3-5.6c0.2-0.3,0.4-0.3,0.6,0c0.2,1.9,1.5,0.3,2.2,0.7
				c-0.3,1.2-1.6,2.1-1.5,3.5c-0.2,1.2,0.4,2.6-0.7,3.7c-0.6-0.5-0.7-1.1-0.2-1.9c-0.9,0.7-0.6,2.2-2,2
				C162.9,26,162.4,25.2,161.9,24.4z"/>
			<path class="st104" d="M163.4,26.8c0.5-0.8,1-1.6,1.6-2.5c0.8,0.7,0.4,1.7,0.5,2.5c-0.2,0.7-0.3,1.7-1,1.7
				C163.7,28.4,163.6,27.5,163.4,26.8z"/>
			<path class="st105" d="M171.2,28.8c0.2,0.5,0.7,1,0.1,1.6c-0.5,0.6-1.1,0.1-1.6-0.1C170.2,29.8,170.7,29.3,171.2,28.8z"/>
			<path class="st106" d="M165.5,8.7c0.8,1.3,1.7,2.5,2.5,3.8c0.6,1,1.2,2.1-0.2,3c-5.5-6.9-12.9-7.7-16.8,0.8
				c-0.9,1.9-1.7,0.5-2.6,0.4c-1.3-1.4,0-2.4,0.5-3.4c0.9-1.8,2-3.5,3.1-5.1c3.1-2.7,6.5-4,10.5-2.3C163.9,6.3,165.1,7.1,165.5,8.7z
				"/>
			<path class="st107" d="M165.5,18.9c0,0-0.3,0-0.3,0s-0.3,0-0.3,0c-0.3,0-0.6,0-0.9-0.1c-1.1-1.7-1.7-4.1-4.4-3.9
				c-2.8,0.3-4.8,1.8-5.6,4.6c-2.2,2.6-2.9,5.5-1.8,8.8c0.4,1.1-0.3,1.2-1.1,1.3c-1.9-4.8,0.1-13.5,4-16.2c3.5-2.4,9.6-1,11.1,4
				C166,17.9,165.7,18.4,165.5,18.9z"/>
			<path class="st108" d="M175.5,36.1c0-0.2,0-0.5,0-0.7c0.6-0.2,1.2-0.9,1.8-0.3c0.4,0.3,0.4,0.9,0,1.2
				C176.7,36.9,176.1,36.2,175.5,36.1z"/>
			<path class="st109" d="M178.4,29.6c0.7,0.1,1.4,0.3,1.3,1.2c0,0.2-0.5,0.6-0.7,0.5C178.2,31,178.5,30.2,178.4,29.6
				C178.4,29.6,178.4,29.6,178.4,29.6z"/>
			<path class="st110" d="M176.5,26.6c-0.5-0.1-0.9-0.4-0.9-0.9c0-1,0.7-1.1,1.5-1.1c0.6,0,0.8,0.4,0.6,0.9
				C177.6,26.1,177.2,26.6,176.5,26.6z"/>
			<path class="st111" d="M174.5,31.6c-0.4,0-0.8-0.1-0.6-0.6c0.1-0.4,0.4-0.9,0.7-1.1c0.5-0.2,0.8,0.2,0.8,0.8
				C175.4,31.3,175.1,31.6,174.5,31.6z"/>
			<path class="st112" d="M156.1,20.9c-0.1,0.6,0.3,1.5-0.6,1.8c-0.1,0-0.5-0.1-0.5-0.3C154.8,21.6,155.5,21.3,156.1,20.9
				C156.1,21,156.1,20.9,156.1,20.9z"/>
			<path class="st113" d="M152.5,8.7c-0.6-1.7-2.5,1.8-2.9-0.8c2.1-3.9,5.1-6.7,9.8-6.5c5.6,0.2,8.2,4.2,10.3,8.6
				c-1.7,0.5-2.2-2.9-4.3-1.4C160.3,4.8,158.7,4.8,152.5,8.7z"/>
			<path class="st97" d="M186.3,26c-1-2.4-1.9-4.8-2.9-7.2C186.7,20.3,186.3,23.2,186.3,26z"/>
			<path class="st97" d="M182.7,18.1c-1.4,0-2.7-0.3-3.6-1.4C180.5,16.6,182,16.4,182.7,18.1z"/>
			<path class="st98" d="M153.9,19.5c0.7-3.3,3.3-6.1,5.8-5.6c2.5,0.5,4.2,2.1,4.3,4.9c-0.2,0.1-0.5,0.3-0.6,0.2
				C160.1,15.2,157.3,15.3,153.9,19.5z"/>
			<path class="st114" d="M160.2,19.6c-0.2,0.6-0.5,1.1-1.2,1c-0.6-0.1-0.7-0.6-0.6-1.1c0.1-0.6,0.4-1.2,1.1-1
				C160,18.7,160.2,19.1,160.2,19.6z"/>
			<path class="st115" d="M159.6,25.5c0,0.5-0.1,0.9-0.6,0.7c-0.3-0.1-0.5-0.5-0.6-0.7c-0.1-0.4,0.2-0.7,0.6-0.5
				C159.3,24.9,159.5,25.3,159.6,25.5z"/>
		</g>
	</g>
	<g>
		<path class="st56" d="M147.1,13.6c0.7,0.2,1,0.8,1.3,1.3c1.4,3.2,2.4,6.5,4.9,9.2c0.7,0.8,0.5,2.1,0.2,3.2c-2.5,2-5.3,3.6-8.1,5
			c-0.4,0.2-0.9,0.6-1.3,0.5c-3.3-0.3-5.9,1.3-8.4,3c-2.5-1.7-4.8-3.6-7-5.7c-2.7-2.7-2.4-5.4-1.2-8.3c1.1-2.5,2.6-4.7,4.7-6.6
			c2.6,0.8,5.1,0.1,7.3-1.3c1.3-0.8,2.4-1,3.8-0.4C144.6,14.1,145.8,14.4,147.1,13.6z"/>
		<path class="st57" d="M135.7,35.9c1-0.9,1.9-1.9,2.9-2.8c0.4-0.4,0.9-0.8,1.5-0.7c4.3,1.1,7.2-1.8,10.4-3.7c1-0.6,1.8-1.3,3-1.3
			c-2.2,5.1-5.5,9-11.2,10.3C139.8,38.2,137.5,37.9,135.7,35.9z"/>
		<path class="st58" d="M147.1,13.6c-0.1,1.1-0.3,1.9-1.7,1.2c-0.1,0-0.2,0-0.2-0.1c-2.2-0.8-4.3-1.4-6.6,0.4
			c-1.3,1-3.1,1.2-4.8,1.2c-0.8,0-1.5,0-1.6-1C136.6,10.8,143.1,10.1,147.1,13.6z"/>
		<path class="st59" d="M145.5,21.7c0,0.2,0,0.3-0.1,0.5c-1.6,2.1-3.5,3.7-5.8,4.9c-1.7,0.9-2.9-0.2-4.2-0.8c-0.6-0.3-1.3-0.6-1.9-1
			c-0.6-0.3-1.5-0.5-1.1-1.5c0.3-0.8,1.1-0.8,1.8-0.8c0.6,0,1,0.4,1.5,0.7c2.6,1.9,4.8,1.6,6.6-1.2c0.6-0.9,1.1-1.6,2.2-1.5
			C145,21,145.4,21.1,145.5,21.7z"/>
	</g>
	<g>
		<path class="st46" d="M147,58.1c-16.9-1.4-33.8-2.8-50.6-4.2c-0.6-6,1.8-10.9,5.8-14.9c11.2-11,29.9-10.2,40.3,1.5
			c3.5,4,5.3,8.7,5.3,14C147.8,55.7,147.9,57,147,58.1z"/>
		<path class="st29" d="M147,58.1c0.5-4.9-0.1-9.7-2.7-14c-3.8-6.2-9.6-9.7-16.5-11.5c-9.1-2.5-20.8,1.2-26.6,8.4
			c-2.7,3.4-4.1,7.2-4.4,11.4c0,0.6-0.2,1-0.5,1.4c-2,0.1-2.6-0.7-2.3-2.8c1.6-10.6,8.1-16.9,17.9-20.2c13.3-4.4,27.8,0.8,34.9,12.2
			c2.4,3.9,3.4,8.1,3,12.7C149.6,57.9,148.9,58.5,147,58.1z"/>
	</g>
	<g>
		<path class="st46" d="M178.5,67.3c-12.1-1-24.1-2-36.2-3c-0.4-4.3,1.3-7.8,4.2-10.7c8-7.8,21.3-7.3,28.8,1.1
			c2.5,2.8,3.8,6.2,3.8,10C179.1,65.6,179.2,66.6,178.5,67.3z"/>
		<path class="st29" d="M178.5,67.3c0.4-3.5,0-6.9-1.9-10c-2.7-4.4-6.8-6.9-11.8-8.2c-6.5-1.8-14.8,0.8-19,6c-1.9,2.4-3,5.1-3.1,8.2
			c0,0.4-0.1,0.7-0.3,1c-1.4,0.1-1.9-0.5-1.7-2c1.1-7.6,5.8-12.1,12.8-14.4c9.5-3.1,19.9,0.5,24.9,8.7c1.7,2.8,2.4,5.8,2.2,9.1
			C180.5,67.2,179.9,67.7,178.5,67.3z"/>
	</g>
	<g>
		<path class="st116" d="M104.6,55.9c1.7,0,2.9-0.8,4.2-1.9c2.5-2.2,6.7-1.2,8,1.9c0.6,1.4,1.3,2.5,2.8,3c0.2,0.1,0.4,0.4,0.6,0.6
			c-0.3,0.7-0.4,1.3-0.2,2c0.6,2.1,0.6,4.1-1.1,5.9c-0.9,1-1.5,2.3-2.7,3.1c-3.6,2.6-7.2,2.2-10.8,0.2c-1.3-0.7-2-2-2.6-3.2
			c-0.5,0.1-0.4,0.9-1.1,0.8c-0.1-1.1,0.2-2.1,0.2-3.2c0-0.2,0.1-0.4,0.1-0.5C100.8,61.1,103,58.6,104.6,55.9z"/>
		<path class="st117" d="M104.6,55.9c0.4,1.2-0.5,2-1,2.7c-1.1,1.5-1.8,2.9-1.2,4.8c0.4,1.5-0.7,3-0.4,4.8c0.2-0.8,0.4-1.4,0.6-2.1
			c0.8,0.5,0.6,1.4,1,2c1.6,2.4,3.8,3.5,6.6,3.7c3.1,0.2,5.7-0.9,7.6-3.5c1.7-2.3,3.2-4.7,1.4-7.7c-0.3-0.5,0.3-1.1,1-1.2
			c2.4,2.4,2.4,6.1-0.1,8.7c-0.7,0.1-1.3,0.6-1.7,1.2c-0.2,0.7-0.3,1.3-0.5,2c-1.8,3.7-5.4,4.1-8.4,2.2c-0.4-0.2-0.8-0.3-1.3-0.3
			c-4.1,0.3-5.5-0.7-6.9-4.7c0.2-1.6-0.1-3-0.8-4.6C99,60.7,101.2,56.8,104.6,55.9z"/>
		<path class="st118" d="M101.3,68.6c1.1,2,2.1,4.2,4.8,4.2c1.9,0,3.5,0.4,5.3,1.1c2.9,1.2,4.9-0.4,6.6-2.5c-1.2,3.6-5,5-8.2,2.9
			c-0.7-0.4-1.3-0.6-2.1-0.4C104.2,74.4,101.5,72.1,101.3,68.6z"/>
		<path class="st119" d="M118.4,69.4c0.3-0.8,0.6-1.5,1.7-1.2C119.6,68.8,119,69.1,118.4,69.4z"/>
		<path class="st120" d="M114.8,67.4c-3.8,3.1-7.1,2.2-9.2-2.3c-1.1-2.1,0-3.7,1.3-5.2c1.7-1.8,4.8-2,6.9-0.6
			c2.3,1.5,3.2,4.5,2.1,6.8C115.7,66.7,115.4,67.2,114.8,67.4z"/>
		<path class="st34" d="M114.8,67.4c1.9-3.6,1.3-6.2-1.5-7.9c-1.8-1.1-3.6-0.9-5.2,0.1c-1.6,0.9-2.7,2.5-2.5,4.5c0,0.3,0,0.7,0,1
			c-1.5-0.4-2.1-2.3-1.2-4.1c1-2,2.6-3.1,4.6-4.1c1.5-0.8,2.7-0.7,4-0.2c2,0.6,3.2,2.4,4.2,4c1.3,2,0.1,6.2-2.1,7.4
			C114.1,68.7,115.5,67.3,114.8,67.4z"/>
		<path class="st121" d="M113.6,64.6c-0.3,1.6-2,2.8-3.5,2.4c-1.7-0.4-2.8-2.1-2.4-3.7c0.4-1.5,2.1-2.7,3.6-2.4
			C113.1,61.4,114,62.7,113.6,64.6z"/>
	</g>
	<g>
		<path class="st116" d="M79.1,51.3c1.8-1.2,2.7-2.8,3.4-4.9c1.4-4.1,6.6-5.7,10.2-3.2c1.6,1.2,3.1,1.9,5.1,1.5
			c0.3-0.1,0.7,0.2,1.1,0.3c0.1,0.9,0.4,1.7,1.1,2.4c2,2,3.3,4.2,2.7,7.3c-0.4,1.7-0.2,3.5-0.9,5.3c-2.3,5.3-6.5,7.1-11.9,7.3
			c-1.9,0.1-3.5-0.9-5-1.9c-0.4,0.4,0.1,1.2-0.7,1.6c-0.8-1.1-1.1-2.5-1.9-3.6c-0.1-0.2-0.1-0.5-0.2-0.6
			C78.3,59.6,79.1,55.3,79.1,51.3z"/>
		<path class="st117" d="M79.1,51.3c1.3,1,0.7,2.6,0.6,3.7c-0.2,2.4-0.1,4.3,1.8,6.1c1.5,1.4,1.2,3.8,2.8,5.6
			c-0.3-1.1-0.5-1.8-0.7-2.7c1.3,0,1.6,1.1,2.5,1.6c3.3,1.6,6.6,1.3,9.8-0.3c3.6-1.8,5.8-4.8,6.1-8.8c0.3-3.7,0.4-7.3-3.5-9.5
			c-0.7-0.4-0.3-1.4,0.3-2c4.3,1.1,6.7,5.2,5.6,9.7c-0.7,0.6-1,1.4-1.1,2.4c0.2,0.8,0.5,1.7,0.7,2.5c0.4,5.3-3.3,8.1-7.9,8
			c-0.6,0-1.1,0.2-1.7,0.5c-4.4,3-6.6,2.8-10.7-0.7c-0.8-2-2.1-3.3-3.9-4.6C76,60.3,75.8,54.5,79.1,51.3z"/>
		<path class="st118" d="M83.7,67.5c2.5,1.6,5.1,3.3,8.1,1.5c2.1-1.2,4.2-1.9,6.5-2.2c4-0.6,5.2-3.6,5.6-7.1c1,4.8-2.3,8.8-7.1,8.6
			c-1.1,0-1.8,0.2-2.6,0.9C90.7,72.1,86.3,71.3,83.7,67.5z"/>
		<path class="st119" d="M103.2,57.2c-0.2-1.1-0.3-2,1.1-2.4C104.3,55.7,103.8,56.5,103.2,57.2z"/>
		<path class="st120" d="M98,57.4c-2.2,5.9-6.4,7.1-11.8,3.5c-2.6-1.6-2.5-4.1-1.9-6.6c0.7-3.1,4-5.4,7.3-5.2
			c3.5,0.2,6.5,2.9,6.8,6.2C98.5,56,98.5,56.7,98,57.4z"/>
		<path class="st34" d="M98,57.4c-0.3-5.2-2.6-7.8-6.9-7.8c-2.7,0-4.6,1.4-5.7,3.5c-1.2,2.1-1.3,4.5,0.2,6.7
			c0.3,0.4,0.4,0.8,0.7,1.2c-1.9,0.6-3.8-1.1-4-3.7c-0.2-2.9,0.9-5.2,2.4-7.6c1.2-1.9,2.5-2.5,4.3-2.9c2.7-0.6,5.1,0.6,7.3,1.7
			c2.7,1.3,4.1,6.8,2.5,9.6C98.1,59.2,98.7,56.8,98,57.4z"/>
		<path class="st121" d="M94.8,55.1c0.7,2-0.4,4.4-2.2,5c-2.1,0.7-4.5-0.5-5.1-2.5c-0.6-1.9,0.6-4.4,2.4-5
			C92.1,51.7,94,52.7,94.8,55.1z"/>
	</g>
	<g>
		<path class="st87" d="M216.5,129.3c0.1-0.5,0.2-1,0.3-1.5c1.2-2.8,4.1-3.5,6-5.3c1-0.4,1.6-1.6,2.8-1.7c0.2,1.1-0.7,1.7-1.1,2.5
			C222.5,126.2,219.4,127.6,216.5,129.3z"/>
		<path class="st87" d="M225.8,122.7c0.7-0.9,1-2.2,2.4-2.5C227.5,121.2,227,122.3,225.8,122.7z"/>
		<path class="st88" d="M223.3,123.1c1-1.2,1.7-2.7,3.1-3.4c-0.2,0.4-0.5,0.8-0.7,1.2C224.9,121.5,224.6,122.9,223.3,123.1z"/>
		<path class="st87" d="M227.4,117.3c0.3-0.3,0.6-0.6,0.8-1c0.1,1.3-0.9,2-1.6,3C226.9,118.6,227.1,118,227.4,117.3z"/>
		<g>
			<path class="st89" d="M206,132.2c-3.7,1.7-7.5,1.1-11.3,1.2c-2.7,0-5.4-0.1-8-0.8c-1.9-0.6-3.5-1.5-4.2-3.5
				c-0.2-1.4,0.5-2.6,1.4-3.3c2.8-2.5,4.1-5.4,4-9c0.3-1.1,2.3-1.8,1.3-3.1c-0.9-1.2-2.2,0.3-3.3,0.3c-0.9-0.4-1.4-1.1-1.6-2
				c0.7-3.3,3.6-3.9,5.9-5.2c0.7-0.2,1.4-0.3,2.1-0.5c0.4-0.1,0.8-0.2,1.2-0.2c0.7-0.1,1.4-0.3,2-0.3c1.4,0,2.8,0.2,4.1,0.5
				c1.1,0.3,2.2,0.6,3.1,1.3c0.9,0.8,1.4,1.9,2,3c0.5,1,0.1,1.7-1,2.3c2.9-0.4,4.4,0.6,4.7,3.5c0.1,1.2,1.6,1.7,2.2,2.8
				c0.5,1.3,0.2,2.6,0.1,4c-0.2,1-0.4,2.1-0.7,3.1c-0.2,0.8-0.5,1.5-0.8,2.2c-0.3,0.6-0.7,1.2-1,1.7
				C207.6,131,206.9,131.7,206,132.2z"/>
			<path class="st90" d="M225.9,102.2c4.1,1.2,6.9,3.5,7,8.3c-0.8,3.6-2.6,6.8-4.8,9.8c-1.1,0.5-1.3,1.9-2.4,2.5
				c-0.3,0.5-0.7,0.7-1.2,0.6c-0.3-1,0.3-1.8,0.6-2.6c0.2-0.4,0.4-0.9,0.6-1.3c0.1-0.3,0.3-0.5,0.5-0.8c0.6-0.9,1.2-1.7,1.4-2.7
				c1.7-6.6,0.7-8.5-5.9-10.8c-0.7-0.9-2.7-1.1-1.4-3.1C222.3,101.1,224.2,101.4,225.9,102.2z"/>
			<path class="st88" d="M206,132.2c0.6-0.9,1.2-1.7,1.8-2.6c2,0.5,3.7-0.7,5.5-1.2c1.1-0.3,2.2-1.2,3.4-0.8
				c0.5,0.6-0.1,1.1-0.2,1.6C213.2,131.4,209.7,132.3,206,132.2z"/>
			<path class="st91" d="M208.9,127.8c0.2-0.6,0.5-1.3,0.7-1.9c2.8-2,6.2-3,8.8-5.5c0.8-0.7,1.6-1.4,2.1-2.4c1-2,1.5-4.1-0.1-5.8
				c-1.5-1.5-4.9-0.8-6.9,1.2c-0.3,0.2-0.6,0.3-0.9,0.3c-1.3-0.1-2.9,0-3.3-1.4c-0.3-1.5,1.4-1.8,2.3-2.6c2.7-1.7,5.7-1.8,8.6-1.7
				c2.7,0.1,5.1,3.4,4.8,6.3c-0.4,3.3-1.6,6-4.4,8.4c-3.4,2.9-6.8,4.9-11,5.5C209.3,128.3,209,128.1,208.9,127.8z"/>
			<path class="st92" d="M212.1,110.3c-0.8,0.6-1.6,1.2-2.7,2c1.5,0.6,2.8,1,4.2,0.7c0.8,0.3,0.6,0.8,0.3,1.4
				c-0.3,0.3-0.6,0.5-1,0.6c-0.6,0.2-1.2,0.2-1.7,0.6c-0.2,0.9,0.5,1.2,0.9,1.8c0.4,0.6,0.9,1.2,0.3,1.9c-0.7,0.8-1.4,0.5-2.1,0
				c-2.1-1.3-3.5-3-2.8-6c-2.2,0.7-4.1,1.1-5.2-1.5c1,0,1.8,0,2.8,0c-1.1-1.3-1.9-2.4-2.4-3.7c-0.4-1.2-0.8-2.4,0.6-3.3
				c1.6,0.9,3,2.7,5.3,0.9c0.4-0.3,0.6,0.5,0.6,1.1c-0.1,0.8-0.2,1.7-0.3,2.5c0,0.6-0.4,1.2-0.4,1.8c0.3-0.7,0.8-1.1,1.3-1.5
				c0.9-0.6,1.4-1.8,2.7-1.7C213.7,108.8,212.9,109.5,212.1,110.3z"/>
			<path class="st94" d="M213.3,114.3c0.4-0.4,1-0.8,0.3-1.3c-0.3-0.3-0.6-0.6-0.1-1c1.9-1.5,7-1.6,8-0.1c1.4,1.9,0.4,6.9-1.8,8.6
				c-3.1,2.3-6.1,4.9-10.1,5.5c0.2-0.9,0.4-1.8,0.6-2.8c0.6-0.4,0.3-1.8,1.5-1.6c0.7,0,0.1-0.7,0.5-0.9c1.1-0.9,1.8-0.3,2.6,0.4
				c0-1.3,0.2-2.4,1.6-2.8c0.3,0,0.7,0.5,0.9-0.2c0.7-0.5,1.5-0.7,2-1.5c0.5-1,0.5-1.9-0.2-2.6c-0.7-0.7-1.5-0.8-2.4,0.1
				C215.6,115,214.4,116.2,213.3,114.3z"/>
			<path class="st95" d="M217,118.6c-1.7,0.2-1.6,1.7-1.8,2.9c-1.1,0.5-1.9-1.6-3.1-0.1c0.1,0.2,0,0.4-0.1,0.4
				c-0.1,0.1-0.2,0.1-0.3,0.1c-0.9-0.1-0.5,1.5-1.5,1.3c0-1.3,0-2.6,0-3.9c0.6,0,1.2,0,2.1,0c-0.9-1.3-1.7-2.3-2.4-3.5
				c-0.4-0.7-0.4-1.5,0.8-0.9c0.6,0.2,1.2,0.1,1.7-0.4c0.3-0.1,0.5-0.2,0.8-0.3c0.8,0.6,1.9,0.8,2.4-0.2c0.9-2.1,2.2-1.9,3.6-1.2
				c1.1,0.5,1.3,1.7,1.1,2.8c-0.2,1.8-1.4,2.7-3.1,2.8C217.2,118.4,217.1,118.5,217,118.6L217,118.6z"/>
			<path class="st96" d="M198,113.5c-1.2,1.6-2.6,2.1-4.2,1.1c-1.6-1-2.1-2.4-0.9-4.2c1.1-1.8,2.8-2.3,4.4-1.2
				C198.7,110.2,199.1,111.7,198,113.5z"/>
			<path class="st97" d="M208.9,127.8c0.1,0.1,0.3,0.2,0.4,0.3c5.1-0.3,8.9-3.4,12.5-6.8c0.6-0.6,1.2-1.2,1.8-1.7
				c1.3-0.7,1.7-2.9,3.6-2.5c0.3,0.9-0.8,1.4-0.7,2.2c-0.1,0.1-0.2,0.2-0.2,0.3c-1.4,0.8-1.7,2.7-3.1,3.4c-2.1,1.6-4.3,3.2-6.4,4.8
				c-2.5,0.9-5,1.8-7.5,2.7c-0.7,0.2-1.7,0.7-1.5-0.8C208.2,129,208.6,128.4,208.9,127.8z"/>
			<path class="st99" d="M227.4,117.3c-1.8,0.2-1.8,2.8-3.6,3c-0.1-0.3-0.1-0.6,0-0.8c0.9-1.9,2.4-3.6,1.7-5.9
				c-0.1-0.4-0.2-0.8-0.3-1.2c0.1-1.2-0.9-1.8-1.6-2.5c-1.4-1.8-3.3-2.2-5.5-2.1c-1.2,0.1-2.8,0.6-2.9-1.5c1.9-2.5,4.2-2.1,6.6-1.5
				c6.6,0.6,8.6,4.3,6.3,11.5C228.1,116.8,227.9,117.2,227.4,117.3z"/>
			<path class="st101" d="M215,106.1c0.1,0.1,0.3,0.1,0.4,0.2c0.4,1.3,1.5,0.9,2.4,0.8c2.5-0.1,5-0.1,6.4,2.4
				c0.4,1.1,1.4,1.6,1.7,2.8c0,0.3,0.1,0.6,0.1,0.9c0.3,2.4-0.7,4.5-1.8,6.6c-0.1,0.2-0.2,0.3-0.4,0.5c-2.4,1.9-4.3,4.4-7.1,5.9
				c-2.2,1.2-4.4,2.2-6.7,2.9c-0.9,0.3-1.1-0.2-0.6-1c0.9-1.2,2.2-1.1,3.4-1.4c5.6-1.5,10.8-6.9,11.5-12.1c0.5-3.4-2.1-6.3-5.4-5.8
				c-2.3,0.3-4.7,0.1-6.8,1.4c0.5-0.8,1.4-1.6,0.1-2.4C212.5,106.1,213.7,106.1,215,106.1z"/>
			<path class="st103" d="M208.6,106.8c1.9-0.3,3.5-1.3,4.9-2.6c0.3-0.1,0.4,0,0.4,0.3c-0.8,1.5,0.8,0.9,1.1,1.5
				c-0.9,0.7-2.2,0.7-2.8,1.8c-0.8,0.8-1.1,2.1-2.4,2.4c-0.2-0.7,0.1-1.2,0.9-1.5c-0.9,0.1-1.5,1.3-2.4,0.5
				C208.4,108.5,208.5,107.7,208.6,106.8z"/>
			<path class="st104" d="M208.3,109.3c0.7-0.3,1.5-0.7,2.4-1.1c0.2,0.9-0.6,1.4-0.9,2.1c-0.5,0.4-1,1.1-1.6,0.7
				C207.7,110.7,208.2,109.9,208.3,109.3z"/>
			<path class="st105" d="M212.5,114.5c-0.2,0.5-0.1,1.1-0.7,1.2c-0.7,0.1-0.7-0.5-1-0.9C211.4,114.8,211.9,114.7,212.5,114.5z"/>
			<path class="st108" d="M211.7,121.9c0.1-0.2,0.2-0.3,0.4-0.5c0.5,0.2,1.2-0.1,1.4,0.7c0.1,0.4-0.2,0.8-0.6,0.9
				C212,123.1,212,122.3,211.7,121.9z"/>
			<path class="st109" d="M217,118.6c0.4,0.4,0.8,0.9,0.2,1.5c-0.1,0.1-0.7,0.2-0.7,0.1C216.1,119.5,216.7,119.1,217,118.6
				C217,118.6,217,118.6,217,118.6z"/>
			<path class="st110" d="M217.3,115.5c-0.3-0.3-0.4-0.7-0.1-1.1c0.5-0.7,1.1-0.4,1.6,0c0.4,0.3,0.3,0.7-0.1,1
				C218.2,115.7,217.8,115.8,217.3,115.5z"/>
			<path class="st111" d="M213.3,118.2c-0.3-0.2-0.4-0.5-0.1-0.7c0.3-0.2,0.7-0.5,1-0.5c0.5,0.1,0.4,0.6,0.2,0.9
				C214.1,118.3,213.7,118.4,213.3,118.2z"/>
			<path class="st97" d="M224.2,119.7c0.6-2.2,1.2-4.4,1.8-6.6C227.4,115.8,225.6,117.7,224.2,119.7z"/>
			<path class="st97" d="M225.9,112.3c-1-0.6-1.6-1.5-1.7-2.8C225.1,110.2,226.3,110.7,225.9,112.3z"/>
		</g>
	</g>
	<g>
		<path class="st75" d="M120.1,125.5c-1.3-4.5-0.6-9-0.4-13.4c0.1-1.3,0.4-2.7,0.4-4.1c0.1-4.6,4.4-7.9,10.5-8c15.5,0,30.9,0,46.4,0
			c7.5,0,11.5,3.1,11.6,8.9c0,1.3,0,2.6,0,3.9c-1.9,4.4-4.9,6.3-11.1,6.3c-15.4,0.1-30.9,0.1-46.3,0c-4.4,0-8.2-1-10.1-4
			c0.4,2.5,0.2,5.3,0.2,8.2C121.2,124.1,121,124.9,120.1,125.5z"/>
		<path class="st122" d="M120.1,125.5c0-3.9,0-7.7,0-11.6c3.9,5,10.1,4.4,16.2,4.4c12.8-0.1,25.6-0.2,38.4,0.1
			c6.3,0.1,10.9-1.3,13.8-5.6c0,3.7,0.1,7.4,0,11c-0.1,4.8-4.4,8.2-10.6,8.2c-15.8,0.1-31.6,0.1-47.4,0
			C125.1,132,121.8,129.9,120.1,125.5z"/>
		<path class="st123" d="M140.4,109.9c-0.5-0.2-1-0.5-1.5-0.7c-3.9-1.7-3.9-3.2,0-5.2c0.3,0.1,0.6,0.2,0.7,0.5
			c-0.9,0.8-2.7,1.1-2.1,2.6c0.5,1.2,1.9,1.5,3.3,1.8c4.9,1.1,9.9,0.4,14.9,0.6c3.4,0.1,6.9,0,10.3,0c0.7-0.2,1.5-0.5,1.6,0.5
			c-1.4,0.4-3-0.1-4.4,0.6c-6.9,0.7-13.8,0.2-20.7,0.3C141.7,110.8,141.1,110.3,140.4,109.9z"/>
		<path class="st124" d="M139.7,104.5c-0.2-0.2-0.5-0.3-0.7-0.5c1.7-0.8,3.6-1.2,5.6-1.3c1-0.6,2.3-0.5,3.4-0.5c6.2,0,12.3,0,18.5,0
			c1.2,0,2.4-0.1,3.4,0.5c1.8,0,3.4,0.5,4.9,1.3c0.1,0.5,0,0.8-0.7,0.5c-3.4-1.1-7-1.2-10.6-1.1
			C155.6,103.7,147.5,102.4,139.7,104.5z"/>
		<path class="st122" d="M137.5,114.4c11.2,0,22.5,0,33.7,0c0.8-0.3,0.9,0,0.7,0.5c-0.2,0.1-0.4,0.1-0.6,0.1
			c-0.8,0.5-1.8,0.5-2.8,0.5c-9.5,0-18.9,0-28.4,0c-1,0-1.9,0-2.8-0.5c-0.2,0-0.4-0.1-0.6-0.1C136.6,114.4,136.7,114.1,137.5,114.4z
			"/>
		<path class="st125" d="M171.3,115.5c-0.5,0.5-1.2,0.6-1.9,0.6c-10.4,0-20.8,0-31.2,0c-0.2,0-0.5,0-0.6-0.1c-0.1-0.1,0-0.3-0.1-0.4
			c4.7-0.6,9.5-0.2,14.2-0.2C158.2,115.3,164.8,114.9,171.3,115.5z"/>
		<path class="st126" d="M171.3,115.5c-11.3,0-22.5,0-33.8,0c0-0.2,0-0.3-0.1-0.5c11.3,0,22.6,0,33.9,0
			C171.3,115.2,171.3,115.3,171.3,115.5z"/>
		<path class="st127" d="M169.9,107.6c-1.7-0.3-3.3-1.1-5.1-0.9c-0.8,0.3-1.7,0.2-2.5,0c-4.4-0.2-8.7,0-13.1-0.1
			c-1.3,0-2.6,0.2-3.7-0.6c2.2-1.1,4.6-0.5,6.9-0.5c4.8,0,9.7-0.5,14.5,0.5c1.1,0.2,2.4,0.3,3,1.2c0.2,0.1,0.3,0.2,0.2,0.3
			C170,107.6,170,107.6,169.9,107.6z"/>
		<path class="st128" d="M140.4,109.9c3.1,1.1,6.4,0.5,9.5,0.5c4.4,0.1,8.9,0,13.3,0c0.7,0,1.4,0.1,2.1,0.1c0,0.1,0,0.3,0,0.4
			c-7.9,0-15.7,0-23.6,0C141.3,110.9,140,111,140.4,109.9z"/>
		<path class="st129" d="M144.7,102.2c-0.1,0-0.3,0-0.3-0.1c-0.2-0.1-0.3-0.2-0.4-0.3c0.2-0.1,0.4-0.2,0.5-0.2c8.3,0,16.6,0,25,0
			c0.1,0,0.3,0.1,0.3,0.1c0,0.1,0,0.3,0,0.5C161.4,102.7,153.1,102.6,144.7,102.2z"/>
		<path class="st130" d="M144.7,102.2c8.4,0,16.7,0,25.1,0c0,0.2,0.1,0.3,0.1,0.5c-8.5,0-16.9,0-25.4,0
			C144.6,102.6,144.7,102.4,144.7,102.2z"/>
		<path class="st125" d="M162.7,106.6c0.7,0.1,1.4,0.1,2.1,0.2c-6.5,0.7-12.9,0.9-19.4-0.1C151.2,106.2,156.9,106.3,162.7,106.6z"/>
		<path class="st131" d="M162.7,106.6c-5.8,0-11.5,0-17.3,0c0-0.2,0-0.4,0.1-0.6c4.6,0,9.2,0,13.9,0.1
			C160.5,106.1,161.7,105.9,162.7,106.6z"/>
		<path class="st132" d="M174.2,104.4c0.2-0.2,0.5-0.3,0.7-0.5c3.5,1.6,5.5,3.8,4.2,7.1c-0.6,0.1-1,0-0.6-0.6
			C179,107.6,176.8,105.9,174.2,104.4z"/>
		<path class="st133" d="M178.4,110.4c0.2,0.2,0.4,0.4,0.6,0.6c-1.4,2.3-3.9,3.4-7.1,3.8c-0.2-0.2-0.5-0.3-0.7-0.5
			C174.2,113.7,176.9,112.7,178.4,110.4z"/>
		<path class="st134" d="M130.4,111.6c-1.3-1.9-1.2-3.9,0-6.6c0.8,2.5-0.7,4.3,0.7,6C131.4,111.6,131,111.7,130.4,111.6z"/>
		<path class="st135" d="M131.3,100.7c0.5,1.2,0.6,2.1-0.6,3.2C130.1,102.6,130.4,101.8,131.3,100.7z"/>
		<path class="st136" d="M137.5,114.4c-0.2,0.2-0.5,0.3-0.7,0.5c-1.4,0-2.5-0.6-3.6-1.1c-0.1-0.5,0-0.8,0.7-0.5
			C135.1,113.6,136.3,114,137.5,114.4z"/>
		<path class="st137" d="M133.9,113.3c-0.2,0.2-0.5,0.4-0.7,0.5c-1.3-0.5-2.2-1.2-2.8-2.2c0.2-0.2,0.5-0.4,0.7-0.6
			C132,111.8,132.9,112.5,133.9,113.3z"/>
		<path class="st138" d="M167.6,109.9c-0.5-0.2-1-0.3-1.6-0.5c1.3-0.3,2.5-0.7,3.8-1c0.3,0.1,0.5,0.3,0.6,0.5
			C169.8,109.6,168.6,109.5,167.6,109.9z"/>
		<path class="st139" d="M170.5,108.8c-0.2-0.2-0.4-0.3-0.6-0.5c0-0.2,0-0.5,0-0.7c0-0.1,0-0.3,0-0.4
			C171.3,107.5,171.8,107.9,170.5,108.8z"/>
	</g>
	<g>
		<path class="st28" d="M249.2,72.6c1.4,4.4,0,8.6-3.7,10.9c-3.8,2.4-8.1,1.8-11.7-1.5c-0.5-0.9,0.1-1.6,0.6-2.2
			c4-4.9,3.8-10.4,2.3-16.1c-0.3-1.2-0.2-2.1,0.5-3c4.1,0.1,5.4,3.9,7.9,6.1C246.9,68.3,247.9,70.6,249.2,72.6z"/>
		<path class="st34" d="M230.7,77.8c-1.5-1.4-3-2.8-4.5-4.1c-0.1-2.4,0.6-4.8,0.1-7.3c-0.1-0.7-0.3-1.3-0.5-2
			c-1.4-4-5.1-5.2-8.5-6.5c-2.3-0.9-4.3,0.9-5.9,2.6c-1.9,2-3.8,4.1-7,3.7c-2.3-1.9-2-3.7,0.1-5.7c3.1-3,6.6-5.2,10.8-6.1
			c2.9-0.4,5.8-0.2,8.5,1.2c1.2,1.5,2.2,2.9,4.4,3.4c1.6,0.4,2.4,2.3,3.4,3.6c3,4.3,2.6,9.1,2,13.8
			C233.4,75.9,232.5,77.3,230.7,77.8z"/>
		<path class="st140" d="M198.2,75.6c-3.7,2-7.2,1.6-10.3-1.1c-3.1-2.6-4.1-6-2.8-10c2.9-4.1,6.8-7.2,11.5-9
			c0.9-0.4,1.7-0.8,2.7-0.5c1.8,1.1,0.7,2.4,0.3,3.7c-1.3,3.7-3.2,7.1-3.1,11.2C196.6,72.1,197,73.9,198.2,75.6z"/>
		<path class="st116" d="M198.2,75.6c-2.4,0-2.7-1.4-2.7-3.4c-0.1-5.2,1.5-10,3.8-14.6c0.4-0.8,0.7-1.5,0.2-2.3
			c0.5-1.5,1.9-1.7,3.1-2.1c3.3-1,6.7-1.6,10.2-1.4c1,0.1,2.3-0.3,2.4,1.3c-3.8,1.2-7.1,3.1-10,5.9c-1.8,1.7-1.9,3-0.3,4.7
			c1.2,2.9-1.2,5.3-1,8.1C202,73.1,200.1,74.4,198.2,75.6z"/>
		<path class="st26" d="M203.9,71.9c-1.7-3,0.9-5.4,1-8.1c2.5-0.6,4.4-2.1,6.1-4c3.5-3.8,5.7-3.8,10.1-1c1.7,1.1,3.5,2,4.9,3.3
			c0.7,0.7,0.9,1.3,0.5,2.2c-0.3,1.4,0.4,2.7,0.1,4.1c-0.1,0.3-0.2,0.6-0.4,0.9c-1.6,0.6-1.9-1-2.6-1.7c-1.9-1.9-3.7-4-6.7-3.8
			c-1,2,1.3,4.1-0.2,6c-0.5,0-1-0.1-1.5-0.1c-0.9-0.5-1.9-0.3-2.8-0.1c-2.2,0.4-3.9-0.2-4.7-2.6c0.3,1.1,0.9,2,0.3,3.1
			C206.6,70.7,205.2,71.3,203.9,71.9z"/>
		<path class="st25" d="M230.7,77.8c4.4-4.5,2.5-15.7-1.9-19.5c-0.6-0.5-1-0.8-1.8-0.8c-2.1,0-3.1-1.2-3.1-3.2
			c4.1-0.6,11.8,3.2,13.3,6.6c1,3.1,1.2,6.2,1.3,9.5c0.1,4.7-1.9,8.2-4.7,11.5C232.3,80.9,231.6,79.2,230.7,77.8z"/>
		<path class="st141" d="M237.2,60.9c-3.7-3.6-8.4-5.3-13.3-6.6c-2.8-1-5.7-1.4-8.7-1.1c-5.6-1.6-10.6,0.4-15.8,2.2
			c-5.7,1.5-10,5.4-14.3,9.2c0.3-2.1,1.6-3.4,3.1-4.7c17.7-15.9,50.2-9.7,60.8,11.7c0.2,0.3,0.1,0.7,0.2,1c-3-3.3-5.3-7.3-9-10
			C239.3,61.9,238.6,60.8,237.2,60.9z"/>
		<path class="st142" d="M216.4,63.3c3.9-1.8,5.5,1.9,7.8,3.6c0.8,0.6,1.2,1.6,1.8,2.5c0.4,1.7,0,3-2,3c-1.7-0.7-3.4-1.3-5.1-2
			C217.4,68.2,216.7,65.8,216.4,63.3z"/>
		<path class="st143" d="M216.4,63.3c1.2,2.2,2.5,4.4,2.5,7c-0.8,0.1-1.6,0-2.2-0.5c-0.5-1.9-0.4-3.9-1.3-5.8
			C214.7,62.6,215.8,63.1,216.4,63.3z"/>
		<path class="st144" d="M208,70.1c-0.7-1.7-1.5-3.3-2.2-5c2.7,2.7,5.5,4.8,9.4,4.6C212.8,69.8,210.4,70,208,70.1z"/>
		<path class="st145" d="M224,72.3c1.3-0.6,1.5-1.9,2-3c0-0.2,0-0.5,0-0.7c1-0.7-0.7-2.6,1.3-2.9c-0.1,2.7,1,5.5-1.1,8
			C225.5,73.2,224.7,72.7,224,72.3z"/>
		<path class="st142" d="M227.3,65.7c-1.1,0.7-0.2,2.3-1.3,2.9c0.2-1.5-0.7-3,0.5-4.4C226.8,64.7,227,65.2,227.3,65.7z"/>
	</g>
</g>
</svg>
