<?xml version="1.0" encoding="utf-8"?>
<!-- Generator: Adobe Illustrator 22.1.0, SVG Export Plug-In . SVG Version: 6.00 Build 0)  -->
<svg version="1.1" id="圖層_1" xmlns="http://www.w3.org/2000/svg" xmlns:xlink="http://www.w3.org/1999/xlink" x="0px" y="0px"
	 viewBox="0 0 320 94" style="enable-background:new 0 0 320 94;" xml:space="preserve">
<style type="text/css">
	.st0{fill:#ECDEA8;}
	.st1{fill:#E8C48F;}
	.st2{fill:#FFF3DE;}
	.st3{fill:#E83A31;}
	.st4{fill:#F6B400;}
	.st5{fill:#F08702;}
	.st6{fill:#EA5E41;}
	.st7{fill:#EC7053;}
	.st8{fill:#EE7E61;}
	.st9{fill:#E94633;}
	.st10{fill:#EF8A70;}
	.st11{fill:#E72320;}
	.st12{fill:#ED7507;}
	.st13{fill:#EE7B0E;}
	.st14{fill:#ED780B;}
	.st15{fill:#EC7102;}
	.st16{fill:#F3AA9B;}
	.st17{fill:#ED7305;}
	.st18{fill:#ED7203;}
	.st19{fill:#F0925C;}
	.st20{fill:#EC6901;}
	.st21{fill:#ED780A;}
	.st22{fill:#EE7E11;}
	.st23{fill:#87412E;}
	.st24{fill:#863F2E;}
	.st25{fill:#EF8116;}
	.st26{fill:#F6B127;}
	.st27{fill:#EF8718;}
	.st28{fill:#F6B401;}
	.st29{fill:#FEF58D;}
	.st30{fill:#ED785B;}
	.st31{fill:#E83D2B;}
	.st32{fill:#EE8469;}
	.st33{fill:#EB664A;}
	.st34{fill:#EB6A4D;}
	.st35{fill:#EA5C40;}
	.st36{fill:#E84C32;}
	.st37{fill:#E84333;}
	.st38{fill:#EF9075;}
	.st39{fill:#E72020;}
	.st40{fill:#FDF13E;}
	.st41{fill:#5B9742;}
	.st42{fill:#609843;}
	.st43{fill:#E60012;}
	.st44{fill:#4A8F39;}
	.st45{fill:#DEEAAE;}
	.st46{fill:#4A8D37;}
	.st47{fill:#E2ECB7;}
	.st48{fill:#E5EEC0;}
	.st49{fill:#ED724C;}
	.st50{fill:#D9E69E;}
	.st51{fill:#D5E494;}
	.st52{fill:#D8E69E;}
	.st53{fill:#629B46;}
	.st54{fill:#BDD588;}
	.st55{fill:#C7DB9A;}
	.st56{fill:#D6E5A2;}
	.st57{fill:#D6E5A1;}
	.st58{fill:#D9E7A5;}
	.st59{fill:#DAE7A9;}
	.st60{fill:#FEE301;}
	.st61{fill:#FDE61C;}
	.st62{fill:#FEE50D;}
	.st63{fill:#FEF695;}
	.st64{fill:#FEEF61;}
	.st65{fill:#FEE50E;}
	.st66{fill:#FEF590;}
	.st67{fill:#FEF592;}
	.st68{fill:#FEEC45;}
	.st69{fill:#FEEE54;}
	.st70{fill:#FEE410;}
	.st71{fill:#FDE513;}
	.st72{fill:#FDE50D;}
	.st73{fill:#FDE30A;}
	.st74{fill:#FDE414;}
	.st75{fill:#FDE725;}
	.st76{fill:#FEE51C;}
	.st77{fill:#FDE200;}
</style>
<g>
	<path class="st0" d="M301.5,94H15C7.9,94,2.1,88.2,2.1,81.1v-31C2.1,43,7.9,37.3,15,37.3h286.6c7.1,0,12.8,5.8,12.8,12.8v31
		C314.4,88.2,308.6,94,301.5,94z"/>
	<g>
		<path class="st1" d="M44.5,21H3.8L0.4,40.2c-1.7,9.6,3,17.5,10.4,17.5h32.4C42.7,45.5,43.4,33.1,44.5,21z"/>
		<path class="st1" d="M316.1,21H14.5c-0.6,1.4-1.3,2.6-2.1,3.8l2.8,15.4c1.7,9.6,9.2,17.5,16.7,17.5h277.2
			c7.5,0,12.2-7.9,10.4-17.5L316.1,21z"/>
	</g>
</g>
<path class="st2" d="M106.5,26.9c0-2,0.2-4,0.9-6H82.5c-0.8,1-1.9,1.7-3.2,2c-1,0.3-2.2-0.7-2.7-1.5c-0.1-0.2-0.2-0.4-0.2-0.5h-8.1
	c-1.4,2-2.8,4.1-4.2,6.1c-1.6,2.3-3,3-4.1,0.9c1.6-2.3,3.3-4.7,4.9-7H18.9c0.3,0.4,0.7,0.9,1.2,1.2c-2.6,2.5-4.5,4.8-2.4,6.7
	c0.1,0.1,0.2,0.3,0.2,0.4c-3.3,4.1-0.5,6.4-0.8,9.6c-0.3,3.5,0.7,4.3,3.8,4.1c0.2-0.1,0.4-0.3,0.6-0.4l-0.6,0.5
	c1.6,3.8,1.6,3.8,6.9,1.4c1.3,2.5,3.4,4,7.3,0.2c1.2,0.8,2.1,2.1,3.5,2.1c1.4,0,3.4-1.3,5.1-2.1c2.6,3,2.6,3,7.3-0.1
	c1,0.8,1.8,2,3.2,2.2c1.2,0.1,3.1-1,5.1-1.7c1.6,1.8,3.8,3,7.8-0.9c1.2,3.6,3.9,3.5,7.6,0.2c3,3.2,3,3.2,8.2-0.1
	c1.3,2.8,3.5,3.8,7.8-0.2c1.4,3.2,4,3.8,7.9,0.2c2.9,3.4,2.9,3.4,8.4-0.3c0-2.7,0-5.4,0-8.2C106.9,32.8,106.5,29.9,106.5,26.9z
	 M43.6,32.7c-2.8-1-5.3-2.2-7.8-3.6c-0.5-0.3-0.3-1.4-0.4-2.1c0.9-0.3,2.2-1,2.7-0.8c3.1,1.2,6,2.7,10,4.5
	C45.8,31.9,44.2,32.9,43.6,32.7z M52.7,32.6c-1,0.1-2-2-1.6-3.2c0.4-1,2.9-2.8,4.1-3c1.2-0.2,1.9,1.4,3.6,2.7
	C56.1,30.8,54.2,32.4,52.7,32.6z M81.3,37.3c-3.5-1.6-6.8-3.1-10.2-4.6c0.1-0.4,0.2-0.8,0.3-1.1c1.2-0.4,2.8-1.3,3.7-1.1
	c2.6,0.7,5,1.7,7.3,2.7C84.4,34.1,83.5,35.5,81.3,37.3z M85.6,29c-1.1-0.2-2.1-2.1-1.6-3.1c0.5-1.1,3.3-3,4.2-2.9
	c1.3,0.2,1.8,1.9,3.2,3.6C88.7,27.7,86.7,29.2,85.6,29z"/>
<path class="st2" d="M193,27.5c0-2.2,0.3-4.4,1.1-6.5h-24.7c-0.7,1.3-2,2.2-3.6,2.6c-1,0.3-2.2-0.7-2.7-1.5
	c-0.2-0.4-0.3-0.8-0.2-1.1h-7.7c-1.5,2.2-3.1,4.5-4.6,6.7c-1.6,2.3-3,3-4.1,0.9c1.8-2.5,3.5-5.1,5.3-7.6h-46.6
	c0.2,0.7,0.7,1.3,1.4,1.8c-2.6,2.5-4.5,4.8-2.4,6.7c0.1,0.1,0.2,0.3,0.2,0.4c-3.3,4.1-0.5,6.4-0.8,9.6c-0.3,3.5,0.7,4.3,3.8,4.1
	c0.2-0.1,0.4-0.3,0.6-0.4c-0.2,0.2-0.4,0.3-0.6,0.5c1.6,3.8,1.6,3.8,6.9,1.4c1.3,2.5,3.4,4,7.3,0.2c1.2,0.8,2.1,2.1,3.5,2.1
	c1.4,0,3.4-1.3,5.1-2.1c2.6,3,2.6,3,7.3-0.1c1,0.8,1.8,2,3.2,2.2c1.2,0.1,3.1-1,5.1-1.7c1.6,1.8,3.8,3,7.8-0.9
	c1.2,3.6,3.9,3.5,7.6,0.2c3,3.2,3,3.2,8.2-0.1c1.3,2.8,3.5,3.8,7.8-0.2c1.4,3.2,4,3.8,7.9,0.2c2.9,3.4,2.9,3.4,8.4-0.3
	c0-2.7,0-5.4,0-8.2C193.5,33.4,193.1,30.5,193,27.5z M130.2,33.3c-2.8-1-5.3-2.2-7.8-3.6c-0.5-0.3-0.3-1.4-0.4-2.1
	c0.9-0.3,2.2-1,2.7-0.8c3.1,1.2,6,2.7,10,4.5C132.3,32.5,130.8,33.5,130.2,33.3z M139.3,33.1c-1,0.1-2-2-1.6-3.2
	c0.4-1,2.9-2.8,4.1-3c1.2-0.2,1.9,1.4,3.6,2.7C142.6,31.4,140.7,33,139.3,33.1z M167.8,37.9c-3.5-1.6-6.8-3.1-10.2-4.6
	c0.1-0.4,0.2-0.8,0.3-1.1c1.2-0.4,2.8-1.3,3.7-1.1c2.6,0.7,5,1.7,7.3,2.7C171,34.7,170.1,36.1,167.8,37.9z M172.2,29.6
	c-1.1-0.2-2.1-2.1-1.6-3.1c0.5-1.1,3.3-3,4.2-2.9c1.3,0.2,1.8,1.9,3.2,3.6C175.2,28.3,173.2,29.8,172.2,29.6z"/>
<path class="st2" d="M302.6,28.5c-0.1-0.1,0.1-0.3,0.2-0.4c2.1-1.9,0.3-4.2-2.4-6.7c0.2-0.2,0.4-0.3,0.6-0.5h-44.8
	c1.5,2.1,2.9,4.2,4.4,6.3c-1.1,2.2-2.5,1.4-4.1-0.9c-1.3-1.8-2.5-3.6-3.7-5.4h-8.9c-0.5,0.8-1.6,1.6-2.6,1.3c-1-0.2-1.8-0.7-2.5-1.3
	h-25.4c0.5,1.7,0.7,3.5,0.7,5.2c0,3-0.5,5.9-0.7,8.9c0,2.7,0,5.4,0,8.2c5.5,3.8,5.5,3.8,8.4,0.3c4,3.6,6.5,3,7.9-0.2
	c4.4,4,6.6,3,7.8,0.2c5.2,3.2,5.2,3.2,8.2,0.1c3.7,3.2,6.4,3.3,7.6-0.2c3.9,3.9,6.1,2.6,7.8,0.9c2,0.7,3.8,1.8,5.1,1.7
	c1.4-0.1,2.2-1.4,3.2-2.2c4.7,3.1,4.7,3.1,7.3,0.1c1.8,0.8,3.7,2.1,5.1,2.1c1.4,0,2.2-1.3,3.5-2.1c4,3.8,6,2.3,7.3-0.2
	c5.4,2.5,5.4,2.5,6.9-1.4l-0.6-0.5c0.2,0.1,0.4,0.3,0.6,0.4c3.1,0.2,4.1-0.7,3.8-4.1C303.1,35,305.9,32.6,302.6,28.5z M234.9,28.2
	c-1,0.2-3-1.2-5.8-2.5c1.4-1.7,1.9-3.4,3.2-3.6c0.9-0.1,3.7,1.8,4.2,2.9C237,26.2,236,28,234.9,28.2z M239.3,36.5
	c-2.2-1.7-3.1-3.2-1.1-4.1c2.3-1.1,4.7-2.1,7.3-2.7c0.9-0.2,2.4,0.7,3.7,1.1c0.1,0.4,0.2,0.8,0.3,1.1
	C246.1,33.5,242.8,35,239.3,36.5z M267.8,31.8c-1.4-0.1-3.3-1.8-6.1-3.4c1.6-1.4,2.4-2.9,3.6-2.7c1.2,0.2,3.8,2,4.1,3
	C269.8,29.8,268.8,31.9,267.8,31.8z M284.7,28.4c-2.5,1.3-5,2.6-7.8,3.6c-0.6,0.2-2.1-0.9-4.5-1.9c4.1-1.9,7-3.3,10-4.5
	c0.5-0.2,1.8,0.5,2.7,0.8C285,27.1,285.2,28.2,284.7,28.4z"/>
<path class="st2" d="M221.9,21.6c-0.1-0.2-0.2-0.5-0.2-0.7h-8c-1.4,2.1-2.9,4.2-4.3,6.3c-1.6,2.3-3,3-4.1,0.9c1.7-2.4,3.3-4.8,5-7.1
	h-20c-0.4,2.7-0.8,5.3-1.2,8c1.3,0.6,2.8,1.3,4.4,2.1c-2.4,1-3.9,2.1-4.5,1.9c-0.1,0-0.3-0.1-0.4-0.2c-0.6,4.4-1.3,8.9-1.9,13.3
	c0.8-0.4,1.7-0.9,2.5-1.2c2.6,3,2.6,3,7.3-0.1c1,0.8,1.8,2,3.2,2.2c1.2,0.1,3.1-1,5.1-1.7c1.6,1.8,3.8,3,7.8-0.9
	c1.2,3.6,3.9,3.5,7.6,0.2c0.7,0.8,1.3,1.4,1.8,1.7c-0.4-3.7,0.1-7,1.2-10.4c-2.2-1-4.4-2-6.6-3c0.1-0.4,0.2-0.8,0.3-1.1
	c1.2-0.4,2.8-1.3,3.7-1.1c1.3,0.3,2.6,0.8,3.9,1.3c0.3-1,0.8-2.2,0.9-2.7c0.1-0.6,0.3-1.3,0.4-1.9c0.1-1.5,0.3-3.1,0.4-4.6
	c-0.4,0.2-0.9,0.4-1.3,0.5C223.5,23.4,222.3,22.5,221.9,21.6z M198,32.7c-1,0.1-2-2-1.6-3.2c0.4-1,2.9-2.8,4.1-3
	c1.2-0.2,1.9,1.4,3.6,2.7C201.4,30.9,199.4,32.6,198,32.7z"/>
<path class="st2" d="M35.4,21v7.3c0,5.2,4.2,9.4,9.4,9.4h231c5.2,0,9.4-4.2,9.4-9.4V21H35.4z"/>
<g>
	<g>
		<path class="st3" d="M79,17c-2.5,1.3-3.1-0.6-3.9-2.2c1-0.9,2.1-1.8,3.1-2.7c1.4,0.2,1.6,1.2,1.6,2.3C79.6,15.3,79.3,16.2,79,17z"
			/>
		<g>
			<path class="st4" d="M71.3,29.1c-0.3,3.1-2.8,4.7-4.6,6.6c-4.9,1.1-9.3,3.6-13.6,6c-3.8,2.2-8,2.8-12.1,2.5
				c-7.5-0.5-14.9-2-21.5-5.9c-2.7-1.6-4.2-4.2-5.6-6.8c-0.1-4,2.7-7,6.7-8c6.2-1.4,12.1,0.3,17.9,1.5c6.3,1.3,12.2,1.1,18-1.2
				c4.2-1.7,8.3-1.4,12.5-1c0.8-0.2,1.4,0.1,2,0.6c0.3,0.2,0.5,0.5,0.8,0.8C72.9,26,72.4,27.6,71.3,29.1z"/>
			<path class="st5" d="M13.9,31.6c0.4,0.2,1.1,0.2,1.3,0.5c3.7,7,10.6,8.6,17.5,10c3.7,0.8,7.4,1.4,11.3,1.2
				c4.7-0.2,8.5-2.4,12.5-4.5c3.2-1.6,6.2-4.3,10.3-3.2c-4.8,5.3-11,8.3-17.8,10.1c-7.3,1.9-14.6,2.3-21.9,0.5
				c-6.1-1.5-10.6-5-13-11C13.5,34.2,13.1,32.9,13.9,31.6z"/>
			<path class="st6" d="M82.2,25.9c-0.5,0.7-1,1.2-1.9,1.3c-3.1-0.8-5.9-2.1-6.2-5.8C74,20.6,73.6,20,73,19.7
				c-2.9-1.4-1-2.4,0.2-3.5c0.5-0.6,1-1.2,1.9-1.3c1.1,1,2.5,1.6,3.9,2.2c0.3,1.5-1.3,2.8-0.6,4.3C79.2,23.2,82.2,23.3,82.2,25.9z"
				/>
			<path class="st7" d="M73.2,16.1c-0.5,1-2.3,2.3,0.6,2.6c0.5,0.1,1.5,1.1,1.4,1.4c-1.3,4.5,3.2,4.8,5,7.1c-0.5,0.7-1.2,0.9-2,1.1
				c-4.1-1.3-5.7-5.1-8.2-8C70.5,18.4,71.5,17,73.2,16.1z"/>
			<path class="st8" d="M70.1,20.3c1.4,0.3,2.6,0.6,3,2.5c0.6,2.7,4.1,3,5.2,5.5c-0.6,0.4-1.2,0.6-1.9,0.4c-2-0.9-3.4-2.6-5.1-3.9
				c-0.2-0.2-0.4-0.3-0.6-0.5c0-1.2-0.9-2.2-1-3.4C69.7,20.6,69.9,20.4,70.1,20.3z"/>
			<path class="st9" d="M82.2,25.9c-1.4-1.1-2.7-2.3-4.1-3.4c-1-0.7,0-0.8,0.3-1.1c1.4,0.1,2.9,0.3,4.3,0.4c0.6,0.8,1.8,1,1.8,2.2
				C83.9,24.9,83.2,25.5,82.2,25.9z"/>
			<path class="st10" d="M71.3,24.7c2.4,0.3,3.9,1.9,5.1,3.9c-1.6,0.8-3.5-0.7-5.1,0.5C71.6,27.7,72.1,26.2,71.3,24.7z"/>
			<path class="st10" d="M69.7,20.9c1.2,0.9,2.5,1.7,1,3.4c-0.6-0.4-1.2-0.9-1.8-1.3C69.2,22.3,69.5,21.6,69.7,20.9z"/>
			<path class="st11" d="M84.5,24c-0.7-0.7-1.8-1-1.8-2.2c1.1,0,2.5-0.5,3.2,0.5C86.3,23.1,85,23.5,84.5,24z"/>
		</g>
	</g>
	<g>
		<path class="st12" d="M292.4,48.6c-3,0-5.4-1.3-7.8-2.9c-0.3-0.2-1-1.8-1.6-0.1c-1.4,0.1-1-1.8-2.3-2c-1.7-0.3-3.3-0.8-4.8,0.3
			c-1.5-0.9-1.1-2.5-1.4-3.9c-1.3,0-2.4,1.4-3.9,0.8c-1.9-1.3-2-3.9-3.8-5.3c-0.2-0.2-0.3-0.3-0.4-0.5c-2.1-1.6-2.6-4.2-3-6.5
			c-0.2-1-1-1.9-0.7-2.9c1.8,1.5,3.8,0.9,5.8,0.5c0.6,0.2,0.7,0.8,0.8,1.4c1.8,8.6,9,13.2,18.6,10.8c0.7-0.2,1.3-0.7,2-0.3
			c0.7,1.9,1.3,3.9,3.5,4.7c-2.2,0.3-4,1.5-6,2.3c-1.4,0.6-2.4-0.1-3.4-0.8c2.1,1,4.3,2,6.4,2.9C291.2,47.5,292.1,47.6,292.4,48.6z"
			/>
		<path class="st12" d="M277.8,11.1c2.6-5.1,8.1-7.4,13.4-5.6c1.3,0.8,2.7,1.6,4.1,2.3c5.7,4.7,5.3,14.6-0.8,18.2
			c-0.2-0.5-0.1-1,0.1-1.5c0.8-1.5,1.7-2.9,0.8-4.7c-0.2-0.5-0.1-1.1,0.3-1.5c0.1-0.1,0.5-0.1,0.2-0.2c-2.2-1.1-3.7-3-5.7-4.5
			c-3.2-2.4-6.7-2.9-10.5-1.6c-1.4,0.5-1.7,1.8-2.4,2.8c-0.4,0.4-0.8,1.1-1.6,0.7c0.1-0.2,0.2-0.5,0.3-0.7
			C276.4,13.4,277.6,12.5,277.8,11.1z"/>
		<path class="st13" d="M295.3,24.6c-0.2,0.4-0.5,0.9-0.7,1.3c-0.5,0.6-0.2,1.8-1.5,1.8c-1.9,2.1-3.1,4.7-3.9,7.4
			c-0.2,0.6-0.4,0.9-0.8,1c-2.3,0.4-4.5,1.2-6.8,0.9c-5.1-0.8-8.1-4.1-9.9-8.7c-0.4-1.1-1-2.1-1.2-3.3c3.1-2.5,4-6.1,5.4-9.6
			c0.6,0,0.8-0.6,1.1-1c0.9,0.4,1.8,0.3,2.6-0.3c1-0.7,1.6-0.4,1.8,0.8c0.1,1,0.9,1.7,1,2.7c-0.5,1-1.6,1-2.4,1.3
			c-3.7,1.4-5.2,4.7-3.8,8.4c2.1,5.5,7.9,6.9,12.2,3.1c1.2-1,1.7-2.4,1.7-4.1c0-1.4-0.3-2.9,0.6-4.2c0.4-0.5,1.1-0.8,1.7-1.1
			c1.8-0.7,2.2-0.5,2.2,1.3C294.7,23.2,294.3,24.1,295.3,24.6z"/>
		<path class="st14" d="M270.5,25c1.1,0.8,1.4,1.9,1.7,3.3c1.2,5.2,7.3,8.8,12.6,7.8c0.6-0.1,1.3-0.2,1.8-0.4c0.6-0.3,2.9,1,1.5-1.4
			c2.5-1.6,2.4-5,4.9-6.5c-1.8,3.2-3.9,6.3-3.2,10.2c-4.4,1.8-8.7,2.2-13.1,0.2c-5.2-2.4-7.6-6.7-8.3-12.1
			C269.1,25.7,269.8,25.4,270.5,25z"/>
		<path class="st15" d="M262.6,25.6c1.8,1.1,1.1,3.1,1.7,4.6c0.6,1.7,1.2,3.3,2.5,4.7c-4.8-0.1-9.9-4.7-10.9-9.8
			c-0.1-0.4-0.2-0.8-0.2-1.2c0-1.4,0.1-2.9,1.5-3.4c1.5-0.6,2.5,0.7,3.3,1.8C261.2,23.3,261.9,24.5,262.6,25.6z"/>
		<path class="st15" d="M292.4,48.6c-3.1-1.3-6.2-2.6-8.9-4.8c2.7,1.7,4.9,0.5,6.9-1.3c1.1-1.1,2,0.6,3.1,0.1c1.5,0,3,0,4.5,0.1
			c1.2,0.1,2.5,0.4,2.7,1.8c0.2,1.3-0.7,2.2-1.7,2.9C296.9,48.7,294.7,49.2,292.4,48.6z"/>
		<path class="st16" d="M270.8,40.5c1.5,0.1,2.6-1,4-1.4c0.5,1.5,0,3.3,1.1,4.6c0.2,0.1,0.5,0.1,0.6,0.3c1.8,2.6,4,4.6,7.2,5.2
			c-0.8,1.5-1.7,1.8-3.5,0.9c-3-1.5-5.3-3.9-5.9-7.2c-0.4-1.9-0.9-1.8-2.4-1.3c-3.5,1.1-6.9,0.6-9.8-1.7c-1.1-0.9-2.2-2.2-0.2-3.4
			C263.8,40.3,267.6,39.8,270.8,40.5z"/>
		<path class="st17" d="M283.8,49.3c-3.4,0.3-5.8-1.4-7.8-5.5c0.8-0.4,0.9-2.3,2-1.4c1.4,1.1,4.1-0.6,4.4,2.3c0,0.3,0.4,0.6,0.7,0.9
			C283.5,46.7,284.3,47.9,283.8,49.3z"/>
		<path class="st18" d="M270.8,40.5c-2.3,0.7-4.6,0-6.7-0.8c-1.4-0.5-2.4-1.6-2.3-3.3c0.9-0.7,2.1-0.7,3.2-1c0.6-0.4,1.3-0.4,2-0.4
			C269.1,36.4,269.1,39,270.8,40.5z"/>
		<path class="st19" d="M267.1,35.1c-0.6,0.5-1.2,0.7-2,0.4c-1.9-1.3-4.2-2-5.9-3.8c-1.8-1.9-3.6-3.8-3.4-6.7
			c1.9,5.2,5.7,8.3,10.9,9.8C266.8,34.9,266.9,35,267.1,35.1z"/>
		<path class="st20" d="M295.4,7.8c-1.7-0.2-3.1-0.9-4.1-2.3C292.9,5.8,294.3,6.5,295.4,7.8z"/>
		<path class="st21" d="M277.8,11.1c0.2,1.5-1,2.5-1.6,3.7C276.3,13.3,277,12.2,277.8,11.1z"/>
		<path class="st21" d="M295.3,24.6c-1.8,0.1-1.6-1-1.2-2.1c0.2-0.6-0.1-1-0.2-1.5c-0.4,0.2-0.8,0.4-1.2,0.5
			c-0.2-1.3-0.3-2.8-2.2-2.8c-2.2-0.6-4.3-1.8-6.6-2c-0.1-0.3-0.1-0.6-0.1-0.9c0.1-1.6-0.5-2.1-1.9-1.1c-0.3,0.2-0.6,0.3-0.9,0.2
			c-0.1-0.9-0.3-0.8-1.1-0.4c-0.8,0.5-2.1,1.9-2.9-0.2c1.9-3.4,4.6-4,8.7-3.5c4.8,0.6,7,4.5,10.5,6.7
			C295.8,19.9,297.6,22.5,295.3,24.6z"/>
		<path class="st22" d="M284,16.7c1.6-0.7,3,0.1,4.4,0.8c0.8,0.4,1.6,0.6,2.4,0.9c-0.6,1.4-0.5,2.7,0.4,4c-0.7,1-0.6,2.1-0.5,3.2
			c0.1,4.7-3.8,8.2-8.6,7.5c-4.1-0.5-6.8-3.5-7.1-7.8c-0.2-2.6,2.2-6.8,6-7.2c0.5-0.1,1-0.4,1.5-0.6C282.6,16.5,283.2,16.5,284,16.7
			z"/>
		<path class="st23" d="M291.1,22.3c-2-1.4-2.1-2.4-0.4-4c2.5,0.3,2.8,0.7,1.9,3.2C292.2,21.8,291.7,22,291.1,22.3z"/>
		<path class="st24" d="M284,16.7c-0.5,0.3-1.1,0.5-1.6,0.8c-1.1-0.4-1.5-1.3-1.4-2.5c0.7-0.9,1.5-1.9,2.8-1.2
			C285.1,14.6,284.4,15.7,284,16.7z"/>
		<path class="st25" d="M286.4,22.9c0.8,2.4,0.8,4.5-2.1,5.6c-1.8,0.7-4.1,0.5-4.8-0.8c-1.1-2.2-0.4-5,1.5-5.9
			c0.6-0.3,1.3-0.5,2-0.8C284.3,21.4,285.5,22.1,286.4,22.9z"/>
		<path class="st26" d="M286.4,22.9c-1.4,0-2.5-0.7-3.3-1.9c0-1.1,0.3-1.9,1.5-2c1.2-0.1,2.2,0.4,2.7,1.5
			C287.9,21.7,287.4,22.4,286.4,22.9z"/>
		<path class="st27" d="M285.8,19.9c0.7,0.5,1.1,1.1,0.6,1.8c-0.4,0.6-1.1,0.6-1.7,0.3c-0.7-0.4-1.1-1-0.6-1.8
			C284.6,19.6,285.3,19.7,285.8,19.9z"/>
	</g>
	<g>
		<path class="st12" d="M269.7,42.3c-2.4,1.2-4.9,1.1-7.4,0.7c-0.3-0.1-1.5-1.1-1.3,0.6c-1.1,0.6-1.5-1-2.6-0.7
			c-1.4,0.5-2.9,0.7-3.7,2.2c-1.5-0.1-1.8-1.6-2.7-2.6c-1,0.6-1.4,2.1-2.8,2.2c-2-0.3-3.2-2.3-5.2-2.7c-0.2-0.1-0.4-0.1-0.6-0.2
			c-2.4-0.5-3.7-2.3-5-4c-0.5-0.7-1.5-1.1-1.7-2.1c2.1,0.5,3.5-0.8,4.9-1.9c0.6-0.1,0.9,0.4,1.2,0.8c4.8,6.2,12.5,7,19.2,1.3
			c0.5-0.4,0.8-1.1,1.5-1c1.3,1.3,2.6,2.6,4.7,2.4c-1.6,1.1-2.6,2.8-3.9,4.2c-0.9,1-1.9,0.9-3.1,0.7c2.1,0,4.2-0.1,6.3-0.2
			C268.3,41.8,269.1,41.5,269.7,42.3z"/>
		<path class="st12" d="M243.1,17.9c0-5.1,3.5-9.1,8.6-9.8c1.4,0.1,2.8,0.2,4.2,0.2c6.4,1.5,10,9.6,6.6,14.9
			c-0.4-0.3-0.5-0.8-0.5-1.2c0.1-1.5,0.2-3-1.2-4.1c-0.4-0.3-0.5-0.8-0.4-1.4c0-0.1,0.4-0.2,0-0.3c-2.2,0-4.2-1-6.3-1.4
			c-3.5-0.7-6.5,0.4-9,2.9c-0.9,0.9-0.6,2.1-0.8,3.2c-0.2,0.5-0.2,1.2-1,1.2c0-0.2,0-0.4,0-0.7C242.9,20.3,243.5,19.1,243.1,17.9z"
			/>
		<path class="st13" d="M262.5,21.8c0,0.5,0,0.9,0,1.4c-0.2,0.7,0.5,1.6-0.5,2.1c-0.7,2.5-0.7,5-0.2,7.5c0.1,0.5,0,0.8-0.3,1.1
			c-1.7,1.2-3.2,2.8-5.1,3.4c-4.4,1.4-8.1-0.1-11.3-3c-0.8-0.7-1.6-1.3-2.3-2.2c1.5-3.2,0.8-6.5,0.5-9.8c0.5-0.3,0.4-0.8,0.5-1.2
			c0.9,0,1.6-0.5,2-1.3c0.5-0.9,1.1-1,1.7-0.1c0.5,0.8,1.4,1,1.9,1.7c0,1-0.9,1.4-1.4,2c-2.4,2.6-2.3,5.9,0.3,8.3
			c3.8,3.6,9.1,2.4,11-2.4c0.5-1.3,0.4-2.6-0.3-3.9c-0.6-1.1-1.3-2.2-1.1-3.6c0.1-0.6,0.6-1.1,0.9-1.5c1.2-1.3,1.6-1.3,2.3,0.1
			C261.4,20.9,261.5,21.8,262.5,21.8z"/>
		<path class="st14" d="M242.8,32c1.2,0.2,1.9,1,2.7,2c3.1,3.7,9.3,4.2,13.2,1.3c0.4-0.3,1-0.6,1.3-1.1c0.3-0.5,2.7-0.3,0.7-1.7
			c1.4-2.2-0.1-5,1.3-7.2c-0.2,3.3-0.6,6.6,1.5,9.5c-2.8,3.2-6.1,5.3-10.5,5.4c-5.1,0.1-8.7-2.4-11.5-6.4
			C241.9,33.1,242.4,32.5,242.8,32z"/>
		<path class="st15" d="M236.7,35.6c1.9,0.1,2.1,2,3.1,3c1.2,1.1,2.3,2.2,3.8,2.8c-3.9,1.8-9.8,0.2-12.6-3.5
			c-0.2-0.3-0.4-0.6-0.6-0.9c-0.6-1.1-1.1-2.3-0.1-3.3c1-1.1,2.3-0.4,3.3,0.1C234.6,34.3,235.6,34.9,236.7,35.6z"/>
		<path class="st15" d="M269.7,42.3c-3,0.2-6,0.4-9.1-0.3c2.9,0.3,4.2-1.5,5-3.8c0.5-1.3,1.9-0.3,2.5-1.1c1.2-0.6,2.4-1.2,3.7-1.7
			c1-0.4,2.2-0.7,2.9,0.4c0.7,1,0.3,2.1-0.3,3C273.3,40.5,271.8,41.8,269.7,42.3z"/>
		<path class="st16" d="M249.2,44.3c1.2-0.5,1.7-1.8,2.7-2.7c1,1,1.3,2.6,2.7,3.3c0.2,0,0.4-0.1,0.6,0c2.5,1.4,5,2.1,7.8,1.3
			c0,1.5-0.7,2.1-2.4,2.1c-3,0-5.8-1-7.6-3.4c-1-1.4-1.4-1.1-2.5-0.1c-2.4,2.3-5.3,3.2-8.6,2.5c-1.2-0.3-2.6-0.9-1.5-2.6
			C243.4,46.9,246.3,45,249.2,44.3z"/>
		<path class="st17" d="M263,46.2c-2.6,1.6-5.3,1.2-8.5-1.3c0.5-0.6-0.2-2.2,1-1.9c1.5,0.3,3-2.1,4.4,0.1c0.2,0.2,0.6,0.3,0.9,0.5
			C261.8,44.2,262.9,44.8,263,46.2z"/>
		<path class="st18" d="M249.2,44.3c-1.6,1.5-3.6,1.8-5.7,2.1c-1.3,0.1-2.5-0.3-3.1-1.7c0.5-1,1.4-1.4,2.2-2
			c0.3-0.5,0.9-0.8,1.4-1.1C246.1,41.7,247.2,43.8,249.2,44.3z"/>
		<path class="st19" d="M244,41.4c-0.3,0.6-0.7,1-1.4,1.1c-2.1-0.3-4.2,0-6.2-0.7c-2.2-0.8-4.4-1.6-5.4-4c3.6,3.4,7.8,4.4,12.6,3.5
			C243.7,41.4,243.9,41.4,244,41.4z"/>
		<path class="st20" d="M255.9,8.3c-1.4,0.5-2.9,0.5-4.2-0.2C253.1,7.7,254.5,7.7,255.9,8.3z"/>
		<path class="st21" d="M243.1,17.9c0.7,1.2,0.1,2.4,0.2,3.6C242.8,20.3,242.9,19.1,243.1,17.9z"/>
		<path class="st21" d="M262.5,21.8c-1.4,0.8-1.7-0.1-1.8-1.2c-0.1-0.6-0.5-0.8-0.8-1.1c-0.2,0.3-0.5,0.6-0.7,0.9
			c-0.7-1-1.3-2.1-2.9-1.4c-2,0.4-4.1,0.2-6.1,1c-0.2-0.2-0.4-0.4-0.5-0.7c-0.6-1.3-1.2-1.5-2-0.1c-0.1,0.2-0.3,0.4-0.6,0.6
			c-0.5-0.6-0.6-0.5-1,0.1c-0.5,0.7-1,2.3-2.4,1c0.2-3.5,2.1-5,5.6-6.3c4.1-1.4,7.4,0.9,11.1,1.2C261,17.9,263.5,19.3,262.5,21.8z"
			/>
		<path class="st22" d="M250.3,20c1-1.2,2.4-1.1,3.8-1.1c0.8,0,1.5-0.2,2.3-0.3c0.1,1.4,0.7,2.4,1.9,3c-0.1,1.1,0.4,1.9,0.8,2.8
			c1.9,3.7,0.2,8.1-3.9,9.5c-3.5,1.2-6.8-0.1-8.8-3.4c-1.2-2-0.9-6.3,1.9-8.2c0.4-0.3,0.7-0.7,1-1.1C249.1,20.4,249.6,20.1,250.3,20
			z"/>
		<path class="st23" d="M258.2,21.6c-2.2-0.4-2.6-1.1-1.9-3c2.1-0.8,2.5-0.5,2.8,1.8C258.9,20.8,258.5,21.2,258.2,21.6z"/>
		<path class="st24" d="M250.3,20c-0.3,0.4-0.7,0.8-1,1.2c-1.1,0.1-1.7-0.5-2.1-1.4c0.2-1,0.4-2.1,1.8-2.1
			C250.3,17.8,250.2,19,250.3,20z"/>
		<path class="st25" d="M254.7,24c1.6,1.6,2.4,3.2,0.5,5.3c-1.2,1.3-3.1,2-4.1,1.2c-1.8-1.4-2.3-3.9-1.1-5.3
			c0.4-0.5,0.9-0.9,1.3-1.4C252.4,23.6,253.6,23.7,254.7,24z"/>
		<path class="st26" d="M254.7,24c-1.2,0.5-2.3,0.5-3.4-0.2c-0.5-0.8-0.5-1.6,0.4-2.2c0.9-0.5,1.9-0.5,2.8,0.1
			C255.4,22.4,255.2,23.2,254.7,24z"/>
		<path class="st27" d="M253,21.8c0.8,0.1,1.3,0.4,1.2,1.2c-0.1,0.7-0.6,0.9-1.2,0.9c-0.7,0-1.2-0.4-1.1-1.2
			C251.9,22,252.5,21.9,253,21.8z"/>
	</g>
	<g>
		<path class="st4" d="M62.1,34.2c0.3-5.5,4.1-7.7,8.7-9c1.9-0.6,3.9-0.9,5.9-1.4c1.4,0,2.4,0.5,2.7,1.8c0.8,3.4,3.3,5.1,6.1,6.6
			c3.2,2,5.4,4.8,7,8.1c-0.1,0.7-0.6,1.1-1.2,1.2c-7.5,1.1-14.9,2-22.2-0.7C65.9,39.5,63.1,37.8,62.1,34.2z"/>
		<path class="st28" d="M91,22.7c4.9-1.3,9.1-4,13.2-6.9c2.8-1.9,6.2-1.9,9.4-2.5c1.8-0.6,3,0.3,4,1.6c0.9,1.3,0.1,2.5-0.1,3.8
			c0.5,3-1.5,5.2-2.8,7.5c-5.1,2.4-8.4,6.8-12.7,10.2c-1,0.8-2,1.7-3.2,2.2c-0.8,0.3-1.7,0.5-2-0.7c-0.1-1.8,0.9-3.2,1.4-4.8
			c0.9-3.9-1.4-6.1-4.2-8.1C92.9,24.3,91.5,24.1,91,22.7z"/>
		<path class="st5" d="M97.1,38.4c3.5-1.3,5.9-4,8.6-6.5c2-1.9,4.2-3.5,6.4-5.2c0.8-0.6,1.7-0.9,2.7-0.4
			c-3.2,6.5-8.5,10.9-14.6,14.4c-6.5,3.8-13.5,5.9-21.1,6.3c-7.4,0.4-17.4-5.3-16.9-12.7c4.9,6.8,12.3,7.5,19.7,7.5
			c3.5,0,7-0.7,10.5-1.1C93.9,39.8,95,38.1,97.1,38.4z"/>
		<path class="st29" d="M91,22.7c3.7,1,6.6,3,8.1,6.7c0.5,1.3,1,2.4,0.2,3.7c-3.7,4.3-5.9,4.7-10.6,1.8c-1.1-0.7-2.4-1-3.3-2
			c-3.2-1.6-6.6-2.9-6.6-7.4c0-1.2-1.2-1.3-2-1.8c0.6-0.1,1.4,0.1,1.6-0.2C82.3,18.8,86.6,20.7,91,22.7z"/>
		<path class="st30" d="M124.5,15.5c-0.4,0.3-0.9,0.6-1.3,1c-3.7-0.7-6.8-2.6-9.4-5.4c-0.1-2.2,0.5-4.1,2.2-5.6
			c0.7,0.7,0.3,1.8,1,2.6C118.4,11.6,122.9,12,124.5,15.5z"/>
		<path class="st31" d="M117.4,3.8c1-1.2,1.6-3.5,3.3-3c1.8,0.5,0.9,2.9,1.1,4.4c0.1,0.7-0.1,1.4-0.2,2.1c0.1,0.3,0.1,0.9-0.1,1
			C119.6,8.8,117,6,117.4,3.8z"/>
		<path class="st32" d="M113.8,11.1c3.1,1.8,6.2,3.6,9.4,5.4c-0.7,0.7-1.5,0.9-2.5,0.8c-1.1-0.6-2.7-0.2-3.4-1.6
			c-0.9-1.3-2.4-1.7-3.7-2.3C113.7,12.6,113.7,11.8,113.8,11.1z"/>
		<path class="st33" d="M117.4,3.8c0.4,2.4,2.3,2.9,4.2,3.5c0.4,0.6-0.1,1.6,0.7,2c-0.1,0.6-0.6,0.8-1.1,0.9c-0.7,0.1-1.4,0.1-2-0.2
			c-1.2-0.7-2.2-1.5-3.7-1.3c-0.7-1.2,0.3-2.1,0.4-3.2C116.3,4.8,116.6,4.1,117.4,3.8z"/>
		<path class="st34" d="M115.6,8.7c1.7-0.7,2.8,0.7,4.3,1c0.9,1.1,2.2,1.3,3.4,1.9c1.2,0.6,2.4,1.1,2.4,2.8c-0.2,0.6-0.6,1-1.2,1.1
			c-0.8-1.1-2.1-1.4-3.1-2.2c-1.2-0.8-4.5,0.2-3.1-3.2C118.2,10,116.5,9.2,115.6,8.7z"/>
		<path class="st35" d="M125.6,14.4c-0.9-1.3-2.5-1.7-3.8-2.4c-1-0.5-2.4-0.6-2-2.4c0.5,0,1.1,0,1.6-0.1c2,0.9,4.5,0.7,5.6,3.1
			C126.9,13.5,126.3,14,125.6,14.4z"/>
		<path class="st36" d="M127.1,12.7c-1.8-1.1-4.3-1-5.6-3.1c0.3-0.1,0.6-0.2,0.8-0.3c0.5-0.1,1.1-0.2,1.6-0.4
			c1.4,0.9,3.5,0.8,3.5,3.2C127.5,12.4,127.4,12.6,127.1,12.7z"/>
		<path class="st37" d="M127.5,12.1c-0.7-1.5-3-1.4-3.5-3.2c0.8-0.2,1.7-0.3,2.5-0.5c0.9,0.5,1.7,0.9,2.3,1.8
			C128.6,11,128.3,11.7,127.5,12.1z"/>
		<path class="st38" d="M117.3,15.7c0.9,1,3-0.4,3.4,1.6c-0.9,0.8-2.5,0.2-3.2,1.4C117.4,17.7,117.4,16.7,117.3,15.7z"/>
		<path class="st39" d="M128.8,10.3c-1.4,0.2-2-0.6-2.3-1.8c1-0.5,2.1-0.6,2.9,0C129.9,8.8,129.3,9.7,128.8,10.3z"/>
		<path class="st40" d="M85.3,32.9c0.8,0.3,1.6,0.5,2.3,0.9c4.1,2.3,8,2.7,11.6-0.7c-0.7,1.8-1.5,3.6-2.2,5.4
			c-1.5,0.9-2.6,2.7-4.7,2C89.6,38.3,88.4,34.7,85.3,32.9z"/>
	</g>
	<g>
		<path class="st41" d="M216.5,43.3c0.1-0.5,0.2-1,0.3-1.5c1.2-2.8,4.1-3.5,6-5.3c1-0.4,1.6-1.6,2.8-1.7c0.2,1.1-0.7,1.7-1.1,2.5
			C222.5,40.2,219.4,41.6,216.5,43.3z"/>
		<path class="st41" d="M225.8,36.7c0.7-0.9,1-2.2,2.4-2.5C227.5,35.2,227,36.3,225.8,36.7z"/>
		<path class="st42" d="M223.3,37.1c1-1.2,1.7-2.7,3.1-3.4c-0.2,0.4-0.5,0.8-0.7,1.2C224.9,35.5,224.6,36.9,223.3,37.1z"/>
		<path class="st41" d="M227.4,31.3c0.3-0.3,0.6-0.6,0.8-1c0.1,1.3-0.9,2-1.6,3C226.9,32.6,227.1,32,227.4,31.3z"/>
		<g>
			<path class="st43" d="M206,46.2c-3.7,1.7-7.5,1.1-11.3,1.2c-2.7,0-5.4-0.1-8-0.8c-1.9-0.6-3.5-1.5-4.2-3.5
				c-0.2-1.4,0.5-2.6,1.4-3.3c2.8-2.5,4.1-5.4,4-9c0.3-1.1,2.3-1.8,1.3-3.1c-0.9-1.2-2.2,0.3-3.3,0.3c-0.9-0.4-1.4-1.1-1.6-2
				c0.7-3.3,3.6-3.9,5.9-5.2c0.7-0.2,1.4-0.3,2.1-0.5c0.4-0.1,0.8-0.2,1.2-0.2c0.7-0.1,1.4-0.3,2-0.3c1.4,0,2.8,0.2,4.1,0.5
				c1.1,0.3,2.2,0.6,3.1,1.3c0.9,0.8,1.4,1.9,2,3c0.5,1,0.1,1.7-1,2.3c2.9-0.4,4.4,0.6,4.7,3.5c0.1,1.2,1.6,1.7,2.2,2.8
				c0.5,1.3,0.2,2.6,0.1,4c-0.2,1-0.4,2.1-0.7,3.1c-0.2,0.8-0.5,1.5-0.8,2.2c-0.3,0.6-0.7,1.2-1,1.7C207.6,45,206.9,45.7,206,46.2z"
				/>
			<path class="st44" d="M225.9,16.2c4.1,1.2,6.9,3.5,7,8.3c-0.8,3.6-2.6,6.8-4.8,9.8c-1.1,0.5-1.3,1.9-2.4,2.5
				c-0.3,0.5-0.7,0.7-1.2,0.6c-0.3-1,0.3-1.8,0.6-2.6c0.2-0.4,0.4-0.9,0.6-1.3c0.1-0.3,0.3-0.5,0.5-0.8c0.6-0.9,1.2-1.7,1.4-2.7
				c1.7-6.6,0.7-8.5-5.9-10.8c-0.7-0.9-2.7-1.1-1.4-3.1C222.3,15.1,224.2,15.4,225.9,16.2z"/>
			<path class="st42" d="M206,46.2c0.6-0.9,1.2-1.7,1.8-2.6c2,0.5,3.7-0.7,5.5-1.2c1.1-0.3,2.2-1.2,3.4-0.8c0.5,0.6-0.1,1.1-0.2,1.6
				C213.2,45.4,209.7,46.3,206,46.2z"/>
			<path class="st45" d="M208.9,41.8c0.2-0.6,0.5-1.3,0.7-1.9c2.8-2,6.2-3,8.8-5.5c0.8-0.7,1.6-1.4,2.1-2.4c1-2,1.5-4.1-0.1-5.8
				c-1.5-1.5-4.9-0.8-6.9,1.2c-0.3,0.2-0.6,0.3-0.9,0.3c-1.3-0.1-2.9,0-3.3-1.4c-0.3-1.5,1.4-1.8,2.3-2.6c2.7-1.7,5.7-1.8,8.6-1.7
				c2.7,0.1,5.1,3.4,4.8,6.3c-0.4,3.3-1.6,6-4.4,8.4c-3.4,2.9-6.8,4.9-11,5.5C209.3,42.3,209,42.1,208.9,41.8z"/>
			<path class="st46" d="M212.1,24.3c-0.8,0.6-1.6,1.2-2.7,2c1.5,0.6,2.8,1,4.2,0.7c0.8,0.3,0.6,0.8,0.3,1.4c-0.3,0.3-0.6,0.5-1,0.6
				c-0.6,0.2-1.2,0.2-1.7,0.6c-0.2,0.9,0.5,1.2,0.9,1.8c0.4,0.6,0.9,1.2,0.3,1.9c-0.7,0.8-1.4,0.5-2.1,0c-2.1-1.3-3.5-3-2.8-6
				c-2.2,0.7-4.1,1.1-5.2-1.5c1,0,1.8,0,2.8,0c-1.1-1.3-1.9-2.4-2.4-3.7c-0.4-1.2-0.8-2.4,0.6-3.3c1.6,0.9,3,2.7,5.3,0.9
				c0.4-0.3,0.6,0.5,0.6,1.1c-0.1,0.8-0.2,1.7-0.3,2.5c0,0.6-0.4,1.2-0.4,1.8c0.3-0.7,0.8-1.1,1.3-1.5c0.9-0.6,1.4-1.8,2.7-1.7
				C213.7,22.8,212.9,23.5,212.1,24.3z"/>
			<path class="st47" d="M213.3,28.3c0.4-0.4,1-0.8,0.3-1.3c-0.3-0.3-0.6-0.6-0.1-1c1.9-1.5,7-1.6,8-0.1c1.4,1.9,0.4,6.9-1.8,8.6
				c-3.1,2.3-6.1,4.9-10.1,5.5c0.2-0.9,0.4-1.8,0.6-2.8c0.6-0.4,0.3-1.8,1.5-1.6c0.7,0,0.1-0.7,0.5-0.9c1.1-0.9,1.8-0.3,2.6,0.4
				c0-1.3,0.2-2.4,1.6-2.8c0.3,0,0.7,0.5,0.9-0.2c0.7-0.5,1.5-0.7,2-1.5c0.5-1,0.5-1.9-0.2-2.6c-0.7-0.7-1.5-0.8-2.4,0.1
				C215.6,29,214.4,30.2,213.3,28.3z"/>
			<path class="st48" d="M217,32.6c-1.7,0.2-1.6,1.7-1.8,2.9c-1.1,0.5-1.9-1.6-3.1-0.1c0.1,0.2,0,0.4-0.1,0.4
				c-0.1,0.1-0.2,0.1-0.3,0.1c-0.9-0.1-0.5,1.5-1.5,1.3c0-1.3,0-2.6,0-3.9c0.6,0,1.2,0,2.1,0c-0.9-1.3-1.7-2.3-2.4-3.5
				c-0.4-0.7-0.4-1.5,0.8-0.9c0.6,0.2,1.2,0.1,1.7-0.4c0.3-0.1,0.5-0.2,0.8-0.3c0.8,0.6,1.9,0.8,2.4-0.2c0.9-2.1,2.2-1.9,3.6-1.2
				c1.1,0.5,1.3,1.7,1.1,2.8c-0.2,1.8-1.4,2.7-3.1,2.8C217.2,32.4,217.1,32.5,217,32.6L217,32.6z"/>
			<path class="st49" d="M198,27.5c-1.2,1.6-2.6,2.1-4.2,1.1c-1.6-1-2.1-2.4-0.9-4.2c1.1-1.8,2.8-2.3,4.4-1.2
				C198.7,24.2,199.1,25.7,198,27.5z"/>
			<path class="st50" d="M208.9,41.8c0.1,0.1,0.3,0.2,0.4,0.3c5.1-0.3,8.9-3.4,12.5-6.8c0.6-0.6,1.2-1.2,1.8-1.7
				c1.3-0.7,1.7-2.9,3.6-2.5c0.3,0.9-0.8,1.4-0.7,2.2c-0.1,0.1-0.2,0.2-0.2,0.3c-1.4,0.8-1.7,2.7-3.1,3.4c-2.1,1.6-4.3,3.2-6.4,4.8
				c-2.5,0.9-5,1.8-7.5,2.7c-0.7,0.2-1.7,0.7-1.5-0.8C208.2,43,208.6,42.4,208.9,41.8z"/>
			<path class="st51" d="M227.4,31.3c-1.8,0.2-1.8,2.8-3.6,3c-0.1-0.3-0.1-0.6,0-0.8c0.9-1.9,2.4-3.6,1.7-5.9
				c-0.1-0.4-0.2-0.8-0.3-1.2c0.1-1.2-0.9-1.8-1.6-2.5c-1.4-1.8-3.3-2.2-5.5-2.1c-1.2,0.1-2.8,0.6-2.9-1.5c1.9-2.5,4.2-2.1,6.6-1.5
				c6.6,0.6,8.6,4.3,6.3,11.5C228.1,30.8,227.9,31.2,227.4,31.3z"/>
			<path class="st52" d="M215,20.1c0.1,0.1,0.3,0.1,0.4,0.2c0.4,1.3,1.5,0.9,2.4,0.8c2.5-0.1,5-0.1,6.4,2.4c0.4,1.1,1.4,1.6,1.7,2.8
				c0,0.3,0.1,0.6,0.1,0.9c0.3,2.4-0.7,4.5-1.8,6.6c-0.1,0.2-0.2,0.3-0.4,0.5c-2.4,1.9-4.3,4.4-7.1,5.9c-2.2,1.2-4.4,2.2-6.7,2.9
				c-0.9,0.3-1.1-0.2-0.6-1c0.9-1.2,2.2-1.1,3.4-1.4c5.6-1.5,10.8-6.9,11.5-12.1c0.5-3.4-2.1-6.3-5.4-5.8c-2.3,0.3-4.7,0.1-6.8,1.4
				c0.5-0.8,1.4-1.6,0.1-2.4C212.5,20.1,213.7,20.1,215,20.1z"/>
			<path class="st53" d="M208.6,20.8c1.9-0.3,3.5-1.3,4.9-2.6c0.3-0.1,0.4,0,0.4,0.3c-0.8,1.5,0.8,0.9,1.1,1.5
				c-0.9,0.7-2.2,0.7-2.8,1.8c-0.8,0.8-1.1,2.1-2.4,2.4c-0.2-0.7,0.1-1.2,0.9-1.5c-0.9,0.1-1.5,1.3-2.4,0.5
				C208.4,22.5,208.5,21.7,208.6,20.8z"/>
			<path class="st54" d="M208.3,23.3c0.7-0.3,1.5-0.7,2.4-1.1c0.2,0.9-0.6,1.4-0.9,2.1c-0.5,0.4-1,1.1-1.6,0.7
				C207.7,24.7,208.2,23.9,208.3,23.3z"/>
			<path class="st55" d="M212.5,28.5c-0.2,0.5-0.1,1.1-0.7,1.2c-0.7,0.1-0.7-0.5-1-0.9C211.4,28.8,211.9,28.7,212.5,28.5z"/>
			<path class="st56" d="M211.7,35.9c0.1-0.2,0.2-0.3,0.4-0.5c0.5,0.2,1.2-0.1,1.4,0.7c0.1,0.4-0.2,0.8-0.6,0.9
				C212,37.1,212,36.3,211.7,35.9z"/>
			<path class="st57" d="M217,32.6c0.4,0.4,0.8,0.9,0.2,1.5c-0.1,0.1-0.7,0.2-0.7,0.1C216.1,33.5,216.7,33.1,217,32.6
				C217,32.6,217,32.6,217,32.6z"/>
			<path class="st58" d="M217.3,29.5c-0.3-0.3-0.4-0.7-0.1-1.1c0.5-0.7,1.1-0.4,1.6,0c0.4,0.3,0.3,0.7-0.1,1
				C218.2,29.7,217.8,29.8,217.3,29.5z"/>
			<path class="st59" d="M213.3,32.2c-0.3-0.2-0.4-0.5-0.1-0.7c0.3-0.2,0.7-0.5,1-0.5c0.5,0.1,0.4,0.6,0.2,0.9
				C214.1,32.3,213.7,32.4,213.3,32.2z"/>
			<path class="st50" d="M224.2,33.7c0.6-2.2,1.2-4.4,1.8-6.6C227.4,29.8,225.6,31.7,224.2,33.7z"/>
			<path class="st50" d="M225.9,26.3c-1-0.6-1.6-1.5-1.7-2.8C225.1,24.2,226.3,24.7,225.9,26.3z"/>
		</g>
	</g>
	<g>
		<path class="st29" d="M120.1,39.5c-1.3-4.5-0.6-9-0.4-13.4c0.1-1.3,0.4-2.7,0.4-4.1c0.1-4.6,4.4-7.9,10.5-8c15.5,0,30.9,0,46.4,0
			c7.5,0,11.5,3.1,11.6,8.9c0,1.3,0,2.6,0,3.9c-1.9,4.4-4.9,6.3-11.1,6.3c-15.4,0.1-30.9,0.1-46.3,0c-4.4,0-8.2-1-10.1-4
			c0.4,2.5,0.2,5.3,0.2,8.2C121.2,38.1,121,38.9,120.1,39.5z"/>
		<path class="st60" d="M120.1,39.5c0-3.9,0-7.7,0-11.6c3.9,5,10.1,4.4,16.2,4.4c12.8-0.1,25.6-0.2,38.4,0.1
			c6.3,0.1,10.9-1.3,13.8-5.6c0,3.7,0.1,7.4,0,11c-0.1,4.8-4.4,8.2-10.6,8.2c-15.8,0.1-31.6,0.1-47.4,0
			C125.1,46,121.8,43.9,120.1,39.5z"/>
		<path class="st61" d="M140.4,23.9c-0.5-0.2-1-0.5-1.5-0.7c-3.9-1.7-3.9-3.2,0-5.2c0.3,0.1,0.6,0.2,0.7,0.5
			c-0.9,0.8-2.7,1.1-2.1,2.6c0.5,1.2,1.9,1.5,3.3,1.8c4.9,1.1,9.9,0.4,14.9,0.6c3.4,0.1,6.9,0,10.3,0c0.7-0.2,1.5-0.5,1.6,0.5
			c-1.4,0.4-3-0.1-4.4,0.6c-6.9,0.7-13.8,0.2-20.7,0.3C141.7,24.8,141.1,24.3,140.4,23.9z"/>
		<path class="st62" d="M139.7,18.5c-0.2-0.2-0.5-0.3-0.7-0.5c1.7-0.8,3.6-1.2,5.6-1.3c1-0.6,2.3-0.5,3.4-0.5c6.2,0,12.3,0,18.5,0
			c1.2,0,2.4-0.1,3.4,0.5c1.8,0,3.4,0.5,4.9,1.3c0.1,0.5,0,0.8-0.7,0.5c-3.4-1.1-7-1.2-10.6-1.1C155.6,17.7,147.5,16.4,139.7,18.5z"
			/>
		<path class="st60" d="M137.5,28.4c11.2,0,22.5,0,33.7,0c0.8-0.3,0.9,0,0.7,0.5c-0.2,0.1-0.4,0.1-0.6,0.1c-0.8,0.5-1.8,0.5-2.8,0.5
			c-9.5,0-18.9,0-28.4,0c-1,0-1.9,0-2.8-0.5c-0.2,0-0.4-0.1-0.6-0.1C136.6,28.4,136.7,28.1,137.5,28.4z"/>
		<path class="st63" d="M171.3,29.5c-0.5,0.5-1.2,0.6-1.9,0.6c-10.4,0-20.8,0-31.2,0c-0.2,0-0.5,0-0.6-0.1c-0.1-0.1,0-0.3-0.1-0.4
			c4.7-0.6,9.5-0.2,14.2-0.2C158.2,29.3,164.8,28.9,171.3,29.5z"/>
		<path class="st64" d="M171.3,29.5c-11.3,0-22.5,0-33.8,0c0-0.2,0-0.3-0.1-0.5c11.3,0,22.6,0,33.9,0
			C171.3,29.2,171.3,29.3,171.3,29.5z"/>
		<path class="st65" d="M169.9,21.6c-1.7-0.3-3.3-1.1-5.1-0.9c-0.8,0.3-1.7,0.2-2.5,0c-4.4-0.2-8.7,0-13.1-0.1
			c-1.3,0-2.6,0.2-3.7-0.6c2.2-1.1,4.6-0.5,6.9-0.5c4.8,0,9.7-0.5,14.5,0.5c1.1,0.2,2.4,0.3,3,1.2c0.2,0.1,0.3,0.2,0.2,0.3
			C170,21.6,170,21.6,169.9,21.6z"/>
		<path class="st66" d="M140.4,23.9c3.1,1.1,6.4,0.5,9.5,0.5c4.4,0.1,8.9,0,13.3,0c0.7,0,1.4,0.1,2.1,0.1c0,0.1,0,0.3,0,0.4
			c-7.9,0-15.7,0-23.6,0C141.3,24.9,140,25,140.4,23.9z"/>
		<path class="st67" d="M144.7,16.2c-0.1,0-0.3,0-0.3-0.1c-0.2-0.1-0.3-0.2-0.4-0.3c0.2-0.1,0.4-0.2,0.5-0.2c8.3,0,16.6,0,25,0
			c0.1,0,0.3,0.1,0.3,0.1c0,0.1,0,0.3,0,0.5C161.4,16.7,153.1,16.6,144.7,16.2z"/>
		<path class="st68" d="M144.7,16.2c8.4,0,16.7,0,25.1,0c0,0.2,0.1,0.3,0.1,0.5c-8.5,0-16.9,0-25.4,0
			C144.6,16.6,144.7,16.4,144.7,16.2z"/>
		<path class="st63" d="M162.7,20.6c0.7,0.1,1.4,0.1,2.1,0.2c-6.5,0.7-12.9,0.9-19.4-0.1C151.2,20.2,156.9,20.3,162.7,20.6z"/>
		<path class="st69" d="M162.7,20.6c-5.8,0-11.5,0-17.3,0c0-0.2,0-0.4,0.1-0.6c4.6,0,9.2,0,13.9,0.1
			C160.5,20.1,161.7,19.9,162.7,20.6z"/>
		<path class="st70" d="M174.2,18.4c0.2-0.2,0.5-0.3,0.7-0.5c3.5,1.6,5.5,3.8,4.2,7.1c-0.6,0.1-1,0-0.6-0.6
			C179,21.6,176.8,19.9,174.2,18.4z"/>
		<path class="st71" d="M178.4,24.4c0.2,0.2,0.4,0.4,0.6,0.6c-1.4,2.3-3.9,3.4-7.1,3.8c-0.2-0.2-0.5-0.3-0.7-0.5
			C174.2,27.7,176.9,26.7,178.4,24.4z"/>
		<path class="st72" d="M130.4,25.6c-1.3-1.9-1.2-3.9,0-6.6c0.8,2.5-0.7,4.3,0.7,6C131.4,25.6,131,25.7,130.4,25.6z"/>
		<path class="st73" d="M131.3,14.7c0.5,1.2,0.6,2.1-0.6,3.2C130.1,16.6,130.4,15.8,131.3,14.7z"/>
		<path class="st74" d="M137.5,28.4c-0.2,0.2-0.5,0.3-0.7,0.5c-1.4,0-2.5-0.6-3.6-1.1c-0.1-0.5,0-0.8,0.7-0.5
			C135.1,27.6,136.3,28,137.5,28.4z"/>
		<path class="st75" d="M133.9,27.3c-0.2,0.2-0.5,0.4-0.7,0.5c-1.3-0.5-2.2-1.2-2.8-2.2c0.2-0.2,0.5-0.4,0.7-0.6
			C132,25.8,132.9,26.5,133.9,27.3z"/>
		<path class="st76" d="M167.6,23.9c-0.5-0.2-1-0.3-1.6-0.5c1.3-0.3,2.5-0.7,3.8-1c0.3,0.1,0.5,0.3,0.6,0.5
			C169.8,23.6,168.6,23.5,167.6,23.9z"/>
		<path class="st77" d="M170.5,22.8c-0.2-0.2-0.4-0.3-0.6-0.5c0-0.2,0-0.5,0-0.7c0-0.1,0-0.3,0-0.4
			C171.3,21.5,171.8,21.9,170.5,22.8z"/>
	</g>
</g>
</svg>
