<svg id="圖層_1" data-name="圖層 1" xmlns="http://www.w3.org/2000/svg" viewBox="0 0 90.23 74.39"><defs><style>.cls-1{fill:#040000;}.cls-2{fill:#e4d389;}.cls-3{fill:#060202;}.cls-4{fill:#060404;}.cls-5{fill:#ed6e4e;}.cls-6{fill:#f5c71d;}</style></defs><title>chatBot</title><path class="cls-1" d="M145,160.12a74.45,74.45,0,0,1-14.8-1.33c-1.79-.29-3.63-.24-5.42-.65a34.1,34.1,0,0,1-11.14-4.42c-2.28-2-2.13-1.79-3-3.3-1.46-3.29-3.46-6.62-4.57-10.09a40.66,40.66,0,0,1-2-11.83c0-.75-.17-1.17-1-1.36-2.23-.52-3.66-2.26-5.11-3.82a3.87,3.87,0,0,1-.66-3.11,42.52,42.52,0,0,1,.7-5.2,24.31,24.31,0,0,1,3.61-7.9A7.08,7.08,0,0,1,108,104a3.46,3.46,0,0,0,3-1.46,64.4,64.4,0,0,1,9.84-9.81c3-2.39,6.59-3.6,10.16-4.83a42,42,0,0,1,17.7-1.9,32.36,32.36,0,0,1,18.24,7.31c2.24,1.87,4.69,3.5,6.61,5.73.67.78,1.27,1.62,1.88,2.45.16.22.22.41.61.37,3.71-.39,6.74.78,8.81,4a15.67,15.67,0,0,1,2.49,11.41,9.06,9.06,0,0,1-4,6.26,1,1,0,0,0-.57,1,44.5,44.5,0,0,1-1.7,14.88,53.48,53.48,0,0,1-3.75,8.43c-1.86,3.86-5.31,5.54-8.89,7.16-2.36,1.07-4.92,1.64-7.24,2.86a19.12,19.12,0,0,1-6.08,1.5A49.52,49.52,0,0,1,145,160.12Z" transform="translate(-97.32 -85.77)"/><path class="cls-2" d="M180.21,121.95a35.72,35.72,0,0,1,.25,9.76,37.86,37.86,0,0,1-5.8,16.37c-1.31,2.08-3.36,3-5.35,4-3.71,2-7.81,2.82-11.77,4-6.13,1.9-12.43,1.62-18.71,1.33-3.57-.17-7.1-.89-10.65-1.18a34.11,34.11,0,0,1-11.86-3.48,5.48,5.48,0,0,1-1.52-1.12,18.35,18.35,0,0,1-1.71-1.58,10.28,10.28,0,0,0-.82-1.16,38.75,38.75,0,0,1-6-20.47,38.26,38.26,0,0,1,1.94-11.83,36.43,36.43,0,0,1,28.24-25.53,37.26,37.26,0,0,1,42.75,26,2.14,2.14,0,0,1-.11,1.77c-2.81,5.29-6.07,10.22-10.87,14A4.69,4.69,0,0,1,165,134a13.4,13.4,0,0,0-3,.29,2.24,2.24,0,0,0-2,2.15A2.11,2.11,0,0,0,161.5,139a7.3,7.3,0,0,0,4.94.21,2.74,2.74,0,0,0,2.12-2.69,2.34,2.34,0,0,1,1-1.88c4.3-3.21,7.39-7.44,10-12,.09-.15.17-.3.26-.44S180,122.09,180.21,121.95Z" transform="translate(-97.32 -85.77)"/><path class="cls-3" d="M144.55,128.51a10.34,10.34,0,0,1-3.5-1.43,61.78,61.78,0,0,1-7-4.32,4.19,4.19,0,0,1-1.2-1.76c-.29-.54.3-.94.71-1.22a46,46,0,0,1,7-3.85,1.87,1.87,0,0,0,.28-.13c2.26-1.5,4.43-1.2,6.61.22,1.7,1.1,3.48,2.08,5.17,3.18a2.12,2.12,0,0,1,.44,3.49,29.59,29.59,0,0,1-7.63,5.55A4.45,4.45,0,0,1,144.55,128.51Z" transform="translate(-97.32 -85.77)"/><path class="cls-1" d="M159.35,117.44a6.32,6.32,0,0,1-6.14-4.83,4.93,4.93,0,0,1,2-4.66,4,4,0,0,1,4.63.42,7.57,7.57,0,0,1,3.08,5.39C163.25,116,161.76,117.45,159.35,117.44Z" transform="translate(-97.32 -85.77)"/><path class="cls-1" d="M127.62,117.18c-2.47,0-4-2.35-3.09-5a6.78,6.78,0,0,1,5.8-4.8,2.89,2.89,0,0,1,3.56,3.12C133.86,113.83,130.69,117.21,127.62,117.18Z" transform="translate(-97.32 -85.77)"/><path class="cls-4" d="M144,137.11a13.38,13.38,0,0,1-7.47-2.11,9.21,9.21,0,0,1-.73-.57c-.38-.32-.75-.7-.41-1.23s.87-.42,1.36-.16a15.57,15.57,0,0,0,10.1,1.55,25,25,0,0,0,4.18-1.09,5.52,5.52,0,0,1,1.81-.39c.31,0,.64,0,.78.35a.89.89,0,0,1-.17.87,3.4,3.4,0,0,1-1.48,1.08A20,20,0,0,1,144,137.11Z" transform="translate(-97.32 -85.77)"/><path class="cls-5" d="M117.5,119.21c.2-.69.14-1.63,1-2.3,1.08-.85,2-1,2.85-.28.65.57.68,1.55,0,2.61a4.07,4.07,0,0,1-1.77,1.52C118.3,121.26,117.47,120.7,117.5,119.21Z" transform="translate(-97.32 -85.77)"/><path class="cls-5" d="M167.29,118.44a2.08,2.08,0,0,1,1.66-2c.82,0,1.66,1.11,1.64,2.18a1.67,1.67,0,1,1-3.3-.14Z" transform="translate(-97.32 -85.77)"/><path class="cls-5" d="M115,119.71c-.67,0-1.16-.18-1.19-.94s.7-1.59,1.36-1.54,1.27.33,1.32,1.16S115.91,119.69,115,119.71Z" transform="translate(-97.32 -85.77)"/><path class="cls-5" d="M164.21,119.71c-.58,0-1.09-.06-1.05-.92s.44-1.38,1.4-1.39a1.15,1.15,0,0,1,1.26,1.2C165.86,119.4,165.36,119.72,164.21,119.71Z" transform="translate(-97.32 -85.77)"/><path class="cls-5" d="M124.39,120.54a1.09,1.09,0,0,1-1.09-1.16,1.27,1.27,0,0,1,1.21-1.29,1.2,1.2,0,0,1,1.41,1C126,119.73,125.23,120.51,124.39,120.54Z" transform="translate(-97.32 -85.77)"/><path class="cls-5" d="M173.39,117.2c.68,0,1.13.24,1.12.93a1.27,1.27,0,0,1-1.19,1.31c-.87.06-1-.77-1-1.38S172.81,117.17,173.39,117.2Z" transform="translate(-97.32 -85.77)"/><path class="cls-6" d="M137.84,122.2h12a7.94,7.94,0,0,1-1.94,1.67c-3.21,2.48-3.22,2.47-6.75.56A12.57,12.57,0,0,1,137.84,122.2Z" transform="translate(-97.32 -85.77)"/><path class="cls-6" d="M148.56,119.77H137.72A39.21,39.21,0,0,1,143.6,117a.75.75,0,0,1,.5,0,26.71,26.71,0,0,1,4.54,2.46Z" transform="translate(-97.32 -85.77)"/></svg>