<?xml version="1.0" encoding="utf-8"?>
<!-- Generator: Adobe Illustrator 22.1.0, SVG Export Plug-In . SVG Version: 6.00 Build 0)  -->
<svg version="1.1" id="圖層_1" xmlns="http://www.w3.org/2000/svg" xmlns:xlink="http://www.w3.org/1999/xlink" x="0px" y="0px"
	 viewBox="0 0 250 250" style="enable-background:new 0 0 250 250;" xml:space="preserve">
<style type="text/css">
	.st0{fill:#FCEC8D;}
	.st1{fill:#75391C;}
	.st2{fill:#BC6340;}
	.st3{fill:#FFFFFF;}
</style>
<g>
	<g>
		<g>
			<g>
				<path class="st0" d="M173,101.4c0,0,49.3-14.9,62.5-9c13.5,6.1-17.5,25.2-17.5,25.2s13.1-7.3,20.9-1c6,4.9-17.3,18.8-17.3,18.8
					s9.9-5.8,11.1,1.6c1.2,7.4-40.6,27.8-40.6,27.8"/>
				<path class="st1" d="M192.1,167.9c-1.2,0-2.3-0.6-2.8-1.8c-0.8-1.6-0.1-3.4,1.4-4.2c22-10.7,37.7-21.3,38.8-24.7
					c-0.1-0.3-0.2-0.7-0.4-0.8c-1-0.5-4.1,0.5-6,1.6c-1.5,0.9-3.4,0.4-4.3-1.1c-0.9-1.5-0.4-3.4,1.1-4.3c8.3-4.9,16-11.3,16.7-13.8
					c-5.1-3.8-14.1-0.3-17.2,1.4c-1.5,0.8-3.4,0.3-4.2-1.2c-0.9-1.5-0.4-3.4,1.1-4.2c11.9-7.3,19.6-15.3,19.4-18.3
					c0-0.5-0.6-0.9-1.6-1.4c-2.7-1.2-10.8-2.5-34.2,2.4c-13.7,2.9-26,6.6-26.1,6.6c-1.7,0.5-3.4-0.4-3.9-2.1
					c-0.5-1.7,0.4-3.4,2.1-3.9c0.1,0,12.6-3.8,26.6-6.8c19.5-4.2,32-4.8,38.1-2c4.1,1.8,5.1,4.7,5.2,6.7c0.3,4.1-2.9,8.9-9.6,14.7
					c3,0.2,5.9,1.1,8.5,3.2c1.5,1.2,2.3,3,2.1,4.9c-0.3,4-5,8.6-10,12.4c1.2,0.9,2.4,2.4,2.8,5c0.6,3.5-1.6,8.3-21.3,19.9
					c-10.3,6-20.8,11.2-20.9,11.2C193,167.8,192.6,167.9,192.1,167.9z M229.6,137.2L229.6,137.2L229.6,137.2z"/>
			</g>
			<g>
				<path class="st1" d="M99.7,236c-0.4,0-0.8-0.1-1.2-0.2l-16.7-6.6c-1.3-0.5-2.1-1.8-2-3.2l3-28.8c0.2-1.7,1.7-3,3.4-2.8
					c1.7,0.2,3,1.7,2.8,3.4l-2.7,26.4l14.5,5.8c1.6,0.6,2.4,2.5,1.8,4.1C102.1,235.2,100.9,236,99.7,236z"/>
				<path class="st1" d="M83,229.3c-1.3,0-2.5-0.9-3-2.1c-0.5-1.4,0.1-2.9,1.3-3.6l14.5-9c1.5-0.9,3.4-0.5,4.3,1
					c0.9,1.5,0.5,3.4-1,4.3l-3.5,2.1l8.9-0.7c1.7-0.1,3.2,1.1,3.4,2.9c0.1,1.7-1.1,3.2-2.9,3.4l-21.9,1.8
					C83.2,229.3,83.1,229.3,83,229.3z"/>
			</g>
			<g>
				<path class="st0" d="M119.6,35.9c-47.4,0-77.1,37.2-92.6,96.4s61.9,75.9,88.1,75.9s83.1-14,83.1-74S167.1,35.9,119.6,35.9z"/>
				<path class="st1" d="M115.1,212.7c-14.9,0-62.2-6.4-84.1-34.8c-10.2-13.2-13-28.9-8.3-46.8c8.2-31.3,20.1-55.6,35.4-72.3
					c16.7-18.2,37.4-27.5,61.6-27.5c24.7,0,45.7,9.8,60.6,28.3c14.7,18.3,22.5,44.1,22.5,74.4c0,27.5-11.7,49.4-33.8,63.3
					C151,208.7,129.4,212.7,115.1,212.7z M119.6,40.4c-42.4,0-72.1,31.3-88.3,93.1c-3.9,15-1.7,28.1,6.7,39
					c9.9,12.8,26.4,20.3,38.5,24.4c15.4,5.1,30.4,6.9,38.5,6.9c27.2,0,78.7-14.5,78.7-69.5C193.7,77.2,164.7,40.4,119.6,40.4z"/>
			</g>
			<g>
				<path class="st1" d="M153.5,231.1c-0.5,0-0.9-0.1-1.4-0.3l-16.2-7.8c-1.3-0.6-2-2-1.7-3.4l5-28.5c0.3-1.7,1.9-2.8,3.6-2.5
					c1.7,0.3,2.8,1.9,2.5,3.6l-4.6,26.2l14.1,6.8c1.6,0.8,2.2,2.6,1.5,4.2C155.8,230.5,154.6,231.1,153.5,231.1z"/>
				<path class="st1" d="M137.3,223.3c-1.4,0-2.7-1-3-2.4c-0.4-1.4,0.3-2.9,1.6-3.5l15.1-8c1.5-0.8,3.4-0.2,4.2,1.3
					c0.8,1.5,0.2,3.4-1.3,4.2l-3.6,1.9l9-0.1c1.7,0,3.1,1.4,3.2,3.1c0,1.7-1.4,3.1-3.1,3.2L137.3,223.3
					C137.3,223.3,137.3,223.3,137.3,223.3z"/>
			</g>
			<circle class="st1" cx="115" cy="91" r="5.1"/>
			<circle class="st1" cx="167.7" cy="91.9" r="5.1"/>
			<g>
				<path class="st1" d="M135.1,107.2c-0.9,0-1.7-0.4-2.3-1c-0.6-0.7-0.9-1.6-0.8-2.5c0.1-0.6,1.7-13.7,11.6-16.5
					c3.2-0.9,5.5,0.1,6.9,1.2c4.9,3.7,5.1,13,5.1,14.8c0,1.7-1.3,3-3,3.1l-17.4,0.9C135.2,107.2,135.1,107.2,135.1,107.2z
					 M152.5,103.2L152.5,103.2L152.5,103.2z M152.5,103.2L152.5,103.2L152.5,103.2z M146,93.2c-0.2,0-0.4,0-0.7,0.1
					c-3.4,0.9-5.3,4.6-6.2,7.5l10.1-0.5c-0.3-2.8-1.1-5.9-2.4-6.8C146.6,93.3,146.4,93.2,146,93.2z"/>
				<path class="st1" d="M141.3,122.5c-0.4,0-0.9,0-1.3-0.1c-2.4-0.3-4.5-1.5-5.8-3.4c-2.9-4-1.9-9.9-1.8-10.6
					c0.3-1.6,1.8-2.7,3.5-2.5l14.3,1.8c0.9,0.1,1.7,0.6,2.2,1.4c0.5,0.8,0.6,1.7,0.4,2.6c-0.1,0.3-0.9,2.9-2.6,5.5
					C147.9,120.6,144.7,122.5,141.3,122.5z M138.4,112.5c0.1,1.1,0.3,2.1,0.8,2.8c0.3,0.3,0.6,0.7,1.6,0.8c1.9,0.3,3.3-1.2,4.3-2.8
					L138.4,112.5z"/>
				<polygon class="st1" points="134.4,103.9 133.9,108.3 148.2,109.7 149,103.4 				"/>
			</g>
			<g>
				<g>
					<path class="st2" d="M53,48.8c0,0-23.8-3.5-33.4,9.3S4.8,75.4,4.8,75.4s24.8-1.2,28.9-7.5S53,53.9,53,53.9L53,48.8z"/>
					<path class="st1" d="M4.8,78.6c-1.3,0-2.4-0.8-2.9-1.9c-0.5-1.2-0.2-2.6,0.8-3.5c0,0,5.1-4.7,14.4-16.9
						c10.6-14,35.3-10.6,36.4-10.5c1.5,0.2,2.7,1.5,2.7,3.1l0,5.1c0,1.2-0.7,2.3-1.7,2.8c-4,2.1-15.2,8.4-18.2,13
						c-1.4,2.2-4.8,5.3-18.1,7.5c-6.8,1.1-13,1.4-13.3,1.4C4.9,78.6,4.8,78.6,4.8,78.6z M45.7,51.5c-7.2,0-18.2,1.3-23.7,8.4
						c-3.8,5.1-7,8.9-9.4,11.7c8.8-1.1,16.9-3.1,18.4-5.3c3.7-5.7,14.5-11.9,18.8-14.3l0-0.3C48.8,51.6,47.4,51.5,45.7,51.5z"/>
				</g>
				<g>
					<path class="st1" d="M53,51.7c0,0-15.7,2.4-18.1,5.2S29.4,61,29.4,61"/>
					<path class="st1" d="M29.4,62.8c-0.7,0-1.4-0.4-1.6-1.1c-0.4-0.9,0-2,0.9-2.3c0,0,2.9-1.3,4.9-3.7c0.6-0.8,3.9-3.5,19.2-5.8
						c1-0.2,1.9,0.5,2,1.5c0.1,1-0.5,1.9-1.5,2c-7.3,1.1-15.8,3.2-17,4.5c-2.6,3.1-6.1,4.6-6.2,4.7C29.9,62.8,29.6,62.8,29.4,62.8z"
						/>
				</g>
				<g>
					<path class="st2" d="M55.8,54.3c0,0-23.5,5.1-28,20.4S20,96.3,20,96.3s22.8-9.9,24.4-17.2c1.6-7.3,13.2-20,13.2-20L55.8,54.3z"
						/>
					<path class="st1" d="M20,99.4c-0.9,0-1.7-0.3-2.3-1c-0.9-1-1.1-2.4-0.5-3.6c0-0.1,3.2-6.2,7.5-20.9c5-16.9,29.3-22.4,30.4-22.6
						c1.5-0.3,3,0.5,3.6,1.9l1.8,4.7c0.4,1.1,0.2,2.4-0.6,3.2c-3.1,3.4-11.2,13.3-12.4,18.6c-0.6,2.5-2.7,6.7-14.3,13.4
						c-6,3.4-11.7,5.9-11.9,6C20.9,99.3,20.5,99.4,20,99.4z M53.9,58.1c-5.9,1.8-20,7-23.1,17.6c-1.8,6.1-3.4,10.8-4.7,14.2
						c7.8-4.1,14.7-8.9,15.3-11.5c1.5-6.6,9.4-16.2,12.6-20L53.9,58.1z"/>
				</g>
				<g>
					<path class="st1" d="M56.7,56.8c0,0-12.5,8.9-13.9,11.7c-1.4,2.8-6.5,6.5-6.5,6.5"/>
					<path class="st1" d="M36.4,76.7c-0.6,0-1.1-0.3-1.4-0.7c-0.6-0.8-0.4-1.9,0.4-2.5c1.8-1.3,5.1-4.1,5.9-5.8
						c1.5-3,11.4-10.2,14.5-12.3c0.8-0.6,1.9-0.4,2.5,0.4c0.6,0.8,0.4,1.9-0.4,2.5c-5.8,4.1-12.6,9.5-13.3,11
						c-1.5,3.1-6.5,6.7-7,7.1C37.1,76.6,36.7,76.7,36.4,76.7z"/>
				</g>
				<g>
					<path class="st2" d="M177.9,55.4c0,0-8.9,6.6-37.7,7c-28.7,0.5-83.7-7-83.7-7s7.7-50,76.7-44.9C175,13.6,177.9,55.4,177.9,55.4
						z"/>
					<path class="st1" d="M137.5,65.6c-29.2,0-79.2-6.8-81.4-7.1c-0.8-0.1-1.6-0.6-2.1-1.2c-0.5-0.7-0.7-1.5-0.6-2.3
						c0.1-0.5,2.2-13.6,13.2-26C84.9,8.4,113.1,5.8,133.5,7.4c23,1.7,34.7,14.6,40.5,25.2c6.2,11.3,7,22.1,7,22.6
						c0.1,1.1-0.4,2.1-1.3,2.7c-0.4,0.3-10.1,7.2-39.5,7.7C139.4,65.6,138.4,65.6,137.5,65.6z M60.4,52.7c12.4,1.6,55.7,7,79.8,6.6
						c20.9-0.3,30.9-4,34.4-5.6c-1.1-8-7.6-37.5-41.5-40c-27.2-2-48.6,4.7-61.7,19.5C64.6,40.7,61.6,48.5,60.4,52.7z"/>
				</g>
				<g>
					<circle class="st2" cx="58.1" cy="50.8" r="7"/>
					<path class="st1" d="M58.1,60.9c-5.6,0-10.1-4.5-10.1-10.1s4.5-10.1,10.1-10.1c5.6,0,10.1,4.5,10.1,10.1S63.7,60.9,58.1,60.9z
						 M58.1,47c-2.1,0-3.8,1.7-3.8,3.8c0,2.1,1.7,3.8,3.8,3.8c2.1,0,3.8-1.7,3.8-3.8C62,48.7,60.2,47,58.1,47z"/>
				</g>
			</g>
			<path class="st1" d="M144.8,81.4c-1.3,0-2.8-0.4-4.2-1.1c-3.4-1.8-6.1-5.2-4.6-8.2c1.6-3.1,5.2-3.2,8.2-1.9c0,0,0.1,0,0.1,0
				c-0.9-1.3-1.9-2.2-2-2.3c-1.3-1.1-1.4-3.1-0.3-4.4c1.1-1.3,3.1-1.4,4.4-0.3c3.1,2.7,7.5,8.8,4.4,14.6
				C149.5,80.1,147.3,81.4,144.8,81.4z"/>
		</g>
	</g>
	<g>
		<path class="st3" d="M104.4,135.6c2.8-0.3,5.3-0.8,7.9-1.7c2-0.7,4.2-2,6.4-2c1.8,0-0.6-0.4,0.2,0c1.1,0.5,2,1.9,3.1,2.6
			c2.3,1.4,5.3,1.4,6.6,1.6c-1.3-0.7-2.5-1.5-3.8-2.2c0.2,0.2,0.4,0.4,0.6,0.6c8.2,7.4,18.9-3.7,12-12c-1.7-2.1-3.8-3.7-6.2-4.8
			c-6.6-3.1-14.3,2-12.5,9.6c1.1,4.5,5.3,7.5,4.9,12.5c-0.2,2.2-1.2,3.7-2.3,5.5c-1.8,3-2.9,5.8-2.9,9.3c0.1,9.7,13.8,11.4,16.7,2.3
			c0.1-0.3,0.2-0.7,0.3-1c-0.7,1.3-1.5,2.5-2.2,3.8c0,0-0.1,0.1-0.1,0.1c-3.9-3.9-7.8-7.8-11.6-11.6c-0.2,0.4-1.2,2-1.2,2.2
			c0.1,0.9-2.2-1.8,0.7,0.1c0.2,0.1,2.7-0.5,2.2,0.7c0.1-0.3-1.3-2-1.4-2.2c-1-1.7-2.1-3.4-3.4-4.9c-1.3-1.4-2.9-2.4-4.1-3.8
			c0.7,1.3,1.5,2.5,2.2,3.8c-1.1-3-1.9-5.7-3.8-8.3c-0.8-1.1-1.7-2.4-2.7-3.3c-1.3-1.1-0.1-1.1-0.6,0.2c-0.7,1.3-1.5,2.5-2.2,3.8
			c-1,1.1-3.6,0.3-1,1c1.1,0.3,2.3,0.4,3.4,0.5c1.1,0.2,2.1,0.3,3.2,0.5c0.2,0,3.9,0.9,2.8,0.3c-1-1-2-2-3-3
			c-1.3-2.5-0.3,0.6-0.3,1.8c0.1,1.4,0.1,2.7,0.1,4.1c0.4-1.4,0.8-2.9,1.2-4.3c-0.1,0.3-0.3,0.6-0.4,0.9c1-1,2-2,3-3
			c-0.3,0.1-0.5,0.3-0.8,0.4c1.4-0.4,2.9-0.8,4.3-1.2c-0.3,0-0.6-0.1-0.9-0.1c1.4,0.4,2.9,0.8,4.3,1.2c-0.4,0-0.8-0.2-1-0.5
			c-1.6-1.9-1.8-0.8-0.4,3.3c-1,1-2,2-3,3c-0.9,0.6-2.2-0.1,0,0.5c1.1,0.3,2.4,0.3,3.5,0.3c10.9,0,11-17,0-17c-4,0-7.4-1.1-11.1,1
			c-4.1,2.2-6.2,6.6-5.9,11.2c0.4,7.4,9.2,16.1,17,13.9c4.9-1.3,7.3-5.7,7.5-10.5c0.1-3.9,0.1-9.2-1.8-12.8
			c-1.8-3.5-4.9-4.9-8.6-5.5c-4.2-0.7-8.7-1.7-13-1.9c-8.9-0.4-15.8,6.8-13.3,15.7c1.2,4.2,4.4,6.4,6.4,9.9c1.7,2.9,2,5.7,4.8,8.1
			c4.4,3.8,6.2,10.3,12.5,12.4c8.3,2.8,16.2-2.2,19.7-9.7c3.7-7.8-3.7-15.5-11.6-11.6c-3,1.5-4.8,4.1-5.8,7.3
			c5.6,0.8,11.1,1.5,16.7,2.3c0,1.2,1-1.3,1.4-1.9c0.8-1.4,1.5-2.9,2.1-4.4c1.1-3,1.7-6.2,1.7-9.4c0-2.9-0.5-6-1.5-8.8
			c-0.6-1.5-1.2-3-2-4.4c-0.5-0.9-1.7-1.9-1.9-2.9c-4.2,3.2-8.3,6.4-12.5,9.6c1.5,0.7,1.7,0.9,2.8,2.2c4-4,8-8,12-12
			c-1.5-1.4-2.8-2.3-4.8-2.8c-0.9-0.1-1.8-0.2-2.7-0.4c-1.4,0-1.4,0.1-0.1,0.3c1.3,0.5,1.3,0.3,0.1-0.6c-0.9-0.7-1.8-1.4-2.8-2
			c-1.3-0.8-2.9-1.3-4.4-1.6c-3.2-0.7-6.6-0.5-9.7,0.3c-2.9,0.7-5.8,2.6-8.8,3c-4.6,0.6-8.5,3.5-8.5,8.5
			C95.9,131.3,99.8,136.2,104.4,135.6L104.4,135.6z"/>
		<path class="st1" d="M137.8,153.6c1.1-3.7,2.1-7.4,3.2-11c1.6-5.4,1.8-10.7,0.1-16.1c-0.8-2.5-2.1-4.8-4.1-6.5
			c-4.9-4.2-10.6-5.5-16.7-5c-2.9,0.2-5.8,0.7-8.7,1.1c-3.5,0.5-7.1,0.8-10.4,2.4c-4,1.9-7.3,4.6-9.2,8.8c-2.3,5.1-1.6,9.9,1.8,14.2
			c2.9,3.7,6,7.2,9,10.8c0,0,0,0,0,0c2.3,2.7,4.6,5.5,6.9,8.2c0.4,0.4,0.8,0.8,1,1.2c0.4,0.4,0.7,0.9,1.1,1.3
			c2.2,2.5,4.9,4.2,8.3,4.6c3.8,0.5,7.2-0.7,10.2-2.9C134,161.8,136.4,158,137.8,153.6z M129.9,161.3c-3.5,2.9-7.4,3.9-11.8,2.4
			c-2.2-0.8-3.9-2.2-5.5-4c-0.7,0.2-15.4-18.7-15.5-18.4c-1.6-1.9-2.7-3.9-3.1-6.2c-0.9-5.3,1.1-9.3,5.1-12.4c2.5-2,5.4-3,8.5-3.4
			c3.5-0.5,7-0.9,10.4-1.3c4.5-0.5,9,0,13.1,2c3.7,1.8,6.1,4.6,7.2,8.6c1.3,4.6,1.2,9.1-0.1,13.6c-0.9,3.4-1.9,6.7-2.8,10.1
			C134.5,155.8,132.8,158.9,129.9,161.3z"/>
		<path class="st1" d="M126.7,144.1L114,129c-0.9-1.1-0.3-3.2,1.4-4.7c0,0,12.5-10.9,9-7.9c-3.5,3,4.6-0.6,4.7-0.6
			c0.1-0.1,12.7,15.1,12.7,15.1c-1.3,4.6,0.3,3.2-1.4,4.7l-9,7.9C129.7,144.9,127.6,145.2,126.7,144.1z"/>
		<path class="st1" d="M118.5,125.6c-0.3,0.6-0.5,1.1-0.8,1.7c-0.3,0.7-0.2,1.5,0.5,1.8c0.6,0.3,1.5,0.2,1.8-0.5
			c0.3-0.6,0.5-1.1,0.8-1.7c0.3-0.7,0.2-1.5-0.5-1.8C119.8,124.8,118.9,125,118.5,125.6L118.5,125.6z"/>
	</g>
	<g>
		<path class="st0" d="M83,94.7c0,0,33.5,24.8,33.6,46.4c0,21.6-33.5-5.9-33.5-5.9s11.8,15.4,4.9,24c-6.9,8.6-16.6-1.4-16.6-1.4
			s7.1,17.1-6.2,16.2s-17.8-7.7-17.8-7.7"/>
		<path class="st1" d="M66,177.2c-0.4,0-0.8,0-1.2,0c-14.7-1-20-8.7-20.2-9.1c-1-1.4-0.6-3.4,0.9-4.3c1.4-1,3.4-0.6,4.3,0.9
			c0.1,0.2,4,5.5,15.4,6.3c2,0.1,3.4-0.2,4-1.1c1.7-2.3,0.1-8.3-0.9-10.8c-0.6-1.4-0.1-3,1.2-3.8c1.3-0.8,2.9-0.6,4,0.4
			c1.1,1.2,4.8,4.1,8,4c1.5-0.1,2.7-0.8,3.9-2.3c4.4-5.5-2.3-16.6-4.9-20.1c-1-1.3-0.8-3,0.3-4.2c1.1-1.1,2.9-1.2,4.2-0.2
			c9.6,7.9,22.6,15.1,26.7,13.1c1.4-0.7,1.7-3,1.7-4.8c0-19.8-32-43.7-32.3-43.9c-1.4-1-1.7-3-0.6-4.4c1-1.4,3-1.7,4.4-0.7
			c1.4,1.1,34.8,26.1,34.8,48.9c0,6.6-2.8,9.4-5.2,10.5c-4.6,2.2-11.6,0.4-21.2-5.4c-0.5-0.3-0.9-0.6-1.3-0.8
			c1.7,5.2,2.2,11.1-1.5,15.8c-2.3,2.9-5.2,4.5-8.5,4.6c-2,0.1-3.9-0.3-5.6-1c0.3,3,0,6.2-1.8,8.6C73.1,175.2,70.7,177.2,66,177.2z"
			/>
	</g>
</g>
</svg>
