<?xml version="1.0" encoding="utf-8"?>
<!-- Generator: Adobe Illustrator 22.1.0, SVG Export Plug-In . SVG Version: 6.00 Build 0)  -->
<svg version="1.1" id="圖層_1" xmlns="http://www.w3.org/2000/svg" xmlns:xlink="http://www.w3.org/1999/xlink" x="0px" y="0px"
	 viewBox="0 0 188 235" style="enable-background:new 0 0 188 235;" xml:space="preserve">
<style type="text/css">
	.st0{fill:none;stroke:#40220F;stroke-width:6;stroke-linecap:round;stroke-linejoin:round;stroke-miterlimit:10;}
	.st1{fill:#FAE345;stroke:#40220F;stroke-width:7;stroke-miterlimit:10;}
	.st2{fill:none;stroke:#40220F;stroke-width:5;stroke-linecap:round;stroke-linejoin:round;stroke-miterlimit:10;}
	.st3{fill:#40220F;}
	.st4{fill:#FAE345;stroke:#40220F;stroke-width:6;stroke-linecap:round;stroke-linejoin:round;stroke-miterlimit:10;}
	.st5{fill:#B97233;stroke:#40220F;stroke-width:6;stroke-linecap:round;stroke-linejoin:round;stroke-miterlimit:10;}
	.st6{fill:#FFFFFF;stroke:#40220F;stroke-width:6;stroke-linecap:round;stroke-linejoin:round;stroke-miterlimit:10;}
</style>
<g>
	<g>
		<polyline class="st0" points="64.4,194.7 62.9,222.8 79.5,228.4 		"/>
		<polyline class="st0" points="84.6,223.9 62.9,222.8 80.1,218.5 		"/>
	</g>
	<path class="st1" d="M101.1,39.2c-46.2,0-75.1,36.2-90.3,93.9s60.3,74,85.8,74s81-13.7,81-72.1S147.4,39.2,101.1,39.2z"/>
	<g>
		<polyline class="st0" points="124.5,197.4 123,225.5 139.6,231.2 		"/>
		<polyline class="st0" points="144.6,226.6 123,225.5 140.1,221.2 		"/>
	</g>
	<path class="st0" d="M134.9,90.7c0,0,0-14.8-7.8-12.6c-7.8,2.2-9.1,13.5-9.1,13.5L134.9,90.7z"/>
	<line class="st2" x1="89.4" y1="71.5" x2="108.7" y2="72.8"/>
	<circle class="st3" cx="96.2" cy="83.7" r="5"/>
	<circle class="st3" cx="147.5" cy="84.6" r="5"/>
	<path class="st0" d="M118.4,96.4l13.9,1.7c0,0-2.6,9.1-9.1,8.3C116.7,105.5,118.4,96.4,118.4,96.4z"/>
	<polygon class="st3" points="117.3,91.4 116.9,95.7 130.7,97 131.6,90.9 	"/>
	<path class="st2" d="M141,71.2c0,0-1,5.6,1.1,5c2.1-0.7,12.4-6.9,12.4-6.9"/>
	<path class="st4" d="M161.7,117.5c0,0-35.7,11.2-41.3,20.7c-5.8,9.8,20.4,9.1,20.4,9.1s-10.8,0.8-13.1,8.3c-1.7,5.8,17.8,5,17.8,5
		s-8.3,0.4-6.1,5.8c2.2,5.4,16.5,1.7,16.5,1.7"/>
	<g>
		<path class="st0" d="M131.2,128.9l-24-4.5c-2.1-0.4-4.1,0.8-4.8,2.7l-15.6,42.9c-0.9,2.6,0.7,5.4,3.5,5.7l24,3.2
			c2,0.3,3.9-0.9,4.6-2.7l15.7-41.6C135.4,132.1,133.8,129.4,131.2,128.9z"/>
		<path class="st5" d="M132.5,131.1l-24-4.5c-2.1-0.4-4.1,0.8-4.8,2.7L88,172.3c-0.9,2.6,0.7,5.4,3.5,5.7l24,3.2
			c2,0.3,3.9-0.9,4.6-2.7l15.7-41.6C136.7,134.3,135.1,131.6,132.5,131.1z"/>
	</g>
	<path class="st4" d="M87.8,104.8c0,0,18.8,36,9.7,55s-26.9-19.4-26.9-19.4s3.8,18.5-5.9,23.1c-9.7,4.6-14-8.3-14-8.3
		s-1.1,18-12.4,11.6s-12.4-14.3-12.4-14.3"/>
	<g>
		<path class="st6" d="M136,49.3c0,0-5.4-41.7-43.2-39.3s-29,37.8-29,37.8s21.1-6.5,39-5.5C120.8,43.4,136,49.3,136,49.3z"/>
		<path class="st5" d="M135.5,49.6c4.6-4.2,26.7-20.4,12-27.3c-24.1-11.3-83.4,27.1-82.5,24.5c0.8-2.5,33.9-2.6,44.6-2.4
			C128.3,44.6,135.5,49.6,135.5,49.6z"/>
	</g>
</g>
</svg>
