<?xml version="1.0" encoding="utf-8"?>
<!-- Generator: Adobe Illustrator 22.1.0, SVG Export Plug-In . SVG Version: 6.00 Build 0)  -->
<svg version="1.1" id="圖層_1" xmlns="http://www.w3.org/2000/svg" xmlns:xlink="http://www.w3.org/1999/xlink" x="0px" y="0px"
	 viewBox="0 0 320 34" style="enable-background:new 0 0 320 34;" xml:space="preserve">
<style type="text/css">
	.st0{fill:#ECDEA8;}
	.st1{fill:#E8C48F;}
	.st2{opacity:0.14;}
	.st3{fill:#FFFFFF;}
</style>
<g>
	<path class="st0" d="M313.7,0c-1.6,2.1-4.5,3.6-8.5,3.6c-0.6,0-1.2-0.1-1.8-0.1c-1.7,1.2-3.9,1.9-6.8,1.9c-4,0-6.8-1.4-8.5-3.5
		c-10.2,0.9-20.5,2-30.9,2.4c-42.3,1.7-84.8-0.3-127.1,0.1C108.8,4.5,87.6,5,66.4,2.9c-10.7-1-21.7-1.2-32.4-2
		c-2,1.9-5.1,3.1-8.2,3.1C20.7,3.8,16,2.7,11.4,1c-0.8-0.3-1.4-0.6-2-1H2v28.6c0,2.7,2.8,4.8,6.2,4.8h303.7c3.4,0,6.1-2.1,6.1-4.8V0
		H313.7z"/>
	<g>
		<g>
			<path class="st1" d="M43.1,0h-23c-0.2,0-0.4,0-0.6,0H0.7c1.4,5.2,5.1,8.7,10.1,8.7h32.4C43.1,5.8,43.1,2.9,43.1,0z"/>
			<path class="st1" d="M302,0c-0.2,0-0.5,0-0.7,0H20.1c-0.2,0-0.5,0-0.7,0h-0.7c3.3,5.3,8.3,8.7,13.3,8.7h277.2
				c5,0,8.8-3.5,10.1-8.7H302z"/>
		</g>
	</g>
	<g>
		<path class="st0" d="M313.7,0c-1.6,2.1-4.5,3.6-8.5,3.6c-0.6,0-15.4,0.4-17.1-1.7c-10.2,0.9-20.5,2-30.9,2.4
			c-42.3,1.7-84.8-0.3-127.1,0.1C108.8,4.5,87.6,5,66.4,2.9c-10.7-1-21.7-1.2-32.4-2C33.1,1.7,27.6,1.1,21.8,0H2v28.6
			c0,2.7,2.8,4.8,6.2,4.8h303.7c3.4,0,6.1-2.1,6.1-4.8V0H313.7z"/>
	</g>
	<g>
		<g>
			<path class="st1" d="M43.1,0h-23c-0.2,0-0.4,0-0.6,0H0.7c1.4,5.2,5.1,8.7,10.1,8.7h32.4C43.1,5.8,43.1,2.9,43.1,0z"/>
			<path class="st1" d="M302,0c-0.2,0-0.5,0-0.7,0H20.1c-0.2,0-0.5,0-0.7,0h-0.7c3.3,5.3,8.3,8.7,13.3,8.7h277.2
				c5,0,8.8-3.5,10.1-8.7H302z"/>
		</g>
	</g>
</g>
<g class="st2">
	<path class="st3" d="M313.7,0c-1.6,2.1-4.5,3.6-8.5,3.6c-0.6,0-1.2-0.1-1.8-0.1c-1.7,1.2-3.9,1.9-6.8,1.9c-4,0-6.8-1.4-8.5-3.5
		c-10.2,0.9-20.5,2-30.9,2.4c-42.3,1.7-84.8-0.3-127.1,0.1C108.8,4.5,87.6,5,66.4,2.9c-10.7-1-21.7-1.2-32.4-2
		c-2,1.9-5.1,3.1-8.2,3.1C20.7,3.8,16,2.7,11.4,1c-0.8-0.3-1.4-0.6-2-1H2v28.6c0,2.7,2.8,4.8,6.2,4.8h303.7c3.4,0,6.1-2.1,6.1-4.8V0
		H313.7z"/>
	<g>
		<g>
			<path class="st3" d="M43.1,0h-23c-0.2,0-0.4,0-0.6,0H0.7c1.4,5.2,5.1,8.7,10.1,8.7h32.4C43.1,5.8,43.1,2.9,43.1,0z"/>
			<path class="st3" d="M302,0c-0.2,0-0.5,0-0.7,0H20.1c-0.2,0-0.5,0-0.7,0h-0.7c3.3,5.3,8.3,8.7,13.3,8.7h277.2
				c5,0,8.8-3.5,10.1-8.7H302z"/>
		</g>
	</g>
	<g>
		<path class="st3" d="M313.7,0c-1.6,2.1-4.5,3.6-8.5,3.6c-0.6,0-15.4,0.4-17.1-1.7c-10.2,0.9-20.5,2-30.9,2.4
			c-42.3,1.7-84.8-0.3-127.1,0.1C108.8,4.5,87.6,5,66.4,2.9c-10.7-1-21.7-1.2-32.4-2C33.1,1.7,27.6,1.1,21.8,0H2v28.6
			c0,2.7,2.8,4.8,6.2,4.8h303.7c3.4,0,6.1-2.1,6.1-4.8V0H313.7z"/>
	</g>
	<g>
		<g>
			<path class="st3" d="M43.1,0h-23c-0.2,0-0.4,0-0.6,0H0.7c1.4,5.2,5.1,8.7,10.1,8.7h32.4C43.1,5.8,43.1,2.9,43.1,0z"/>
			<path class="st3" d="M302,0c-0.2,0-0.5,0-0.7,0H20.1c-0.2,0-0.5,0-0.7,0h-0.7c3.3,5.3,8.3,8.7,13.3,8.7h277.2
				c5,0,8.8-3.5,10.1-8.7H302z"/>
		</g>
	</g>
</g>
</svg>
