<?xml version="1.0" encoding="utf-8"?>
<!-- Generator: Adobe Illustrator 22.1.0, SVG Export Plug-In . SVG Version: 6.00 Build 0)  -->
<svg version="1.1" id="圖層_1" xmlns="http://www.w3.org/2000/svg" xmlns:xlink="http://www.w3.org/1999/xlink" x="0px" y="0px"
	 viewBox="0 0 320 180" style="enable-background:new 0 0 320 180;" xml:space="preserve">
<style type="text/css">
	.st0{fill:#ECDEA8;}
	.st1{fill:#E8C48F;}
	.st2{fill:#FFF3DE;}
	.st3{fill:#823D2D;}
	.st4{fill:#643531;}
	.st5{fill:#F6B9AA;}
	.st6{fill:#F3AA9C;}
	.st7{fill:#F3AB9D;}
	.st8{fill:#7C3221;}
	.st9{fill:#5A2722;}
	.st10{fill:#7B3322;}
	.st11{fill:#5D2823;}
	.st12{fill:#5A2925;}
	.st13{fill:#92432A;}
	.st14{fill:#91422A;}
	.st15{fill:#91432A;}
	.st16{fill:#AD1F25;}
	.st17{fill:#A01118;}
	.st18{fill:#BA1B21;}
	.st19{fill:#C6151E;}
	.st20{fill:#FEFAEF;}
	.st21{fill:#FEF9EB;}
	.st22{fill:#FEF9EC;}
	.st23{fill:#FEFBF2;}
	.st24{fill:#F8BC02;}
	.st25{fill:#F7B504;}
	.st26{fill:#F7B603;}
	.st27{fill:#FAC300;}
	.st28{fill:#FBCB00;}
	.st29{fill:#FCD100;}
	.st30{fill:#FDD900;}
	.st31{fill:#CC830E;}
	.st32{fill:#C17419;}
	.st33{fill:#D28F09;}
	.st34{fill:#C17418;}
	.st35{fill:#5B9742;}
	.st36{fill:#609843;}
	.st37{fill:#E60012;}
	.st38{fill:#4A8F39;}
	.st39{fill:#DEEAAE;}
	.st40{fill:#4A8D37;}
	.st41{fill:#D9E69F;}
	.st42{fill:#E2ECB7;}
	.st43{fill:#E5EEC0;}
	.st44{fill:#ED724C;}
	.st45{fill:#D9E69E;}
	.st46{fill:#E0EBB3;}
	.st47{fill:#D5E494;}
	.st48{fill:#52933B;}
	.st49{fill:#D8E69E;}
	.st50{fill:#E4EDBB;}
	.st51{fill:#629B46;}
	.st52{fill:#BDD588;}
	.st53{fill:#C7DB9A;}
	.st54{fill:#D5E394;}
	.st55{fill:#DEEAAC;}
	.st56{fill:#D6E5A2;}
	.st57{fill:#D6E5A1;}
	.st58{fill:#D9E7A5;}
	.st59{fill:#DAE7A9;}
	.st60{fill:#D8E5A2;}
	.st61{fill:#4A8F37;}
	.st62{fill:#DAE8A8;}
	.st63{fill:#D7E5A5;}
	.st64{fill:#F3AA9B;}
	.st65{fill:#ED7506;}
	.st66{fill:#ED7102;}
	.st67{fill:#EB670A;}
	.st68{fill:#EA5E03;}
	.st69{fill:#F4A65B;}
	.st70{fill:#ED780A;}
	.st71{fill:#EE8218;}
	.st72{fill:#EC7102;}
	.st73{fill:#EC7101;}
	.st74{fill:#EE7B0E;}
	.st75{fill:#ED7507;}
	.st76{fill:#EB680E;}
	.st77{fill:#EE7E12;}
	.st78{fill:#F29B20;}
	.st79{fill:#F3991B;}
	.st80{fill:#F29A1D;}
	.st81{fill:#FEF58D;}
	.st82{fill:#FEE301;}
	.st83{fill:#FDE61C;}
	.st84{fill:#FEE50D;}
	.st85{fill:#FEF695;}
	.st86{fill:#FEEF61;}
	.st87{fill:#FEE50E;}
	.st88{fill:#FEF590;}
	.st89{fill:#FEF592;}
	.st90{fill:#FEEC45;}
	.st91{fill:#FEEE54;}
	.st92{fill:#FEE410;}
	.st93{fill:#FDE513;}
	.st94{fill:#FDE50D;}
	.st95{fill:#FDE30A;}
	.st96{fill:#FDE414;}
	.st97{fill:#FDE725;}
	.st98{fill:#FEE51C;}
	.st99{fill:#FDE200;}
	.st100{fill:#D39330;}
	.st101{fill:#CC830F;}
	.st102{fill:#CC840F;}
	.st103{fill:#73392E;}
	.st104{fill:#76392E;}
	.st105{fill:#7B3A2E;}
	.st106{fill:#72392F;}
	.st107{fill:#CD8614;}
	.st108{fill:#CD8716;}
	.st109{fill:#CA8516;}
	.st110{fill:#CC8510;}
	.st111{fill:#843D2D;}
	.st112{fill:#7F3C2D;}
	.st113{fill:#883F2C;}
	.st114{fill:#E83A31;}
	.st115{fill:#F6B400;}
	.st116{fill:#F08702;}
	.st117{fill:#EA5E41;}
	.st118{fill:#EC7053;}
	.st119{fill:#EE7E61;}
	.st120{fill:#E94633;}
	.st121{fill:#EF8A70;}
	.st122{fill:#E72320;}
	.st123{fill:#ED780B;}
	.st124{fill:#ED7305;}
	.st125{fill:#ED7203;}
	.st126{fill:#F0925C;}
	.st127{fill:#EC6901;}
	.st128{fill:#EE7E11;}
	.st129{fill:#87412E;}
	.st130{fill:#863F2E;}
	.st131{fill:#EF8116;}
	.st132{fill:#F6B127;}
	.st133{fill:#EF8718;}
	.st134{fill:#F6B401;}
	.st135{fill:#ED785B;}
	.st136{fill:#E83D2B;}
	.st137{fill:#EE8469;}
	.st138{fill:#EB664A;}
	.st139{fill:#EB6A4D;}
	.st140{fill:#EA5C40;}
	.st141{fill:#E84C32;}
	.st142{fill:#E84333;}
	.st143{fill:#EF9075;}
	.st144{fill:#E72020;}
	.st145{fill:#FDF13E;}
	.st146{opacity:0.2;}
	.st147{fill:#FCFBFA;}
</style>
<g>
	<path class="st0" d="M301.5,165H15c-7.1,0-12.8-4.3-12.8-9.4v-22.8c0-5.2,5.8-9.4,12.8-9.4h286.6c7.1,0,12.8,4.3,12.8,9.4v22.8
		C314.4,160.7,308.6,165,301.5,165z"/>
	<path class="st0" d="M310.3,165H8.6c-3.4,0-6.1-2-6.1-4.5v-32.6c0-2.5,2.7-4.5,6.1-4.5h301.7c3.4,0,6.1,2,6.1,4.5v32.6
		C316.4,163,313.7,165,310.3,165z"/>
	<g>
		<path class="st1" d="M45.2,99.4c1.2-11.7,2.5-23.4,4-35.1c0.6-4.6,1.1-9.1,1.7-13.7c0.1-1.1,0.3-2.4,0.5-3.6c0-0.8,0-1.6,0-2.2
			c1-14.7,0.8-29.3,1.6-43.8H36.4c-7.5,0-15,7.9-16.7,17.5L0.4,126.2c-1.7,9.6,3,17.5,10.4,17.5h32.4
			C42.5,128.9,43.7,113.9,45.2,99.4z"/>
		<path class="st1" d="M319.5,126.2L300.2,18.5C298.5,8.9,291,1,283.5,1H35C25,32.1,21,65,16.9,98.1c-0.6,4.9-2.2,9.1-4.5,12.7
			l2.8,15.4c1.7,9.6,9.2,17.5,16.7,17.5h277.2C316.5,143.6,321.2,135.8,319.5,126.2z"/>
	</g>
</g>
<path class="st2" d="M40.1,17.8C43,14,43,14,47.5,16.5c2.2-2.5,4.7-4,7.4-0.2c1.5-0.8,2.8-2.1,4.2-2.1s2.9,1.3,4.4,2.1
	c3.6-3,3.6-3,7.2,0.1c1.3-0.8,2.6-2,4-2.2c1.3-0.1,2.8,1,4.5,1.7c2.3-1.8,4.9-3,7.5,0.9c2.4-3.6,5.1-3.5,7.7-0.2
	c4.1-3.2,4.1-3.2,8.2,0.1c2.2-2.8,4.8-3.8,7.8,0.2c2.5-3.2,5.3-3.8,8-0.2c4.1-3.4,4.1-3.4,8.3,0.3c-0.9,2.7-1.9,5.4-2.8,8.2
	c-1.3,3-2.7,5.9-3.8,8.9c-1.6,4.6-1.8,9.2,0.8,13.8c0.4,5.6,0.5,11.2,3.7,16.3c0.3,0.8,0.6,1.5,0.8,2.3c1.4,5.1,1,6.2-3.3,8.9
	c-2,1.3-4,2.5-6.1,3.8c2.5,5.9,4.8,11.3,7.1,16.7c0,0.4,0,0.7,0,1.1c-3.6,0.3-7.2,0.8-10.9,0.8c-27.9,0.1-55.8,0.1-83.7,0
	c-2.8,0-5.7-0.6-8.5-0.9c0.7-1.5,1.4-3.1,2.2-4.8c-1.6-1.7-2-3.7-0.1-5.8c0.6-0.6,0.9-2,0.6-2.8c-1.2-2.9,0-4.8,2.4-6.2
	c-2.1-3.2-1.7-5.8,1.6-7.8c-3.2-3.4-1.3-5.5,1.5-7.8c-3.4-3.1-1.9-5.2,1.3-7.3c-1.9-2.2-2.8-4.6-0.3-6.8c0.5-0.4,0.8-1.5,0.6-2
	c-1.3-3-0.5-5.2,2.2-6.8c-1.7-2.5-2.8-4.8,0-6.7c0.1-0.1,0.3-0.3,0.3-0.4c-1.8-4.1,1.7-6.4,2.5-9.6c0.8-3.5,2.2-4.3,5.2-4.1
	c0.2,0.1,0.3,0.3,0.5,0.4C40.4,18.2,40.3,18,40.1,17.8z M90.5,59c0,1.1-0.5,2.5,0,3.4c0.7,1.2,2,2.6,3.2,2.9
	c0.8,0.2,2.2-1.5,2.7-2.6c0.7-1.9-0.5-3.2-2.4-3.6C92.8,58.8,91.6,59,90.5,59c0-0.9,0.1-1.9,0.2-2.9c-0.9,0.2-2,0-2.6,0.5
	c-2.8,2.1-5.4,4.4-8.2,6.8c1,1,1.6,1.8,2.3,2.5c-5.7,0.1-6.5,1.2-4.8,6c-1.9,0.2-3.1,0.8-2.3,3.1c1.3,3.4,2.5,6.8,3.8,10.2
	c2.8-1.1,2.9-1.2,2.3-3.1c-1.2-3.4-2.6-6.8-3.9-10.3c5.2,1,6.4-0.4,4.7-5.9C84.9,63.6,87.7,61.3,90.5,59z M94.2,42.6
	c0.5-2.3-0.5-4.1-2.7-4.7c-0.9-0.3-2.5,0.7-3.2,1.5c-1.7,2,0.3,3.2,1.5,4.6c-0.8,1-1.5,1.9-2.3,2.9c1.3,0.1,2.6,0.7,3.7,0.3
	c3.1-1,6.2-2.4,9.4-3.7C98.3,39.1,96.2,42.4,94.2,42.6z M61.7,46.9c0.8-1.8,1.8-3.8-0.8-4.8c-1.2-0.4-2.8,0.5-4.2,0.8
	c0.5,1.6,1,3.1,1.6,4.6c0.1,0.3,0.9,0.3,1.4,0.5c-0.6,0.8-1.2,1.7-2.2,2.9c5.6,2.3,8.7-2,13.3-2.6c-0.8-1.4-1.3-2.2-1.5-2.6
	C66.5,46.1,64.1,46.5,61.7,46.9z M86.7,28.2c0,0.4-0.1,0.8-0.1,1.1c1.1,0.4,2.4,1.3,3.3,1.1c2.8-0.7,5.6-1.7,8.3-2.7
	c2.3-0.9,1.9-2.4,0.3-4.1C94.4,25.2,90.6,26.7,86.7,28.2z M100.7,46.1c-0.5-0.2-0.9-0.4-1.4-0.6c-0.4,0.9-1.4,1.9-1.2,2.7
	c1.1,3.7,2.6,7.2,3.9,10.8c2.5,0,3.3-0.7,2.3-3C103,52.8,101.9,49.4,100.7,46.1z M81.1,43.7c-1.1-3.3-2.2-6.6-3.4-9.9
	c-0.8-2.3-2-3-3.8-0.9c1.2,3.3,2.4,6.6,3.5,10C78.2,45.3,79.4,45.3,81.1,43.7z M58.5,71c2.3-2.6,4.6-5.2,7-7.8c1.4-1.5,1-3-0.8-3.2
	c-1.4-0.2-3.4,0.7-4.1,1.7c-1.7,2.4-2.8,5.2-4.2,7.9c0.3,0.2,0.7,0.6,1.1,0.9C57.6,70.6,57.9,70.8,58.5,71z M48.1,62.9
	c3.1-2.1,2.6-4.6-2-13.4c-2.3,0-2.7,1.1-1.9,3.1C45.5,55.8,46.7,59.1,48.1,62.9z M92.4,77.8c3.6-1.4,6.8-2.7,10-3.9
	c2.4-0.9,1.9-2.1,0.3-3.7c-4,1.6-7.9,3.1-12,4.8C91.5,76.1,91.9,76.8,92.4,77.8z M63.1,30.1c-2-1-3.2-2.1-3.9-1.9
	c-3.1,1-6.1,2.2-9,3.6c-0.6,0.3-0.8,1.4-1.1,2.1c0.8,0.3,1.8,1,2.4,0.8C55,33.4,58.4,31.9,63.1,30.1z M63.6,87.2
	c-0.3-1-0.2-2.5-0.9-2.9c-3.4-2-7-3.7-10.7-5.6C51.4,82.2,51.4,82.2,63.6,87.2z M65.7,79c1.5-2,3.2-3.4,2.9-4.2
	c-0.4-1.4-2-2.9-3.4-3.3c-0.7-0.2-2.9,1.8-2.9,2.8C62.5,75.6,64.1,76.9,65.7,79z M82.6,50.9c-2-1.5-3.2-3.2-4.3-3.2
	c-1.2,0.1-3,1.5-3.3,2.7c-0.4,2,1.3,3.6,3.3,3.4C79.6,53.7,80.7,52.3,82.6,50.9z M105,34.4c-2.4-1.3-3.9-2.7-5-2.5
	c-1.2,0.2-2.8,2.1-2.7,3.1c0.1,1.1,2.2,3,3.2,2.9C101.9,37.8,103,36.1,105,34.4z M73.2,31.8c-2.2-1.6-3.5-3.3-4.9-3.4
	c-0.9-0.1-2.7,2-2.7,3.2c0,1,1.9,2.8,3.1,3C69.8,34.7,71.1,33.1,73.2,31.8z"/>
<path class="st2" d="M121.1,16.6c2.9-3.8,2.9-3.8,7.4-1.4c2.2-2.5,4.7-4,7.4-0.2c1.5-0.8,2.8-2.1,4.2-2.1s2.9,1.3,4.4,2.1
	c3.6-3,3.6-3,7.2,0.1c1.3-0.8,2.6-2,4-2.2c1.3-0.1,2.8,1,4.5,1.7c2.3-1.8,4.9-3,7.5,0.9c2.4-3.6,5.1-3.5,7.7-0.2
	c4.1-3.2,4.1-3.2,8.2,0.1c2.2-2.8,4.8-3.8,7.8,0.2c2.5-3.2,5.3-3.8,8-0.2c4.1-3.4,4.1-3.4,8.3,0.3c-0.9,2.7-1.9,5.4-2.8,8.2
	c-1.3,3-2.7,5.9-3.8,8.9c-1.6,4.6-1.8,9.2,0.8,13.8c0.4,5.6,0.5,11.2,3.7,16.3c0.3,0.8,0.6,1.5,0.8,2.3c1.4,5.1,1,6.2-3.3,8.9
	c-2,1.3-4,2.5-6.1,3.8c2.5,5.9,4.8,11.3,7.1,16.7c0,0.4,0,0.7,0,1.1c-3.6,0.3-7.2,0.8-10.9,0.8c-27.9,0.1-55.8,0.1-83.7,0
	c-2.8,0-5.7-0.6-8.5-0.9c0.7-1.5,1.4-3.1,2.2-4.8c-1.6-1.7-2-3.7-0.1-5.8c0.6-0.6,0.9-2,0.6-2.8c-1.2-2.9,0-4.8,2.4-6.2
	c-2.1-3.2-1.7-5.8,1.6-7.8c-3.2-3.4-1.3-5.5,1.5-7.8c-3.4-3.1-1.9-5.2,1.3-7.3c-1.9-2.2-2.8-4.6-0.3-6.8c0.5-0.4,0.8-1.5,0.6-2
	c-1.3-3-0.5-5.2,2.2-6.8c-1.7-2.5-2.8-4.8,0-6.7c0.1-0.1,0.3-0.3,0.3-0.4c-1.8-4.1,1.7-6.4,2.5-9.6c0.8-3.5,2.2-4.3,5.2-4.1
	c0.2,0.1,0.3,0.3,0.5,0.4C121.4,16.9,121.3,16.7,121.1,16.6z M171.5,57.7c0,1.1-0.5,2.5,0,3.4c0.7,1.2,2,2.6,3.2,2.9
	c0.8,0.2,2.2-1.5,2.7-2.6c0.7-1.9-0.5-3.2-2.4-3.6C173.8,57.6,172.6,57.8,171.5,57.7c0-0.9,0.1-1.9,0.2-2.9c-0.9,0.2-2,0-2.6,0.5
	c-2.8,2.1-5.4,4.4-8.2,6.8c1,1,1.6,1.8,2.3,2.5c-5.7,0.1-6.5,1.2-4.8,6c-1.9,0.2-3.1,0.8-2.3,3.1c1.3,3.4,2.5,6.8,3.8,10.2
	c2.8-1.1,2.9-1.2,2.3-3.1c-1.2-3.4-2.6-6.8-3.9-10.3c5.2,1,6.4-0.4,4.7-5.9C165.9,62.3,168.7,60,171.5,57.7z M175.2,41.3
	c0.5-2.3-0.5-4.1-2.7-4.7c-0.9-0.3-2.5,0.7-3.2,1.5c-1.7,2,0.3,3.2,1.5,4.6c-0.8,1-1.5,1.9-2.3,2.9c1.3,0.1,2.6,0.7,3.7,0.3
	c3.1-1,6.2-2.4,9.4-3.7C179.3,37.8,177.2,41.1,175.2,41.3z M142.7,45.6c0.8-1.8,1.8-3.8-0.8-4.8c-1.2-0.4-2.8,0.5-4.2,0.8
	c0.5,1.6,1,3.1,1.6,4.6c0.1,0.3,0.9,0.3,1.4,0.5c-0.6,0.8-1.2,1.7-2.2,2.9c5.6,2.3,8.7-2,13.3-2.6c-0.8-1.4-1.3-2.2-1.5-2.6
	C147.5,44.8,145.1,45.2,142.7,45.6z M167.7,26.9c0,0.4-0.1,0.8-0.1,1.1c1.1,0.4,2.4,1.3,3.3,1.1c2.8-0.7,5.6-1.7,8.3-2.7
	c2.3-0.9,1.9-2.4,0.3-4.1C175.4,23.9,171.6,25.4,167.7,26.9z M181.7,44.8c-0.5-0.2-0.9-0.4-1.4-0.6c-0.4,0.9-1.4,1.9-1.2,2.7
	c1.1,3.7,2.6,7.2,3.9,10.8c2.5,0,3.3-0.7,2.3-3C184.1,51.5,182.9,48.1,181.7,44.8z M162.2,42.5c-1.1-3.3-2.2-6.6-3.4-9.9
	c-0.8-2.3-2-3-3.8-0.9c1.2,3.3,2.4,6.6,3.5,10C159.2,44,160.4,44,162.2,42.5z M139.5,69.7c2.3-2.6,4.6-5.2,7-7.8
	c1.4-1.5,1-3-0.8-3.2c-1.4-0.2-3.4,0.7-4.1,1.7c-1.7,2.4-2.8,5.2-4.2,7.9c0.3,0.2,0.7,0.6,1.1,0.9C138.6,69.4,139,69.5,139.5,69.7z
	 M129.1,61.6c3.1-2.1,2.6-4.6-2-13.4c-2.3,0-2.7,1.1-1.9,3.1C126.5,54.6,127.7,57.8,129.1,61.6z M173.5,76.5c3.6-1.4,6.8-2.7,10-3.9
	c2.4-0.9,1.9-2.1,0.3-3.7c-4,1.6-7.9,3.1-12,4.8C172.5,74.8,172.9,75.5,173.5,76.5z M144.1,28.8c-2-1-3.2-2.1-3.9-1.9
	c-3.1,1-6.1,2.2-9,3.6c-0.6,0.3-0.8,1.4-1.1,2.1c0.8,0.3,1.8,1,2.4,0.8C136,32.1,139.4,30.7,144.1,28.8z M144.6,85.9
	c-0.3-1-0.2-2.5-0.9-2.9c-3.4-2-7-3.7-10.7-5.6C132.4,80.9,132.4,80.9,144.6,85.9z M146.7,77.7c1.5-2,3.2-3.4,2.9-4.2
	c-0.4-1.4-2-2.9-3.4-3.3c-0.7-0.2-2.9,1.8-2.9,2.8C143.5,74.3,145.1,75.6,146.7,77.7z M163.6,49.6c-2-1.5-3.2-3.2-4.3-3.2
	c-1.2,0.1-3,1.5-3.3,2.7c-0.4,2,1.3,3.6,3.3,3.4C160.6,52.5,161.7,51,163.6,49.6z M186,33.1c-2.4-1.3-3.9-2.7-5-2.5
	c-1.2,0.2-2.8,2.1-2.7,3.1c0.1,1.1,2.2,3,3.2,2.9C182.9,36.5,184,34.8,186,33.1z M154.2,30.5c-2.2-1.6-3.5-3.3-4.9-3.4
	c-0.9-0.1-2.7,2-2.7,3.2c0,1,1.9,2.8,3.1,3C150.9,33.4,152.1,31.8,154.2,30.5z"/>
<path class="st2" d="M277.3,16.3c0.2-0.1,0.3-0.3,0.5-0.4c3-0.2,4.3,0.7,5.2,4.1c0.8,3.1,4.3,5.5,2.5,9.6c0,0.1,0.2,0.3,0.3,0.4
	c2.7,1.9,1.7,4.2,0,6.7c2.7,1.5,3.5,3.8,2.2,6.8c-0.2,0.5,0.1,1.6,0.6,2c2.5,2.2,1.6,4.6-0.3,6.8c3.2,2.1,4.7,4.2,1.3,7.3
	c2.8,2.3,4.7,4.4,1.5,7.8c3.3,1.9,3.7,4.5,1.6,7.8c2.4,1.5,3.5,3.3,2.4,6.2c-0.3,0.8,0,2.2,0.6,2.8c1.9,2.2,1.5,4.1-0.1,5.8
	c0.8,1.8,1.5,3.3,2.2,4.8c-2.8,0.3-5.7,0.9-8.5,0.9c-27.9,0.1-55.8,0.1-83.7,0c-3.6,0-7.3-0.5-10.9-0.8c0-0.4,0-0.7,0-1.1
	c2.3-5.4,4.6-10.8,7.1-16.7c-2.1-1.3-4.1-2.5-6.1-3.8c-4.3-2.7-4.7-3.8-3.3-8.9c0.2-0.8,0.5-1.5,0.8-2.3c3.2-5.1,3.3-10.7,3.7-16.3
	c2.7-4.6,2.5-9.2,0.8-13.8c-1.1-3-2.5-5.9-3.8-8.9c-0.9-2.7-1.9-5.4-2.8-8.2c4.2-3.8,4.2-3.8,8.3-0.3c2.7-3.6,5.5-3,8,0.2
	c3-4,5.5-3,7.8-0.2c4.1-3.2,4.1-3.2,8.2-0.1c2.6-3.2,5.3-3.3,7.7,0.2c2.6-3.9,5.2-2.6,7.5-0.9c1.7-0.7,3.2-1.8,4.5-1.7
	c1.4,0.1,2.6,1.4,4,2.2c3.6-3.1,3.6-3.1,7.2-0.1c1.5-0.8,3-2.1,4.4-2.1s2.7,1.3,4.2,2.1c2.7-3.8,5.2-2.3,7.4,0.2
	c4.5-2.5,4.5-2.5,7.4,1.4C277.6,16,277.4,16.2,277.3,16.3z M235.8,63.9c-1.6,5.5-0.5,6.9,4.7,5.9c-1.3,3.4-2.7,6.8-3.9,10.3
	c-0.7,1.9-0.6,2,2.3,3.1c1.3-3.4,2.5-6.8,3.8-10.2c0.9-2.3-0.4-2.9-2.3-3.1C242.2,65.1,241.3,64,235.8,63.9c0.6-0.7,1.3-1.5,2.2-2.5
	c-2.8-2.4-5.5-4.7-8.2-6.8c-0.6-0.5-1.7-0.4-2.6-0.5c0.1,1,0.1,2,0.2,2.9c-1.1,0-2.3-0.2-3.4,0c-1.9,0.4-3.1,1.7-2.4,3.6
	c0.4,1.1,1.9,2.8,2.7,2.6c1.2-0.2,2.5-1.7,3.2-2.9c0.5-0.9,0-2.2,0-3.4C230.1,59.3,232.9,61.6,235.8,63.9z M217.2,41.5
	c3.2,1.3,6.2,2.6,9.4,3.7c1.1,0.3,2.5-0.2,3.7-0.3c-0.8-1-1.5-1.9-2.3-2.9c1.2-1.3,3.2-2.6,1.5-4.6c-0.7-0.8-2.3-1.8-3.2-1.5
	c-2.2,0.6-3.2,2.4-2.7,4.7C221.6,40.4,219.6,37.1,217.2,41.5z M248.6,43.7c-0.2,0.4-0.7,1.2-1.5,2.6c4.6,0.7,7.7,4.9,13.3,2.6
	c-0.9-1.2-1.5-2.1-2.2-2.9c0.5-0.2,1.2-0.2,1.4-0.5c0.6-1.5,1.1-3.1,1.6-4.6c-1.4-0.3-3-1.3-4.2-0.8c-2.7,1-1.6,3.1-0.8,4.8
	C253.8,44.5,251.4,44.1,248.6,43.7z M219.4,21.6c-1.6,1.7-2,3.2,0.3,4.1c2.7,1.1,5.4,2.1,8.3,2.7c0.9,0.2,2.2-0.7,3.3-1.1
	c0-0.4-0.1-0.8-0.1-1.1C227.3,24.7,223.4,23.2,219.4,21.6z M213.4,54c-1,2.3-0.1,3,2.3,3c1.3-3.6,2.8-7.2,3.9-10.8
	c0.2-0.7-0.8-1.8-1.2-2.7c-0.5,0.2-0.9,0.4-1.4,0.6C215.9,47.4,214.8,50.8,213.4,54z M240.4,40.9c1.1-3.3,2.3-6.6,3.5-10
	c-1.9-2.2-3-1.4-3.8,0.9c-1.2,3.3-2.3,6.6-3.4,9.9C238.4,43.3,239.6,43.3,240.4,40.9z M260.5,68.4c0.4-0.3,0.8-0.6,1.1-0.9
	c-1.4-2.8-2.5-5.6-4.2-7.9c-0.8-1.1-2.8-1.9-4.1-1.7c-1.9,0.2-2.2,1.8-0.8,3.2c2.4,2.6,4.7,5.3,7,7.8
	C259.9,68.7,260.2,68.6,260.5,68.4z M273.6,50.6c0.8-2,0.5-3.2-1.9-3.1c-4.6,8.8-5,11.3-2,13.4C271.2,57.1,272.3,53.8,273.6,50.6z
	 M227,73c-4.1-1.6-7.9-3.2-12-4.8c-1.6,1.6-2.1,2.9,0.3,3.7c3.2,1.2,6.4,2.5,10,3.9C226,74.8,226.4,74.1,227,73z M266.3,32.6
	c0.6,0.2,1.6-0.5,2.4-0.8c-0.4-0.7-0.5-1.8-1.1-2.1c-2.9-1.3-5.9-2.6-9-3.6c-0.7-0.2-1.9,0.9-3.9,1.9
	C259.4,29.9,262.8,31.4,266.3,32.6z M265.7,76.7c-3.6,1.9-7.2,3.6-10.7,5.6c-0.6,0.4-0.6,1.9-0.9,2.9
	C266.5,80.1,266.5,80.1,265.7,76.7z M255.4,72.2c0-1-2.1-3-2.9-2.8c-1.4,0.4-3,2-3.4,3.3c-0.3,0.9,1.5,2.2,2.9,4.2
	C253.7,74.8,255.4,73.5,255.4,72.2z M239.5,51.9c2,0.2,3.8-1.4,3.3-3.4c-0.2-1.2-2-2.7-3.3-2.7c-1.1,0-2.4,1.7-4.3,3.2
	C237.1,50.3,238.2,51.7,239.5,51.9z M217.4,36c0.9,0.1,3.1-1.8,3.2-2.9c0.1-1.1-1.5-2.9-2.7-3.1c-1.1-0.2-2.6,1.2-5,2.5
	C214.9,34.1,216,35.8,217.4,36z M249.1,32.5c1.2-0.2,3.1-2,3.1-3c0-1.2-1.8-3.2-2.7-3.2c-1.4,0.1-2.7,1.8-4.9,3.4
	C246.7,31.1,248,32.6,249.1,32.5z"/>
<path class="st2" d="M275.8,135.3h-231c-5.2,0-9.4-4.7-9.4-10.5V29.6c0-5.8,4.2-10.5,9.4-10.5h231c5.2,0,9.4,4.7,9.4,10.5v95.3
	C285.1,130.6,280.9,135.3,275.8,135.3z"/>
<g>
	<g>
		<path class="st3" d="M239.5,47.1c0.1-8.3,6.8-13.3,12.8-13.5c1,0.1,2,0.2,3.1,0c2.5-0.3,4.6,1.2,6.8,1.9c2.3,0.6,4.1,1.7,4.3,4.3
			c3.4,4.6,2.5,9.5,0.9,14.5c-0.9,2.7-3,4.2-5.2,5.7c-2.5-0.5-5.1-0.4-7.6-0.6C246.6,58.8,241.7,54.6,239.5,47.1z"/>
		<path class="st3" d="M289.1,28.7c-0.6,4.3-1.7,8.3-6,10.5c-3.2-0.4-6.5-0.3-9.7-0.6c-6.3-0.7-10.3-4.4-12.6-10.1
			c-0.5-0.7-0.2-1.5-0.5-2.2c-0.2-10.5,12.4-16.6,20.9-11.9c1.2,0.7,2.4,1.4,3.7,2.2c1.6,0.4,2.1,1.6,2.4,3c0.5,1.7,2.2,2.9,1.9,4.9
			C288.7,25.8,289.4,27.2,289.1,28.7z"/>
		<path class="st4" d="M239.5,47.1c2,1.6,2.3,4.2,3.8,6.1c3.7,4.7,8.9,5.1,14.1,5.6c1.6,0.1,3.5-0.8,4.7,1.2c-1.5,2.1-4,2-6.2,2.5
			c-1.2-0.1-2.5-0.1-3.7,0c-2.4,0.6-4.1-1.3-6.2-1.9c-1.2-0.2-2.4-0.6-2.9-1.8C241.3,55.1,238.8,51.6,239.5,47.1z"/>
		<path class="st4" d="M260.9,28c0.5,0.6,1.1,1.2,1.5,1.9c2.9,6.2,8.2,8.1,14.5,7.9c2.1,0,4.3-0.3,6.1,1.2c-3.3,2.8-7,3.8-11.2,2.5
			c0.2-0.4,0.6-0.2,0.9-0.4c-0.6,0.2-1.4-0.2-2,0.4c-1.7,0.2-2.6-1.8-4.3-1.7c-1.1-1.8-2.7-3-4.3-4.3c-0.9-2-1.7-4-1.9-6.2
			C260.7,29,260.5,28.3,260.9,28z"/>
		<path class="st5" d="M288,8.4c3.7-3.6,7.6-2.6,9.2,2.5c-0.4,2.3-0.8,4.8-3.9,5c-2.3,0.2-4.2-0.7-5.2-3
			C287.3,11.4,287.6,9.9,288,8.4z"/>
		<path class="st6" d="M288,8.4c1,0.9,0.2,2.1,0.4,3.1c0.5,2.5,2,3.4,4.2,3.6c2.3,0.2,3.6-1,4-3.3c0.1-0.4,0.4-0.7,0.6-1
			c0.2,4.8-2,6.9-6.6,6.3c-2-0.3-2.8,0.8-3.4,2.4c-0.8-1-1.6-2-2.4-3c1.5-0.9,2.3-2,1.9-3.9C286.4,11.1,286.6,9.5,288,8.4z"/>
		<path class="st7" d="M243.2,58.7c1,0.6,1.9,1.2,2.9,1.8c-1.8,1.6-3.5,3.4-5.5,4.9c-0.9,0.7-2,1.5-3.6,1.2
			C237.8,62.9,240.6,60.9,243.2,58.7z"/>
		<path class="st8" d="M289.1,28.7c-0.8-1.4-0.8-2.9,0.1-4.3C289.5,25.8,290.1,27.2,289.1,28.7z"/>
		<path class="st9" d="M252.3,62.5c1.2-0.9,2.5-0.9,3.7,0C254.8,63,253.5,63.1,252.3,62.5z"/>
		<path class="st10" d="M255.4,33.6c-1,0.9-2,0.9-3.1,0C253.3,33,254.4,32.8,255.4,33.6z"/>
		<path class="st11" d="M260.9,28c0,0.5-0.1,1-0.6,1.2c-0.3-1-0.6-2,0-3.1C261,26.6,260.9,27.4,260.9,28z"/>
		<path class="st12" d="M270.7,41.6c0.7-0.9,1.5-0.5,2.4-0.6c-0.3,0.9-1,0.4-1.4,0.7C271.5,41.6,271.1,41.6,270.7,41.6z"/>
		<path class="st13" d="M265,40.1c0,0.9-0.5,1.3-1,1.7c-0.6,0.5-1.1,0.3-1.6-0.2c-0.9-0.9-1.8-1.7-2.9-2.2c-3-1.4-5.8-2.6-8.5,0.6
			c-0.8,1-2.2,1.5-3.4,2c-0.9,0.5-1.8,0.2-2.3-0.8c-0.4-0.8-0.6-2,0.2-2.1c3.6-0.7,6.1-4.7,10.4-3.6c2.8,0.8,5.8,1.2,8,3.4
			C264.4,39.2,264.7,39.7,265,40.1z"/>
		<path class="st14" d="M266.4,49.9c-0.4,1.9-1.8,3.2-3.4,4.4c-0.4,0.3-1,0.2-1.4-0.1c-0.6-0.4-0.4-0.9,0-1.3c1.3-1,1.7-2.4,2.3-3.8
			c0.3-0.7,0.7-1.3,1.6-1C266.3,48.3,266.4,49,266.4,49.9z"/>
		<path class="st13" d="M276.2,14.6c2.4,0.3,5.5,1.6,8.4,3.3c1,0.6,1.1,1.7,0.5,2.7c-0.8,1.1-1.8,0.8-2.6-0.1c-1-1.1-2.1-2-3.5-2.4
			c-2.5-0.7-5-1.8-7.1,1c-0.3,0.5-1,0.8-1.5,1c-1.3,0.5-2.8,2.8-4.1,0.6c-1.4-2.4,1.1-2.7,2.6-3.4C271,16.3,272.7,14.4,276.2,14.6z"
			/>
		<path class="st15" d="M287,29c-0.2,1.7-1,3-2.2,4c-0.7,0.6-1.8,1.1-2.5,0.4c-0.9-0.9,0.5-1.3,0.8-2c0.5-1,1.1-2,1.6-3
			c0.3-0.6,0.6-1.5,1.5-1.2C286.9,27.4,286.8,28.4,287,29z"/>
	</g>
	<g>
		<path class="st16" d="M46.1,84.1c1.2-5,3.9-8.5,9.3-9.3c1.7,0.5,3.3,0.5,5,0c5.4,0.9,8.3,3.8,9.2,9.3c0.3,1.7-0.3,3.3,0,5
			c-1,5.5-4.4,8.6-9.9,9.3c-6.1,0.8-10.3-1.8-13.7-8c-0.2-0.4-0.4-0.9-0.6-1.3C46.2,87.5,46.3,85.8,46.1,84.1z"/>
		<path class="st17" d="M60.4,74.8c-1.7,1.1-3.3,1.1-5,0C57,74.3,58.7,74.3,60.4,74.8z"/>
		<path class="st18" d="M56.9,94.9c-3.2,0-7.3-4.6-7.3-8.4c-0.1-3.6,4.6-8.5,8.1-8.6c3.3-0.1,8.9,4.7,9,7.7
			C66.8,90.6,62.4,94.8,56.9,94.9z"/>
		<path class="st19" d="M62.1,87.6c0.1,2.9-2.7,2.6-4.7,2.9c-2.8,0.4-3.3-1.8-3.5-4c-0.2-3.1,1.9-4.3,4.5-4.5
			C62,81.7,61.7,84.7,62.1,87.6z"/>
	</g>
	<g>
		<path class="st20" d="M297,65.6c-2.9,5.1-6.9,9.2-12.1,12c-1.7,0.9-2.7,1.8-5.3,2.3c-1.8-0.2-3.7-0.2-5.5-0.1
			c-4.1,0.3-7.4-1.8-10.1-4.3c-1.7-1.6,0.6-2.1,1.7-2.7c1.7-0.4,3.5,0.5,5.2,0c1.6-0.1,3.2-1,4.9-0.5c0.7,1.5,1.9,1.6,3.2,1.3
			c11.4-2.3,15.3-12.7,11.2-21.1c-4.4-9-15.2-10.6-22.2-5c-1,0.8-2,1.6-2.8,2.7c-1,1.5,1-0.1,0.6,0.6c0.1,1.7-1.5,1.7-2.3,2.6
			c-1.7,1.1-2.6,3.1-4.3,4.3c-2.8,0.8-3.1,0.5-2.9-2.2c0.2-3.1,1.8-5.6,3.2-8.2c0.5-1,1.1-1.9,1.5-2.9c4.7-3.6,10.1-5,15.9-5.4
			c3.2-0.2,6.4-0.2,9.5,0.9c2.6,2.3,5.5,4.3,7.4,7.3c2.9,4.8,4.8,9.7,3.4,15.4C296.8,63.6,296.8,64.6,297,65.6z"/>
		<path class="st21" d="M265.7,73.2c-1.5,0.8-2.7,1.5-0.2,2.9c3.1,1.7,5.9,3.8,9.9,3c1.4-0.3,2.9-0.2,4.2,0.9
			c-10.4,3.1-17.7,2.7-24.5-6c-8.6-11-3.4-25.1,6-29.6c0.6,2.1-1.2,3.4-1.9,4.9c-0.9,2-1.8,3.9-2.2,6.2c-0.3,2,0.2,2.6,2.1,2
			c0.6,1,0,2-0.3,2.9c-1.3,4.8,0.5,8.7,4.9,11.1C264.4,71.8,265.5,71.9,265.7,73.2z"/>
		<path class="st22" d="M297,65.6c-1.1-0.6-1-1.7-0.8-2.7c2-9-1.6-15.6-8.6-20.7c-0.8-0.6-1.4-1.2-1.2-2.3c5.6,1,11,2.6,14.1,7.7
			c2.8,4.5,1,9.3-0.9,13.8C298.8,62.8,297.8,64.2,297,65.6z"/>
		<path class="st23" d="M265.8,50.8c-0.5,0.2-1,0.4-1.6,0.5c1.1-3.5,6.2-7.1,10-7.6c7-0.9,12.1,2.2,16.2,7.3c1.7,2.1,2,5.1,1.8,7.7
			c-0.6,9.7-5.1,14.2-14.6,15.8c-1.4,0.3-2.7,0-2-2c0.9-1.8,3-2.2,4.4-3.5c0.8-0.8,1.6-1.4,2.3-2.3c0.3-0.4,0.5-0.7,0.8-1.1
			c4.7-7,1-15-7.5-15.8c-0.8-0.1-1.7-0.1-2.5-0.1c-1.6-0.2-3.1,0-4.5,0.6C267.7,50.6,266.8,51.2,265.8,50.8z"/>
		<path class="st24" d="M283,66.9c-1.7,2.8-4.6,4.1-7.3,5.6c-1.7,0.3-3.3,1-5.1,0.9c-7.9-0.1-12.2-7.5-11.2-15.5
			c0.3-2.1,2.4-3.1,3.4-4.8c0.6-1.2,2.1-1.3,2.9-2.3c2.6-0.7,4.8-2.9,7.7-1.7c7,1.6,11.3,7.2,10.6,13.9
			C284,64.4,282.9,65.4,283,66.9z"/>
		<path class="st25" d="M262.9,53.1c0.6,0.3,0.2,0.5,0,0.7c-6.3,5.8-1.5,15.7,4.1,18.5c1.1,0.6,2.6,0.1,3.7,1
			c-1.7,0.5-3.3-0.2-4.9-0.2c-7.8-3.4-9.7-7.6-6.8-15.8C260.2,55.9,261,54.1,262.9,53.1z"/>
		<path class="st26" d="M283,66.9c-0.7-0.2-0.6-0.7-0.4-1.1c1.8-7-0.1-11.7-6-15.3c-1-0.6-2.1-0.5-3.1-0.9c0,0-0.1-0.2-0.1-0.3
			s0.1-0.2,0.1-0.2c4.9-0.4,9,1.3,11.3,5.8C287.1,59.1,286.1,63.2,283,66.9z"/>
		<path class="st27" d="M280.7,57.6c1.9,4.4-0.6,11.4-4.7,13.2c-4.9,2.1-11.1-0.5-13.2-5.6c-2.5-6,0.2-10.6,4.5-13.1
			C271.7,49.5,278.6,52.7,280.7,57.6z"/>
		<path class="st28" d="M264.4,64.6c-1.6-3.1-0.5-8.8,4.3-10.8c3.1-1.3,8.7,0.5,9.7,3.1c2.1,5.2,0.7,10.4-3.3,12.1
			C271.9,70.5,265.8,68,264.4,64.6z"/>
		<path class="st29" d="M277,58.8c1.7,3.9,0.5,7.2-2.9,8.5c-2.6,1-6.9-0.8-8.3-3.6c-1.4-2.8,0.2-6.6,3.5-7.8
			C273.7,54.2,275.5,54.8,277,58.8z"/>
		<path class="st30" d="M273.3,65c-2.1,0.9-4.4-0.1-5.4-2.4c-0.6-1.5,0.7-4.7,2.3-5.4c1.9-0.8,4.5,0.5,5.4,2.6
			C276.4,61.8,275.4,64.1,273.3,65z"/>
	</g>
	<g>
		<path class="st31" d="M206.5,61c-1.5-2-3.2-3.6-5.4-5c-2.1-1.3-2.9-5.8-1.4-8.2c2.3-3.7,5.3-6.6,9.1-8.7c2.1,0.9,4.4,1.3,6.6,0.8
			c3.5-0.9,6.1,0.3,8.3,2.7c1.9,2.7,3.8,5.5,4.5,8.9c0.3,1.6,0.8,3.2-0.5,4.6c0,0.3-0.1,0.5-0.3,0.7c-2.9,3.3-8.2,4.8-12.1,3.3
			c-1.3-0.6-2.3-0.2-3.4,0.5C210.3,61.7,208.5,62.3,206.5,61z"/>
		<path class="st32" d="M206.5,61c2.3,0.3,4.4,0.1,6.2-1.6c0.6-0.5,1.4-0.8,2.1-0.3c4.4,2.8,7.9,0.2,11.6-1.8c0.4-0.2,0.7-0.5,1-0.7
			c0.2,1.2-1,1.8-1.1,2.9c-3.9,3.8-8.4,5.7-13.9,5.2C209.9,64.6,207.9,63.3,206.5,61z"/>
		<path class="st33" d="M223.8,42.6c-3.3-3.1-7.5-2.1-11.4-1.9c-1.6,0.1-2.7-0.4-3.5-1.6C213.5,35.8,220.8,36.3,223.8,42.6z"/>
		<path class="st34" d="M217,52.6c-2.2,0.2-4.4,0.5-6.6,0.4c-1.8-0.1-3.3-0.7-4-2.7c-0.8-2.5-0.8-4.9,1.9-7.4
			c-1.2,7.5,3.4,8.6,8.8,9C217.2,52.1,217.1,52.3,217,52.6z"/>
	</g>
	<g>
		<path class="st31" d="M209.3,29.1c0.6,0.2,0.8,0.7,1.1,1.1c1.2,2.7,2,5.4,4.1,7.7c0.6,0.7,0.4,1.8,0.2,2.7c-2.1,1.7-4.4,3-6.8,4.2
			c-0.3,0.2-0.8,0.5-1.1,0.4c-2.8-0.3-4.9,1.1-7,2.5c-2.1-1.4-4-3-5.9-4.8c-2.3-2.3-2-4.5-1-6.9c0.9-2.1,2.2-3.9,3.9-5.5
			c2.2,0.7,4.3,0.1,6.1-1.1c1.1-0.7,2-0.8,3.2-0.3C207.1,29.6,208.2,29.7,209.3,29.1z"/>
		<path class="st32" d="M199.7,47.8c0.8-0.8,1.6-1.6,2.4-2.3c0.3-0.3,0.8-0.7,1.3-0.6c3.6,0.9,6-1.5,8.7-3.1
			c0.8-0.5,1.5-1.1,2.5-1.1c-1.8,4.3-4.6,7.5-9.4,8.6C203.2,49.7,201.2,49.5,199.7,47.8z"/>
		<path class="st33" d="M209.3,29.1c-0.1,0.9-0.3,1.6-1.4,1c-0.1,0-0.2,0-0.2-0.1c-1.8-0.7-3.6-1.2-5.5,0.3c-1.1,0.8-2.6,1-4,1
			c-0.7,0-1.3,0-1.3-0.8C200.4,26.8,205.9,26.2,209.3,29.1z"/>
		<path class="st34" d="M207.9,35.9c0,0.2,0,0.3-0.1,0.4c-1.3,1.8-2.9,3.1-4.9,4.1c-1.4,0.8-2.4-0.2-3.5-0.7
			c-0.5-0.3-1.1-0.5-1.6-0.8s-1.3-0.4-0.9-1.3c0.3-0.7,0.9-0.7,1.5-0.7c0.5,0,0.8,0.3,1.3,0.6c2.2,1.6,4,1.3,5.5-1
			c0.5-0.8,0.9-1.3,1.8-1.3C207.5,35.3,207.8,35.4,207.9,35.9z"/>
	</g>
	<g>
		<path class="st31" d="M238.6,31.6c0.6,0.2,0.8,0.7,1.1,1.1c1.2,2.7,2,5.4,4.1,7.7c0.6,0.7,0.4,1.8,0.2,2.7c-2.1,1.7-4.4,3-6.8,4.2
			c-0.3,0.2-0.8,0.5-1.1,0.4c-2.8-0.3-4.9,1.1-7,2.5c-2.1-1.4-4-3-5.9-4.8c-2.3-2.3-2-4.5-1-6.9c0.9-2.1,2.2-3.9,3.9-5.5
			c2.2,0.7,4.3,0.1,6.1-1.1c1.1-0.7,2-0.8,3.2-0.3C236.4,32,237.5,32.2,238.6,31.6z"/>
		<path class="st32" d="M229,50.2c0.8-0.8,1.6-1.6,2.4-2.3c0.3-0.3,0.8-0.7,1.3-0.6c3.6,0.9,6-1.5,8.7-3.1c0.8-0.5,1.5-1.1,2.5-1.1
			c-1.8,4.3-4.6,7.5-9.4,8.6C232.5,52.2,230.6,51.9,229,50.2z"/>
		<path class="st33" d="M238.6,31.6c-0.1,0.9-0.3,1.6-1.4,1c-0.1,0-0.2,0-0.2-0.1c-1.8-0.7-3.6-1.2-5.5,0.3c-1.1,0.8-2.6,1-4,1
			c-0.7,0-1.3,0-1.3-0.8C229.7,29.3,235.2,28.6,238.6,31.6z"/>
		<path class="st34" d="M237.3,38.4c0,0.2,0,0.3-0.1,0.4c-1.3,1.8-2.9,3.1-4.9,4.1c-1.4,0.8-2.4-0.2-3.5-0.7
			c-0.5-0.3-1.1-0.5-1.6-0.8s-1.3-0.4-0.9-1.3c0.3-0.7,0.9-0.7,1.5-0.7c0.5,0,0.8,0.3,1.3,0.6c2.2,1.6,4,1.3,5.5-1
			c0.5-0.8,0.9-1.3,1.8-1.3C236.8,37.8,237.2,37.8,237.3,38.4z"/>
	</g>
	<g>
		<path class="st35" d="M204.3,32.5c-0.3-0.4-0.7-0.9-1.1-1.4c-1.6-3,0.2-6,0.1-9.1c0.4-1.1-0.2-2.5,0.8-3.7
			c1.1,0.7,0.9,1.8,1.4,2.9C206.3,25.2,205.1,28.8,204.3,32.5z"/>
		<path class="st35" d="M205.9,19.8c-0.3-1.3-1.2-2.5-0.3-3.8C206,17.2,206.4,18.5,205.9,19.8z"/>
		<path class="st36" d="M204.2,22.2c-0.3-1.7-1-3.4-0.5-5.2c0.1,0.5,0.3,0.9,0.4,1.4C204.1,19.7,205.1,21,204.2,22.2z"/>
		<path class="st35" d="M202.3,14.6c-0.1-0.5-0.1-0.9-0.1-1.4c1.2,0.8,1.1,2.3,1.3,3.5C203.1,15.9,202.7,15.2,202.3,14.6z"/>
		<g>
			<path class="st37" d="M198.4,43.7c-1.5,4.4-5.1,7.3-8.1,10.6c-2.1,2.4-4.5,4.6-7.2,6.2c-2.1,1.2-4.2,1.9-6.5,1.1
				c-1.4-0.8-1.9-2.2-1.9-3.7c0.1-4.2-1.6-7.4-4.8-10c-0.8-1.1,0.2-3.2-1.7-3.4c-1.8-0.1-1.5,2.1-2.4,3c-1,0.4-2.1,0.4-3.1-0.1
				c-2.4-3-0.6-5.9,0.1-8.9c0.3-0.8,0.8-1.4,1.3-2.2c0.2-0.4,0.5-0.8,0.7-1.2c0.4-0.7,0.9-1.3,1.4-2c1.1-1.3,2.5-2.2,3.8-3.2
				c1.2-0.7,2.3-1.5,3.7-1.8c1.5-0.3,2.8,0.2,4.2,0.4c1.4,0.3,1.6,1.1,1.2,2.5c1.9-2.7,4.1-3.3,7-1.5c1.2,0.7,2.8-0.2,4.2,0.1
				c1.5,0.5,2.6,1.8,3.7,2.8c0.8,0.9,1.6,1.8,2.2,2.9c0.5,0.7,1,1.5,1.4,2.3c0.3,0.7,0.5,1.4,0.7,2.1
				C198.7,41.4,198.7,42.5,198.4,43.7z"/>
			<path class="st38" d="M187.6,4.8c4.3-2.7,8.6-3.4,13,0c2.6,3.3,4.1,7.2,4.9,11.2c-0.4,1.3,0.6,2.5,0.3,3.8
				c0.2,0.6,0.2,1.1-0.5,1.4c-1-0.5-1.3-1.5-1.9-2.4c-0.2-0.5-0.4-0.9-0.6-1.4c-0.1-0.3-0.3-0.7-0.3-0.9c-0.3-1.2-0.5-2.2-1.3-3.2
				c-4.5-6.2-7.2-6.7-14.4-2.7c-1.3,0-3.1,1.5-3.8-1C183.7,7.1,185.4,5.8,187.6,4.8z"/>
			<path class="st36" d="M198.4,43.7c-0.3-1.2-0.6-2.3-0.8-3.4c2.1-1.3,2.3-3.6,3.3-5.6c0.6-1.2,0.7-2.7,2.1-3.5
				c0.9,0,0.8,0.8,1.2,1.3C203.5,36.9,201.5,40.5,198.4,43.7z"/>
			<path class="st39" d="M196.8,37.9c-0.4-0.6-0.7-1.4-1.2-2c0.5-3.9,2.3-7.5,2.1-11.5c-0.1-1.2,0.1-2.4-0.4-3.5
				c-1.1-2.3-2.5-4.2-5.3-4.1c-2.6,0.2-4.7,3.7-4.5,6.7c-0.1,0.3-0.1,0.8-0.4,0.9c-1.1,1.1-2.4,2.5-3.9,1.8
				c-1.6-0.7-0.5-2.6-0.4-3.9c0.7-3.6,3.1-6.2,5.5-8.6c2.3-2.3,7.1-2,9.6,0.4c2.7,2.6,4.1,5.7,4,9.8c-0.2,5-1.1,9.4-4,13.5
				C197.6,38.1,197.3,38.1,196.8,37.9z"/>
			<path class="st40" d="M183.6,22.6c-0.1,1.2-0.3,2.3-0.4,3.8c1.8-0.8,3.1-1.7,4-3.1c0.8-0.5,1.1,0,1.4,0.8c0,0.5-0.1,0.9-0.3,1.4
				c-0.3,0.7-0.9,1.1-0.8,1.9c0.6,0.8,1.5,0.5,2.4,0.5c0.8,0.1,1.8,0.1,1.9,1.2c0.2,1.2-0.6,1.6-1.7,1.8c-2.8,0.9-5.4,0.9-7.6-1.9
				c-1.1,2.4-2.3,4.3-5.5,3.5c0.8-0.8,1.5-1.5,2.3-2.4c-2,0-3.6-0.1-5.3-0.7c-1.4-0.5-2.7-1.1-2.4-2.9c2.1-0.8,4.8-0.6,5.1-4
				c0.1-0.6,1-0.1,1.5,0.2c0.7,0.7,1.3,1.3,2,2.1c0.5,0.5,0.7,1.2,1.3,1.7c-0.4-0.7-0.3-1.5-0.3-2.2c0.1-1.2-0.5-2.5,0.7-3.5
				C183.6,20.1,183.7,21.4,183.6,22.6z"/>
			<path class="st41" d="M170,31.1c-1.3,1.1-2.5,2.2-3.7,3.4c-2.1-0.5-2.2-2.5-2.7-3.9c-1.1-3.3-1.8-6.7-1.7-10.2
				c0-0.4,0-0.8,0.1-1.2c2.3,0,2.1-1.8,2.6-3.4c1-3.5,3.3-6.1,6.7-6.7c3.8-0.7,7.5,0.5,10.2,3.6c0.3,1.3,0.1,2.1-1.1,2.7
				c-1.3,0-2.1-1-3.1-1.6c-3.6-2.1-7.5-1-9.2,2.8c-1.8,4.4-1.6,8.8,0.5,13.2C169.2,30.2,169.7,30.5,170,31.1z"/>
			<path class="st42" d="M188.3,24.5c0-0.6,0.1-1.5-1-1.2c-0.5,0.1-1,0.1-1-0.6c0.2-2.7,4.2-7.2,6.4-7c2.9,0.1,6.5,4.6,6.3,7.8
				c-0.4,4.3-0.6,8.8-3.1,12.7c-0.7-0.9-1.3-1.6-2-2.5c0.1-0.8-1.4-1.5-0.3-2.4c0.5-0.6-0.6-0.6-0.4-1c0-1.6,1.2-1.8,2.4-1.9
				c-1.1-0.9-1.9-1.9-1.2-3.5c0.2-0.3,1-0.2,0.5-0.9c0.2-1,0.6-1.9,0.3-2.8c-0.4-1.1-1.2-1.8-2.5-1.7c-1.2,0.1-2,0.8-1.9,2.1
				C190.7,23.1,190.8,24.9,188.3,24.5z"/>
			<path class="st43" d="M195,24.4c-1.2,1.6,0.2,2.5,1.1,3.7c-0.4,1.2-3.1,0.5-2.6,2.7c0.2,0.1,0.4,0.2,0.3,0.4
				c-0.1,0.2-0.1,0.2-0.1,0.2c-0.9,0.7,0.9,1.4-0.1,2.2c-1.2-1-2.3-1.9-3.5-2.9c0.5-0.5,1-1.1,1.6-1.8c-1.8-0.2-3.4-0.2-5-0.4
				c-1-0.2-1.7-0.7-0.1-1.3c0.7-0.4,1-1,1-1.7c0.1-0.3,0.3-0.6,0.4-0.9c1.2-0.3,2.2-1,1.7-2.2c-1.2-2.3,0-3.3,1.8-4
				c1.4-0.5,2.5,0.1,3.4,1c1.5,1.5,1.4,3.2,0,4.7C195.1,24.2,195.1,24.3,195,24.4L195,24.4z"/>
			<path class="st44" d="M175.2,37.1c0.5,2.1-0.2,3.8-2.5,4.4c-2.1,0.6-3.8,0-4.5-2.2c-0.7-2.3,0.2-4,2.5-4.7
				C172.8,34.1,174.5,34.8,175.2,37.1z"/>
			<path class="st45" d="M196.8,37.9c0.2,0,0.4-0.1,0.7-0.2c3.8-4.6,4.2-10.1,4-15.6c0-0.9-0.1-1.9-0.1-2.9c0.3-1.6-1.2-3.5,0.7-5
				c1.1,0.4,0.6,1.7,1.4,2.2c-0.1,0.1,0,0.3,0.1,0.4c-0.4,1.7,1,3.4,0.5,5.2c-0.3,3-0.6,6-0.9,8.9c-1.2,2.8-2.4,5.6-3.7,8.4
				c-0.3,0.8-0.8,1.9-2,0.7C197.3,39.6,197.1,38.8,196.8,37.9z"/>
			<path class="st46" d="M170,31.1c-0.6,0-1.2,0.1-1.6-0.4c-0.7-3.4-2.6-7,0-10.5c1,0.2,2-0.3,3,0.3c-0.1,0.8,0.4,0.3,0.7,0.3
				c1.1,0.9,1.6,2.3,0.4,3c-1.2,0.8,0,1.6-0.6,2.3c0.1,1.5,1.8,1.7,2.2,2.9C172.8,29.8,171.4,30.4,170,31.1z"/>
			<path class="st47" d="M202.3,14.6c-1.2,1.7,1.1,3.6-0.2,5.2c-0.3-0.1-0.6-0.4-0.8-0.6c-1-2.1-1.3-4.7-3.9-5.6
				c-0.5-0.2-0.8-0.4-1.3-0.6c-1.1-1-2.3-0.6-3.5-0.5c-2.7-0.2-4.6,1.2-6.3,3.3c-0.9,1-1.7,2.9-3.7,1.4c-0.7-3.4,1.5-5.2,4-6.8
				c6-5.2,10.8-4.3,15.4,2.9C202.4,13.6,202.6,13.9,202.3,14.6z"/>
			<path class="st48" d="M186.7,10.2c-1.3,2.3-3.5,3.9-4,6.7c-0.1,0.3-0.3,0.6-0.5,0.8c-1.2,0.7-2.2,1.1-2.7-0.7
				c-0.1-0.7,0.2-1.4,0.9-1.7c0.7-0.7,0.9-1.4,1-2.3c0-2.8-3.5-3.4-4-5.8c1.8-3.4,3.1,0.2,4.8,0.2c0.8,0.3,1,1,1.2,1.8
				C183.9,11.3,185.8,9.2,186.7,10.2z"/>
			<path class="st49" d="M182.2,17.1c0.2,0,0.4-0.2,0.5-0.2c1.5,0.6,1.9-0.7,2.7-1.5c1.9-2.2,3.9-4.3,7.3-3.8c1.2,0.4,2.7,0,3.8,0.5
				c0.2,0.1,0.6,0.4,0.8,0.5c2.4,1.5,3.5,3.8,4.5,6.3c0,0.2,0.1,0.5,0.2,0.7c-0.3,3.5,0.4,6.9-0.4,10.4c-0.7,2.7-1.5,5.4-2.8,8
				c-0.5,0.9-1.1,0.8-1.4-0.2c-0.4-1.7,0.8-2.7,1.5-3.9c3.2-5.9,2.6-14.3-1.6-18.6c-2.6-2.9-7.3-2.7-9.6,0.4c-1.5,2.2-3.6,4.2-4.2,7
				c-0.3-0.9-0.4-2.4-2.1-1.8C180.3,19.3,181.3,18.2,182.2,17.1z"/>
			<path class="st50" d="M171.8,26.2c-0.1-1.6-1.7-0.1-2.2-1.1c0.4-1.3,5-1,1.7-3.9l0,0c-0.5-1.1-2.1,0.9-2.5-0.9
				c0-0.2-0.1-0.3-0.1-0.5c1.5-5.1,5.3-6.2,10.2-3c0.3,0.1,0.6,0.4,0.8,0.6c0.7,2.3,0.8,4.5-1.9,5.8c-1.1,0.2-1.3,0.2-1.2,0.6
				c0.9,3.8-1.1,3.2-3.4,2.5C172.8,26.1,172.2,26.2,171.8,26.2z"/>
			<path class="st51" d="M177.8,23.2c1.2-1.8,1.6-3.9,1.6-6.1c0.1-0.3,0.3-0.4,0.6-0.1c0.6,1.8,1.5-0.1,2.3,0.2
				c0,1.2-1.1,2.4-0.6,3.8c0.1,1.2,1,2.4,0.2,3.8c-0.7-0.3-0.9-0.9-0.6-1.8c-0.7,0.9-0.1,2.3-1.5,2.4
				C179.1,24.5,178.5,23.8,177.8,23.2z"/>
			<path class="st52" d="M179.8,25.1c0.3-0.9,0.6-1.8,1-2.8c0.9,0.5,0.8,1.6,1.1,2.3c0,0.7,0.1,1.7-0.6,1.9
				C180.5,26.6,180.2,25.8,179.8,25.1z"/>
			<path class="st53" d="M187.9,25.3c0.3,0.4,0.9,0.8,0.5,1.5c-0.3,0.7-1,0.4-1.6,0.3C187.1,26.5,187.5,25.9,187.9,25.3z"/>
			<path class="st54" d="M177.7,7c1.1,1.1,2.2,2,3.3,3.1c0.8,0.8,1.7,1.8,0.5,3c-6.9-5.4-14.3-4.5-16.2,4.7c-0.4,2.1-1.5,0.9-2.4,1
				c-1.6-1.1-0.6-2.3-0.3-3.4c0.5-2,1.1-3.9,1.8-5.7c2.4-3.3,5.4-5.4,9.7-4.7C175.5,5.1,176.9,5.6,177.7,7z"/>
			<path class="st55" d="M180,17l-0.3,0.1l-0.3,0.1c-0.3,0.1-0.6,0.1-0.9,0.1c-1.5-1.4-2.6-3.6-5.2-2.8c-2.7,0.9-4.3,2.9-4.4,5.8
				c-1.5,3-1.5,6,0.3,9c0.6,1,0,1.2-0.8,1.5c-3-4.2-3-13.2,0.1-16.7c2.8-3.1,9.1-3.2,11.7,1.3C180.3,15.9,180.1,16.4,180,17z"/>
			<path class="st56" d="M193.7,31.4c0-0.2-0.1-0.5-0.2-0.7c0.5-0.3,1-1.2,1.7-0.7c0.5,0.2,0.6,0.8,0.3,1.2
				C195.1,31.9,194.3,31.3,193.7,31.4z"/>
			<path class="st57" d="M195,24.4c0.7-0.1,1.4,0,1.5,0.9c0,0.2-0.3,0.7-0.6,0.6C195.2,25.8,195.3,25,195,24.4L195,24.4z"/>
			<path class="st58" d="M192.5,21.9c-0.5,0-1-0.2-1.1-0.7c-0.2-1,0.4-1.2,1.2-1.4c0.6-0.1,0.9,0.2,0.8,0.7
				C193.5,21.2,193.2,21.8,192.5,21.9z"/>
			<path class="st59" d="M191.7,27.2c-0.4,0.1-0.8,0.1-0.7-0.4c0-0.4,0.2-1,0.4-1.2c0.4-0.3,0.8,0,1,0.6S192.3,27.1,191.7,27.2z"/>
			<path class="st60" d="M171.3,21.1c0,0.6,0.6,1.4-0.2,1.9c-0.1,0-0.5,0-0.6-0.2C170.2,22.1,170.8,21.6,171.3,21.1
				C171.4,21.2,171.3,21.1,171.3,21.1z"/>
			<path class="st61" d="M165,10.1c-1-1.5-2,2.3-3-0.1c1.1-4.3,3.4-7.7,8-8.6c5.5-1.1,8.9,2.2,12,6c-1.5,0.9-2.8-2.3-4.5-0.4
				C171.7,4.5,170.1,4.8,165,10.1z"/>
			<path class="st45" d="M201.9,19.1c-1.5-2.1-3-4.2-4.5-6.3C201,13.4,201.2,16.3,201.9,19.1z"/>
			<path class="st45" d="M196.6,12.2c-1.4,0.3-2.7,0.3-3.8-0.5C194.1,11.3,195.5,10.7,196.6,12.2z"/>
			<path class="st46" d="M168.9,20.2c-0.1-3.4,1.8-6.7,4.3-6.8s4.6,1.1,5.3,3.8c-0.2,0.1-0.4,0.4-0.5,0.3
				C173.9,14.6,171.2,15.4,168.9,20.2z"/>
			<path class="st62" d="M175,18.9c-0.1,0.6-0.2,1.2-0.9,1.3c-0.6,0-0.8-0.4-0.8-0.9c0-0.6,0.1-1.3,0.8-1.2
				C174.6,18,174.9,18.4,175,18.9z"/>
			<path class="st63" d="M175.8,24.8c0.1,0.5,0.1,0.9-0.4,0.8c-0.3,0-0.6-0.4-0.7-0.5c-0.2-0.4,0-0.7,0.5-0.6
				C175.4,24.2,175.7,24.6,175.8,24.8z"/>
		</g>
	</g>
	<g>
		<path class="st21" d="M194.2,64c-12.1-1-24.1-2-36.2-3c-0.4-4.3,1.3-7.8,4.2-10.7c8-7.8,21.3-7.3,28.8,1.1c2.5,2.8,3.8,6.2,3.8,10
			C194.8,62.3,194.9,63.3,194.2,64z"/>
		<path class="st64" d="M194.2,64c0.4-3.5,0-6.9-1.9-10c-2.7-4.4-6.8-6.9-11.8-8.2c-6.5-1.8-14.8,0.8-19,6c-1.9,2.4-3,5.1-3.1,8.2
			c0,0.4-0.1,0.7-0.3,1c-1.4,0.1-1.9-0.5-1.7-2c1.1-7.6,5.8-12.1,12.8-14.4c9.5-3.1,19.9,0.5,24.9,8.7c1.7,2.8,2.4,5.8,2.2,9.1
			C196.2,63.9,195.6,64.4,194.2,64z"/>
	</g>
	<g>
		<path class="st65" d="M52.4,49.8c1.7,0,2.9-0.8,4.2-1.9c2.5-2.2,6.7-1.2,8,1.9c0.6,1.4,1.3,2.5,2.8,3c0.2,0.1,0.4,0.4,0.6,0.6
			c-0.3,0.7-0.4,1.3-0.2,2c0.6,2.1,0.6,4.1-1.1,5.9c-0.9,1-1.5,2.3-2.7,3.1c-3.6,2.6-7.2,2.2-10.8,0.2c-1.3-0.7-2-2-2.6-3.2
			c-0.5,0.1-0.4,0.9-1.1,0.8c-0.1-1.1,0.2-2.1,0.2-3.2c0-0.2,0.1-0.4,0.1-0.5C48.6,55,50.8,52.5,52.4,49.8z"/>
		<path class="st66" d="M52.4,49.8c0.4,1.2-0.5,2-1,2.7c-1.1,1.5-1.8,2.9-1.2,4.8c0.4,1.5-0.7,3-0.4,4.8c0.2-0.8,0.4-1.4,0.6-2.1
			c0.8,0.5,0.6,1.4,1,2c1.6,2.4,3.8,3.5,6.6,3.7c3.1,0.2,5.7-0.9,7.6-3.5c1.7-2.3,3.2-4.7,1.4-7.7c-0.3-0.5,0.3-1.1,1-1.2
			c2.4,2.4,2.4,6.1-0.1,8.7c-0.7,0.1-1.3,0.6-1.7,1.2c-0.2,0.7-0.3,1.3-0.5,2c-1.8,3.7-5.4,4.1-8.4,2.2c-0.4-0.2-0.8-0.3-1.3-0.3
			c-4.1,0.3-5.5-0.7-6.9-4.7c0.2-1.6-0.1-3-0.8-4.6C46.8,54.6,49,50.7,52.4,49.8z"/>
		<path class="st67" d="M49.1,62.5c1.1,2,2.1,4.2,4.8,4.2c1.9,0,3.5,0.4,5.3,1.1c2.9,1.2,4.9-0.4,6.6-2.5c-1.2,3.6-5,5-8.2,2.9
			c-0.7-0.4-1.3-0.6-2.1-0.4C52,68.3,49.3,66,49.1,62.5z"/>
		<path class="st68" d="M66.2,63.3c0.3-0.8,0.6-1.5,1.7-1.2C67.4,62.7,66.8,63,66.2,63.3z"/>
		<path class="st69" d="M62.6,61.3c-3.8,3.1-7.1,2.2-9.2-2.3c-1.1-2.1,0-3.7,1.3-5.2c1.7-1.8,4.8-2,6.9-0.6c2.3,1.5,3.2,4.5,2.1,6.8
			C63.5,60.6,63.2,61.1,62.6,61.3z"/>
		<path class="st70" d="M62.6,61.3c1.9-3.6,1.3-6.2-1.5-7.9c-1.8-1.1-3.6-0.9-5.2,0.1c-1.6,0.9-2.7,2.5-2.5,4.5c0,0.3,0,0.7,0,1
			c-1.5-0.4-2.1-2.3-1.2-4.1c1-2,2.6-3.1,4.6-4.1c1.5-0.8,2.7-0.7,4-0.2c2,0.6,3.2,2.4,4.2,4c1.3,2,0.1,6.2-2.1,7.4
			C61.9,62.6,63.3,61.2,62.6,61.3z"/>
		<path class="st71" d="M61.4,58.5c-0.3,1.6-2,2.8-3.5,2.4c-1.7-0.4-2.8-2.1-2.4-3.7c0.4-1.5,2.1-2.7,3.6-2.4
			C60.9,55.3,61.8,56.6,61.4,58.5z"/>
	</g>
	<g>
		<path class="st72" d="M255.7,65.1c1.1,3.4,0,6.6-2.8,8.4c-2.9,1.8-6.2,1.4-9-1.2c-0.4-0.7,0.1-1.2,0.5-1.7c3.1-3.8,2.9-8,1.8-12.4
			c-0.2-0.9-0.2-1.6,0.4-2.3c3.2,0.1,4.2,3,6.1,4.7C254,61.8,254.7,63.5,255.7,65.1z"/>
		<path class="st70" d="M241.5,69.1c-1.2-1.1-2.3-2.2-3.5-3.2c-0.1-1.8,0.5-3.7,0.1-5.6c-0.1-0.5-0.2-1-0.4-1.5
			c-1.1-3.1-3.9-4-6.5-5c-1.8-0.7-3.3,0.7-4.5,2c-1.5,1.5-2.9,3.2-5.4,2.8c-1.8-1.5-1.5-2.8,0.1-4.4c2.4-2.3,5.1-4,8.3-4.7
			c2.2-0.3,4.5-0.2,6.5,0.9c0.9,1.2,1.7,2.2,3.4,2.6c1.2,0.3,1.8,1.8,2.6,2.8c2.3,3.3,2,7,1.5,10.6
			C243.6,67.6,242.9,68.7,241.5,69.1z"/>
		<path class="st73" d="M216.5,67.4c-2.8,1.5-5.5,1.2-7.9-0.8s-3.2-4.6-2.2-7.7c2.2-3.2,5.2-5.5,8.8-6.9c0.7-0.3,1.3-0.6,2.1-0.4
			c1.4,0.8,0.5,1.8,0.2,2.8c-1,2.8-2.5,5.5-2.4,8.6C215.3,64.7,215.6,66.1,216.5,67.4z"/>
		<path class="st65" d="M216.5,67.4c-1.8,0-2.1-1.1-2.1-2.6c-0.1-4,1.2-7.7,2.9-11.2c0.3-0.6,0.5-1.2,0.2-1.8
			c0.4-1.2,1.5-1.3,2.4-1.6c2.5-0.8,5.2-1.2,7.8-1.1c0.8,0.1,1.8-0.2,1.8,1c-2.9,0.9-5.5,2.4-7.7,4.5c-1.4,1.3-1.5,2.3-0.2,3.6
			c0.9,2.2-0.9,4.1-0.8,6.2C219.4,65.5,218,66.5,216.5,67.4z"/>
		<path class="st74" d="M220.9,64.5c-1.3-2.3,0.7-4.2,0.8-6.2c1.9-0.5,3.4-1.6,4.7-3.1c2.7-2.9,4.4-2.9,7.8-0.8
			c1.3,0.8,2.7,1.5,3.8,2.5c0.5,0.5,0.7,1,0.4,1.7c-0.2,1.1,0.3,2.1,0.1,3.2c-0.1,0.2-0.2,0.5-0.3,0.7c-1.2,0.5-1.5-0.8-2-1.3
			c-1.5-1.5-2.8-3.1-5.2-2.9c-0.8,1.5,1,3.2-0.2,4.6c-0.4,0-0.8-0.1-1.2-0.1c-0.7-0.4-1.5-0.2-2.2-0.1c-1.7,0.3-3-0.2-3.6-2
			c0.2,0.8,0.7,1.5,0.2,2.4C223,63.6,221.9,64.1,220.9,64.5z"/>
		<path class="st75" d="M241.5,69.1c3.4-3.5,1.9-12.1-1.5-15c-0.5-0.4-0.8-0.6-1.4-0.6c-1.6,0-2.4-0.9-2.4-2.5
			c3.2-0.5,9.1,2.5,10.2,5.1c0.8,2.4,0.9,4.8,1,7.3c0.1,3.6-1.5,6.3-3.6,8.8C242.7,71.5,242.2,70.2,241.5,69.1z"/>
		<path class="st76" d="M246.5,56.1c-2.8-2.8-6.5-4.1-10.2-5.1c-2.2-0.8-4.4-1.1-6.7-0.8c-4.3-1.2-8.2,0.3-12.2,1.7
			c-4.4,1.2-7.7,4.2-11,7.1c0.2-1.6,1.2-2.6,2.4-3.6c13.6-12.2,38.6-7.5,46.8,9c0.2,0.2,0.1,0.5,0.2,0.8c-2.3-2.5-4.1-5.6-6.9-7.7
			C248.1,56.9,247.6,56,246.5,56.1z"/>
		<path class="st77" d="M230.5,57.9c3-1.4,4.2,1.5,6,2.8c0.6,0.5,0.9,1.2,1.4,1.9c0.3,1.3,0,2.3-1.5,2.3c-1.3-0.5-2.6-1-3.9-1.5
			C231.3,61.7,230.7,59.9,230.5,57.9z"/>
		<path class="st78" d="M230.5,57.9c0.9,1.7,1.9,3.4,1.9,5.4c-0.6,0.1-1.2,0-1.7-0.4c-0.4-1.5-0.3-3-1-4.5
			C229.2,57.4,230,57.8,230.5,57.9z"/>
		<path class="st79" d="M224,63.2c-0.5-1.3-1.2-2.5-1.7-3.8c2.1,2.1,4.2,3.7,7.2,3.5C227.7,62.9,225.9,63.1,224,63.2z"/>
		<path class="st80" d="M236.3,64.9c1-0.5,1.2-1.5,1.5-2.3c0-0.2,0-0.4,0-0.5c0.8-0.5-0.5-2,1-2.2c-0.1,2.1,0.8,4.2-0.8,6.2
			C237.5,65.5,236.9,65.2,236.3,64.9z"/>
		<path class="st77" d="M238.9,59.8c-0.8,0.5-0.2,1.8-1,2.2c0.2-1.2-0.5-2.3,0.4-3.4C238.5,59,238.7,59.4,238.9,59.8z"/>
	</g>
	<g>
		<path class="st81" d="M95.6,41.4c-1.3-5.1-0.6-10.3-0.4-15.5c0.1-1.6,0.4-3.2,0.4-4.7c0.1-5.3,4.4-9.2,10.5-9.2
			c15.5,0,30.9,0,46.4,0c7.5,0,11.5,3.6,11.6,10.3c0,1.5,0,3,0,4.5c-1.9,5.1-4.9,7.2-11.1,7.3c-15.4,0.1-30.9,0.1-46.3,0
			c-4.4,0-8.2-1.1-10.1-4.7c0.4,2.8,0.2,6.2,0.2,9.5C96.7,39.8,96.6,40.7,95.6,41.4z"/>
		<path class="st82" d="M95.6,41.4c0-4.5,0-8.9,0-13.4c3.9,5.8,10.1,5.1,16.2,5.1c12.8-0.1,25.6-0.3,38.4,0.1
			c6.3,0.2,10.9-1.4,13.8-6.5c0,4.2,0.1,8.5,0,12.7c-0.1,5.5-4.4,9.5-10.6,9.5c-15.8,0.1-31.6,0.1-47.4,0
			C100.6,48.9,97.3,46.4,95.6,41.4z"/>
		<path class="st83" d="M116,23.4c-0.5-0.3-1-0.5-1.5-0.8c-3.9-2-3.9-3.6,0-6c0.3,0.1,0.6,0.3,0.7,0.6c-0.9,0.9-2.7,1.3-2.1,2.9
			c0.5,1.4,1.9,1.7,3.3,2.1c4.9,1.2,9.9,0.5,14.9,0.6c3.4,0.1,6.9,0,10.3,0c0.7-0.2,1.5-0.6,1.6,0.6c-1.4,0.4-3-0.2-4.4,0.7
			c-6.9,0.8-13.8,0.2-20.7,0.3C117.3,24.4,116.6,23.8,116,23.4z"/>
		<path class="st84" d="M115.2,17.1c-0.2-0.2-0.5-0.4-0.7-0.6c1.7-0.9,3.6-1.4,5.6-1.5c1-0.7,2.3-0.6,3.4-0.6c6.2,0,12.3,0,18.5,0
			c1.2,0,2.4-0.1,3.4,0.5c1.8,0,3.4,0.6,4.9,1.5c0.1,0.5,0,0.9-0.7,0.5c-3.4-1.3-7-1.4-10.6-1.3C131.2,16.2,123.1,14.7,115.2,17.1z"
			/>
		<path class="st82" d="M113,28.5c11.2,0,22.5,0,33.7,0c0.8-0.3,0.9,0,0.7,0.6c-0.2,0.1-0.4,0.1-0.6,0.2c-0.8,0.5-1.8,0.6-2.8,0.6
			c-9.5,0-18.9,0-28.4,0c-1,0-1.9,0-2.8-0.6c-0.2,0-0.4-0.1-0.6-0.2C112.2,28.6,112.3,28.2,113,28.5z"/>
		<path class="st85" d="M146.8,29.8c-0.5,0.6-1.2,0.7-1.9,0.7c-10.4,0-20.8,0-31.2,0c-0.2,0-0.5,0-0.6-0.1s0-0.3-0.1-0.5
			c4.7-0.7,9.5-0.3,14.2-0.3C133.8,29.6,140.3,29.2,146.8,29.8z"/>
		<path class="st86" d="M146.8,29.8c-11.3,0-22.5,0-33.8,0c0-0.2,0-0.4-0.1-0.6c11.3,0,22.6,0,33.9,0
			C146.8,29.5,146.8,29.6,146.8,29.8z"/>
		<path class="st87" d="M145.4,20.8c-1.7-0.3-3.3-1.3-5.1-1.1c-0.8,0.3-1.7,0.2-2.5,0c-4.4-0.3-8.7,0-13.1-0.1
			c-1.3,0-2.6,0.2-3.7-0.7c2.2-1.3,4.6-0.6,6.9-0.6c4.8,0,9.7-0.5,14.5,0.6c1.1,0.3,2.4,0.3,3,1.4c0.2,0.1,0.3,0.2,0.2,0.3
			C145.6,20.7,145.5,20.8,145.4,20.8z"/>
		<path class="st88" d="M116,23.4c3.1,1.2,6.4,0.5,9.5,0.6c4.4,0.1,8.9,0,13.3,0.1c0.7,0,1.4,0.1,2.1,0.1c0,0.2,0,0.3,0,0.5
			c-7.9,0-15.7,0-23.6-0.1C116.9,24.6,115.5,24.6,116,23.4z"/>
		<path class="st89" d="M120.3,14.5c-0.1,0-0.3,0-0.3-0.1c-0.2-0.1-0.3-0.2-0.4-0.4c0.2-0.1,0.4-0.2,0.5-0.2c8.3,0,16.6,0,25,0
			c0.1,0,0.3,0.1,0.3,0.1c0,0.2,0,0.4,0,0.5C137,15,128.6,15,120.3,14.5z"/>
		<path class="st90" d="M120.3,14.5c8.4,0,16.7,0,25.1,0c0,0.2,0.1,0.4,0.1,0.5c-8.5,0-16.9,0-25.4,0
			C120.2,14.9,120.2,14.7,120.3,14.5z"/>
		<path class="st85" d="M138.2,19.5c0.7,0.1,1.4,0.1,2.1,0.2c-6.5,0.8-12.9,1.1-19.4-0.1C126.7,19.1,132.5,19.2,138.2,19.5z"/>
		<path class="st91" d="M138.2,19.5c-5.8,0-11.5,0-17.3,0.1c0-0.2,0-0.4,0.1-0.7c4.6,0,9.2,0,13.9,0.1C136,19,137.2,18.7,138.2,19.5
			z"/>
		<path class="st92" d="M149.7,17.1c0.2-0.2,0.5-0.4,0.7-0.5c3.5,1.9,5.5,4.4,4.2,8.2c-0.6,0.1-1,0-0.6-0.7
			C154.5,20.7,152.3,18.8,149.7,17.1z"/>
		<path class="st93" d="M154,24c0.2,0.2,0.4,0.5,0.6,0.7c-1.4,2.6-3.9,4-7.1,4.4c-0.2-0.2-0.5-0.4-0.7-0.6
			C149.7,27.7,152.4,26.6,154,24z"/>
		<path class="st94" d="M105.9,25.3c-1.3-2.2-1.2-4.5,0-7.6c0.8,2.9-0.7,5,0.7,6.9C106.9,25.3,106.5,25.4,105.9,25.3z"/>
		<path class="st95" d="M106.9,12.8c0.5,1.4,0.6,2.4-0.6,3.7C105.6,15,106,14,106.9,12.8z"/>
		<path class="st96" d="M113,28.5c-0.2,0.2-0.5,0.4-0.7,0.6c-1.4,0-2.5-0.7-3.6-1.3c-0.1-0.6,0-0.9,0.7-0.6
			C110.6,27.7,111.8,28.1,113,28.5z"/>
		<path class="st97" d="M109.4,27.3c-0.2,0.2-0.5,0.4-0.7,0.6c-1.3-0.6-2.2-1.4-2.8-2.6c0.2-0.2,0.5-0.4,0.7-0.7
			C107.5,25.5,108.5,26.4,109.4,27.3z"/>
		<path class="st98" d="M143.2,23.3c-0.5-0.2-1-0.4-1.6-0.6c1.3-0.4,2.5-0.8,3.8-1.2c0.3,0.1,0.5,0.3,0.6,0.6
			C145.4,23.1,144.2,23,143.2,23.3z"/>
		<path class="st99" d="M146.1,22.1c-0.2-0.2-0.4-0.4-0.6-0.6c0-0.3,0-0.5,0-0.8c0-0.2,0-0.3,0-0.5
			C146.8,20.6,147.3,21.1,146.1,22.1z"/>
	</g>
	<g>
		<path class="st100" d="M24.8,34.3c0.7-8.8,6.1-14.5,13.1-18.6c9.9-5.8,21-7.5,32.2-6.6c10.3,0.9,20.3,3.6,28.1,11
			c3.4,3.2,6.1,7,6.6,11.9c-0.5,3.9-2.5,6.9-5.4,9.4c-2.6,2.2-5.4,4-8.1,6c-1,0.7-2.1,1.2-3.3,0.6c-0.2-0.4-0.4-0.9-0.2-1.4
			c2.8-7.4-0.8-13.6-3.5-20c-0.7-1.1-1.8-1.8-3-2.3c-0.3-0.1-0.6-0.3-0.8-0.4c-1-0.6-2-0.9-3.1-1.3c-0.3-0.1-0.6-0.3-0.9-0.5
			c-2-1.4-4.3-2-6.3-3.2c-4.4-2.6-8.3-2.1-11.8,1.2c-3.4,3.2-3.8,6.1-1.5,11c0.3,0.6,0.6,1.3,1,1.9c0.5,0.9,1.1,1.7,1.2,2.8
			c-0.1,1.4-1.4,1.6-2.7,2.4c1.5-0.6,2.5-1.2,3.8-0.8c0.5,0.2,0.9,0.5,1.3,0.8c2.5,3.5,5.5,6.6,7.2,10.5c0.4,1,0.9,2,0.3,3.1
			c-1.3,1.7-3.2,1.5-5,1.4c-11.9-0.7-23-3.3-32.4-11.1C28.8,39.8,27.6,36.4,24.8,34.3z"/>
		<path class="st101" d="M24.8,34.3c0.7-0.3,1.1-1.9,2-0.1c5.5,10.5,15.4,14.3,26,16.6c3.2,0.7,6.5,1.1,9.8,1.4
			c2,0.2,4.1,0.6,5.9-0.6c0.7,0.4,0.8,1.1,0.9,1.8c-0.8,2.6,0.5,4.7,1.5,7c-10.8,1-21.2-0.5-30.8-5.4C31.7,50.8,24.8,44.9,24.8,34.3
			z"/>
		<path class="st102" d="M88.1,47.9c7.1-3.7,13.5-8.1,16.7-15.9c2.2,9.8-3.8,16.3-11.4,21.2c-6.6,4.3-14,6.1-21.7,6.9
			c0.7-3.9,3.7-6,7-7C82.2,51.9,85.5,50.6,88.1,47.9z"/>
		<path class="st103" d="M88.1,47.9c-1,2.8-3,4.5-5.9,5c-4.7,0.7-7.9,3.5-10.5,7.2c-0.3,0.1-0.5,0.1-0.8,0.2
			c-2.6-1.6-3.2-3.9-2.2-6.7c0.6-0.9-0.2-2.8,2.3-2c5.6,1.8,12.1-2.1,13.5-7.9c1-4.3,0.7-8.7-0.5-12.8c-1-3.3-4.6-4.1-7.2-5.4
			c-5-2.4-10.5-0.7-14,3.7c-0.4,0.5-0.8,0.9-1.5,0.9c-1.5-0.5-1.9-1.7-1.7-3.1c1.4-2.9,4-4,6.8-4.7c3.6-1,7.3-1.2,11-0.5l0,0
			c1.1,0.8,2.4,0.9,3.6,1.5l0,0c1.1,0.9,2.3,1.7,3.7,2.2C88.4,32.6,91.8,39.7,88.1,47.9z"/>
		<path class="st104" d="M61.5,30c1.6-4.7,9.5-7.3,14.5-5.6c2.9,0.9,5.1,2.8,7.6,4.1c2.5,1.3,1.8,4.8,2.1,7.2c0.8,5.6,0,11-4.7,15.2
			c-1.4,1.2-2.3,2.2-4.1,1.3c-0.9-0.5-1.7-0.2-2.3,0.5c-1.2,1.4-2.5,1.5-3.7,0.2c-1.7-1.9-1.6,0.4-2.4,0.9c-0.1-0.7-0.1-1.4-0.2-2.1
			c-0.2-0.9-0.4-1.9-0.6-2.8c0.5-1.9,2-0.9,3.1-1c4.1,0,7.2-1.6,9.3-5.1c2.3-4,1.2-8.1-3-11.7c-2.7-2.3-7.2-2.2-10.3,0.1
			c-1.3,1-2.3,2.5-4.1,2.8c-0.4,0-0.7-0.2-1-0.4C61.3,32.4,60.5,31.3,61.5,30z"/>
		<path class="st105" d="M62.2,33.6c1.6-0.4,2.6-1.6,3.7-2.7c3-3.1,6.9-3.3,10.2-1.7c3.3,1.6,6.3,4.2,6.3,8.7c0,4.3-1.9,7.3-5.6,9.5
			c-2.9,1.8-5.9,0.8-8.9,1.3c-2.4-3.4-4.7-6.8-7.1-10.2c0.3-0.9,1-1.2,1.8-1.5c2.1-1.3,0.1-1.8-0.5-2.6C62,34.2,62,33.9,62.2,33.6z"
			/>
		<path class="st106" d="M77.4,22c-2.3,0.6-4.6,0.6-6.9,0.7c-4,0.2-7.5,1.6-10.4,4.5c-1.8-1.7-2-3.2-0.5-5.2
			c1.9-2.4,4.5-2.8,6.1-2.7c-6.8,0.2-8.9,3.5-6.5,12.2c-0.1,1.2-0.3,2.3-1.9,2.2c-3.8-6.2-3.9-9-0.4-13.3c2.9-3.6,7.3-5,11.5-3.1
			C71.5,18.5,74.8,19.6,77.4,22z"/>
		<path class="st104" d="M57.3,33.5c0.9-0.4,1.3-1.1,1.3-2.1c1.9-0.4,2.7,1,3.6,2.2l0,0c0,0.2,0,0.5,0,0.7c0.9,1.1,1.3,2.2,0.7,3.6
			c-0.7,0.2-1.4,0.5-2.1,0.7c-0.3-0.2-0.6-0.5-0.8-0.7c-0.9-0.4-1.1-1.3-1.4-2.1C58.2,35,57.7,34.3,57.3,33.5z"/>
		<path class="st107" d="M38.1,24.3c1.3-2.8,3.7-3.3,6.5-3.1C42.3,22,40.2,23.2,38.1,24.3z"/>
		<path class="st108" d="M96.3,31c-1.7-1-3.6-1.1-5.4-1.5C93.1,28.3,94.9,29,96.3,31z"/>
		<path class="st109" d="M58.6,35.8c0.5,0.7,1,1.4,1.4,2.1c-2.1-0.6-3.5,1.3-5.6,1.9C55.1,37.2,57.9,37.7,58.6,35.8z"/>
		<path class="st106" d="M84.6,25.6c-2.5,1.4-2.5-1.3-3.7-2.2C82.4,23.7,83.8,24.1,84.6,25.6z"/>
		<path class="st110" d="M70.5,16.2c1.5-0.7,2.9-1.1,4.7,0.6C73.3,16.6,71.9,16,70.5,16.2z"/>
		<path class="st106" d="M81,23.5c-1.4,0.1-2.7-0.2-3.6-1.5C78.8,21.8,80,22.4,81,23.5z"/>
		<path class="st111" d="M62.2,33.6c-1.2-0.7-2.4-1.4-3.6-2.2c-1.8-3.1-2.3-6.3-0.2-9.5s6.4-4.7,10.1-3.4c0.7,0.2,1.5,0.6,1.2,1.5
			c-0.2,0.6-1,0.7-1.5,0.5c-1.9-0.8-3.7-0.7-5.6,0.1c-3.1,1.3-3.8,3-2.6,6.5c0.1,1.1,0.5,2.1,1.4,2.9C61.7,31.2,62,32.4,62.2,33.6z"
			/>
		<path class="st112" d="M66.5,38.2c0-2.7,2.5-5.3,5-5.4c2.6-0.1,6.3,2.7,6.4,4.7c0.1,2.5-3.2,6.5-5.5,6.6
			C69.6,44.3,66.5,41.2,66.5,38.2z"/>
		<path class="st113" d="M62.9,37.9c-0.7-1.1-0.8-2.3-0.7-3.6c1.4-0.2,2.3,0.4,2.6,1.7C65.1,37.4,64,37.7,62.9,37.9z"/>
	</g>
	<g>
		<path class="st65" d="M26.5,50.6c1.8-1.2,2.7-2.8,3.4-4.9c1.4-4.1,6.6-5.7,10.2-3.2c1.6,1.2,3.1,1.9,5.1,1.5
			c0.3-0.1,0.7,0.2,1.1,0.3c0.1,0.9,0.4,1.7,1.1,2.4c2,2,3.3,4.2,2.7,7.3c-0.4,1.7-0.2,3.5-0.9,5.3c-2.3,5.3-6.5,7.1-11.9,7.3
			c-1.9,0.1-3.5-0.9-5-1.9c-0.4,0.4,0.1,1.2-0.7,1.6c-0.8-1.1-1.1-2.5-1.9-3.6c-0.1-0.2-0.1-0.5-0.2-0.6
			C25.7,58.9,26.5,54.6,26.5,50.6z"/>
		<path class="st66" d="M26.5,50.6c1.3,1,0.7,2.6,0.6,3.7c-0.2,2.4-0.1,4.3,1.8,6.1c1.5,1.4,1.2,3.8,2.8,5.6
			c-0.3-1.1-0.5-1.8-0.7-2.7c1.3,0,1.6,1.1,2.5,1.6c3.3,1.6,6.6,1.3,9.8-0.3c3.6-1.8,5.8-4.8,6.1-8.8c0.3-3.7,0.4-7.3-3.5-9.5
			c-0.7-0.4-0.3-1.4,0.3-2c4.3,1.1,6.7,5.2,5.6,9.7c-0.7,0.6-1,1.4-1.1,2.4c0.2,0.8,0.5,1.7,0.7,2.5c0.4,5.3-3.3,8.1-7.9,8
			c-0.6,0-1.1,0.2-1.7,0.5c-4.4,3-6.6,2.8-10.7-0.7c-0.8-2-2.1-3.3-3.9-4.6C23.4,59.6,23.2,53.8,26.5,50.6z"/>
		<path class="st67" d="M31.1,66.8c2.5,1.6,5.1,3.3,8.1,1.5c2.1-1.2,4.2-1.9,6.5-2.2c4-0.6,5.2-3.6,5.6-7.1c1,4.8-2.3,8.8-7.1,8.6
			c-1.1,0-1.8,0.2-2.6,0.9C38.1,71.4,33.7,70.6,31.1,66.8z"/>
		<path class="st68" d="M50.6,56.5c-0.2-1.1-0.3-2,1.1-2.4C51.7,55,51.2,55.8,50.6,56.5z"/>
		<path class="st69" d="M45.4,56.7c-2.2,5.9-6.4,7.1-11.8,3.5c-2.6-1.6-2.5-4.1-1.9-6.6c0.7-3.1,4-5.4,7.3-5.2
			c3.5,0.2,6.5,2.9,6.8,6.2C45.9,55.3,45.9,56,45.4,56.7z"/>
		<path class="st70" d="M45.4,56.7c-0.3-5.2-2.6-7.8-6.9-7.8c-2.7,0-4.6,1.4-5.7,3.5c-1.2,2.1-1.3,4.5,0.2,6.7
			c0.3,0.4,0.4,0.8,0.7,1.2c-1.9,0.6-3.8-1.1-4-3.7c-0.2-2.9,0.9-5.2,2.4-7.6c1.2-1.9,2.5-2.5,4.3-2.9c2.7-0.6,5.1,0.6,7.3,1.7
			c2.7,1.3,4.1,6.8,2.5,9.6C45.5,58.5,46.1,56.1,45.4,56.7z"/>
		<path class="st71" d="M42.2,54.4c0.7,2-0.4,4.4-2.2,5c-2.1,0.7-4.5-0.5-5.1-2.5c-0.6-1.9,0.6-4.4,2.4-5C39.5,51,41.4,52,42.2,54.4
			z"/>
	</g>
	<g>
		<path class="st72" d="M230,64.8c0.9,3,0,5.8-2.5,7.3c-2.6,1.6-5.4,1.2-7.9-1c-0.3-0.6,0.1-1.1,0.4-1.5c2.7-3.3,2.6-7,1.5-10.8
			c-0.2-0.8-0.1-1.4,0.3-2c2.8,0.1,3.6,2.6,5.3,4.1C228.4,61.9,229.1,63.4,230,64.8z"/>
		<path class="st70" d="M217.5,68.3c-1-0.9-2-1.9-3-2.8c-0.1-1.6,0.4-3.2,0.1-4.9c-0.1-0.5-0.2-0.9-0.3-1.3
			c-0.9-2.7-3.4-3.5-5.7-4.4c-1.5-0.6-2.9,0.6-4,1.7c-1.3,1.3-2.6,2.8-4.7,2.5c-1.5-1.3-1.3-2.5,0.1-3.8c2.1-2,4.4-3.5,7.3-4.1
			c2-0.3,3.9-0.1,5.7,0.8c0.8,1,1.5,2,3,2.3c1.1,0.3,1.6,1.5,2.3,2.4c2,2.9,1.7,6.1,1.3,9.3C219.4,67,218.8,67.9,217.5,68.3z"/>
		<path class="st73" d="M195.7,66.8c-2.5,1.3-4.8,1.1-6.9-0.7c-2.1-1.7-2.8-4-1.9-6.7c2-2.8,4.6-4.8,7.7-6.1
			c0.6-0.3,1.1-0.5,1.8-0.3c1.2,0.7,0.5,1.6,0.2,2.5c-0.9,2.5-2.2,4.8-2.1,7.5C194.6,64.4,194.9,65.6,195.7,66.8z"/>
		<path class="st65" d="M195.7,66.8c-1.6,0-1.8-0.9-1.8-2.3c-0.1-3.5,1-6.7,2.6-9.8c0.3-0.5,0.5-1,0.1-1.5c0.3-1,1.3-1.1,2.1-1.4
			c2.2-0.7,4.5-1.1,6.9-0.9c0.7,0.1,1.5-0.2,1.6,0.9c-2.6,0.8-4.8,2.1-6.7,4c-1.2,1.1-1.3,2-0.2,3.2c0.8,2-0.8,3.6-0.7,5.4
			C198.2,65.1,197,66,195.7,66.8z"/>
		<path class="st74" d="M199.5,64.3c-1.1-2,0.6-3.6,0.7-5.4c1.7-0.4,3-1.4,4.1-2.7c2.4-2.6,3.8-2.6,6.8-0.7c1.1,0.7,2.4,1.3,3.3,2.2
			c0.5,0.5,0.6,0.9,0.3,1.5c-0.2,0.9,0.3,1.8,0.1,2.8c-0.1,0.2-0.1,0.4-0.3,0.6c-1.1,0.4-1.3-0.7-1.7-1.1c-1.3-1.3-2.5-2.7-4.5-2.6
			c-0.7,1.3,0.9,2.8-0.1,4c-0.3,0-0.7-0.1-1-0.1c-0.6-0.3-1.3-0.2-1.9-0.1c-1.5,0.3-2.6-0.1-3.2-1.7c0.2,0.7,0.6,1.3,0.2,2.1
			C201.3,63.5,200.4,63.9,199.5,64.3z"/>
		<path class="st75" d="M217.5,68.3c3-3,1.7-10.6-1.3-13.1c-0.4-0.3-0.7-0.5-1.2-0.5c-1.4,0-2.1-0.8-2.1-2.2
			c2.8-0.4,7.9,2.2,8.9,4.4c0.7,2.1,0.8,4.2,0.9,6.4c0.1,3.2-1.3,5.5-3.2,7.7C218.6,70.3,218.2,69.2,217.5,68.3z"/>
		<path class="st76" d="M221.9,56.9c-2.5-2.4-5.7-3.6-8.9-4.4c-1.9-0.7-3.8-0.9-5.9-0.7c-3.8-1.1-7.1,0.3-10.6,1.5
			c-3.8,1-6.7,3.6-9.6,6.2c0.2-1.4,1.1-2.3,2.1-3.2c11.9-10.7,33.8-6.5,40.9,7.9c0.1,0.2,0.1,0.5,0.1,0.7c-2-2.2-3.6-4.9-6.1-6.7
			C223.3,57.6,222.9,56.8,221.9,56.9z"/>
		<path class="st77" d="M207.9,58.5c2.6-1.2,3.7,1.3,5.2,2.4c0.5,0.4,0.8,1.1,1.2,1.7c0.3,1.1,0,2-1.3,2c-1.1-0.5-2.3-0.9-3.4-1.3
			C208.6,61.8,208.1,60.2,207.9,58.5z"/>
		<path class="st78" d="M207.9,58.5c0.8,1.5,1.7,3,1.7,4.7c-0.5,0.1-1.1,0-1.5-0.3c-0.3-1.3-0.3-2.6-0.9-3.9
			C206.8,58,207.5,58.4,207.9,58.5z"/>
		<path class="st79" d="M202.3,63.1c-0.5-1.1-1-2.2-1.5-3.4c1.8,1.8,3.7,3.2,6.3,3.1C205.5,62.9,203.9,63,202.3,63.1z"/>
		<path class="st80" d="M213,64.6c0.9-0.4,1-1.3,1.3-2c0-0.1,0-0.3,0-0.5c0.7-0.5-0.5-1.7,0.9-2c-0.1,1.8,0.7,3.7-0.7,5.4
			C214.1,65.2,213.5,64.8,213,64.6z"/>
		<path class="st77" d="M215.3,60.1c-0.7,0.5-0.1,1.5-0.9,2c0.1-1-0.5-2,0.3-3C214.9,59.4,215.1,59.8,215.3,60.1z"/>
	</g>
</g>
<g>
	<g>
		<path class="st114" d="M178.9,38.4c-2.5,1.3-3.1-0.6-3.9-2.2c1-0.9,2.1-1.8,3.1-2.7c1.4,0.2,1.6,1.2,1.6,2.3
			C179.5,36.7,179.2,37.6,178.9,38.4z"/>
		<g>
			<path class="st115" d="M171.2,50.5c-0.3,3.1-2.8,4.7-4.6,6.6c-4.9,1.1-9.3,3.6-13.6,6c-3.8,2.2-8,2.8-12.1,2.5
				c-7.5-0.5-14.9-2-21.5-5.9c-2.7-1.6-4.2-4.2-5.6-6.8c-0.1-4,2.7-7,6.7-8c6.2-1.4,12.1,0.3,17.9,1.5c6.3,1.3,12.2,1.1,18-1.2
				c4.2-1.7,8.3-1.4,12.5-1c0.8-0.2,1.4,0.1,2,0.6c0.3,0.2,0.5,0.5,0.8,0.8C172.8,47.4,172.4,49,171.2,50.5z"/>
			<path class="st116" d="M113.8,53c0.4,0.2,1.1,0.2,1.3,0.5c3.7,7,10.6,8.6,17.5,10c3.7,0.8,7.4,1.4,11.3,1.2
				c4.7-0.2,8.5-2.4,12.5-4.5c3.2-1.6,6.2-4.3,10.3-3.2c-4.8,5.3-11,8.3-17.8,10.1c-7.3,1.9-14.6,2.3-21.9,0.5
				c-6.1-1.5-10.6-5-13-11C113.4,55.5,113.1,54.3,113.8,53z"/>
			<path class="st117" d="M182.1,47.3c-0.5,0.7-1,1.2-1.9,1.3c-3.1-0.8-5.9-2.1-6.2-5.8c-0.1-0.8-0.4-1.4-1.1-1.7
				c-2.9-1.4-1-2.4,0.2-3.5c0.5-0.6,1-1.2,1.9-1.3c1.1,1,2.5,1.6,3.9,2.2c0.3,1.5-1.3,2.8-0.6,4.3C179.2,44.6,182.2,44.7,182.1,47.3
				z"/>
			<path class="st118" d="M173.2,37.5c-0.5,1-2.3,2.3,0.6,2.6c0.5,0.1,1.5,1.1,1.4,1.4c-1.3,4.5,3.2,4.8,5,7.1
				c-0.5,0.7-1.2,0.9-2,1.1c-4.1-1.3-5.7-5.1-8.2-8C170.4,39.8,171.5,38.4,173.2,37.5z"/>
			<path class="st119" d="M170,41.6c1.4,0.3,2.6,0.6,3,2.5c0.6,2.7,4.1,3,5.2,5.5c-0.6,0.4-1.2,0.6-1.9,0.4c-2-0.9-3.4-2.6-5.1-3.9
				c-0.2-0.2-0.4-0.3-0.6-0.5c0-1.2-0.9-2.2-1-3.4C169.7,42,169.8,41.8,170,41.6z"/>
			<path class="st120" d="M182.1,47.3c-1.4-1.1-2.7-2.3-4.1-3.4c-1-0.7,0-0.8,0.3-1.1c1.4,0.1,2.9,0.3,4.3,0.4
				c0.6,0.8,1.8,1,1.8,2.2C183.9,46.3,183.1,46.9,182.1,47.3z"/>
			<path class="st121" d="M171.2,46.1c2.4,0.3,3.9,1.9,5.1,3.9c-1.6,0.8-3.5-0.7-5.1,0.5C171.5,49,172,47.6,171.2,46.1z"/>
			<path class="st121" d="M169.7,42.2c1.2,0.9,2.5,1.7,1,3.4c-0.6-0.4-1.2-0.9-1.8-1.3C169.1,43.6,169.4,42.9,169.7,42.2z"/>
			<path class="st122" d="M184.4,45.4c-0.7-0.7-1.8-1-1.8-2.2c1.1,0,2.5-0.5,3.2,0.5C186.3,44.4,185,44.9,184.4,45.4z"/>
		</g>
	</g>
	<g>
		<path class="st75" d="M257.2,41.2c-2.7,0-4.9-1.2-7.1-2.7c-0.3-0.2-0.9-1.7-1.5-0.1c-1.3,0.1-0.9-1.6-2.1-1.8
			c-1.5-0.2-3-0.7-4.4,0.3c-1.3-0.8-1-2.3-1.3-3.6c-1.2,0-2.2,1.3-3.5,0.7c-1.7-1.2-1.8-3.6-3.5-4.8c-0.1-0.1-0.3-0.3-0.4-0.4
			c-1.9-1.5-2.3-3.8-2.7-5.9c-0.2-0.9-0.9-1.7-0.6-2.7c1.7,1.3,3.5,0.9,5.3,0.4c0.6,0.2,0.6,0.8,0.7,1.2c1.6,7.8,8.2,12,16.9,9.8
			c0.6-0.1,1.2-0.6,1.8-0.3c0.6,1.8,1.2,3.6,3.2,4.3c-2,0.3-3.6,1.4-5.4,2.1c-1.2,0.5-2.2-0.1-3.1-0.7c1.9,0.9,3.9,1.8,5.8,2.6
			C256.1,40.1,257,40.2,257.2,41.2z"/>
		<path class="st75" d="M244,7.1c2.3-4.6,7.3-6.7,12.2-5.1c1.2,0.8,2.5,1.4,3.8,2.1c5.2,4.3,4.8,13.3-0.7,16.5
			c-0.2-0.5-0.1-0.9,0.1-1.4c0.7-1.3,1.5-2.6,0.8-4.2c-0.2-0.4-0.1-1,0.3-1.4c0-0.1,0.5-0.1,0.2-0.2c-2-1-3.4-2.8-5.1-4.1
			c-2.9-2.2-6.1-2.6-9.5-1.4c-1.2,0.4-1.5,1.6-2.2,2.5c-0.4,0.4-0.7,1-1.4,0.6c0.1-0.2,0.2-0.4,0.3-0.6C242.7,9.2,243.8,8.3,244,7.1
			z"/>
		<path class="st74" d="M259.9,19.4c-0.2,0.4-0.4,0.8-0.6,1.2c-0.5,0.5-0.2,1.7-1.3,1.7c-1.7,1.9-2.9,4.2-3.5,6.7
			c-0.1,0.5-0.3,0.8-0.8,0.9c-2.1,0.3-4.1,1.1-6.2,0.8c-4.6-0.7-7.3-3.7-8.9-7.9c-0.4-1-0.9-1.9-1.1-3c2.8-2.2,3.7-5.6,4.9-8.7
			c0.6,0,0.7-0.5,1-0.9c0.9,0.4,1.6,0.3,2.4-0.3c0.9-0.6,1.5-0.4,1.6,0.7c0.1,0.9,0.8,1.5,1,2.4c-0.5,0.9-1.4,0.9-2.2,1.2
			c-3.3,1.2-4.7,4.3-3.5,7.7c1.9,5,7.1,6.3,11.1,2.8c1.1-0.9,1.5-2.2,1.5-3.7c0-1.3-0.2-2.6,0.6-3.8c0.4-0.5,1-0.7,1.5-1
			c1.7-0.7,2-0.5,2,1.2C259.3,18.1,259,18.9,259.9,19.4z"/>
		<path class="st123" d="M237.4,19.7c1,0.7,1.3,1.8,1.6,3c1.1,4.8,6.6,8,11.4,7.1c0.6-0.1,1.2-0.1,1.7-0.4s2.6,0.9,1.4-1.3
			c2.2-1.4,2.1-4.6,4.5-5.9c-1.7,2.9-3.5,5.7-2.9,9.3c-3.9,1.6-7.9,2-11.9,0.2c-4.7-2.2-6.9-6.1-7.6-11
			C236.1,20.4,236.8,20,237.4,19.7z"/>
		<path class="st72" d="M230.2,20.2c1.6,1,1,2.8,1.5,4.2c0.6,1.5,1.1,3,2.2,4.2c-4.4-0.1-9-4.2-9.9-8.9c-0.1-0.4-0.2-0.7-0.2-1.1
			c0-1.3,0.1-2.6,1.4-3.1c1.4-0.5,2.2,0.6,3,1.6C228.9,18.2,229.5,19.2,230.2,20.2z"/>
		<path class="st72" d="M257.2,41.2c-2.8-1.1-5.7-2.3-8.1-4.3c2.5,1.5,4.5,0.5,6.3-1.2c1-1,1.9,0.5,2.8,0.1c1.4,0,2.7,0,4.1,0.1
			c1.1,0.1,2.3,0.4,2.5,1.6c0.2,1.2-0.6,2-1.6,2.6C261.3,41.2,259.4,41.7,257.2,41.2z"/>
		<path class="st64" d="M237.7,33.8c1.3,0.1,2.3-0.9,3.6-1.3c0.5,1.4,0,3,1,4.2c0.2,0.1,0.4,0.1,0.6,0.3c1.6,2.4,3.6,4.2,6.5,4.7
			c-0.7,1.3-1.6,1.6-3.2,0.8c-2.8-1.4-4.8-3.5-5.4-6.6c-0.3-1.7-0.8-1.6-2.2-1.2c-3.2,1-6.3,0.5-8.9-1.6c-1-0.8-2-2-0.2-3.1
			C231.3,33.6,234.7,33.2,237.7,33.8z"/>
		<path class="st124" d="M249.4,41.7c-3.1,0.2-5.3-1.3-7.1-5c0.7-0.3,0.8-2.1,1.8-1.3c1.2,1,3.7-0.5,4,2.1c0,0.3,0.4,0.6,0.6,0.8
			C249.2,39.5,249.9,40.5,249.4,41.7z"/>
		<path class="st125" d="M237.7,33.8c-2.1,0.6-4.1,0-6.1-0.7c-1.2-0.5-2.2-1.4-2.1-3c0.9-0.7,1.9-0.6,2.9-0.9
			c0.6-0.3,1.2-0.4,1.8-0.4C236.1,30.1,236.1,32.4,237.7,33.8z"/>
		<path class="st126" d="M234.3,28.9c-0.5,0.4-1.1,0.6-1.8,0.4c-1.7-1.2-3.8-1.8-5.3-3.5c-1.6-1.7-3.3-3.5-3.1-6.1
			c1.8,4.7,5.1,7.6,9.9,8.9C234,28.7,234.1,28.8,234.3,28.9z"/>
		<path class="st127" d="M259.9,4.1c-1.6-0.2-2.8-0.8-3.8-2.1C257.7,2.3,258.9,2.9,259.9,4.1z"/>
		<path class="st70" d="M244,7.1c0.1,1.4-0.9,2.2-1.5,3.3C242.6,9.1,243.3,8.1,244,7.1z"/>
		<path class="st70" d="M259.9,19.4c-1.6,0.1-1.4-0.9-1.1-1.9c0.2-0.5-0.1-0.9-0.2-1.4c-0.3,0.2-0.7,0.3-1,0.5
			c-0.2-1.2-0.3-2.5-2-2.5c-2-0.6-3.9-1.6-6-1.8c-0.1-0.3-0.1-0.6-0.1-0.8c0.1-1.5-0.5-1.9-1.8-1c-0.2,0.2-0.5,0.2-0.8,0.2
			c-0.1-0.8-0.3-0.7-1-0.3s-1.9,1.7-2.6-0.2c1.7-3.1,4.2-3.6,7.9-3.2c4.4,0.5,6.3,4.1,9.5,6.1C260.3,15.1,262,17.5,259.9,19.4z"/>
		<path class="st128" d="M249.6,12.2c1.5-0.7,2.7,0.1,4,0.7c0.7,0.3,1.4,0.5,2.2,0.8c-0.5,1.3-0.5,2.5,0.3,3.6
			c-0.6,0.9-0.5,1.9-0.5,2.9c0.1,4.2-3.5,7.4-7.8,6.9c-3.7-0.5-6.1-3.1-6.5-7.1c-0.2-2.3,2-6.2,5.4-6.6c0.5-0.1,0.9-0.3,1.4-0.5
			C248.3,12,248.9,12,249.6,12.2z"/>
		<path class="st129" d="M256.1,17.3c-1.8-1.3-1.9-2.2-0.3-3.6c2.3,0.2,2.5,0.6,1.8,2.9C257,16.8,256.6,17,256.1,17.3z"/>
		<path class="st130" d="M249.6,12.2c-0.5,0.2-1,0.5-1.5,0.7c-1-0.4-1.3-1.2-1.3-2.2c0.7-0.8,1.4-1.7,2.5-1.1
			C250.6,10.3,250,11.3,249.6,12.2z"/>
		<path class="st131" d="M251.8,17.9c0.8,2.2,0.7,4-1.9,5.1c-1.6,0.6-3.7,0.5-4.3-0.7c-1-2-0.4-4.6,1.4-5.4c0.6-0.3,1.2-0.5,1.8-0.7
			C249.9,16.5,250.9,17,251.8,17.9z"/>
		<path class="st132" d="M251.8,17.9c-1.3,0-2.3-0.6-3-1.7c0-1,0.3-1.7,1.4-1.8c1.1-0.1,2,0.4,2.5,1.4
			C253.1,16.7,252.7,17.4,251.8,17.9z"/>
		<path class="st133" d="M251.3,15.1c0.7,0.5,1,1,0.6,1.7c-0.4,0.6-1,0.6-1.5,0.2c-0.6-0.4-1-0.9-0.5-1.6
			C250.2,14.8,250.8,14.9,251.3,15.1z"/>
	</g>
	<g>
		<path class="st75" d="M234.6,33.2c-2.1,1-4.3,1-6.5,0.6c-0.3-0.1-1.3-1-1.2,0.5c-1,0.6-1.3-0.9-2.3-0.6c-1.3,0.4-2.6,0.6-3.3,1.9
			c-1.4-0.1-1.6-1.4-2.4-2.3c-0.9,0.5-1.2,1.9-2.5,1.9c-1.8-0.3-2.8-2.1-4.6-2.4c-0.2-0.1-0.3-0.1-0.5-0.2c-2.1-0.4-3.3-2.1-4.4-3.6
			c-0.5-0.6-1.4-1-1.5-1.8c1.8,0.4,3-0.7,4.3-1.7c0.5-0.1,0.8,0.4,1,0.7c4.2,5.5,11,6.2,17,1.2c0.4-0.3,0.7-0.9,1.3-0.9
			c1.1,1.1,2.3,2.3,4.1,2.1c-1.4,1-2.3,2.4-3.4,3.7c-0.8,0.9-1.7,0.8-2.7,0.7c1.8,0,3.7-0.1,5.5-0.2
			C233.4,32.8,234.1,32.6,234.6,33.2z"/>
		<path class="st75" d="M211.2,11.8c0-4.5,3.1-8,7.5-8.6c1.2,0.1,2.5,0.2,3.7,0.2c5.7,1.4,8.8,8.5,5.8,13.1
			c-0.3-0.3-0.4-0.7-0.4-1.1c0.1-1.3,0.2-2.6-1-3.6c-0.3-0.3-0.4-0.7-0.3-1.2c0-0.1,0.3-0.2,0-0.2c-1.9,0-3.7-0.8-5.6-1.2
			c-3.1-0.6-5.7,0.3-8,2.5c-0.8,0.8-0.6,1.9-0.7,2.8c-0.1,0.5-0.1,1.1-0.9,1c0-0.2,0-0.4,0-0.6C211.1,13.9,211.6,12.8,211.2,11.8z"
			/>
		<path class="st74" d="M228.3,15.2c0,0.4,0,0.8,0,1.2c-0.2,0.6,0.5,1.4-0.4,1.8c-0.6,2.2-0.6,4.4-0.2,6.6c0.1,0.5,0,0.7-0.3,1
			c-1.5,1.1-2.8,2.4-4.5,3c-3.8,1.2-7.2-0.1-10-2.7c-0.7-0.6-1.4-1.2-2-1.9c1.3-2.8,0.7-5.7,0.4-8.6c0.4-0.3,0.4-0.7,0.4-1.1
			c0.8,0,1.4-0.4,1.8-1.1c0.5-0.8,1-0.9,1.5-0.1c0.4,0.7,1.2,0.9,1.7,1.5c0,0.9-0.7,1.3-1.3,1.8c-2.1,2.3-2,5.2,0.2,7.3
			c3.4,3.1,8,2.2,9.7-2.1c0.5-1.1,0.4-2.3-0.2-3.4c-0.5-1-1.2-1.9-1-3.2c0.1-0.5,0.5-0.9,0.8-1.4c1-1.2,1.4-1.1,2,0.1
			C227.4,14.4,227.4,15.2,228.3,15.2z"/>
		<path class="st123" d="M211,24.2c1.1,0.2,1.7,0.9,2.4,1.7c2.7,3.3,8.2,3.7,11.6,1.1c0.4-0.3,0.9-0.6,1.1-0.9
			c0.3-0.4,2.4-0.3,0.6-1.5c1.2-2-0.1-4.4,1.2-6.3c-0.2,2.9-0.5,5.8,1.3,8.3c-2.4,2.8-5.4,4.6-9.2,4.7c-4.5,0.1-7.7-2.1-10.1-5.7
			C210.2,25.1,210.6,24.6,211,24.2z"/>
		<path class="st72" d="M205.6,27.3c1.6,0.1,1.8,1.8,2.8,2.7c1,1,2,1.9,3.4,2.4c-3.4,1.6-8.6,0.2-11.1-3.1c-0.2-0.3-0.4-0.5-0.5-0.8
			c-0.5-1-0.9-2.1-0.1-3c0.9-0.9,2-0.4,2.9,0.1C203.8,26.2,204.7,26.8,205.6,27.3z"/>
		<path class="st72" d="M234.6,33.2c-2.6,0.2-5.3,0.4-8-0.2c2.5,0.2,3.7-1.3,4.4-3.3c0.4-1.1,1.6-0.3,2.2-1c1.1-0.5,2.1-1,3.2-1.5
			c0.9-0.4,1.9-0.6,2.6,0.3c0.6,0.9,0.3,1.8-0.2,2.6C237.9,31.7,236.5,32.8,234.6,33.2z"/>
		<path class="st64" d="M216.6,35c1.1-0.5,1.5-1.6,2.3-2.4c0.9,0.9,1.2,2.3,2.4,2.9c0.2,0,0.4-0.1,0.6,0c2.2,1.2,4.4,1.9,6.9,1.1
			c0,1.3-0.6,1.9-2.2,1.9c-2.7,0-5.1-0.9-6.7-3c-0.9-1.2-1.3-1-2.2-0.1c-2.1,2-4.7,2.8-7.5,2.2c-1.1-0.2-2.3-0.8-1.3-2.3
			C211.5,37.3,214,35.6,216.6,35z"/>
		<path class="st124" d="M228.8,36.7c-2.3,1.4-4.6,1-7.4-1.2c0.4-0.5-0.2-1.9,0.9-1.7c1.3,0.3,2.7-1.8,3.9,0.1
			c0.1,0.2,0.5,0.3,0.8,0.4C227.7,35,228.7,35.5,228.8,36.7z"/>
		<path class="st125" d="M216.6,35c-1.4,1.3-3.2,1.6-5,1.8c-1.1,0.1-2.2-0.3-2.7-1.5c0.4-0.9,1.3-1.2,1.9-1.8c0.3-0.5,0.8-0.7,1.2-1
			C213.9,32.7,214.9,34.5,216.6,35z"/>
		<path class="st126" d="M212.1,32.5c-0.3,0.5-0.6,0.9-1.2,1c-1.8-0.3-3.7,0-5.5-0.6c-1.9-0.7-3.9-1.4-4.8-3.6
			c3.2,3,6.9,3.9,11.1,3.1C211.8,32.5,211.9,32.5,212.1,32.5z"/>
		<path class="st127" d="M222.5,3.3c-1.3,0.5-2.5,0.4-3.7-0.2C220,2.8,221.3,2.8,222.5,3.3z"/>
		<path class="st70" d="M211.2,11.8c0.7,1,0.1,2.1,0.2,3.2C211,13.9,211.1,12.8,211.2,11.8z"/>
		<path class="st70" d="M228.3,15.2c-1.2,0.7-1.5-0.1-1.6-1.1c-0.1-0.5-0.5-0.7-0.7-1c-0.2,0.3-0.4,0.5-0.6,0.8
			c-0.6-0.9-1.2-1.9-2.5-1.2c-1.8,0.3-3.6,0.2-5.4,0.9c-0.2-0.2-0.3-0.4-0.4-0.6c-0.5-1.2-1.1-1.3-1.7-0.1c-0.1,0.2-0.3,0.4-0.5,0.5
			c-0.4-0.6-0.5-0.5-0.9,0.1s-0.8,2-2.1,0.9c0.1-3.1,1.9-4.4,4.9-5.5c3.6-1.3,6.5,0.8,9.8,1.1C227,11.8,229.2,13,228.3,15.2z"/>
		<path class="st128" d="M217.6,13.6c0.9-1.1,2.1-1,3.4-1c0.7,0,1.3-0.1,2-0.2c0.1,1.2,0.6,2.1,1.6,2.7c-0.1,0.9,0.3,1.7,0.7,2.5
			c1.7,3.3,0.1,7.1-3.4,8.3c-3.1,1-6-0.1-7.8-3c-1-1.7-0.8-5.6,1.7-7.2c0.4-0.2,0.6-0.6,0.9-0.9C216.5,13.9,217,13.7,217.6,13.6z"/>
		<path class="st129" d="M224.6,15c-1.9-0.3-2.3-1-1.6-2.7c1.9-0.7,2.2-0.5,2.5,1.6C225.1,14.3,224.9,14.7,224.6,15z"/>
		<path class="st130" d="M217.6,13.6c-0.3,0.4-0.6,0.7-0.9,1.1c-0.9,0.1-1.5-0.4-1.9-1.2c0.2-0.9,0.4-1.9,1.6-1.8
			C217.6,11.7,217.5,12.7,217.6,13.6z"/>
		<path class="st131" d="M221.5,17.2c1.4,1.4,2.1,2.9,0.5,4.7c-1,1.1-2.7,1.8-3.6,1.1c-1.6-1.2-2-3.4-1-4.7c0.3-0.4,0.8-0.8,1.1-1.2
			C219.5,16.8,220.5,16.9,221.5,17.2z"/>
		<path class="st132" d="M221.5,17.2c-1,0.5-2,0.4-3-0.1c-0.4-0.7-0.4-1.5,0.4-1.9c0.8-0.5,1.7-0.4,2.4,0.1
			C222,15.8,221.9,16.5,221.5,17.2z"/>
		<path class="st133" d="M220,15.2c0.7,0.1,1.2,0.4,1.1,1.1c-0.1,0.6-0.5,0.8-1.1,0.8s-1.1-0.3-1-1C219,15.4,219.5,15.2,220,15.2z"
			/>
	</g>
	<g>
		<path class="st115" d="M82.5,52.9c0.3-5.5,4.1-7.7,8.7-9c1.9-0.6,3.9-0.9,5.9-1.4c1.4,0,2.4,0.5,2.7,1.8c0.8,3.4,3.3,5.1,6.1,6.6
			c3.2,2,5.4,4.8,7,8.1c-0.1,0.7-0.6,1.1-1.2,1.2c-7.5,1.1-14.9,2-22.2-0.7C86.3,58.2,83.5,56.5,82.5,52.9z"/>
		<path class="st134" d="M111.4,41.4c4.9-1.3,9.1-4,13.2-6.9c2.8-1.9,6.2-1.9,9.4-2.5c1.8-0.6,3,0.3,4,1.6c0.9,1.3,0.1,2.5-0.1,3.8
			c0.5,3-1.5,5.2-2.8,7.5c-5.1,2.4-8.4,6.8-12.7,10.2c-1,0.8-2,1.7-3.2,2.2c-0.8,0.3-1.7,0.5-2-0.7c-0.1-1.8,0.9-3.2,1.4-4.8
			c0.9-3.9-1.4-6.1-4.2-8.1C113.3,43,111.9,42.8,111.4,41.4z"/>
		<path class="st116" d="M117.5,57.1c3.5-1.3,5.9-4,8.6-6.5c2-1.9,4.2-3.5,6.4-5.2c0.8-0.6,1.7-0.9,2.7-0.4
			c-3.2,6.5-8.5,10.9-14.6,14.4c-6.5,3.8-13.5,5.9-21.1,6.3C92,66,82,60.3,82.5,52.9c4.9,6.8,12.3,7.5,19.7,7.5
			c3.5,0,7-0.7,10.5-1.1C114.3,58.5,115.4,56.8,117.5,57.1z"/>
		<path class="st81" d="M111.4,41.4c3.7,1,6.6,3,8.1,6.7c0.5,1.3,1,2.4,0.2,3.7c-3.7,4.3-5.9,4.7-10.6,1.8c-1.1-0.7-2.4-1-3.3-2
			c-3.2-1.6-6.6-2.9-6.6-7.4c0-1.2-1.2-1.3-2-1.8c0.6-0.1,1.4,0.1,1.6-0.2C102.7,37.5,107,39.4,111.4,41.4z"/>
		<path class="st135" d="M144.9,34.2c-0.4,0.3-0.9,0.6-1.3,1c-3.7-0.7-6.8-2.6-9.4-5.4c-0.1-2.2,0.5-4.1,2.2-5.6
			c0.7,0.7,0.3,1.8,1,2.6C138.8,30.3,143.4,30.7,144.9,34.2z"/>
		<path class="st136" d="M137.9,22.5c1-1.2,1.6-3.5,3.3-3c1.8,0.5,0.9,2.9,1.1,4.4c0.1,0.7-0.1,1.4-0.2,2.1c0.1,0.3,0.1,0.9-0.1,1
			C140,27.5,137.4,24.7,137.9,22.5z"/>
		<path class="st137" d="M134.2,29.8c3.1,1.8,6.2,3.6,9.4,5.4c-0.7,0.7-1.5,0.9-2.5,0.8c-1.1-0.6-2.7-0.2-3.4-1.6
			c-0.9-1.3-2.4-1.7-3.7-2.3C134.1,31.3,134.1,30.5,134.2,29.8z"/>
		<path class="st138" d="M137.9,22.5c0.4,2.4,2.3,2.9,4.2,3.5c0.4,0.6-0.1,1.6,0.7,2c-0.1,0.6-0.6,0.8-1.1,0.9
			c-0.7,0.1-1.4,0.1-2-0.2c-1.2-0.7-2.2-1.5-3.7-1.3c-0.7-1.2,0.3-2.1,0.4-3.2C136.7,23.5,137.1,22.8,137.9,22.5z"/>
		<path class="st139" d="M136,27.4c1.7-0.7,2.8,0.7,4.3,1c0.9,1.1,2.2,1.3,3.4,1.9s2.4,1.1,2.4,2.8c-0.2,0.6-0.6,1-1.2,1.1
			c-0.8-1.1-2.1-1.4-3.1-2.2c-1.2-0.8-4.5,0.2-3.1-3.2C138.7,28.7,136.9,27.9,136,27.4z"/>
		<path class="st140" d="M146.1,33.1c-0.9-1.3-2.5-1.7-3.8-2.4c-1-0.5-2.4-0.6-2-2.4c0.5,0,1.1,0,1.6-0.1c2,0.9,4.5,0.7,5.6,3.1
			C147.3,32.2,146.8,32.7,146.1,33.1z"/>
		<path class="st141" d="M147.6,31.4c-1.8-1.1-4.3-1-5.6-3.1c0.3-0.1,0.6-0.2,0.8-0.3c0.5-0.1,1.1-0.2,1.6-0.4
			c1.4,0.9,3.5,0.8,3.5,3.2C147.9,31.1,147.8,31.3,147.6,31.4z"/>
		<path class="st142" d="M147.9,30.8c-0.7-1.5-3-1.4-3.5-3.2c0.8-0.2,1.7-0.3,2.5-0.5c0.9,0.5,1.7,0.9,2.3,1.8
			C149.1,29.8,148.7,30.4,147.9,30.8z"/>
		<path class="st143" d="M137.7,34.4c0.9,1,3-0.4,3.4,1.6c-0.9,0.8-2.5,0.2-3.2,1.4C137.8,36.4,137.8,35.4,137.7,34.4z"/>
		<path class="st144" d="M149.2,29c-1.4,0.2-2-0.6-2.3-1.8c1-0.5,2.1-0.6,2.9,0C150.3,27.5,149.7,28.4,149.2,29z"/>
		<path class="st145" d="M105.7,51.6c0.8,0.3,1.6,0.5,2.3,0.9c4.1,2.3,8,2.7,11.6-0.7c-0.7,1.8-1.5,3.6-2.2,5.4
			c-1.5,0.9-2.6,2.7-4.7,2C110,57,108.8,53.4,105.7,51.6z"/>
	</g>
</g>
<g class="st146">
	<path class="st147" d="M301.4,165H14.9c-7.1,0-12.8-4.3-12.8-9.5v-23c0-5.3,5.8-9.5,12.8-9.5h286.6c7.1,0,12.8,4.3,12.8,9.5v23
		C314.3,160.7,308.5,165,301.4,165z"/>
	<path class="st147" d="M310.2,165H8.5c-3.4,0-6.1-2-6.1-4.5v-33c0-2.5,2.7-4.5,6.1-4.5h301.7c3.4,0,6.1,2,6.1,4.5v33
		C316.3,163,313.6,165,310.2,165z"/>
	<g>
		<path class="st147" d="M45.1,98.9c1.2-11.7,2.5-23.4,4-35.1c0.6-4.6,1.1-9.1,1.7-13.7c0.1-1.1,0.3-2.4,0.5-3.6c0-0.8,0-1.6,0-2.2
			c1-14.7,0.8-29.3,1.6-43.8H36.3c-7.5,0-15,7.9-16.7,17.5L0.3,125.7c-1.7,9.6,3,17.5,10.4,17.5h32.4
			C42.4,128.4,43.6,113.4,45.1,98.9z"/>
		<path class="st147" d="M319.4,125.7L300.1,18c-1.7-9.6-9.2-17.5-16.7-17.5H34.9c-10,31.1-14,64-18.1,97.1
			c-0.6,4.9-2.2,9.1-4.5,12.7l2.8,15.4c1.7,9.6,9.2,17.5,16.7,17.5H309C316.4,143.1,321.1,135.3,319.4,125.7z"/>
	</g>
</g>
</svg>
