<?xml version="1.0" encoding="utf-8"?>
<!-- Generator: Adobe Illustrator 22.1.0, SVG Export Plug-In . SVG Version: 6.00 Build 0)  -->
<svg version="1.1" id="圖層_1" xmlns="http://www.w3.org/2000/svg" xmlns:xlink="http://www.w3.org/1999/xlink" x="0px" y="0px"
	 viewBox="0 0 188 235" style="enable-background:new 0 0 188 235;" xml:space="preserve">
<style type="text/css">
	.st0{fill:none;stroke:#40220F;stroke-width:6;stroke-linecap:round;stroke-linejoin:round;stroke-miterlimit:10;}
	.st1{fill:#FAE345;stroke:#40220F;stroke-width:7;stroke-miterlimit:10;}
	.st2{fill:none;stroke:#40220F;stroke-width:5;stroke-linecap:round;stroke-linejoin:round;stroke-miterlimit:10;}
	.st3{fill:#40220F;}
	.st4{fill:#FAE345;stroke:#40220F;stroke-width:6;stroke-linecap:round;stroke-linejoin:round;stroke-miterlimit:10;}
	.st5{fill:#B97233;stroke:#40220F;stroke-width:5;stroke-linecap:round;stroke-linejoin:round;stroke-miterlimit:10;}
	.st6{fill:none;stroke:#40220F;stroke-width:7;stroke-linecap:round;stroke-linejoin:round;stroke-miterlimit:10;}
	.st7{fill:#FAE345;stroke:#40220F;stroke-width:5;stroke-linecap:round;stroke-linejoin:round;stroke-miterlimit:10;}
	.st8{fill:#C1272D;stroke:#40220F;stroke-width:7;stroke-linecap:round;stroke-linejoin:round;stroke-miterlimit:10;}
	.st9{fill:#FFFFFF;stroke:#42210B;stroke-width:2;stroke-miterlimit:10;}
</style>
<g>
	<g>
		<g>
			<polyline class="st0" points="143.5,201 170.9,213.1 168.3,231.5 			"/>
			<polyline class="st0" points="158.1,231.8 170.9,213.1 155.4,221.5 			"/>
		</g>
		<path class="st1" d="M86.1,47c49.1,0,79.7,38.5,95.7,99.7s-64,78.5-91,78.5S4.8,210.7,4.8,148.7S37,47,86.1,47z"/>
		<g>
			<polyline class="st0" points="43.8,199.6 27.3,224.6 9.6,219 			"/>
			<polyline class="st0" points="11,208.8 27.3,224.6 21.6,207.9 			"/>
		</g>
		<line class="st0" x1="103.7" y1="83.3" x2="83.4" y2="86.6"/>
		<line class="st2" x1="49.1" y1="89" x2="28.7" y2="90.5"/>
		<circle class="st3" cx="87.5" cy="92" r="5.3"/>
		<circle class="st3" cx="36.8" cy="95.3" r="5.3"/>
		<path class="st4" d="M21.8,130.1c0,0,37.8,11.9,43.8,22c6.1,10.4-21.7,9.7-21.7,9.7s11.5,0.8,13.8,8.8c1.8,6.1-18.9,5.3-18.9,5.3
			s8.8,0.4,6.5,6.1c-2.3,5.7-17.5,1.8-17.5,1.8"/>
		<g>
			<path class="st2" d="M23.8,124.8l23.3-11.3c2-1,4.4-0.4,5.7,1.5l28,39.5c1.7,2.4,0.7,5.7-1.9,6.8l-23.6,10
				c-1.9,0.8-4.2,0.2-5.4-1.5l-27.7-38.2C20.4,129.3,21.3,126,23.8,124.8z"/>
			<path class="st5" d="M23.1,127.4l23.3-11.3c2-1,4.4-0.4,5.7,1.5l28,39.5c1.7,2.4,0.7,5.7-1.9,6.8l-23.6,10
				c-1.9,0.8-4.2,0.2-5.4-1.5l-27.7-38.2C19.7,131.9,20.5,128.6,23.1,127.4z"/>
		</g>
		<circle class="st2" cx="91.3" cy="88.2" r="20.6"/>
		<circle class="st2" cx="39" cy="89.2" r="16.3"/>
		<path class="st6" d="M70.9,84.9c0.2,0.4-15.9,1.3-15.9,1.3"/>
		<g>
			<path class="st7" d="M50.2,101.7c0,0,0-15.7,8.3-13.4s9.7,14.3,9.7,14.3L50.2,101.7z"/>
			<path class="st2" d="M67.8,107.7L53,109.6c0,0,2.8,9.7,9.7,8.8C69.6,117.4,67.8,107.7,67.8,107.7z"/>
			<polygon class="st3" points="68.9,102.4 69.4,107 54.7,108.4 53.8,101.9 			"/>
		</g>
		<path class="st4" d="M109.8,107.1c0,0-37.5,19.3-40.1,41c-2.6,21.6,35.3-0.3,35.3-0.3s-13.9,13.5-7.8,23.2
			c6.1,9.8,17.4,1.4,17.4,1.4s-9.3,16,4.6,17.3c13.9,1.3,19.3-4.7,19.3-4.7"/>
	</g>
	<path class="st8" d="M52,48.9c1-1-12.5-27.3,3.8-30.2c7.5-1.3,5.3,20.1,5.3,20.1S78.9,0,92.8,6.3c16.5,7.4-19.6,33.5-19.6,33.5
		s18.2-14.9,28.3-7.7S75,46.1,75,46.1s-3.4-2.9-9.1-1S52,48.9,52,48.9z"/>
	<path class="st9" d="M114.1,83.1c0,0,0.1,4.8,3.5,6.1c1.7,0.7,3.7,1.1,5.3,1.4c0.5,0.1,0.4,0.5,0,0.6c-2,0.3-4.7,1-5.8,2.9
		c-1.9,3.3-3,14.3-3,14.3h-0.1c0,0-1.2-11-3.1-14.3c-1.1-1.9-3.7-2.6-5.7-2.9c-0.5-0.1-0.5-0.5,0-0.6c1.6-0.3,3.6-0.7,5.2-1.4
		c3.4-1.3,3.6-6.1,3.6-6.1"/>
</g>
</svg>
