<?xml version="1.0" encoding="utf-8"?>
<!-- Generator: Adobe Illustrator 22.1.0, SVG Export Plug-In . SVG Version: 6.00 Build 0)  -->
<svg version="1.1" id="圖層_1" xmlns="http://www.w3.org/2000/svg" xmlns:xlink="http://www.w3.org/1999/xlink" x="0px" y="0px"
	 viewBox="0 0 640 1136" style="enable-background:new 0 0 640 1136;" xml:space="preserve">
<style type="text/css">
	.st0{fill:#E5603C;}
	.st1{fill:#FFFFFF;}
	.st2{fill:#C4C4C4;}
</style>
<g>
	<path class="st0" d="M555.6,1023H83.5c-40.6,0-73.5-29.6-73.5-66.2V66.2C10,29.6,42.9,0,83.5,0h472.1c40.6,0,73.5,29.6,73.5,66.2
		v890.6C629.1,993.3,596.2,1023,555.6,1023z"/>
	<path class="st1" d="M426.7,75H261.4c-3.8,0-7-3.2-7-7v-7.6c0-3.8,3.2-7,7-7h165.2c3.8,0,7,3.1,7,7V68
		C433.7,71.8,430.5,75,426.7,75z"/>
	<circle class="st1" cx="319" cy="959" r="33.1"/>
	<circle class="st1" cx="211.3" cy="65.2" r="10.8"/>
	<rect x="64.4" y="123.2" class="st1" width="506.6" height="773.4"/>
</g>
<path class="st2" d="M648.7-128.8"/>
</svg>
