<svg id="圖層_1" data-name="圖層 1" xmlns="http://www.w3.org/2000/svg" viewBox="0 0 217.42 158.16"><defs><style>.cls-1{fill:#f8fafb;}.cls-2{fill:#acb4bc;}</style></defs><title>tilde</title><path class="cls-1" d="M189,355.89c-24.67,0-49.33,0-74,.07-2.5,0-3.07-.57-3.06-3.07q.14-62,0-124c0-2.5.56-3.07,3.06-3.06q74,.13,148,0c2.5,0,3.07.56,3.06,3.06q-.14,62,0,124c0,2.5-.56,3.08-3.06,3.07C238.34,355.85,213.67,355.89,189,355.89Z" transform="translate(-111.94 -197.8)"/><path class="cls-2" d="M217.23,234.6c-.18-14.49,4.81-25.28,16.58-32.44,13.69-8.33,30.2-4.51,41.59,9.58,4.39,5.43,8.69,10.94,13,16.42,3.13,4,8.14,5.72,12.4,4.35s7.26-5.69,7.43-10.79c.11-3.16-.07-6.34.07-9.5.18-4.36,2.88-7.06,7.22-7.28,2.33-.12,4.67-.07,7,0,3.47.13,6.18,2.32,6.42,5.3.74,9.27,1,18.54-3.71,27.25-9,16.8-36.59,25.33-54.36,2.3q-6.4-8.3-13-16.46c-3.31-4.12-7.77-5.45-12.48-3.65s-7.2,5.15-7.14,10.29c0,3.33.16,6.68-.06,10-.27,4.2-2.47,6.87-6.91,7C220.35,247.14,216.51,247.93,217.23,234.6Z" transform="translate(-111.94 -197.8)"/></svg>