<?xml version="1.0" encoding="utf-8"?>
<!-- Generator: Adobe Illustrator 22.1.0, SVG Export Plug-In . SVG Version: 6.00 Build 0)  -->
<svg version="1.1" id="圖層_1" xmlns="http://www.w3.org/2000/svg" xmlns:xlink="http://www.w3.org/1999/xlink" x="0px" y="0px"
	 viewBox="0 0 640 1136" style="enable-background:new 0 0 640 1136;" xml:space="preserve">
<style type="text/css">
	.st0{fill:#C4C4C4;}
	.st1{fill:#FFFFFF;}
</style>
<g>
	<path class="st0" d="M555.6,1136H83.5c-40.6,0-73.5-32.9-73.5-73.5v-989C10,32.9,42.9,0,83.5,0h472.1c40.6,0,73.5,32.9,73.5,73.5
		v989C629.1,1103.1,596.2,1136,555.6,1136z"/>
	<path class="st1" d="M426.7,102H261.4c-3.8,0-7-3.2-7-7v-7.6c0-3.8,3.2-7,7-7h165.2c3.8,0,7,3.1,7,7V95
		C433.7,98.8,430.5,102,426.7,102z"/>
	<circle class="st1" cx="320.6" cy="1063.1" r="44.8"/>
	<circle class="st1" cx="211.3" cy="91.2" r="10.8"/>
	<rect x="59.4" y="149.9" class="st1" width="519.2" height="829.8"/>
</g>
</svg>
